  0
SECTION
  2
HEADER
  9
$ACADVER
  1
AC1014
  9
$HANDSEED
  5
FFFF
  9
$MEASUREMENT
 70
     1
  0
ENDSEC
  0
SECTION
  2
TABLES
  0
TABLE
  2
VPORT
  5
8
330
0
100
AcDbSymbolTable
 70
     4
  0
VPORT
  5
2E
330
8
100
AcDbSymbolTableRecord
100
AcDbViewportTableRecord
  2
*ACTIVE
 70
     0
 10
0.0
 20
0.0
 11
1.0
 21
1.0
 12
210.0
 22
148.5
 13
0.0
 23
0.0
 14
10.0
 24
10.0
 15
10.0
 25
10.0
 16
0.0
 26
0.0
 36
1.0
 17
0.0
 27
0.0
 37
0.0
 40
341.0
 41
1.24
 42
50.0
 43
0.0
 44
0.0
 50
0.0
 51
0.0
 71
     0
 72
   100
 73
     1
 74
     3
 75
     0
 76
     0
 77
     0
 78
     0
  0
ENDTAB
  0
TABLE
  2
LTYPE
  5
5
330
0
100
AcDbSymbolTable
 70
     1
  0
LTYPE
  5
14
330
5
100
AcDbSymbolTableRecord
100
AcDbLinetypeTableRecord
  2
BYBLOCK
 70
     0
  3

 72
    65
 73
     0
 40
0.0
  0
LTYPE
  5
15
330
5
100
AcDbSymbolTableRecord
100
AcDbLinetypeTableRecord
  2
BYLAYER
 70
     0
  3

 72
    65
 73
     0
 40
0.0
  0
LTYPE
  5
16
330
5
100
AcDbSymbolTableRecord
100
AcDbLinetypeTableRecord
  2
CONTINUOUS
 70
     0
  3
Solid line
 72
    65
 73
     0
 40
0.0
  0
ENDTAB
  0
TABLE
  2
LAYER
  5
2
100
AcDbSymbolTable
 70
2
  0
LAYER
  5
50
100
AcDbSymbolTableRecord
100
AcDbLayerTableRecord
  2
0
 70
0
  6
CONTINUOUS
  0
LAYER
  5
51
100
AcDbSymbolTableRecord
100
AcDbLayerTableRecord
  2
Layer_1
 70
0
  6
CONTINUOUS
  0
ENDTAB
  0
TABLE
  2
STYLE
  5
3
330
0
100
AcDbSymbolTable
 70
     1
  0
STYLE
  5
11
330
3
100
AcDbSymbolTableRecord
100
AcDbTextStyleTableRecord
  2
STANDARD
 70
     0
 40
0.0
 41
1.0
 50
0.0
 71
     0
 42
2.5
  3
txt
  4

  0
ENDTAB
  0
TABLE
  2
VIEW
  5
6
330
0
100
AcDbSymbolTable
 70
     0
  0
ENDTAB
  0
TABLE
  2
UCS
  5
7
330
0
100
AcDbSymbolTable
 70
     0
  0
ENDTAB
  0
TABLE
  2
APPID
  5
9
330
0
100
AcDbSymbolTable
 70
     2
  0
APPID
  5
12
330
9
100
AcDbSymbolTableRecord
100
AcDbRegAppTableRecord
  2
ACAD
 70
     0
  0
ENDTAB
  0
TABLE
  2
DIMSTYLE
  5
A
330
0
100
AcDbSymbolTable
 70
     1
  0
DIMSTYLE
105
27
330
A
100
AcDbSymbolTableRecord
100
AcDbDimStyleTableRecord
  2
ISO-25
 70
     0
  3

  4

  5

  6

  7

 40
1.0
 41
2.5
 42
0.625
 43
3.75
 44
1.25
 45
0.0
 46
0.0
 47
0.0
 48
0.0
140
2.5
141
2.5
142
0.0
143
0.03937007874016
144
1.0
145
0.0
146
1.0
147
0.625
 71
     0
 72
     0
 73
     0
 74
     0
 75
     0
 76
     0
 77
     1
 78
     8
170
     0
171
     3
172
     1
173
     0
174
     0
175
     0
176
     0
177
     0
178
     0
270
     2
271
     2
272
     2
273
     2
274
     3
340
11
275
     0
280
     0
281
     0
282
     0
283
     0
284
     8
285
     0
286
     0
287
     3
288
     0
  0
ENDTAB
  0
TABLE
  2
BLOCK_RECORD
  5
1
330
0
100
AcDbSymbolTable
 70
     1
  0
BLOCK_RECORD
  5
1F
330
1
100
AcDbSymbolTableRecord
100
AcDbBlockTableRecord
  2
*MODEL_SPACE
  0
BLOCK_RECORD
  5
1B
330
1
100
AcDbSymbolTableRecord
100
AcDbBlockTableRecord
  2
*PAPER_SPACE
  0
ENDTAB
  0
ENDSEC
  0
SECTION
  2
BLOCKS
  0
BLOCK
  5
20
330
1F
100
AcDbEntity
  8
0
100
AcDbBlockBegin
  2
*MODEL_SPACE
 70
     0
 10
0.0
 20
0.0
 30
0.0
  3
*MODEL_SPACE
  1

  0
ENDBLK
  5
21
330
1F
100
AcDbEntity
  8
0
100
AcDbBlockEnd
  0
BLOCK
  5
1C
330
1B
100
AcDbEntity
 67
     1
  8
0
100
AcDbBlockBegin
  2
*PAPER_SPACE
  1

  0
ENDBLK
  5
1D
330
1B
100
AcDbEntity
 67
     1
  8
0
100
AcDbBlockEnd
  0
ENDSEC
  0
SECTION
  2
ENTITIES
  0
SPLINE
  5
100
100
AcDbEntity
  8
Layer_1
 62
1
100
AcDbSpline
 70
0
 71
3
 72
169
 73
165
 74
163
 40
0.000000
 40
0.000000
 40
0.000000
 40
0.000000
 40
0.075694
 40
0.151386
 40
0.227079
 40
0.302249
 40
0.377419
 40
0.452601
 40
0.527299
 40
0.601991
 40
0.676662
 40
0.750572
 40
0.824503
 40
0.898441
 40
0.972930
 40
1.047412
 40
1.121891
 40
1.196613
 40
1.271335
 40
1.346061
 40
1.421645
 40
1.497227
 40
1.572808
 40
1.648141
 40
1.723475
 40
1.798810
 40
1.874055
 40
1.949299
 40
2.024541
 40
2.099875
 40
2.175210
 40
2.250547
 40
2.325975
 40
2.401402
 40
2.476831
 40
2.552276
 40
2.627720
 40
2.703163
 40
2.777493
 40
2.851823
 40
2.926154
 40
3.000460
 40
3.074767
 40
3.149074
 40
3.223372
 40
3.297669
 40
3.371966
 40
3.447354
 40
3.522742
 40
3.598131
 40
3.673537
 40
3.748942
 40
3.824348
 40
3.899753
 40
3.975157
 40
4.050559
 40
4.125962
 40
4.201365
 40
4.276768
 40
4.352173
 40
4.427578
 40
4.502983
 40
4.578378
 40
4.653773
 40
4.729167
 40
4.803476
 40
4.877785
 40
4.952095
 40
5.026407
 40
5.100719
 40
5.175031
 40
5.249341
 40
5.323651
 40
5.397959
 40
5.473354
 40
5.548751
 40
5.624148
 40
5.699553
 40
5.774959
 40
5.850364
 40
5.925767
 40
6.001170
 40
6.076571
 40
6.151970
 40
6.227371
 40
6.302772
 40
6.378175
 40
6.453578
 40
6.528982
 40
6.604376
 40
6.679769
 40
6.755161
 40
6.829470
 40
6.903779
 40
6.978089
 40
7.052401
 40
7.126714
 40
7.201026
 40
7.275336
 40
7.349646
 40
7.423955
 40
7.499350
 40
7.574746
 40
7.650143
 40
7.725550
 40
7.800956
 40
7.876362
 40
7.951767
 40
8.027171
 40
8.102574
 40
8.177977
 40
8.253381
 40
8.328785
 40
8.404191
 40
8.479597
 40
8.555003
 40
8.630393
 40
8.705783
 40
8.781171
 40
8.855467
 40
8.929764
 40
9.004061
 40
9.078368
 40
9.152674
 40
9.226981
 40
9.301311
 40
9.375641
 40
9.449971
 40
9.525414
 40
9.600859
 40
9.676304
 40
9.751732
 40
9.827159
 40
9.902588
 40
9.977923
 40
10.053259
 40
10.128592
 40
10.203835
 40
10.279081
 40
10.354326
 40
10.429663
 40
10.504998
 40
10.580332
 40
10.655915
 40
10.731499
 40
10.807086
 40
10.881812
 40
10.956534
 40
11.031256
 40
11.105735
 40
11.180216
 40
11.254705
 40
11.328642
 40
11.402573
 40
11.476481
 40
11.551150
 40
11.625840
 40
11.700537
 40
11.775717
 40
11.850885
 40
11.926053
 40
12.001743
 40
12.077432
 40
12.153124
 40
12.153124
 40
12.153124
 40
12.153124
 10
228.075257
 20
114.645076
 30
0.0
 10
228.077822
 20
114.670177
 30
0.0
 10
228.082953
 20
114.720377
 30
0.0
 10
228.091054
 20
114.795636
 30
0.0
 10
228.099948
 20
114.870631
 30
0.0
 10
228.110026
 20
114.945303
 30
0.0
 10
228.121705
 20
115.019572
 30
0.0
 10
228.135401
 20
115.093339
 30
0.0
 10
228.151507
 20
115.166460
 30
0.0
 10
228.170384
 20
115.238744
 30
0.0
 10
228.192369
 20
115.309877
 30
0.0
 10
228.217779
 20
115.379591
 30
0.0
 10
228.246366
 20
115.447794
 30
0.0
 10
228.278099
 20
115.514804
 30
0.0
 10
228.312812
 20
115.580526
 30
0.0
 10
228.350361
 20
115.644877
 30
0.0
 10
228.390537
 20
115.707712
 30
0.0
 10
228.433196
 20
115.768984
 30
0.0
 10
228.478221
 20
115.828641
 30
0.0
 10
228.525626
 20
115.886795
 30
0.0
 10
228.575322
 20
115.943386
 30
0.0
 10
228.627281
 20
115.998300
 30
0.0
 10
228.681201
 20
116.051172
 30
0.0
 10
228.737016
 20
116.101917
 30
0.0
 10
228.794653
 20
116.150455
 30
0.0
 10
228.854085
 20
116.196731
 30
0.0
 10
228.915238
 20
116.240656
 30
0.0
 10
228.978031
 20
116.282147
 30
0.0
 10
229.042435
 20
116.321149
 30
0.0
 10
229.108369
 20
116.357569
 30
0.0
 10
229.175717
 20
116.391370
 30
0.0
 10
229.244367
 20
116.422519
 30
0.0
 10
229.314207
 20
116.450980
 30
0.0
 10
229.385129
 20
116.476715
 30
0.0
 10
229.457001
 20
116.499681
 30
0.0
 10
229.529716
 20
116.519843
 30
0.0
 10
229.603165
 20
116.537161
 30
0.0
 10
229.676870
 20
116.551524
 30
0.0
 10
229.750712
 20
116.562944
 30
0.0
 10
229.824570
 20
116.571468
 30
0.0
 10
229.898693
 20
116.577151
 30
0.0
 10
229.972972
 20
116.579992
 30
0.0
 10
230.047297
 20
116.579992
 30
0.0
 10
230.121564
 20
116.577150
 30
0.0
 10
230.195666
 20
116.571468
 30
0.0
 10
230.269491
 20
116.562944
 30
0.0
 10
230.343292
 20
116.551523
 30
0.0
 10
230.416948
 20
116.537158
 30
0.0
 10
230.490340
 20
116.519840
 30
0.0
 10
230.563007
 20
116.499676
 30
0.0
 10
230.634844
 20
116.476707
 30
0.0
 10
230.705741
 20
116.450969
 30
0.0
 10
230.775588
 20
116.422504
 30
0.0
 10
230.844276
 20
116.391350
 30
0.0
 10
230.911700
 20
116.357546
 30
0.0
 10
230.977748
 20
116.321130
 30
0.0
 10
231.042311
 20
116.282142
 30
0.0
 10
231.105300
 20
116.240657
 30
0.0
 10
231.166626
 20
116.196751
 30
0.0
 10
231.226201
 20
116.150497
 30
0.0
 10
231.283939
 20
116.101969
 30
0.0
 10
231.339751
 20
116.051241
 30
0.0
 10
231.393550
 20
115.998387
 30
0.0
 10
231.445247
 20
115.943482
 30
0.0
 10
231.494520
 20
115.886869
 30
0.0
 10
231.541316
 20
115.828657
 30
0.0
 10
231.585616
 20
115.768974
 30
0.0
 10
231.627593
 20
115.707633
 30
0.0
 10
231.667191
 20
115.644729
 30
0.0
 10
231.704356
 20
115.580357
 30
0.0
 10
231.739032
 20
115.514612
 30
0.0
 10
231.771167
 20
115.447589
 30
0.0
 10
231.800703
 20
115.379382
 30
0.0
 10
231.827718
 20
115.309749
 30
0.0
 10
231.852109
 20
115.238770
 30
0.0
 10
231.873809
 20
115.166545
 30
0.0
 10
231.892682
 20
115.093525
 30
0.0
 10
231.908707
 20
115.019826
 30
0.0
 10
231.921863
 20
114.945558
 30
0.0
 10
231.932132
 20
114.870836
 30
0.0
 10
231.939493
 20
114.795774
 30
0.0
 10
231.943926
 20
114.720483
 30
0.0
 10
231.945410
 20
114.645077
 30
0.0
 10
231.943926
 20
114.569672
 30
0.0
 10
231.939493
 20
114.494383
 30
0.0
 10
231.932132
 20
114.419322
 30
0.0
 10
231.921863
 20
114.344603
 30
0.0
 10
231.908707
 20
114.270337
 30
0.0
 10
231.892682
 20
114.196640
 30
0.0
 10
231.873811
 20
114.123623
 30
0.0
 10
231.852112
 20
114.051400
 30
0.0
 10
231.827721
 20
113.980424
 30
0.0
 10
231.800706
 20
113.910792
 30
0.0
 10
231.771168
 20
113.842586
 30
0.0
 10
231.739033
 20
113.775563
 30
0.0
 10
231.704355
 20
113.709818
 30
0.0
 10
231.667190
 20
113.645446
 30
0.0
 10
231.627591
 20
113.582543
 30
0.0
 10
231.585614
 20
113.521201
 30
0.0
 10
231.541314
 20
113.461517
 30
0.0
 10
231.494519
 20
113.403304
 30
0.0
 10
231.445247
 20
113.346690
 30
0.0
 10
231.393550
 20
113.291782
 30
0.0
 10
231.339752
 20
113.238926
 30
0.0
 10
231.283941
 20
113.188196
 30
0.0
 10
231.226202
 20
113.139665
 30
0.0
 10
231.166627
 20
113.093409
 30
0.0
 10
231.105301
 20
113.049501
 30
0.0
 10
231.042312
 20
113.008015
 30
0.0
 10
230.977749
 20
112.969025
 30
0.0
 10
230.911700
 20
112.932608
 30
0.0
 10
230.844278
 20
112.898803
 30
0.0
 10
230.775589
 20
112.867649
 30
0.0
 10
230.705742
 20
112.839184
 30
0.0
 10
230.634844
 20
112.813447
 30
0.0
 10
230.563007
 20
112.790478
 30
0.0
 10
230.490339
 20
112.770315
 30
0.0
 10
230.416946
 20
112.752996
 30
0.0
 10
230.343290
 20
112.738632
 30
0.0
 10
230.269489
 20
112.727212
 30
0.0
 10
230.195664
 20
112.718689
 30
0.0
 10
230.121563
 20
112.713006
 30
0.0
 10
230.047296
 20
112.710165
 30
0.0
 10
229.972971
 20
112.710166
 30
0.0
 10
229.898693
 20
112.713007
 30
0.0
 10
229.824570
 20
112.718690
 30
0.0
 10
229.750712
 20
112.727214
 30
0.0
 10
229.676870
 20
112.738634
 30
0.0
 10
229.603165
 20
112.752997
 30
0.0
 10
229.529715
 20
112.770314
 30
0.0
 10
229.457000
 20
112.790474
 30
0.0
 10
229.385127
 20
112.813439
 30
0.0
 10
229.314205
 20
112.839174
 30
0.0
 10
229.244365
 20
112.867634
 30
0.0
 10
229.175715
 20
112.898782
 30
0.0
 10
229.108367
 20
112.932583
 30
0.0
 10
229.042433
 20
112.969003
 30
0.0
 10
228.978030
 20
113.008007
 30
0.0
 10
228.915237
 20
113.049500
 30
0.0
 10
228.854084
 20
113.093428
 30
0.0
 10
228.794653
 20
113.139707
 30
0.0
 10
228.737016
 20
113.188247
 30
0.0
 10
228.681202
 20
113.238994
 30
0.0
 10
228.627282
 20
113.291869
 30
0.0
 10
228.575322
 20
113.346785
 30
0.0
 10
228.525627
 20
113.403379
 30
0.0
 10
228.478222
 20
113.461535
 30
0.0
 10
228.433197
 20
113.521192
 30
0.0
 10
228.390539
 20
113.582465
 30
0.0
 10
228.350363
 20
113.645299
 30
0.0
 10
228.312815
 20
113.709650
 30
0.0
 10
228.278102
 20
113.775371
 30
0.0
 10
228.246369
 20
113.842381
 30
0.0
 10
228.217782
 20
113.910583
 30
0.0
 10
228.192372
 20
113.980296
 30
0.0
 10
228.170386
 20
114.051427
 30
0.0
 10
228.151509
 20
114.123709
 30
0.0
 10
228.135401
 20
114.196827
 30
0.0
 10
228.121703
 20
114.270592
 30
0.0
 10
228.110023
 20
114.344859
 30
0.0
 10
228.099945
 20
114.419529
 30
0.0
 10
228.091052
 20
114.494521
 30
0.0
 10
228.082951
 20
114.569777
 30
0.0
 10
228.077822
 20
114.619976
 30
0.0
 10
228.075257
 20
114.645076
 30
0.0
 11
228.075257
 21
114.645076
 31
0.0
 11
228.083021
 21
114.720371
 31
0.0
 11
228.091190
 21
114.795621
 31
0.0
 11
228.100171
 21
114.870779
 31
0.0
 11
228.110296
 21
114.945264
 31
0.0
 11
228.122045
 21
115.019510
 31
0.0
 11
228.135840
 21
115.093415
 31
0.0
 11
228.151976
 21
115.166350
 31
0.0
 11
228.170917
 21
115.238601
 31
0.0
 11
228.193034
 21
115.309921
 31
0.0
 11
228.218320
 21
115.379370
 31
0.0
 11
228.246876
 21
115.447564
 31
0.0
 11
228.278500
 21
115.514398
 31
0.0
 11
228.313272
 21
115.580273
 31
0.0
 11
228.350792
 21
115.644614
 31
0.0
 11
228.390898
 21
115.707373
 31
0.0
 11
228.433582
 21
115.768703
 31
0.0
 11
228.478587
 21
115.828352
 31
0.0
 11
228.525792
 21
115.886279
 31
0.0
 11
228.575669
 21
115.943072
 31
0.0
 11
228.627618
 21
115.997970
 31
0.0
 11
228.681587
 21
116.050884
 31
0.0
 11
228.737329
 21
116.101558
 31
0.0
 11
228.794956
 21
116.150080
 31
0.0
 11
228.854400
 21
116.196360
 31
0.0
 11
228.915515
 21
116.240253
 31
0.0
 11
228.978296
 21
116.281730
 31
0.0
 11
229.042659
 21
116.320701
 31
0.0
 11
229.108599
 21
116.357130
 31
0.0
 11
229.175929
 21
116.390926
 31
0.0
 11
229.244532
 21
116.422057
 31
0.0
 11
229.314382
 21
116.450524
 31
0.0
 11
229.385286
 21
116.476253
 31
0.0
 11
229.457135
 21
116.499212
 31
0.0
 11
229.529838
 21
116.519368
 31
0.0
 11
229.603269
 21
116.536680
 31
0.0
 11
229.677320
 21
116.551108
 31
0.0
 11
229.750776
 21
116.562471
 31
0.0
 11
229.824616
 21
116.570995
 31
0.0
 11
229.898728
 21
116.576678
 31
0.0
 11
229.972981
 21
116.579519
 31
0.0
 11
230.047288
 21
116.579518
 31
0.0
 11
230.121540
 21
116.576677
 31
0.0
 11
230.195620
 21
116.570994
 31
0.0
 11
230.269427
 21
116.562470
 31
0.0
 11
230.342850
 21
116.551105
 31
0.0
 11
230.416844
 21
116.536678
 31
0.0
 11
230.490218
 21
116.519366
 31
0.0
 11
230.562863
 21
116.499210
 31
0.0
 11
230.634686
 21
116.476246
 31
0.0
 11
230.705566
 21
116.450515
 31
0.0
 11
230.775395
 21
116.422056
 31
0.0
 11
230.844066
 21
116.390908
 31
0.0
 11
230.911471
 21
116.357110
 31
0.0
 11
230.977501
 21
116.320701
 31
0.0
 11
231.042049
 21
116.281726
 31
0.0
 11
231.105023
 21
116.240254
 31
0.0
 11
231.166333
 21
116.196360
 31
0.0
 11
231.225895
 21
116.150118
 31
0.0
 11
231.283619
 21
116.101602
 31
0.0
 11
231.339418
 21
116.050884
 31
0.0
 11
231.393200
 21
115.998045
 31
0.0
 11
231.444883
 21
115.943151
 31
0.0
 11
231.494378
 21
115.886279
 31
0.0
 11
231.540937
 21
115.828365
 31
0.0
 11
231.585228
 21
115.768698
 31
0.0
 11
231.627196
 21
115.707374
 31
0.0
 11
231.666785
 21
115.644485
 31
0.0
 11
231.703941
 21
115.580129
 31
0.0
 11
231.738609
 21
115.514398
 31
0.0
 11
231.770734
 21
115.447391
 31
0.0
 11
231.800261
 21
115.379200
 31
0.0
 11
231.827136
 21
115.309921
 31
0.0
 11
231.851641
 21
115.238620
 31
0.0
 11
231.873338
 21
115.166413
 31
0.0
 11
231.892206
 21
115.093415
 31
0.0
 11
231.908229
 21
115.019731
 31
0.0
 11
231.921382
 21
114.945482
 31
0.0
 11
231.931647
 21
114.870778
 31
0.0
 11
231.939005
 21
114.795735
 31
0.0
 11
231.943434
 21
114.720463
 31
0.0
 11
231.944915
 21
114.645076
 31
0.0
 11
231.943434
 21
114.569691
 31
0.0
 11
231.939005
 21
114.494421
 31
0.0
 11
231.931647
 21
114.419380
 31
0.0
 11
231.921382
 21
114.344679
 31
0.0
 11
231.908229
 21
114.270432
 31
0.0
 11
231.892207
 21
114.196750
 31
0.0
 11
231.873339
 21
114.123755
 31
0.0
 11
231.851643
 21
114.051551
 31
0.0
 11
231.827139
 21
113.980252
 31
0.0
 11
231.800264
 21
113.910974
 31
0.0
 11
231.770735
 21
113.842783
 31
0.0
 11
231.738610
 21
113.775777
 31
0.0
 11
231.703941
 21
113.710047
 31
0.0
 11
231.666784
 21
113.645691
 31
0.0
 11
231.627194
 21
113.582802
 31
0.0
 11
231.585227
 21
113.521477
 31
0.0
 11
231.540936
 21
113.461809
 31
0.0
 11
231.494377
 21
113.403894
 31
0.0
 11
231.444883
 21
113.347020
 31
0.0
 11
231.393201
 21
113.292125
 31
0.0
 11
231.339419
 21
113.239283
 31
0.0
 11
231.283620
 21
113.188563
 31
0.0
 11
231.225896
 21
113.140044
 31
0.0
 11
231.166335
 21
113.093800
 31
0.0
 11
231.105023
 21
113.049904
 31
0.0
 11
231.042049
 21
113.008431
 31
0.0
 11
230.977501
 21
112.969454
 31
0.0
 11
230.911472
 21
112.933044
 31
0.0
 11
230.844067
 21
112.899245
 31
0.0
 11
230.775396
 21
112.868098
 31
0.0
 11
230.705567
 21
112.839638
 31
0.0
 11
230.634687
 21
112.813908
 31
0.0
 11
230.562863
 21
112.790944
 31
0.0
 11
230.490217
 21
112.770789
 31
0.0
 11
230.416842
 21
112.753477
 31
0.0
 11
230.342847
 21
112.739049
 31
0.0
 11
230.269425
 21
112.727685
 31
0.0
 11
230.195619
 21
112.719162
 31
0.0
 11
230.121539
 21
112.713480
 31
0.0
 11
230.047287
 21
112.710639
 31
0.0
 11
229.972980
 21
112.710639
 31
0.0
 11
229.898728
 21
112.713480
 31
0.0
 11
229.824615
 21
112.719164
 31
0.0
 11
229.750776
 21
112.727687
 31
0.0
 11
229.677320
 21
112.739050
 31
0.0
 11
229.603269
 21
112.753477
 31
0.0
 11
229.529837
 21
112.770788
 31
0.0
 11
229.457134
 21
112.790944
 31
0.0
 11
229.385285
 21
112.813901
 31
0.0
 11
229.314381
 21
112.839630
 31
0.0
 11
229.244531
 21
112.868096
 31
0.0
 11
229.175927
 21
112.899227
 31
0.0
 11
229.108598
 21
112.933022
 31
0.0
 11
229.042658
 21
112.969451
 31
0.0
 11
228.978294
 21
113.008424
 31
0.0
 11
228.915514
 21
113.049903
 31
0.0
 11
228.854399
 21
113.093799
 31
0.0
 11
228.794956
 21
113.140081
 31
0.0
 11
228.737330
 21
113.188606
 31
0.0
 11
228.681588
 21
113.239283
 31
0.0
 11
228.627619
 21
113.292199
 31
0.0
 11
228.575669
 21
113.347100
 31
0.0
 11
228.525792
 21
113.403895
 31
0.0
 11
228.478588
 21
113.461823
 31
0.0
 11
228.433584
 21
113.521473
 31
0.0
 11
228.390900
 21
113.582804
 31
0.0
 11
228.350794
 21
113.645562
 31
0.0
 11
228.313275
 21
113.709903
 31
0.0
 11
228.278503
 21
113.775778
 31
0.0
 11
228.246879
 21
113.842611
 31
0.0
 11
228.218323
 21
113.910803
 31
0.0
 11
228.193037
 21
113.980252
 31
0.0
 11
228.170919
 21
114.051570
 31
0.0
 11
228.151977
 21
114.123818
 31
0.0
 11
228.135840
 21
114.196751
 31
0.0
 11
228.122044
 21
114.270654
 31
0.0
 11
228.110294
 21
114.344898
 31
0.0
 11
228.100168
 21
114.419381
 31
0.0
 11
228.091187
 21
114.494537
 31
0.0
 11
228.083019
 21
114.569784
 31
0.0
 11
228.075257
 21
114.645076
 31
0.0
  0
SPLINE
  5
101
100
AcDbEntity
  8
Layer_1
 62
1
100
AcDbSpline
 70
0
 71
3
 72
169
 73
165
 74
163
 40
0.000000
 40
0.000000
 40
0.000000
 40
0.000000
 40
0.075691
 40
0.151379
 40
0.227069
 40
0.302236
 40
0.377404
 40
0.452582
 40
0.527278
 40
0.601967
 40
0.676635
 40
0.750543
 40
0.824473
 40
0.898410
 40
0.972898
 40
1.047378
 40
1.121856
 40
1.196576
 40
1.271297
 40
1.346020
 40
1.421605
 40
1.497186
 40
1.572767
 40
1.648100
 40
1.723434
 40
1.798768
 40
1.874013
 40
1.949256
 40
2.024498
 40
2.099833
 40
2.175169
 40
2.250506
 40
2.325934
 40
2.401362
 40
2.476790
 40
2.552235
 40
2.627679
 40
2.703122
 40
2.777451
 40
2.851781
 40
2.926110
 40
3.000417
 40
3.074723
 40
3.149029
 40
3.223326
 40
3.297623
 40
3.371919
 40
3.447307
 40
3.522696
 40
3.598087
 40
3.673493
 40
3.748899
 40
3.824306
 40
3.899712
 40
3.975117
 40
4.050522
 40
4.125924
 40
4.201327
 40
4.276730
 40
4.352135
 40
4.427539
 40
4.502944
 40
4.578339
 40
4.653733
 40
4.729126
 40
4.803435
 40
4.877744
 40
4.952054
 40
5.026366
 40
5.100677
 40
5.174989
 40
5.249299
 40
5.323608
 40
5.397916
 40
5.473308
 40
5.548702
 40
5.624096
 40
5.699499
 40
5.774901
 40
5.850304
 40
5.925704
 40
6.001104
 40
6.076503
 40
6.151902
 40
6.227303
 40
6.302704
 40
6.378108
 40
6.453511
 40
6.528915
 40
6.604310
 40
6.679704
 40
6.755097
 40
6.829407
 40
6.903718
 40
6.978029
 40
7.052343
 40
7.126656
 40
7.200969
 40
7.275279
 40
7.349590
 40
7.423899
 40
7.499293
 40
7.574688
 40
7.650083
 40
7.725488
 40
7.800892
 40
7.876297
 40
7.951702
 40
8.027106
 40
8.102509
 40
8.177914
 40
8.253320
 40
8.328727
 40
8.404134
 40
8.479541
 40
8.554949
 40
8.630340
 40
8.705730
 40
8.781119
 40
8.855415
 40
8.929712
 40
9.004008
 40
9.078315
 40
9.152622
 40
9.226928
 40
9.301258
 40
9.375587
 40
9.449915
 40
9.525359
 40
9.600804
 40
9.676250
 40
9.751679
 40
9.827107
 40
9.902536
 40
9.977874
 40
10.053211
 40
10.128546
 40
10.203789
 40
10.279033
 40
10.354278
 40
10.429613
 40
10.504948
 40
10.580281
 40
10.655863
 40
10.731445
 40
10.807031
 40
10.881755
 40
10.956477
 40
11.031198
 40
11.105678
 40
11.180159
 40
11.254648
 40
11.328586
 40
11.402517
 40
11.476426
 40
11.551096
 40
11.625786
 40
11.700483
 40
11.775663
 40
11.850831
 40
11.925999
 40
12.001690
 40
12.077379
 40
12.153071
 40
12.153071
 40
12.153071
 40
12.153071
 10
105.969771
 20
114.645082
 30
0.0
 10
105.972336
 20
114.670182
 30
0.0
 10
105.977466
 20
114.720380
 30
0.0
 10
105.985567
 20
114.795636
 30
0.0
 10
105.994460
 20
114.870627
 30
0.0
 10
106.004538
 20
114.945296
 30
0.0
 10
106.016217
 20
115.019562
 30
0.0
 10
106.029913
 20
115.093327
 30
0.0
 10
106.046019
 20
115.166445
 30
0.0
 10
106.064896
 20
115.238726
 30
0.0
 10
106.086880
 20
115.309856
 30
0.0
 10
106.112290
 20
115.379568
 30
0.0
 10
106.140876
 20
115.447771
 30
0.0
 10
106.172608
 20
115.514780
 30
0.0
 10
106.207320
 20
115.580501
 30
0.0
 10
106.244867
 20
115.644851
 30
0.0
 10
106.285043
 20
115.707684
 30
0.0
 10
106.327700
 20
115.768955
 30
0.0
 10
106.372725
 20
115.828610
 30
0.0
 10
106.420130
 20
115.886764
 30
0.0
 10
106.469826
 20
115.943354
 30
0.0
 10
106.521787
 20
115.998267
 30
0.0
 10
106.575707
 20
116.051137
 30
0.0
 10
106.631522
 20
116.101881
 30
0.0
 10
106.689160
 20
116.150418
 30
0.0
 10
106.748591
 20
116.196693
 30
0.0
 10
106.809744
 20
116.240618
 30
0.0
 10
106.872537
 20
116.282110
 30
0.0
 10
106.936940
 20
116.321112
 30
0.0
 10
107.002874
 20
116.357534
 30
0.0
 10
107.070222
 20
116.391336
 30
0.0
 10
107.138872
 20
116.422487
 30
0.0
 10
107.208710
 20
116.450951
 30
0.0
 10
107.279631
 20
116.476689
 30
0.0
 10
107.351503
 20
116.499657
 30
0.0
 10
107.424217
 20
116.519820
 30
0.0
 10
107.497666
 20
116.537140
 30
0.0
 10
107.571371
 20
116.551506
 30
0.0
 10
107.645212
 20
116.562927
 30
0.0
 10
107.719069
 20
116.571453
 30
0.0
 10
107.793191
 20
116.577137
 30
0.0
 10
107.867469
 20
116.579980
 30
0.0
 10
107.941793
 20
116.579980
 30
0.0
 10
108.016060
 20
116.577138
 30
0.0
 10
108.090161
 20
116.571454
 30
0.0
 10
108.163985
 20
116.562929
 30
0.0
 10
108.237785
 20
116.551507
 30
0.0
 10
108.311441
 20
116.537140
 30
0.0
 10
108.384833
 20
116.519820
 30
0.0
 10
108.457502
 20
116.499654
 30
0.0
 10
108.529338
 20
116.476682
 30
0.0
 10
108.600235
 20
116.450941
 30
0.0
 10
108.670082
 20
116.422474
 30
0.0
 10
108.738771
 20
116.391317
 30
0.0
 10
108.806194
 20
116.357510
 30
0.0
 10
108.872243
 20
116.321092
 30
0.0
 10
108.936806
 20
116.282104
 30
0.0
 10
108.999795
 20
116.240619
 30
0.0
 10
109.061121
 20
116.196714
 30
0.0
 10
109.120697
 20
116.150461
 30
0.0
 10
109.178435
 20
116.101933
 30
0.0
 10
109.234247
 20
116.051206
 30
0.0
 10
109.288046
 20
115.998353
 30
0.0
 10
109.339744
 20
115.943449
 30
0.0
 10
109.389018
 20
115.886838
 30
0.0
 10
109.435814
 20
115.828627
 30
0.0
 10
109.480116
 20
115.768945
 30
0.0
 10
109.522094
 20
115.707605
 30
0.0
 10
109.561693
 20
115.644703
 30
0.0
 10
109.598860
 20
115.580332
 30
0.0
 10
109.633539
 20
115.514588
 30
0.0
 10
109.665675
 20
115.447566
 30
0.0
 10
109.695213
 20
115.379360
 30
0.0
 10
109.722229
 20
115.309729
 30
0.0
 10
109.746621
 20
115.238752
 30
0.0
 10
109.768321
 20
115.166530
 30
0.0
 10
109.787193
 20
115.093514
 30
0.0
 10
109.803218
 20
115.019817
 30
0.0
 10
109.816376
 20
114.945552
 30
0.0
 10
109.826645
 20
114.870834
 30
0.0
 10
109.834006
 20
114.795774
 30
0.0
 10
109.838439
 20
114.720486
 30
0.0
 10
109.839924
 20
114.645081
 30
0.0
 10
109.838439
 20
114.569677
 30
0.0
 10
109.834006
 20
114.494388
 30
0.0
 10
109.826645
 20
114.419327
 30
0.0
 10
109.816376
 20
114.344608
 30
0.0
 10
109.803218
 20
114.270342
 30
0.0
 10
109.787193
 20
114.196644
 30
0.0
 10
109.768321
 20
114.123627
 30
0.0
 10
109.746621
 20
114.051404
 30
0.0
 10
109.722229
 20
113.980426
 30
0.0
 10
109.695213
 20
113.910793
 30
0.0
 10
109.665675
 20
113.842586
 30
0.0
 10
109.633539
 20
113.775561
 30
0.0
 10
109.598860
 20
113.709816
 30
0.0
 10
109.561694
 20
113.645444
 30
0.0
 10
109.522094
 20
113.582540
 30
0.0
 10
109.480116
 20
113.521199
 30
0.0
 10
109.435814
 20
113.461516
 30
0.0
 10
109.389017
 20
113.403304
 30
0.0
 10
109.339744
 20
113.346692
 30
0.0
 10
109.288046
 20
113.291787
 30
0.0
 10
109.234247
 20
113.238933
 30
0.0
 10
109.178435
 20
113.188206
 30
0.0
 10
109.120697
 20
113.139678
 30
0.0
 10
109.061121
 20
113.093424
 30
0.0
 10
108.999795
 20
113.049517
 30
0.0
 10
108.936806
 20
113.008031
 30
0.0
 10
108.872243
 20
112.969041
 30
0.0
 10
108.806194
 20
112.932621
 30
0.0
 10
108.738771
 20
112.898812
 30
0.0
 10
108.670082
 20
112.867653
 30
0.0
 10
108.600236
 20
112.839182
 30
0.0
 10
108.529339
 20
112.813440
 30
0.0
 10
108.457503
 20
112.790465
 30
0.0
 10
108.384834
 20
112.770297
 30
0.0
 10
108.311442
 20
112.752974
 30
0.0
 10
108.237785
 20
112.738605
 30
0.0
 10
108.163985
 20
112.727183
 30
0.0
 10
108.090161
 20
112.718657
 30
0.0
 10
108.016060
 20
112.712972
 30
0.0
 10
107.941793
 20
112.710131
 30
0.0
 10
107.867469
 20
112.710131
 30
0.0
 10
107.793191
 20
112.712973
 30
0.0
 10
107.719068
 20
112.718658
 30
0.0
 10
107.645212
 20
112.727185
 30
0.0
 10
107.571371
 20
112.738607
 30
0.0
 10
107.497666
 20
112.752974
 30
0.0
 10
107.424217
 20
112.770296
 30
0.0
 10
107.351503
 20
112.790462
 30
0.0
 10
107.279631
 20
112.813432
 30
0.0
 10
107.208710
 20
112.839173
 30
0.0
 10
107.138871
 20
112.867639
 30
0.0
 10
107.070222
 20
112.898793
 30
0.0
 10
107.002874
 20
112.932598
 30
0.0
 10
106.936941
 20
112.969021
 30
0.0
 10
106.872538
 20
113.008026
 30
0.0
 10
106.809745
 20
113.049517
 30
0.0
 10
106.748592
 20
113.093443
 30
0.0
 10
106.689160
 20
113.139719
 30
0.0
 10
106.631522
 20
113.188257
 30
0.0
 10
106.575707
 20
113.239002
 30
0.0
 10
106.521786
 20
113.291873
 30
0.0
 10
106.469826
 20
113.346787
 30
0.0
 10
106.420130
 20
113.403379
 30
0.0
 10
106.372725
 20
113.461533
 30
0.0
 10
106.327701
 20
113.521190
 30
0.0
 10
106.285043
 20
113.582463
 30
0.0
 10
106.244868
 20
113.645297
 30
0.0
 10
106.207320
 20
113.709649
 30
0.0
 10
106.172608
 20
113.775371
 30
0.0
 10
106.140876
 20
113.842381
 30
0.0
 10
106.112290
 20
113.910585
 30
0.0
 10
106.086880
 20
113.980299
 30
0.0
 10
106.064896
 20
114.051430
 30
0.0
 10
106.046019
 20
114.123713
 30
0.0
 10
106.029912
 20
114.196831
 30
0.0
 10
106.016214
 20
114.270597
 30
0.0
 10
106.004534
 20
114.344864
 30
0.0
 10
105.994456
 20
114.419533
 30
0.0
 10
105.985564
 20
114.494526
 30
0.0
 10
105.977464
 20
114.569783
 30
0.0
 10
105.972335
 20
114.619982
 30
0.0
 10
105.969771
 20
114.645082
 30
0.0
 11
105.969771
 21
114.645082
 31
0.0
 11
105.977534
 21
114.720374
 31
0.0
 11
105.985703
 21
114.795620
 31
0.0
 11
105.994683
 21
114.870775
 31
0.0
 11
106.004808
 21
114.945257
 31
0.0
 11
106.016557
 21
115.019501
 31
0.0
 11
106.030352
 21
115.093403
 31
0.0
 11
106.046487
 21
115.166335
 31
0.0
 11
106.065429
 21
115.238582
 31
0.0
 11
106.087545
 21
115.309900
 31
0.0
 11
106.112830
 21
115.379348
 31
0.0
 11
106.141386
 21
115.447541
 31
0.0
 11
106.173009
 21
115.514374
 31
0.0
 11
106.207780
 21
115.580248
 31
0.0
 11
106.245299
 21
115.644588
 31
0.0
 11
106.285404
 21
115.707345
 31
0.0
 11
106.328087
 21
115.768674
 31
0.0
 11
106.373091
 21
115.828322
 31
0.0
 11
106.420296
 21
115.886247
 31
0.0
 11
106.470173
 21
115.943039
 31
0.0
 11
106.522123
 21
115.997936
 31
0.0
 11
106.576093
 21
116.050849
 31
0.0
 11
106.631836
 21
116.101522
 31
0.0
 11
106.689462
 21
116.150044
 31
0.0
 11
106.748906
 21
116.196323
 31
0.0
 11
106.810022
 21
116.240216
 31
0.0
 11
106.872801
 21
116.281693
 31
0.0
 11
106.937164
 21
116.320664
 31
0.0
 11
107.003104
 21
116.357094
 31
0.0
 11
107.070434
 21
116.390892
 31
0.0
 11
107.139037
 21
116.422025
 31
0.0
 11
107.208886
 21
116.450495
 31
0.0
 11
107.279789
 21
116.476227
 31
0.0
 11
107.351637
 21
116.499188
 31
0.0
 11
107.424339
 21
116.519346
 31
0.0
 11
107.497770
 21
116.536660
 31
0.0
 11
107.571820
 21
116.551090
 31
0.0
 11
107.645275
 21
116.562454
 31
0.0
 11
107.719114
 21
116.570980
 31
0.0
 11
107.793226
 21
116.576664
 31
0.0
 11
107.867478
 21
116.579506
 31
0.0
 11
107.941784
 21
116.579506
 31
0.0
 11
108.016036
 21
116.576664
 31
0.0
 11
108.090115
 21
116.570980
 31
0.0
 11
108.163921
 21
116.562455
 31
0.0
 11
108.237343
 21
116.551090
 31
0.0
 11
108.311337
 21
116.536660
 31
0.0
 11
108.384712
 21
116.519346
 31
0.0
 11
108.457357
 21
116.499188
 31
0.0
 11
108.529181
 21
116.476221
 31
0.0
 11
108.600060
 21
116.450487
 31
0.0
 11
108.669889
 21
116.422025
 31
0.0
 11
108.738560
 21
116.390875
 31
0.0
 11
108.805966
 21
116.357075
 31
0.0
 11
108.871996
 21
116.320663
 31
0.0
 11
108.936544
 21
116.281688
 31
0.0
 11
108.999518
 21
116.240216
 31
0.0
 11
109.060829
 21
116.196323
 31
0.0
 11
109.120391
 21
116.150081
 31
0.0
 11
109.178114
 21
116.101566
 31
0.0
 11
109.233914
 21
116.050849
 31
0.0
 11
109.287697
 21
115.998011
 31
0.0
 11
109.339380
 21
115.943119
 31
0.0
 11
109.388876
 21
115.886247
 31
0.0
 11
109.435436
 21
115.828335
 31
0.0
 11
109.479728
 21
115.768669
 31
0.0
 11
109.521697
 21
115.707345
 31
0.0
 11
109.561288
 21
115.644458
 31
0.0
 11
109.598445
 21
115.580103
 31
0.0
 11
109.633115
 21
115.514374
 31
0.0
 11
109.665242
 21
115.447369
 31
0.0
 11
109.694771
 21
115.379179
 31
0.0
 11
109.721647
 21
115.309901
 31
0.0
 11
109.746152
 21
115.238602
 31
0.0
 11
109.767849
 21
115.166398
 31
0.0
 11
109.786718
 21
115.093404
 31
0.0
 11
109.802740
 21
115.019723
 31
0.0
 11
109.815894
 21
114.945477
 31
0.0
 11
109.826160
 21
114.870776
 31
0.0
 11
109.833518
 21
114.795736
 31
0.0
 11
109.837948
 21
114.720466
 31
0.0
 11
109.839429
 21
114.645082
 31
0.0
 11
109.837948
 21
114.569697
 31
0.0
 11
109.833518
 21
114.494426
 31
0.0
 11
109.826160
 21
114.419385
 31
0.0
 11
109.815894
 21
114.344683
 31
0.0
 11
109.802740
 21
114.270436
 31
0.0
 11
109.786718
 21
114.196754
 31
0.0
 11
109.767849
 21
114.123759
 31
0.0
 11
109.746152
 21
114.051554
 31
0.0
 11
109.721647
 21
113.980255
 31
0.0
 11
109.694771
 21
113.910975
 31
0.0
 11
109.665242
 21
113.842783
 31
0.0
 11
109.633115
 21
113.775775
 31
0.0
 11
109.598446
 21
113.710045
 31
0.0
 11
109.561288
 21
113.645688
 31
0.0
 11
109.521697
 21
113.582800
 31
0.0
 11
109.479729
 21
113.521475
 31
0.0
 11
109.435436
 21
113.461808
 31
0.0
 11
109.388875
 21
113.403894
 31
0.0
 11
109.339380
 21
113.347022
 31
0.0
 11
109.287696
 21
113.292129
 31
0.0
 11
109.233914
 21
113.239290
 31
0.0
 11
109.178115
 21
113.188573
 31
0.0
 11
109.120391
 21
113.140057
 31
0.0
 11
109.060829
 21
113.093815
 31
0.0
 11
108.999518
 21
113.049921
 31
0.0
 11
108.936544
 21
113.008447
 31
0.0
 11
108.871996
 21
112.969470
 31
0.0
 11
108.805966
 21
112.933056
 31
0.0
 11
108.738560
 21
112.899254
 31
0.0
 11
108.669890
 21
112.868101
 31
0.0
 11
108.600061
 21
112.839637
 31
0.0
 11
108.529182
 21
112.813901
 31
0.0
 11
108.457358
 21
112.790931
 31
0.0
 11
108.384712
 21
112.770771
 31
0.0
 11
108.311338
 21
112.753455
 31
0.0
 11
108.237343
 21
112.739023
 31
0.0
 11
108.163921
 21
112.727656
 31
0.0
 11
108.090116
 21
112.719130
 31
0.0
 11
108.016037
 21
112.713446
 31
0.0
 11
107.941784
 21
112.710604
 31
0.0
 11
107.867478
 21
112.710605
 31
0.0
 11
107.793225
 21
112.713447
 31
0.0
 11
107.719114
 21
112.719132
 31
0.0
 11
107.645275
 21
112.727658
 31
0.0
 11
107.571821
 21
112.739023
 31
0.0
 11
107.497770
 21
112.753455
 31
0.0
 11
107.424339
 21
112.770770
 31
0.0
 11
107.351637
 21
112.790931
 31
0.0
 11
107.279788
 21
112.813894
 31
0.0
 11
107.208886
 21
112.839629
 31
0.0
 11
107.139037
 21
112.868101
 31
0.0
 11
107.070434
 21
112.899237
 31
0.0
 11
107.003105
 21
112.933037
 31
0.0
 11
106.937165
 21
112.969470
 31
0.0
 11
106.872802
 21
113.008442
 31
0.0
 11
106.810022
 21
113.049920
 31
0.0
 11
106.748907
 21
113.093814
 31
0.0
 11
106.689463
 21
113.140093
 31
0.0
 11
106.631836
 21
113.188616
 31
0.0
 11
106.576093
 21
113.239290
 31
0.0
 11
106.522123
 21
113.292204
 31
0.0
 11
106.470172
 21
113.347102
 31
0.0
 11
106.420295
 21
113.403895
 31
0.0
 11
106.373091
 21
113.461821
 31
0.0
 11
106.328087
 21
113.521471
 31
0.0
 11
106.285405
 21
113.582801
 31
0.0
 11
106.245299
 21
113.645560
 31
0.0
 11
106.207780
 21
113.709902
 31
0.0
 11
106.173009
 21
113.775778
 31
0.0
 11
106.141386
 21
113.842612
 31
0.0
 11
106.112831
 21
113.910805
 31
0.0
 11
106.087546
 21
113.980255
 31
0.0
 11
106.065429
 21
114.051574
 31
0.0
 11
106.046487
 21
114.123822
 31
0.0
 11
106.030351
 21
114.196755
 31
0.0
 11
106.016555
 21
114.270658
 31
0.0
 11
106.004805
 21
114.344903
 31
0.0
 11
105.994679
 21
114.419386
 31
0.0
 11
105.985699
 21
114.494542
 31
0.0
 11
105.977532
 21
114.569789
 31
0.0
 11
105.969771
 21
114.645082
 31
0.0
  0
SPLINE
  5
102
100
AcDbEntity
  8
Layer_1
 62
1
100
AcDbSpline
 70
0
 71
3
 72
169
 73
165
 74
163
 40
0.000000
 40
0.000000
 40
0.000000
 40
0.000000
 40
0.074817
 40
0.149632
 40
0.224449
 40
0.298749
 40
0.373049
 40
0.447359
 40
0.521192
 40
0.595018
 40
0.668823
 40
0.741873
 40
0.814946
 40
0.888025
 40
0.961649
 40
1.035266
 40
1.108881
 40
1.182736
 40
1.256591
 40
1.330450
 40
1.405159
 40
1.479866
 40
1.554572
 40
1.629033
 40
1.703495
 40
1.777958
 40
1.852330
 40
1.926703
 40
2.001073
 40
2.075533
 40
2.149995
 40
2.224458
 40
2.299012
 40
2.373565
 40
2.448118
 40
2.522689
 40
2.597259
 40
2.671827
 40
2.745293
 40
2.818760
 40
2.892226
 40
2.965670
 40
3.039113
 40
3.112556
 40
3.185991
 40
3.259425
 40
3.332859
 40
3.407374
 40
3.481891
 40
3.556409
 40
3.630941
 40
3.705474
 40
3.780007
 40
3.854537
 40
3.929067
 40
4.003596
 40
4.078122
 40
4.152650
 40
4.227177
 40
4.301709
 40
4.376240
 40
4.450771
 40
4.525297
 40
4.599822
 40
4.674347
 40
4.747800
 40
4.821254
 40
4.894709
 40
4.968162
 40
5.041615
 40
5.115068
 40
5.188510
 40
5.261951
 40
5.335391
 40
5.409897
 40
5.484406
 40
5.558914
 40
5.633441
 40
5.707968
 40
5.782494
 40
5.857031
 40
5.931568
 40
6.006104
 40
6.080643
 40
6.155183
 40
6.229722
 40
6.304253
 40
6.378783
 40
6.453314
 40
6.527827
 40
6.602340
 40
6.676851
 40
6.750291
 40
6.823732
 40
6.897173
 40
6.970627
 40
7.044081
 40
7.117536
 40
7.190991
 40
7.264445
 40
7.337899
 40
7.412423
 40
7.486947
 40
7.561472
 40
7.636003
 40
7.710533
 40
7.785064
 40
7.859592
 40
7.934120
 40
8.008646
 40
8.083177
 40
8.157708
 40
8.232240
 40
8.306775
 40
8.381309
 40
8.455844
 40
8.530363
 40
8.604882
 40
8.679399
 40
8.752835
 40
8.826272
 40
8.899709
 40
8.973155
 40
9.046601
 40
9.120047
 40
9.193516
 40
9.266985
 40
9.340453
 40
9.415024
 40
9.489596
 40
9.564169
 40
9.638725
 40
9.713281
 40
9.787837
 40
9.862303
 40
9.936768
 40
10.011231
 40
10.085603
 40
10.159978
 40
10.234353
 40
10.308817
 40
10.383281
 40
10.457744
 40
10.532453
 40
10.607163
 40
10.681876
 40
10.755737
 40
10.829595
 40
10.903452
 40
10.977070
 40
11.050690
 40
11.124318
 40
11.197399
 40
11.270474
 40
11.343528
 40
11.417334
 40
11.491162
 40
11.564995
 40
11.639308
 40
11.713610
 40
11.787911
 40
11.862730
 40
11.937548
 40
12.012368
 40
12.012368
 40
12.012368
 40
12.012368
 10
-16.111578
 20
114.645082
 30
0.0
 10
-16.109076
 20
114.669895
 30
0.0
 10
-16.104071
 20
114.719521
 30
0.0
 10
-16.096162
 20
114.793919
 30
0.0
 10
-16.087469
 20
114.868057
 30
0.0
 10
-16.077602
 20
114.941877
 30
0.0
 10
-16.066150
 20
115.015300
 30
0.0
 10
-16.052703
 20
115.088230
 30
0.0
 10
-16.036871
 20
115.160522
 30
0.0
 10
-16.018298
 20
115.231990
 30
0.0
 10
-15.996650
 20
115.302323
 30
0.0
 10
-15.971614
 20
115.371256
 30
0.0
 10
-15.943433
 20
115.438699
 30
0.0
 10
-15.912140
 20
115.504964
 30
0.0
 10
-15.877898
 20
115.569958
 30
0.0
 10
-15.840850
 20
115.633600
 30
0.0
 10
-15.801201
 20
115.695744
 30
0.0
 10
-15.759094
 20
115.756345
 30
0.0
 10
-15.714645
 20
115.815351
 30
0.0
 10
-15.667840
 20
115.872872
 30
0.0
 10
-15.618767
 20
115.928849
 30
0.0
 10
-15.567452
 20
115.983169
 30
0.0
 10
-15.514197
 20
116.035469
 30
0.0
 10
-15.459065
 20
116.085667
 30
0.0
 10
-15.402128
 20
116.133681
 30
0.0
 10
-15.343414
 20
116.179460
 30
0.0
 10
-15.282996
 20
116.222913
 30
0.0
 10
-15.220954
 20
116.263958
 30
0.0
 10
-15.157316
 20
116.302542
 30
0.0
 10
-15.092164
 20
116.338571
 30
0.0
 10
-15.025612
 20
116.372009
 30
0.0
 10
-14.957770
 20
116.402824
 30
0.0
 10
-14.888750
 20
116.430980
 30
0.0
 10
-14.818658
 20
116.456439
 30
0.0
 10
-14.747626
 20
116.479159
 30
0.0
 10
-14.675759
 20
116.499105
 30
0.0
 10
-14.603165
 20
116.516238
 30
0.0
 10
-14.530317
 20
116.530448
 30
0.0
 10
-14.457334
 20
116.541745
 30
0.0
 10
-14.384335
 20
116.550178
 30
0.0
 10
-14.311074
 20
116.555800
 30
0.0
 10
-14.237659
 20
116.558611
 30
0.0
 10
-14.164198
 20
116.558612
 30
0.0
 10
-14.090793
 20
116.555801
 30
0.0
 10
-14.017553
 20
116.550180
 30
0.0
 10
-13.944586
 20
116.541748
 30
0.0
 10
-13.871643
 20
116.530450
 30
0.0
 10
-13.798843
 20
116.516238
 30
0.0
 10
-13.726303
 20
116.499104
 30
0.0
 10
-13.654481
 20
116.479156
 30
0.0
 10
-13.583482
 20
116.456432
 30
0.0
 10
-13.513414
 20
116.430971
 30
0.0
 10
-13.444386
 20
116.402810
 30
0.0
 10
-13.376505
 20
116.371990
 30
0.0
 10
-13.309879
 20
116.338548
 30
0.0
 10
-13.244614
 20
116.302523
 30
0.0
 10
-13.180820
 20
116.263953
 30
0.0
 10
-13.118587
 20
116.222914
 30
0.0
 10
-13.058000
 20
116.179480
 30
0.0
 10
-12.999145
 20
116.133723
 30
0.0
 10
-12.942109
 20
116.085717
 30
0.0
 10
-12.886980
 20
116.035536
 30
0.0
 10
-12.833842
 20
115.983253
 30
0.0
 10
-12.782782
 20
115.928942
 30
0.0
 10
-12.734120
 20
115.872944
 30
0.0
 10
-12.687908
 20
115.815367
 30
0.0
 10
-12.644163
 20
115.756337
 30
0.0
 10
-12.602720
 20
115.695669
 30
0.0
 10
-12.563632
 20
115.633458
 30
0.0
 10
-12.526956
 20
115.569796
 30
0.0
 10
-12.492747
 20
115.504779
 30
0.0
 10
-12.461061
 20
115.438500
 30
0.0
 10
-12.431954
 20
115.371054
 30
0.0
 10
-12.405352
 20
115.302199
 30
0.0
 10
-12.381359
 20
115.232016
 30
0.0
 10
-12.360036
 20
115.160605
 30
0.0
 10
-12.341510
 20
115.088411
 30
0.0
 10
-12.325796
 20
115.015546
 30
0.0
 10
-12.312909
 20
114.942124
 30
0.0
 10
-12.302861
 20
114.868256
 30
0.0
 10
-12.295666
 20
114.794052
 30
0.0
 10
-12.291339
 20
114.719622
 30
0.0
 10
-12.289892
 20
114.645081
 30
0.0
 10
-12.291341
 20
114.570538
 30
0.0
 10
-12.295671
 20
114.496106
 30
0.0
 10
-12.302869
 20
114.421899
 30
0.0
 10
-12.312919
 20
114.348027
 30
0.0
 10
-12.325809
 20
114.274601
 30
0.0
 10
-12.341525
 20
114.201734
 30
0.0
 10
-12.360053
 20
114.129535
 30
0.0
 10
-12.381377
 20
114.058120
 30
0.0
 10
-12.405369
 20
113.987933
 30
0.0
 10
-12.431970
 20
113.919077
 30
0.0
 10
-12.461075
 20
113.851629
 30
0.0
 10
-12.492758
 20
113.785349
 30
0.0
 10
-12.526963
 20
113.720329
 30
0.0
 10
-12.563636
 20
113.656664
 30
0.0
 10
-12.602720
 20
113.594450
 30
0.0
 10
-12.644160
 20
113.533779
 30
0.0
 10
-12.687901
 20
113.474745
 30
0.0
 10
-12.734110
 20
113.417165
 30
0.0
 10
-12.782769
 20
113.361166
 30
0.0
 10
-12.833826
 20
113.306854
 30
0.0
 10
-12.886962
 20
113.254570
 30
0.0
 10
-12.942090
 20
113.204388
 30
0.0
 10
-12.999125
 20
113.156381
 30
0.0
 10
-13.057979
 20
113.110624
 30
0.0
 10
-13.118566
 20
113.067189
 30
0.0
 10
-13.180798
 20
113.026150
 30
0.0
 10
-13.244592
 20
112.987579
 30
0.0
 10
-13.309857
 20
112.951552
 30
0.0
 10
-13.376485
 20
112.918109
 30
0.0
 10
-13.444367
 20
112.887287
 30
0.0
 10
-13.513396
 20
112.859126
 30
0.0
 10
-13.583466
 20
112.833663
 30
0.0
 10
-13.654466
 20
112.810939
 30
0.0
 10
-13.726291
 20
112.790991
 30
0.0
 10
-13.798832
 20
112.773857
 30
0.0
 10
-13.871635
 20
112.759645
 30
0.0
 10
-13.944580
 20
112.748346
 30
0.0
 10
-14.017549
 20
112.739913
 30
0.0
 10
-14.090791
 20
112.734291
 30
0.0
 10
-14.164199
 20
112.731480
 30
0.0
 10
-14.237662
 20
112.731481
 30
0.0
 10
-14.311080
 20
112.734292
 30
0.0
 10
-14.384344
 20
112.739915
 30
0.0
 10
-14.457345
 20
112.748348
 30
0.0
 10
-14.530330
 20
112.759646
 30
0.0
 10
-14.603181
 20
112.773856
 30
0.0
 10
-14.675777
 20
112.790990
 30
0.0
 10
-14.747647
 20
112.810936
 30
0.0
 10
-14.818682
 20
112.833657
 30
0.0
 10
-14.888776
 20
112.859117
 30
0.0
 10
-14.957798
 20
112.887274
 30
0.0
 10
-15.025642
 20
112.918090
 30
0.0
 10
-15.092197
 20
112.951530
 30
0.0
 10
-15.157351
 20
112.987560
 30
0.0
 10
-15.220991
 20
113.026145
 30
0.0
 10
-15.283036
 20
113.067192
 30
0.0
 10
-15.343456
 20
113.110645
 30
0.0
 10
-15.402172
 20
113.156424
 30
0.0
 10
-15.459111
 20
113.204440
 30
0.0
 10
-15.514245
 20
113.254638
 30
0.0
 10
-15.567503
 20
113.306940
 30
0.0
 10
-15.618820
 20
113.361262
 30
0.0
 10
-15.667895
 20
113.417241
 30
0.0
 10
-15.714702
 20
113.474763
 30
0.0
 10
-15.759154
 20
113.533770
 30
0.0
 10
-15.801262
 20
113.594373
 30
0.0
 10
-15.840913
 20
113.656520
 30
0.0
 10
-15.877962
 20
113.720164
 30
0.0
 10
-15.912204
 20
113.785162
 30
0.0
 10
-15.943497
 20
113.851431
 30
0.0
 10
-15.971676
 20
113.918877
 30
0.0
 10
-15.996711
 20
113.987813
 30
0.0
 10
-16.018354
 20
114.058149
 30
0.0
 10
-16.036923
 20
114.129620
 30
0.0
 10
-16.052749
 20
114.201915
 30
0.0
 10
-16.066190
 20
114.274848
 30
0.0
 10
-16.077634
 20
114.348274
 30
0.0
 10
-16.087493
 20
114.422097
 30
0.0
 10
-16.096178
 20
114.496238
 30
0.0
 10
-16.104079
 20
114.570640
 30
0.0
 10
-16.109078
 20
114.620268
 30
0.0
 10
-16.111578
 20
114.645082
 30
0.0
 11
-16.111578
 21
114.645082
 31
0.0
 11
-16.104004
 21
114.719515
 31
0.0
 11
-16.096028
 21
114.793904
 31
0.0
 11
-16.087248
 21
114.868204
 31
0.0
 11
-16.077334
 21
114.941839
 31
0.0
 11
-16.065814
 21
115.015240
 31
0.0
 11
-16.052269
 21
115.088306
 31
0.0
 11
-16.036408
 21
115.160414
 31
0.0
 11
-16.017771
 21
115.231849
 31
0.0
 11
-15.995992
 21
115.302368
 31
0.0
 11
-15.971079
 21
115.371039
 31
0.0
 11
-15.942929
 21
115.438472
 31
0.0
 11
-15.911743
 21
115.504562
 31
0.0
 11
-15.877443
 21
115.569709
 31
0.0
 11
-15.840423
 21
115.633340
 31
0.0
 11
-15.800843
 21
115.695409
 31
0.0
 11
-15.758712
 21
115.756068
 31
0.0
 11
-15.714283
 21
115.815066
 31
0.0
 11
-15.667676
 21
115.872362
 31
0.0
 11
-15.618424
 21
115.928538
 31
0.0
 11
-15.567119
 21
115.982842
 31
0.0
 11
-15.513815
 21
116.035184
 31
0.0
 11
-15.458755
 21
116.085312
 31
0.0
 11
-15.401828
 21
116.133311
 31
0.0
 11
-15.343102
 21
116.179093
 31
0.0
 11
-15.282721
 21
116.222515
 31
0.0
 11
-15.220691
 21
116.263546
 31
0.0
 11
-15.157094
 21
116.302098
 31
0.0
 11
-15.091936
 21
116.338136
 31
0.0
 11
-15.025402
 21
116.371570
 31
0.0
 11
-14.957606
 21
116.402367
 31
0.0
 11
-14.888576
 21
116.430529
 31
0.0
 11
-14.818503
 21
116.455982
 31
0.0
 11
-14.747493
 21
116.478695
 31
0.0
 11
-14.675638
 21
116.498636
 31
0.0
 11
-14.603062
 21
116.515763
 31
0.0
 11
-14.529872
 21
116.530036
 31
0.0
 11
-14.457271
 21
116.541277
 31
0.0
 11
-14.384290
 21
116.549710
 31
0.0
 11
-14.311039
 21
116.555332
 31
0.0
 11
-14.237649
 21
116.558143
 31
0.0
 11
-14.164207
 21
116.558143
 31
0.0
 11
-14.090817
 21
116.555333
 31
0.0
 11
-14.017598
 21
116.549711
 31
0.0
 11
-13.944649
 21
116.541279
 31
0.0
 11
-13.872081
 21
116.530037
 31
0.0
 11
-13.798946
 21
116.515763
 31
0.0
 11
-13.726424
 21
116.498635
 31
0.0
 11
-13.654624
 21
116.478695
 31
0.0
 11
-13.583638
 21
116.455976
 31
0.0
 11
-13.513587
 21
116.430521
 31
0.0
 11
-13.444576
 21
116.402367
 31
0.0
 11
-13.376714
 21
116.371553
 31
0.0
 11
-13.310105
 21
116.338117
 31
0.0
 11
-13.244858
 21
116.302098
 31
0.0
 11
-13.181081
 21
116.263542
 31
0.0
 11
-13.118862
 21
116.222515
 31
0.0
 11
-13.058290
 21
116.179094
 31
0.0
 11
-12.999449
 21
116.133348
 31
0.0
 11
-12.942427
 21
116.085355
 31
0.0
 11
-12.887310
 21
116.035184
 31
0.0
 11
-12.834188
 21
115.982915
 31
0.0
 11
-12.783142
 21
115.928616
 31
0.0
 11
-12.734261
 21
115.872361
 31
0.0
 11
-12.688282
 21
115.815079
 31
0.0
 11
-12.644547
 21
115.756064
 31
0.0
 11
-12.603112
 21
115.695411
 31
0.0
 11
-12.564034
 21
115.633216
 31
0.0
 11
-12.527367
 21
115.569570
 31
0.0
 11
-12.493165
 21
115.504564
 31
0.0
 11
-12.461491
 21
115.438305
 31
0.0
 11
-12.432393
 21
115.370874
 31
0.0
 11
-12.405929
 21
115.302368
 31
0.0
 11
-12.381824
 21
115.231868
 31
0.0
 11
-12.360503
 21
115.160476
 31
0.0
 11
-12.341981
 21
115.088306
 31
0.0
 11
-12.326268
 21
115.015454
 31
0.0
 11
-12.313382
 21
114.942050
 31
0.0
 11
-12.303337
 21
114.868204
 31
0.0
 11
-12.296144
 21
114.794015
 31
0.0
 11
-12.291819
 21
114.719604
 31
0.0
 11
-12.290375
 21
114.645082
 31
0.0
 11
-12.291821
 21
114.570557
 31
0.0
 11
-12.296149
 21
114.496143
 31
0.0
 11
-12.303345
 21
114.421951
 31
0.0
 11
-12.313393
 21
114.348101
 31
0.0
 11
-12.326281
 21
114.274694
 31
0.0
 11
-12.341995
 21
114.201839
 31
0.0
 11
-12.360519
 21
114.129665
 31
0.0
 11
-12.381841
 21
114.058268
 31
0.0
 11
-12.405947
 21
113.987763
 31
0.0
 11
-12.432409
 21
113.919256
 31
0.0
 11
-12.461504
 21
113.851825
 31
0.0
 11
-12.493176
 21
113.785563
 31
0.0
 11
-12.527374
 21
113.720556
 31
0.0
 11
-12.564038
 21
113.656906
 31
0.0
 11
-12.603112
 21
113.594707
 31
0.0
 11
-12.644543
 21
113.534052
 31
0.0
 11
-12.688275
 21
113.475034
 31
0.0
 11
-12.734252
 21
113.417748
 31
0.0
 11
-12.783129
 21
113.361492
 31
0.0
 11
-12.834172
 21
113.307192
 31
0.0
 11
-12.887292
 21
113.254922
 31
0.0
 11
-12.942408
 21
113.204751
 31
0.0
 11
-12.999428
 21
113.156756
 31
0.0
 11
-13.058269
 21
113.111010
 31
0.0
 11
-13.118840
 21
113.067588
 31
0.0
 11
-13.181059
 21
113.026561
 31
0.0
 11
-13.244836
 21
112.988004
 31
0.0
 11
-13.310084
 21
112.951983
 31
0.0
 11
-13.376694
 21
112.918546
 31
0.0
 11
-13.444558
 21
112.887731
 31
0.0
 11
-13.513570
 21
112.859576
 31
0.0
 11
-13.583622
 21
112.834120
 31
0.0
 11
-13.654610
 21
112.811400
 31
0.0
 11
-13.726411
 21
112.791459
 31
0.0
 11
-13.798935
 21
112.774332
 31
0.0
 11
-13.872073
 21
112.760058
 31
0.0
 11
-13.944643
 21
112.748815
 31
0.0
 11
-14.017594
 21
112.740382
 31
0.0
 11
-14.090815
 21
112.734760
 31
0.0
 11
-14.164208
 21
112.731949
 31
0.0
 11
-14.237653
 21
112.731949
 31
0.0
 11
-14.311046
 21
112.734760
 31
0.0
 11
-14.384299
 21
112.740383
 31
0.0
 11
-14.457282
 21
112.748816
 31
0.0
 11
-14.529885
 21
112.760058
 31
0.0
 11
-14.603078
 21
112.774332
 31
0.0
 11
-14.675657
 21
112.791459
 31
0.0
 11
-14.747514
 21
112.811400
 31
0.0
 11
-14.818526
 21
112.834114
 31
0.0
 11
-14.888601
 21
112.859568
 31
0.0
 11
-14.957634
 21
112.887731
 31
0.0
 11
-15.025432
 21
112.918530
 31
0.0
 11
-15.091969
 21
112.951965
 31
0.0
 11
-15.157129
 21
112.988004
 31
0.0
 11
-15.220729
 21
113.026558
 31
0.0
 11
-15.282761
 21
113.067590
 31
0.0
 11
-15.343144
 21
113.111012
 31
0.0
 11
-15.401872
 21
113.156794
 31
0.0
 11
-15.458800
 21
113.204794
 31
0.0
 11
-15.513863
 21
113.254923
 31
0.0
 11
-15.567169
 21
113.307267
 31
0.0
 11
-15.618476
 21
113.361573
 31
0.0
 11
-15.667730
 21
113.417751
 31
0.0
 11
-15.714340
 21
113.475049
 31
0.0
 11
-15.758771
 21
113.534048
 31
0.0
 11
-15.800904
 21
113.594708
 31
0.0
 11
-15.840486
 21
113.656780
 31
0.0
 11
-15.877507
 21
113.720414
 31
0.0
 11
-15.911808
 21
113.785564
 31
0.0
 11
-15.942992
 21
113.851658
 31
0.0
 11
-15.971141
 21
113.919094
 31
0.0
 11
-15.996052
 21
113.987769
 31
0.0
 11
-16.017827
 21
114.058290
 31
0.0
 11
-16.036459
 21
114.129728
 31
0.0
 11
-16.052314
 21
114.201839
 31
0.0
 11
-16.065853
 21
114.274908
 31
0.0
 11
-16.077366
 21
114.348313
 31
0.0
 11
-16.087272
 21
114.421951
 31
0.0
 11
-16.096044
 21
114.496254
 31
0.0
 11
-16.104012
 21
114.570646
 31
0.0
 11
-16.111578
 21
114.645082
 31
0.0
  0
SPLINE
  5
103
100
AcDbEntity
  8
Layer_1
 62
1
100
AcDbSpline
 70
0
 71
3
 72
169
 73
165
 74
163
 40
0.000000
 40
0.000000
 40
0.000000
 40
0.000000
 40
0.075694
 40
0.151385
 40
0.227077
 40
0.302247
 40
0.377417
 40
0.452599
 40
0.527297
 40
0.601988
 40
0.676659
 40
0.750569
 40
0.824502
 40
0.898441
 40
0.972931
 40
1.047413
 40
1.121893
 40
1.196615
 40
1.271339
 40
1.346065
 40
1.421649
 40
1.497231
 40
1.572812
 40
1.648145
 40
1.723479
 40
1.798814
 40
1.874058
 40
1.949302
 40
2.024543
 40
2.099877
 40
2.175212
 40
2.250548
 40
2.325976
 40
2.401403
 40
2.476831
 40
2.552275
 40
2.627720
 40
2.703162
 40
2.777491
 40
2.851821
 40
2.926150
 40
3.000456
 40
3.074762
 40
3.149068
 40
3.223366
 40
3.297663
 40
3.371959
 40
3.447348
 40
3.522738
 40
3.598129
 40
3.673537
 40
3.748943
 40
3.824350
 40
3.899756
 40
3.975162
 40
4.050566
 40
4.125966
 40
4.201368
 40
4.276769
 40
4.352172
 40
4.427575
 40
4.502978
 40
4.578371
 40
4.653763
 40
4.729154
 40
4.803463
 40
4.877773
 40
4.952083
 40
5.026395
 40
5.100707
 40
5.175020
 40
5.249330
 40
5.323640
 40
5.397949
 40
5.473343
 40
5.548738
 40
5.624133
 40
5.699538
 40
5.774942
 40
5.850346
 40
5.925748
 40
6.001149
 40
6.076549
 40
6.151950
 40
6.227351
 40
6.302753
 40
6.378157
 40
6.453561
 40
6.528965
 40
6.604360
 40
6.679755
 40
6.755148
 40
6.829457
 40
6.903767
 40
6.978077
 40
7.052389
 40
7.126701
 40
7.201013
 40
7.275323
 40
7.349633
 40
7.423941
 40
7.499334
 40
7.574728
 40
7.650123
 40
7.725527
 40
7.800931
 40
7.876335
 40
7.951738
 40
8.027141
 40
8.102543
 40
8.177946
 40
8.253351
 40
8.328756
 40
8.404161
 40
8.479566
 40
8.554972
 40
8.630361
 40
8.705750
 40
8.781138
 40
8.855434
 40
8.929731
 40
9.004028
 40
9.078335
 40
9.152641
 40
9.226947
 40
9.301277
 40
9.375607
 40
9.449937
 40
9.525379
 40
9.600822
 40
9.676266
 40
9.751693
 40
9.827119
 40
9.902547
 40
9.977882
 40
10.053217
 40
10.128550
 40
10.203793
 40
10.279037
 40
10.354282
 40
10.429617
 40
10.504952
 40
10.580285
 40
10.655866
 40
10.731449
 40
10.807034
 40
10.881759
 40
10.956482
 40
11.031204
 40
11.105684
 40
11.180165
 40
11.254654
 40
11.328593
 40
11.402525
 40
11.476435
 40
11.551103
 40
11.625793
 40
11.700489
 40
11.775668
 40
11.850837
 40
11.926004
 40
12.001694
 40
12.077383
 40
12.153075
 40
12.153075
 40
12.153075
 40
12.153075
 10
-15.168325
 20
235.444897
 30
0.0
 10
-15.188780
 20
235.459668
 30
0.0
 10
-15.229691
 20
235.489210
 30
0.0
 10
-15.290817
 20
235.533854
 30
0.0
 10
-15.351318
 20
235.579052
 30
0.0
 10
-15.410946
 20
235.625116
 30
0.0
 10
-15.469425
 20
235.672365
 30
0.0
 10
-15.526461
 20
235.721111
 30
0.0
 10
-15.581731
 20
235.771620
 30
0.0
 10
-15.634892
 20
235.824110
 30
0.0
 10
-15.685502
 20
235.878715
 30
0.0
 10
-15.733172
 20
235.935579
 30
0.0
 10
-15.777945
 20
235.994439
 30
0.0
 10
-15.820111
 20
236.055426
 30
0.0
 10
-15.859672
 20
236.118349
 30
0.0
 10
-15.896628
 20
236.183043
 30
0.0
 10
-15.930957
 20
236.249255
 30
0.0
 10
-15.962691
 20
236.316835
 30
0.0
 10
-15.991842
 20
236.385658
 30
0.0
 10
-16.018503
 20
236.455790
 30
0.0
 10
-16.042664
 20
236.527124
 30
0.0
 10
-16.064240
 20
236.599579
 30
0.0
 10
-16.083068
 20
236.672711
 30
0.0
 10
-16.099106
 20
236.746420
 30
0.0
 10
-16.112322
 20
236.820604
 30
0.0
 10
-16.122681
 20
236.895211
 30
0.0
 10
-16.130145
 20
236.970134
 30
0.0
 10
-16.134680
 20
237.045259
 30
0.0
 10
-16.136255
 20
237.120536
 30
0.0
 10
-16.134830
 20
237.195846
 30
0.0
 10
-16.130429
 20
237.271071
 30
0.0
 10
-16.123081
 20
237.346098
 30
0.0
 10
-16.112811
 20
237.420812
 30
0.0
 10
-16.099639
 20
237.495099
 30
0.0
 10
-16.083593
 20
237.568825
 30
0.0
 10
-16.064697
 20
237.641879
 30
0.0
 10
-16.042971
 20
237.714147
 30
0.0
 10
-16.018558
 20
237.785159
 30
0.0
 10
-15.991528
 20
237.854817
 30
0.0
 10
-15.961982
 20
237.923041
 30
0.0
 10
-15.929842
 20
237.990075
 30
0.0
 10
-15.895164
 20
238.055822
 30
0.0
 10
-15.858002
 20
238.120188
 30
0.0
 10
-15.818407
 20
238.183084
 30
0.0
 10
-15.776435
 20
238.244416
 30
0.0
 10
-15.732140
 20
238.304087
 30
0.0
 10
-15.685348
 20
238.362290
 30
0.0
 10
-15.636078
 20
238.418895
 30
0.0
 10
-15.584381
 20
238.473795
 30
0.0
 10
-15.530583
 20
238.526645
 30
0.0
 10
-15.474770
 20
238.577372
 30
0.0
 10
-15.417030
 20
238.625902
 30
0.0
 10
-15.357453
 20
238.672158
 30
0.0
 10
-15.296126
 20
238.716066
 30
0.0
 10
-15.233137
 20
238.757554
 30
0.0
 10
-15.168574
 20
238.796545
 30
0.0
 10
-15.102528
 20
238.832963
 30
0.0
 10
-15.035109
 20
238.866769
 30
0.0
 10
-14.966424
 20
238.897924
 30
0.0
 10
-14.896581
 20
238.926390
 30
0.0
 10
-14.825686
 20
238.952127
 30
0.0
 10
-14.753851
 20
238.975097
 30
0.0
 10
-14.681181
 20
238.995260
 30
0.0
 10
-14.607785
 20
239.012578
 30
0.0
 10
-14.534122
 20
239.026942
 30
0.0
 10
-14.460312
 20
239.038362
 30
0.0
 10
-14.386474
 20
239.046886
 30
0.0
 10
-14.312363
 20
239.052568
 30
0.0
 10
-14.238088
 20
239.055409
 30
0.0
 10
-14.163757
 20
239.055409
 30
0.0
 10
-14.089482
 20
239.052568
 30
0.0
 10
-14.015370
 20
239.046886
 30
0.0
 10
-13.941533
 20
239.038362
 30
0.0
 10
-13.867721
 20
239.026942
 30
0.0
 10
-13.794057
 20
239.012577
 30
0.0
 10
-13.720659
 20
238.995259
 30
0.0
 10
-13.647987
 20
238.975095
 30
0.0
 10
-13.576149
 20
238.952126
 30
0.0
 10
-13.505253
 20
238.926388
 30
0.0
 10
-13.435409
 20
238.897922
 30
0.0
 10
-13.366723
 20
238.866767
 30
0.0
 10
-13.299303
 20
238.832962
 30
0.0
 10
-13.233258
 20
238.796546
 30
0.0
 10
-13.168697
 20
238.757557
 30
0.0
 10
-13.105711
 20
238.716073
 30
0.0
 10
-13.044387
 20
238.672167
 30
0.0
 10
-12.984813
 20
238.625913
 30
0.0
 10
-12.927075
 20
238.577385
 30
0.0
 10
-12.871264
 20
238.526657
 30
0.0
 10
-12.817465
 20
238.473804
 30
0.0
 10
-12.765767
 20
238.418900
 30
0.0
 10
-12.716494
 20
238.362287
 30
0.0
 10
-12.669699
 20
238.304075
 30
0.0
 10
-12.625398
 20
238.244392
 30
0.0
 10
-12.583421
 20
238.183051
 30
0.0
 10
-12.543823
 20
238.120147
 30
0.0
 10
-12.506658
 20
238.055775
 30
0.0
 10
-12.471981
 20
237.990030
 30
0.0
 10
-12.439847
 20
237.923007
 30
0.0
 10
-12.410310
 20
237.854800
 30
0.0
 10
-12.383295
 20
237.785168
 30
0.0
 10
-12.358903
 20
237.714191
 30
0.0
 10
-12.337203
 20
237.641967
 30
0.0
 10
-12.318330
 20
237.568950
 30
0.0
 10
-12.302304
 20
237.495253
 30
0.0
 10
-12.289147
 20
237.420986
 30
0.0
 10
-12.278878
 20
237.346266
 30
0.0
 10
-12.271517
 20
237.271204
 30
0.0
 10
-12.267084
 20
237.195913
 30
0.0
 10
-12.265601
 20
237.120505
 30
0.0
 10
-12.267087
 20
237.045097
 30
0.0
 10
-12.271522
 20
236.969804
 30
0.0
 10
-12.278886
 20
236.894741
 30
0.0
 10
-12.289156
 20
236.820019
 30
0.0
 10
-12.302315
 20
236.745751
 30
0.0
 10
-12.318340
 20
236.672055
 30
0.0
 10
-12.337211
 20
236.599040
 30
0.0
 10
-12.358907
 20
236.526822
 30
0.0
 10
-12.383294
 20
236.455851
 30
0.0
 10
-12.410303
 20
236.386227
 30
0.0
 10
-12.439833
 20
236.318031
 30
0.0
 10
-12.471962
 20
236.251016
 30
0.0
 10
-12.506634
 20
236.185278
 30
0.0
 10
-12.543797
 20
236.120911
 30
0.0
 10
-12.583397
 20
236.058006
 30
0.0
 10
-12.625380
 20
235.996655
 30
0.0
 10
-12.669691
 20
235.936954
 30
0.0
 10
-12.716502
 20
235.878716
 30
0.0
 10
-12.765793
 20
235.822068
 30
0.0
 10
-12.817515
 20
235.767120
 30
0.0
 10
-12.871333
 20
235.714229
 30
0.0
 10
-12.927158
 20
235.663470
 30
0.0
 10
-12.984907
 20
235.614919
 30
0.0
 10
-13.044475
 20
235.568668
 30
0.0
 10
-13.105776
 20
235.524791
 30
0.0
 10
-13.168722
 20
235.483368
 30
0.0
 10
-13.233229
 20
235.444478
 30
0.0
 10
-13.299208
 20
235.408204
 30
0.0
 10
-13.366537
 20
235.374569
 30
0.0
 10
-13.435154
 20
235.343571
 30
0.0
 10
-13.504946
 20
235.315239
 30
0.0
 10
-13.575800
 20
235.289592
 30
0.0
 10
-13.647654
 20
235.266627
 30
0.0
 10
-13.720402
 20
235.246367
 30
0.0
 10
-13.793939
 20
235.228825
 30
0.0
 10
-13.867797
 20
235.214082
 30
0.0
 10
-13.941863
 20
235.202105
 30
0.0
 10
-14.016040
 20
235.192940
 30
0.0
 10
-14.090434
 20
235.186632
 30
0.0
 10
-14.164938
 20
235.183255
 30
0.0
 10
-14.239442
 20
235.182912
 30
0.0
 10
-14.313715
 20
235.185711
 30
0.0
 10
-14.387614
 20
235.191734
 30
0.0
 10
-14.460974
 20
235.201079
 30
0.0
 10
-14.534053
 20
235.213930
 30
0.0
 10
-14.606647
 20
235.230456
 30
0.0
 10
-14.678684
 20
235.250249
 30
0.0
 10
-14.750059
 20
235.272859
 30
0.0
 10
-14.820790
 20
235.297879
 30
0.0
 10
-14.890947
 20
235.324897
 30
0.0
 10
-14.960652
 20
235.353503
 30
0.0
 10
-15.030043
 20
235.383298
 30
0.0
 10
-15.099267
 20
235.413911
 30
0.0
 10
-15.145305
 20
235.434568
 30
0.0
 10
-15.168325
 20
235.444897
 30
0.0
 11
-15.168325
 21
235.444897
 31
0.0
 11
-15.229652
 21
235.489266
 31
0.0
 11
-15.290735
 21
235.533963
 31
0.0
 11
-15.351334
 21
235.579319
 31
0.0
 11
-15.410777
 21
235.625331
 31
0.0
 11
-15.469202
 21
235.672629
 31
0.0
 11
-15.526307
 21
235.721529
 31
0.0
 11
-15.581402
 21
235.771971
 31
0.0
 11
-15.634501
 21
235.824499
 31
0.0
 11
-15.685207
 21
235.879313
 31
0.0
 11
-15.732710
 21
235.935937
 31
0.0
 11
-15.777491
 21
235.994765
 31
0.0
 11
-15.819559
 21
236.055570
 31
0.0
 11
-15.859223
 21
236.118621
 31
0.0
 11
-15.896185
 21
236.183285
 31
0.0
 11
-15.930483
 21
236.249398
 31
0.0
 11
-15.962255
 21
236.317030
 31
0.0
 11
-15.991410
 21
236.385831
 31
0.0
 11
-16.017973
 21
236.455676
 31
0.0
 11
-16.042218
 21
236.527267
 31
0.0
 11
-16.063786
 21
236.599706
 31
0.0
 11
-16.082625
 21
236.672901
 31
0.0
 11
-16.098639
 21
236.746512
 31
0.0
 11
-16.111846
 21
236.820680
 31
0.0
 11
-16.122203
 21
236.895299
 31
0.0
 11
-16.129657
 21
236.970173
 31
0.0
 11
-16.134187
 21
237.045280
 31
0.0
 11
-16.135755
 21
237.120506
 31
0.0
 11
-16.134334
 21
237.195826
 31
0.0
 11
-16.129938
 21
237.271033
 31
0.0
 11
-16.122598
 21
237.346010
 31
0.0
 11
-16.112328
 21
237.420736
 31
0.0
 11
-16.099161
 21
237.495005
 31
0.0
 11
-16.083120
 21
237.568707
 31
0.0
 11
-16.064226
 21
237.641747
 31
0.0
 11
-16.042503
 21
237.713996
 31
0.0
 11
-16.017973
 21
237.785340
 31
0.0
 11
-15.991086
 21
237.854635
 31
0.0
 11
-15.961549
 21
237.922844
 31
0.0
 11
-15.929415
 21
237.989869
 31
0.0
 11
-15.894749
 21
238.055593
 31
0.0
 11
-15.857596
 21
238.119944
 31
0.0
 11
-15.818009
 21
238.182827
 31
0.0
 11
-15.776047
 21
238.244140
 31
0.0
 11
-15.731762
 21
238.303795
 31
0.0
 11
-15.685208
 21
238.361698
 31
0.0
 11
-15.635714
 21
238.418565
 31
0.0
 11
-15.584032
 21
238.473453
 31
0.0
 11
-15.530252
 21
238.526287
 31
0.0
 11
-15.474449
 21
238.577006
 31
0.0
 11
-15.416724
 21
238.625523
 31
0.0
 11
-15.357161
 21
238.671767
 31
0.0
 11
-15.295849
 21
238.715663
 31
0.0
 11
-15.232874
 21
238.757138
 31
0.0
 11
-15.168326
 21
238.796117
 31
0.0
 11
-15.102300
 21
238.832527
 31
0.0
 11
-15.034898
 21
238.866327
 31
0.0
 11
-14.966231
 21
238.897476
 31
0.0
 11
-14.896405
 21
238.925935
 31
0.0
 11
-14.825529
 21
238.951666
 31
0.0
 11
-14.753708
 21
238.974630
 31
0.0
 11
-14.681059
 21
238.994786
 31
0.0
 11
-14.607681
 21
239.012097
 31
0.0
 11
-14.533683
 21
239.026524
 31
0.0
 11
-14.460248
 21
239.037889
 31
0.0
 11
-14.386429
 21
239.046412
 31
0.0
 11
-14.312337
 21
239.052094
 31
0.0
 11
-14.238079
 21
239.054936
 31
0.0
 11
-14.163767
 21
239.054936
 31
0.0
 11
-14.089508
 21
239.052095
 31
0.0
 11
-14.015416
 21
239.046412
 31
0.0
 11
-13.941596
 21
239.037889
 31
0.0
 11
-13.868161
 21
239.026524
 31
0.0
 11
-13.794161
 21
239.012097
 31
0.0
 11
-13.720781
 21
238.994785
 31
0.0
 11
-13.648129
 21
238.974629
 31
0.0
 11
-13.576307
 21
238.951664
 31
0.0
 11
-13.505429
 21
238.925933
 31
0.0
 11
-13.435601
 21
238.897474
 31
0.0
 11
-13.366934
 21
238.866325
 31
0.0
 11
-13.299532
 21
238.832527
 31
0.0
 11
-13.233505
 21
238.796117
 31
0.0
 11
-13.168960
 21
238.757142
 31
0.0
 11
-13.105988
 21
238.715669
 31
0.0
 11
-13.044679
 21
238.671776
 31
0.0
 11
-12.985119
 21
238.625534
 31
0.0
 11
-12.927396
 21
238.577018
 31
0.0
 11
-12.871597
 21
238.526301
 31
0.0
 11
-12.817815
 21
238.473462
 31
0.0
 11
-12.766131
 21
238.418569
 31
0.0
 11
-12.716637
 21
238.361697
 31
0.0
 11
-12.670077
 21
238.303783
 31
0.0
 11
-12.625786
 21
238.244116
 31
0.0
 11
-12.583818
 21
238.182791
 31
0.0
 11
-12.544229
 21
238.119903
 31
0.0
 11
-12.507073
 21
238.055546
 31
0.0
 11
-12.472405
 21
237.989816
 31
0.0
 11
-12.440280
 21
237.922809
 31
0.0
 11
-12.410752
 21
237.854619
 31
0.0
 11
-12.383877
 21
237.785340
 31
0.0
 11
-12.359372
 21
237.714041
 31
0.0
 11
-12.337675
 21
237.641836
 31
0.0
 11
-12.318806
 21
237.568841
 31
0.0
 11
-12.302783
 21
237.495158
 31
0.0
 11
-12.289628
 21
237.420911
 31
0.0
 11
-12.279363
 21
237.346209
 31
0.0
 11
-12.272005
 21
237.271166
 31
0.0
 11
-12.267576
 21
237.195893
 31
0.0
 11
-12.266096
 21
237.120506
 31
0.0
 11
-12.267579
 21
237.045117
 31
0.0
 11
-12.272010
 21
236.969843
 31
0.0
 11
-12.279370
 21
236.894798
 31
0.0
 11
-12.289638
 21
236.820095
 31
0.0
 11
-12.302793
 21
236.745846
 31
0.0
 11
-12.318816
 21
236.672162
 31
0.0
 11
-12.337682
 21
236.599172
 31
0.0
 11
-12.359376
 21
236.526972
 31
0.0
 11
-12.383877
 21
236.455677
 31
0.0
 11
-12.410745
 21
236.386409
 31
0.0
 11
-12.440266
 21
236.318229
 31
0.0
 11
-12.472384
 21
236.251232
 31
0.0
 11
-12.507049
 21
236.185507
 31
0.0
 11
-12.544202
 21
236.121156
 31
0.0
 11
-12.583789
 21
236.058272
 31
0.0
 11
-12.625767
 21
235.996931
 31
0.0
 11
-12.670069
 21
235.937246
 31
0.0
 11
-12.716638
 21
235.879313
 31
0.0
 11
-12.766158
 21
235.822399
 31
0.0
 11
-12.817865
 21
235.767462
 31
0.0
 11
-12.871672
 21
235.714580
 31
0.0
 11
-12.927479
 21
235.663837
 31
0.0
 11
-12.985214
 21
235.615299
 31
0.0
 11
-13.044792
 21
235.569042
 31
0.0
 11
-13.106054
 21
235.525197
 31
0.0
 11
-13.168987
 21
235.483787
 31
0.0
 11
-13.233505
 21
235.444896
 31
0.0
 11
-13.299437
 21
235.408642
 31
0.0
 11
-13.366747
 21
235.375010
 31
0.0
 11
-13.435318
 21
235.344029
 31
0.0
 11
-13.505119
 21
235.315688
 31
0.0
 11
-13.575954
 21
235.290043
 31
0.0
 11
-13.647711
 21
235.267105
 31
0.0
 11
-13.720520
 21
235.246824
 31
0.0
 11
-13.794038
 21
235.229282
 31
0.0
 11
-13.868161
 21
235.214484
 31
0.0
 11
-13.941930
 21
235.202566
 31
0.0
 11
-14.016090
 21
235.193415
 31
0.0
 11
-14.090546
 21
235.187114
 31
0.0
 11
-14.164950
 21
235.183760
 31
0.0
 11
-14.239431
 21
235.183437
 31
0.0
 11
-14.313867
 21
235.186261
 31
0.0
 11
-14.387559
 21
235.192291
 31
0.0
 11
-14.460895
 21
235.201657
 31
0.0
 11
-14.533683
 21
235.214484
 31
0.0
 11
-14.606505
 21
235.230989
 31
0.0
 11
-14.678544
 21
235.250709
 31
0.0
 11
-14.749774
 21
235.273201
 31
0.0
 11
-14.820673
 21
235.298204
 31
0.0
 11
-14.890845
 21
235.325151
 31
0.0
 11
-14.960412
 21
235.353622
 31
0.0
 11
-15.029989
 21
235.383423
 31
0.0
 11
-15.099239
 21
235.413973
 31
0.0
 11
-15.168325
 21
235.444897
 31
0.0
  0
SPLINE
  5
104
100
AcDbEntity
  8
Layer_1
 62
1
100
AcDbSpline
 70
0
 71
3
 72
169
 73
165
 74
163
 40
0.000000
 40
0.000000
 40
0.000000
 40
0.000000
 40
0.075879
 40
0.151755
 40
0.227633
 40
0.302987
 40
0.378342
 40
0.453707
 40
0.528589
 40
0.603463
 40
0.678317
 40
0.752408
 40
0.826521
 40
0.900641
 40
0.975314
 40
1.049978
 40
1.124641
 40
1.199547
 40
1.274453
 40
1.349363
 40
1.425133
 40
1.500901
 40
1.576668
 40
1.652187
 40
1.727706
 40
1.803226
 40
1.878656
 40
1.954085
 40
2.029512
 40
2.105032
 40
2.180554
 40
2.256077
 40
2.331692
 40
2.407305
 40
2.482920
 40
2.558551
 40
2.634182
 40
2.709812
 40
2.784323
 40
2.858836
 40
2.933348
 40
3.007838
 40
3.082327
 40
3.156816
 40
3.231296
 40
3.305776
 40
3.380256
 40
3.455830
 40
3.531407
 40
3.606984
 40
3.682577
 40
3.758170
 40
3.833763
 40
3.909356
 40
3.984947
 40
4.060538
 40
4.136124
 40
4.211711
 40
4.287298
 40
4.362887
 40
4.438476
 40
4.514065
 40
4.589645
 40
4.665224
 40
4.740802
 40
4.815294
 40
4.889786
 40
4.964278
 40
5.038774
 40
5.113268
 40
5.187764
 40
5.262256
 40
5.336749
 40
5.411241
 40
5.486819
 40
5.562399
 40
5.637979
 40
5.713569
 40
5.789158
 40
5.864748
 40
5.940336
 40
6.015922
 40
6.091508
 40
6.167094
 40
6.242681
 40
6.318268
 40
6.393858
 40
6.469448
 40
6.545038
 40
6.620619
 40
6.696200
 40
6.771779
 40
6.846272
 40
6.920765
 40
6.995259
 40
7.069755
 40
7.144250
 40
7.218746
 40
7.293238
 40
7.367731
 40
7.442223
 40
7.517800
 40
7.593379
 40
7.668959
 40
7.744549
 40
7.820138
 40
7.895727
 40
7.971315
 40
8.046903
 40
8.122490
 40
8.198080
 40
8.273671
 40
8.349263
 40
8.424856
 40
8.500448
 40
8.576042
 40
8.651619
 40
8.727195
 40
8.802770
 40
8.877249
 40
8.951728
 40
9.026208
 40
9.100698
 40
9.175187
 40
9.249677
 40
9.324189
 40
9.398702
 40
9.473214
 40
9.548843
 40
9.624474
 40
9.700105
 40
9.775719
 40
9.851332
 40
9.926947
 40
10.002469
 40
10.077990
 40
10.153509
 40
10.228937
 40
10.304367
 40
10.379797
 40
10.455317
 40
10.530837
 40
10.606356
 40
10.682123
 40
10.757891
 40
10.833662
 40
10.908571
 40
10.983478
 40
11.058384
 40
11.133048
 40
11.207713
 40
11.282386
 40
11.356507
 40
11.430621
 40
11.504713
 40
11.579567
 40
11.654441
 40
11.729323
 40
11.804689
 40
11.880044
 40
11.955398
 40
12.031276
 40
12.107153
 40
12.183032
 40
12.183032
 40
12.183032
 40
12.183032
 10
228.070476
 20
237.120511
 30
0.0
 10
228.073047
 20
237.145673
 30
0.0
 10
228.078190
 20
237.195996
 30
0.0
 10
228.086311
 20
237.271439
 30
0.0
 10
228.095226
 20
237.346617
 30
0.0
 10
228.105330
 20
237.421471
 30
0.0
 10
228.117040
 20
237.495922
 30
0.0
 10
228.130771
 20
237.569870
 30
0.0
 10
228.146918
 20
237.643169
 30
0.0
 10
228.165843
 20
237.715629
 30
0.0
 10
228.187882
 20
237.786936
 30
0.0
 10
228.213356
 20
237.856821
 30
0.0
 10
228.242014
 20
237.925192
 30
0.0
 10
228.273826
 20
237.992366
 30
0.0
 10
228.308625
 20
238.058249
 30
0.0
 10
228.346267
 20
238.122759
 30
0.0
 10
228.386542
 20
238.185747
 30
0.0
 10
228.429307
 20
238.247170
 30
0.0
 10
228.474444
 20
238.306973
 30
0.0
 10
228.521966
 20
238.365270
 30
0.0
 10
228.571785
 20
238.422001
 30
0.0
 10
228.623872
 20
238.477050
 30
0.0
 10
228.677925
 20
238.530052
 30
0.0
 10
228.733877
 20
238.580921
 30
0.0
 10
228.791656
 20
238.629578
 30
0.0
 10
228.851234
 20
238.675968
 30
0.0
 10
228.912537
 20
238.720001
 30
0.0
 10
228.975485
 20
238.761593
 30
0.0
 10
229.040048
 20
238.800691
 30
0.0
 10
229.106144
 20
238.837202
 30
0.0
 10
229.173658
 20
238.871089
 30
0.0
 10
229.242477
 20
238.902316
 30
0.0
 10
229.312488
 20
238.930849
 30
0.0
 10
229.383585
 20
238.956649
 30
0.0
 10
229.455635
 20
238.979672
 30
0.0
 10
229.528529
 20
238.999884
 30
0.0
 10
229.602160
 20
239.017246
 30
0.0
 10
229.676047
 20
239.031645
 30
0.0
 10
229.750070
 20
239.043094
 30
0.0
 10
229.824109
 20
239.051641
 30
0.0
 10
229.898414
 20
239.057339
 30
0.0
 10
229.972874
 20
239.060188
 30
0.0
 10
230.047382
 20
239.060189
 30
0.0
 10
230.121832
 20
239.057340
 30
0.0
 10
230.196115
 20
239.051642
 30
0.0
 10
230.270121
 20
239.043096
 30
0.0
 10
230.344104
 20
239.031647
 30
0.0
 10
230.417942
 20
239.017245
 30
0.0
 10
230.491516
 20
238.999883
 30
0.0
 10
230.564365
 20
238.979669
 30
0.0
 10
230.636380
 20
238.956642
 30
0.0
 10
230.707453
 20
238.930839
 30
0.0
 10
230.777473
 20
238.902302
 30
0.0
 10
230.846332
 20
238.871069
 30
0.0
 10
230.913923
 20
238.837180
 30
0.0
 10
230.980134
 20
238.800673
 30
0.0
 10
231.044855
 20
238.761588
 30
0.0
 10
231.107997
 20
238.720001
 30
0.0
 10
231.169471
 20
238.675987
 30
0.0
 10
231.229192
 20
238.629620
 30
0.0
 10
231.287071
 20
238.580972
 30
0.0
 10
231.343018
 20
238.530120
 30
0.0
 10
231.396948
 20
238.477136
 30
0.0
 10
231.448771
 20
238.422096
 30
0.0
 10
231.498164
 20
238.365345
 30
0.0
 10
231.545074
 20
238.306989
 30
0.0
 10
231.589484
 20
238.247159
 30
0.0
 10
231.631564
 20
238.185668
 30
0.0
 10
231.671259
 20
238.122610
 30
0.0
 10
231.708516
 20
238.058079
 30
0.0
 10
231.743278
 20
237.992172
 30
0.0
 10
231.775492
 20
237.924984
 30
0.0
 10
231.805102
 20
237.856609
 30
0.0
 10
231.832183
 20
237.786805
 30
0.0
 10
231.856634
 20
237.715653
 30
0.0
 10
231.878388
 20
237.643252
 30
0.0
 10
231.897306
 20
237.570055
 30
0.0
 10
231.913371
 20
237.496176
 30
0.0
 10
231.926560
 20
237.421727
 30
0.0
 10
231.936854
 20
237.346823
 30
0.0
 10
231.944234
 20
237.271577
 30
0.0
 10
231.948678
 20
237.196102
 30
0.0
 10
231.950166
 20
237.120511
 30
0.0
 10
231.948678
 20
237.044920
 30
0.0
 10
231.944234
 20
236.969445
 30
0.0
 10
231.936854
 20
236.894199
 30
0.0
 10
231.926560
 20
236.819295
 30
0.0
 10
231.913371
 20
236.744845
 30
0.0
 10
231.897307
 20
236.670966
 30
0.0
 10
231.878388
 20
236.597768
 30
0.0
 10
231.856634
 20
236.525366
 30
0.0
 10
231.832183
 20
236.454213
 30
0.0
 10
231.805102
 20
236.384408
 30
0.0
 10
231.775492
 20
236.316033
 30
0.0
 10
231.743278
 20
236.248843
 30
0.0
 10
231.708516
 20
236.182936
 30
0.0
 10
231.671259
 20
236.118405
 30
0.0
 10
231.631564
 20
236.055346
 30
0.0
 10
231.589483
 20
235.993854
 30
0.0
 10
231.545074
 20
235.934024
 30
0.0
 10
231.498164
 20
235.875669
 30
0.0
 10
231.448771
 20
235.818917
 30
0.0
 10
231.396949
 20
235.763876
 30
0.0
 10
231.343019
 20
235.710892
 30
0.0
 10
231.287072
 20
235.660039
 30
0.0
 10
231.229194
 20
235.611391
 30
0.0
 10
231.169473
 20
235.565023
 30
0.0
 10
231.107998
 20
235.521008
 30
0.0
 10
231.044856
 20
235.479421
 30
0.0
 10
230.980135
 20
235.440336
 30
0.0
 10
230.913923
 20
235.403829
 30
0.0
 10
230.846333
 20
235.369940
 30
0.0
 10
230.777473
 20
235.338709
 30
0.0
 10
230.707453
 20
235.310173
 30
0.0
 10
230.636380
 20
235.284372
 30
0.0
 10
230.564365
 20
235.261345
 30
0.0
 10
230.491516
 20
235.241131
 30
0.0
 10
230.417942
 20
235.223770
 30
0.0
 10
230.344104
 20
235.209369
 30
0.0
 10
230.270121
 20
235.197921
 30
0.0
 10
230.196115
 20
235.189376
 30
0.0
 10
230.121832
 20
235.183680
 30
0.0
 10
230.047382
 20
235.180832
 30
0.0
 10
229.972874
 20
235.180832
 30
0.0
 10
229.898413
 20
235.183681
 30
0.0
 10
229.824108
 20
235.189378
 30
0.0
 10
229.750069
 20
235.197923
 30
0.0
 10
229.676045
 20
235.209371
 30
0.0
 10
229.602159
 20
235.223770
 30
0.0
 10
229.528528
 20
235.241131
 30
0.0
 10
229.455634
 20
235.261342
 30
0.0
 10
229.383585
 20
235.284364
 30
0.0
 10
229.312488
 20
235.310163
 30
0.0
 10
229.242476
 20
235.338695
 30
0.0
 10
229.173657
 20
235.369921
 30
0.0
 10
229.106143
 20
235.403807
 30
0.0
 10
229.040048
 20
235.440317
 30
0.0
 10
228.975485
 20
235.479416
 30
0.0
 10
228.912537
 20
235.521009
 30
0.0
 10
228.851234
 20
235.565043
 30
0.0
 10
228.791656
 20
235.611433
 30
0.0
 10
228.733877
 20
235.660091
 30
0.0
 10
228.677925
 20
235.710961
 30
0.0
 10
228.623873
 20
235.763963
 30
0.0
 10
228.571785
 20
235.819012
 30
0.0
 10
228.521966
 20
235.875743
 30
0.0
 10
228.474444
 20
235.934041
 30
0.0
 10
228.429307
 20
235.993844
 30
0.0
 10
228.386543
 20
236.055268
 30
0.0
 10
228.346267
 20
236.118257
 30
0.0
 10
228.308626
 20
236.182767
 30
0.0
 10
228.273827
 20
236.248650
 30
0.0
 10
228.242015
 20
236.315826
 30
0.0
 10
228.213356
 20
236.384197
 30
0.0
 10
228.187883
 20
236.454083
 30
0.0
 10
228.165843
 20
236.525390
 30
0.0
 10
228.146918
 20
236.597851
 30
0.0
 10
228.130770
 20
236.671150
 30
0.0
 10
228.117039
 20
236.745098
 30
0.0
 10
228.105329
 20
236.819549
 30
0.0
 10
228.095226
 20
236.894404
 30
0.0
 10
228.086311
 20
236.969583
 30
0.0
 10
228.078190
 20
237.045026
 30
0.0
 10
228.073047
 20
237.095349
 30
0.0
 10
228.070476
 20
237.120511
 30
0.0
 11
228.070476
 21
237.120511
 31
0.0
 11
228.078258
 21
237.195990
 31
0.0
 11
228.086447
 21
237.271423
 31
0.0
 11
228.095450
 21
237.346765
 31
0.0
 11
228.105602
 21
237.421432
 31
0.0
 11
228.117381
 21
237.495860
 31
0.0
 11
228.131211
 21
237.569946
 31
0.0
 11
228.147388
 21
237.643059
 31
0.0
 11
228.166377
 21
237.715486
 31
0.0
 11
228.188549
 21
237.786980
 31
0.0
 11
228.213898
 21
237.856600
 31
0.0
 11
228.242525
 21
237.924961
 31
0.0
 11
228.274228
 21
237.991959
 31
0.0
 11
228.309086
 21
238.057996
 31
0.0
 11
228.346699
 21
238.122495
 31
0.0
 11
228.386905
 21
238.185408
 31
0.0
 11
228.429694
 21
238.246888
 31
0.0
 11
228.474810
 21
238.306684
 31
0.0
 11
228.522133
 21
238.364753
 31
0.0
 11
228.572132
 21
238.421685
 31
0.0
 11
228.624210
 21
238.476719
 31
0.0
 11
228.678312
 21
238.529763
 31
0.0
 11
228.734191
 21
238.580562
 31
0.0
 11
228.791959
 21
238.629203
 31
0.0
 11
228.851549
 21
238.675596
 31
0.0
 11
228.912815
 21
238.719597
 31
0.0
 11
228.975750
 21
238.761175
 31
0.0
 11
229.040272
 21
238.800242
 31
0.0
 11
229.106375
 21
238.836762
 31
0.0
 11
229.173870
 21
238.870643
 31
0.0
 11
229.242643
 21
238.901853
 31
0.0
 11
229.312665
 21
238.930392
 31
0.0
 11
229.383743
 21
238.956186
 31
0.0
 11
229.455769
 21
238.979202
 31
0.0
 11
229.528651
 21
238.999409
 31
0.0
 11
229.602264
 21
239.016764
 31
0.0
 11
229.676498
 21
239.031228
 31
0.0
 11
229.750133
 21
239.042620
 31
0.0
 11
229.824154
 21
239.051166
 31
0.0
 11
229.898449
 21
239.056865
 31
0.0
 11
229.972883
 21
239.059714
 31
0.0
 11
230.047372
 21
239.059714
 31
0.0
 11
230.121807
 21
239.056865
 31
0.0
 11
230.196069
 21
239.051167
 31
0.0
 11
230.270057
 21
239.042621
 31
0.0
 11
230.343660
 21
239.031228
 31
0.0
 11
230.417838
 21
239.016764
 31
0.0
 11
230.491394
 21
238.999408
 31
0.0
 11
230.564220
 21
238.979202
 31
0.0
 11
230.636222
 21
238.956180
 31
0.0
 11
230.707278
 21
238.930384
 31
0.0
 11
230.777280
 21
238.901853
 31
0.0
 11
230.846121
 21
238.870626
 31
0.0
 11
230.913693
 21
238.836743
 31
0.0
 11
230.979887
 21
238.800242
 31
0.0
 11
231.044592
 21
238.761171
 31
0.0
 11
231.107719
 21
238.719597
 31
0.0
 11
231.169179
 21
238.675596
 31
0.0
 11
231.228885
 21
238.629240
 31
0.0
 11
231.286749
 21
238.580605
 31
0.0
 11
231.342685
 21
238.529762
 31
0.0
 11
231.396597
 21
238.476793
 31
0.0
 11
231.448406
 21
238.421765
 31
0.0
 11
231.498021
 21
238.364753
 31
0.0
 11
231.544695
 21
238.306697
 31
0.0
 11
231.589095
 21
238.246883
 31
0.0
 11
231.631166
 21
238.185408
 31
0.0
 11
231.670853
 21
238.122364
 31
0.0
 11
231.708100
 21
238.057850
 31
0.0
 11
231.742854
 21
237.991958
 31
0.0
 11
231.775058
 21
237.924786
 31
0.0
 11
231.804658
 21
237.856427
 31
0.0
 11
231.831600
 21
237.786977
 31
0.0
 11
231.856165
 21
237.715503
 31
0.0
 11
231.877915
 21
237.643121
 31
0.0
 11
231.896830
 21
237.569945
 31
0.0
 11
231.912892
 21
237.496082
 31
0.0
 11
231.926078
 21
237.421651
 31
0.0
 11
231.936369
 21
237.346765
 31
0.0
 11
231.943744
 21
237.271539
 31
0.0
 11
231.948185
 21
237.196082
 31
0.0
 11
231.949670
 21
237.120511
 31
0.0
 11
231.948185
 21
237.044940
 31
0.0
 11
231.943744
 21
236.969483
 31
0.0
 11
231.936369
 21
236.894257
 31
0.0
 11
231.926078
 21
236.819371
 31
0.0
 11
231.912892
 21
236.744940
 31
0.0
 11
231.896830
 21
236.671076
 31
0.0
 11
231.877915
 21
236.597900
 31
0.0
 11
231.856165
 21
236.525517
 31
0.0
 11
231.831600
 21
236.454041
 31
0.0
 11
231.804658
 21
236.384591
 31
0.0
 11
231.775058
 21
236.316231
 31
0.0
 11
231.742854
 21
236.249058
 31
0.0
 11
231.708100
 21
236.183165
 31
0.0
 11
231.670853
 21
236.118650
 31
0.0
 11
231.631166
 21
236.055606
 31
0.0
 11
231.589095
 21
235.994131
 31
0.0
 11
231.544695
 21
235.934317
 31
0.0
 11
231.498021
 21
235.876260
 31
0.0
 11
231.448406
 21
235.819248
 31
0.0
 11
231.396598
 21
235.764220
 31
0.0
 11
231.342686
 21
235.711250
 31
0.0
 11
231.286751
 21
235.660407
 31
0.0
 11
231.228887
 21
235.611771
 31
0.0
 11
231.169180
 21
235.565415
 31
0.0
 11
231.107720
 21
235.521413
 31
0.0
 11
231.044593
 21
235.479838
 31
0.0
 11
230.979887
 21
235.440766
 31
0.0
 11
230.913694
 21
235.404266
 31
0.0
 11
230.846121
 21
235.370383
 31
0.0
 11
230.777280
 21
235.339158
 31
0.0
 11
230.707278
 21
235.310629
 31
0.0
 11
230.636222
 21
235.284834
 31
0.0
 11
230.564220
 21
235.261812
 31
0.0
 11
230.491394
 21
235.241606
 31
0.0
 11
230.417838
 21
235.224251
 31
0.0
 11
230.343660
 21
235.209788
 31
0.0
 11
230.270057
 21
235.198395
 31
0.0
 11
230.196069
 21
235.189851
 31
0.0
 11
230.121808
 21
235.184155
 31
0.0
 11
230.047373
 21
235.181306
 31
0.0
 11
229.972883
 21
235.181307
 31
0.0
 11
229.898448
 21
235.184155
 31
0.0
 11
229.824154
 21
235.189852
 31
0.0
 11
229.750133
 21
235.198397
 31
0.0
 11
229.676496
 21
235.209788
 31
0.0
 11
229.602263
 21
235.224251
 31
0.0
 11
229.528650
 21
235.241606
 31
0.0
 11
229.455769
 21
235.261812
 31
0.0
 11
229.383742
 21
235.284827
 31
0.0
 11
229.312664
 21
235.310621
 31
0.0
 11
229.242642
 21
235.339158
 31
0.0
 11
229.173870
 21
235.370367
 31
0.0
 11
229.106375
 21
235.404247
 31
0.0
 11
229.040272
 21
235.440766
 31
0.0
 11
228.975750
 21
235.479834
 31
0.0
 11
228.912815
 21
235.521413
 31
0.0
 11
228.851549
 21
235.565415
 31
0.0
 11
228.791959
 21
235.611808
 31
0.0
 11
228.734191
 21
235.660451
 31
0.0
 11
228.678312
 21
235.711250
 31
0.0
 11
228.624210
 21
235.764294
 31
0.0
 11
228.572132
 21
235.819328
 31
0.0
 11
228.522133
 21
235.876260
 31
0.0
 11
228.474811
 21
235.934330
 31
0.0
 11
228.429695
 21
235.994126
 31
0.0
 11
228.386906
 21
236.055607
 31
0.0
 11
228.346700
 21
236.118521
 31
0.0
 11
228.309087
 21
236.183020
 31
0.0
 11
228.274228
 21
236.249058
 31
0.0
 11
228.242526
 21
236.316056
 31
0.0
 11
228.213898
 21
236.384418
 31
0.0
 11
228.188549
 21
236.454039
 31
0.0
 11
228.166377
 21
236.525534
 31
0.0
 11
228.147387
 21
236.597961
 31
0.0
 11
228.131210
 21
236.671074
 31
0.0
 11
228.117380
 21
236.745160
 31
0.0
 11
228.105601
 21
236.819589
 31
0.0
 11
228.095449
 21
236.894256
 31
0.0
 11
228.086447
 21
236.969598
 31
0.0
 11
228.078258
 21
237.045032
 31
0.0
 11
228.070476
 21
237.120511
 31
0.0
  0
SPLINE
  5
105
100
AcDbEntity
  8
Layer_1
 62
1
100
AcDbSpline
 70
0
 71
3
 72
169
 73
165
 74
163
 40
0.000000
 40
0.000000
 40
0.000000
 40
0.000000
 40
0.075692
 40
0.151381
 40
0.227071
 40
0.302239
 40
0.377408
 40
0.452587
 40
0.527284
 40
0.601974
 40
0.676643
 40
0.750552
 40
0.824484
 40
0.898422
 40
0.972911
 40
1.047392
 40
1.121871
 40
1.196592
 40
1.271314
 40
1.346039
 40
1.421624
 40
1.497207
 40
1.572789
 40
1.648122
 40
1.723457
 40
1.798792
 40
1.874038
 40
1.949283
 40
2.024526
 40
2.099859
 40
2.175195
 40
2.250531
 40
2.325959
 40
2.401386
 40
2.476814
 40
2.552258
 40
2.627702
 40
2.703144
 40
2.777473
 40
2.851802
 40
2.926132
 40
3.000438
 40
3.074744
 40
3.149050
 40
3.223347
 40
3.297644
 40
3.371939
 40
3.447328
 40
3.522717
 40
3.598108
 40
3.673514
 40
3.748920
 40
3.824326
 40
3.899732
 40
3.975137
 40
4.050541
 40
4.125943
 40
4.201347
 40
4.276751
 40
4.352156
 40
4.427560
 40
4.502965
 40
4.578361
 40
4.653756
 40
4.729150
 40
4.803460
 40
4.877770
 40
4.952081
 40
5.026395
 40
5.100708
 40
5.175021
 40
5.249332
 40
5.323643
 40
5.397953
 40
5.473346
 40
5.548739
 40
5.624134
 40
5.699538
 40
5.774941
 40
5.850345
 40
5.925746
 40
6.001146
 40
6.076544
 40
6.151944
 40
6.227345
 40
6.302747
 40
6.378150
 40
6.453554
 40
6.528958
 40
6.604352
 40
6.679747
 40
6.755139
 40
6.829449
 40
6.903760
 40
6.978070
 40
7.052384
 40
7.126697
 40
7.201011
 40
7.275322
 40
7.349633
 40
7.423942
 40
7.499336
 40
7.574730
 40
7.650125
 40
7.725531
 40
7.800936
 40
7.876341
 40
7.951745
 40
8.027148
 40
8.102551
 40
8.177956
 40
8.253361
 40
8.328767
 40
8.404174
 40
8.479580
 40
8.554987
 40
8.630377
 40
8.705767
 40
8.781155
 40
8.855451
 40
8.929747
 40
9.004044
 40
9.078351
 40
9.152657
 40
9.226964
 40
9.301293
 40
9.375622
 40
9.449951
 40
9.525394
 40
9.600838
 40
9.676283
 40
9.751711
 40
9.827138
 40
9.902566
 40
9.977903
 40
10.053239
 40
10.128573
 40
10.203816
 40
10.279060
 40
10.354306
 40
10.429641
 40
10.504975
 40
10.580308
 40
10.655890
 40
10.731472
 40
10.807058
 40
10.881783
 40
10.956505
 40
11.031226
 40
11.105705
 40
11.180187
 40
11.254676
 40
11.328614
 40
11.402546
 40
11.476456
 40
11.551125
 40
11.625815
 40
11.700512
 40
11.775692
 40
11.850860
 40
11.926028
 40
12.001719
 40
12.077408
 40
12.153100
 40
12.153100
 40
12.153100
 40
12.153100
 10
105.969771
 20
237.120511
 30
0.0
 10
105.972336
 20
237.145611
 30
0.0
 10
105.977467
 20
237.195810
 30
0.0
 10
105.985568
 20
237.271066
 30
0.0
 10
105.994461
 20
237.346059
 30
0.0
 10
106.004539
 20
237.420729
 30
0.0
 10
106.016218
 20
237.494995
 30
0.0
 10
106.029914
 20
237.568761
 30
0.0
 10
106.046020
 20
237.641880
 30
0.0
 10
106.064896
 20
237.714162
 30
0.0
 10
106.086880
 20
237.785294
 30
0.0
 10
106.112289
 20
237.855007
 30
0.0
 10
106.140876
 20
237.923211
 30
0.0
 10
106.172608
 20
237.990221
 30
0.0
 10
106.207320
 20
238.055943
 30
0.0
 10
106.244867
 20
238.120295
 30
0.0
 10
106.285043
 20
238.183129
 30
0.0
 10
106.327700
 20
238.244402
 30
0.0
 10
106.372725
 20
238.304059
 30
0.0
 10
106.420129
 20
238.362214
 30
0.0
 10
106.469825
 20
238.418805
 30
0.0
 10
106.521786
 20
238.473720
 30
0.0
 10
106.575706
 20
238.526591
 30
0.0
 10
106.631521
 20
238.577336
 30
0.0
 10
106.689159
 20
238.625874
 30
0.0
 10
106.748591
 20
238.672150
 30
0.0
 10
106.809745
 20
238.716076
 30
0.0
 10
106.872539
 20
238.757568
 30
0.0
 10
106.936943
 20
238.796570
 30
0.0
 10
107.002877
 20
238.832992
 30
0.0
 10
107.070224
 20
238.866794
 30
0.0
 10
107.138873
 20
238.897944
 30
0.0
 10
107.208712
 20
238.926407
 30
0.0
 10
107.279633
 20
238.952143
 30
0.0
 10
107.351504
 20
238.975110
 30
0.0
 10
107.424218
 20
238.995272
 30
0.0
 10
107.497667
 20
239.012591
 30
0.0
 10
107.571371
 20
239.026955
 30
0.0
 10
107.645212
 20
239.038376
 30
0.0
 10
107.719069
 20
239.046902
 30
0.0
 10
107.793191
 20
239.052586
 30
0.0
 10
107.867469
 20
239.055428
 30
0.0
 10
107.941793
 20
239.055428
 30
0.0
 10
108.016060
 20
239.052587
 30
0.0
 10
108.090160
 20
239.046903
 30
0.0
 10
108.163985
 20
239.038379
 30
0.0
 10
108.237785
 20
239.026958
 30
0.0
 10
108.311441
 20
239.012591
 30
0.0
 10
108.384833
 20
238.995272
 30
0.0
 10
108.457502
 20
238.975106
 30
0.0
 10
108.529338
 20
238.952135
 30
0.0
 10
108.600235
 20
238.926396
 30
0.0
 10
108.670082
 20
238.897928
 30
0.0
 10
108.738771
 20
238.866772
 30
0.0
 10
108.806194
 20
238.832966
 30
0.0
 10
108.872243
 20
238.796549
 30
0.0
 10
108.936807
 20
238.757559
 30
0.0
 10
108.999795
 20
238.716075
 30
0.0
 10
109.061121
 20
238.672169
 30
0.0
 10
109.120697
 20
238.625915
 30
0.0
 10
109.178436
 20
238.577387
 30
0.0
 10
109.234248
 20
238.526659
 30
0.0
 10
109.288047
 20
238.473805
 30
0.0
 10
109.339745
 20
238.418900
 30
0.0
 10
109.389018
 20
238.362288
 30
0.0
 10
109.435815
 20
238.304075
 30
0.0
 10
109.480116
 20
238.244391
 30
0.0
 10
109.522094
 20
238.183050
 30
0.0
 10
109.561693
 20
238.120146
 30
0.0
 10
109.598860
 20
238.055774
 30
0.0
 10
109.633538
 20
237.990028
 30
0.0
 10
109.665673
 20
237.923004
 30
0.0
 10
109.695211
 20
237.854796
 30
0.0
 10
109.722227
 20
237.785163
 30
0.0
 10
109.746618
 20
237.714186
 30
0.0
 10
109.768319
 20
237.641963
 30
0.0
 10
109.787193
 20
237.568946
 30
0.0
 10
109.803218
 20
237.495249
 30
0.0
 10
109.816376
 20
237.420983
 30
0.0
 10
109.826645
 20
237.346264
 30
0.0
 10
109.834006
 20
237.271203
 30
0.0
 10
109.838439
 20
237.195915
 30
0.0
 10
109.839924
 20
237.120511
 30
0.0
 10
109.838439
 20
237.045106
 30
0.0
 10
109.834006
 20
236.969817
 30
0.0
 10
109.826645
 20
236.894756
 30
0.0
 10
109.816376
 20
236.820036
 30
0.0
 10
109.803218
 20
236.745770
 30
0.0
 10
109.787193
 20
236.672073
 30
0.0
 10
109.768319
 20
236.599056
 30
0.0
 10
109.746618
 20
236.526833
 30
0.0
 10
109.722227
 20
236.455855
 30
0.0
 10
109.695211
 20
236.386223
 30
0.0
 10
109.665673
 20
236.318015
 30
0.0
 10
109.633538
 20
236.250991
 30
0.0
 10
109.598860
 20
236.185245
 30
0.0
 10
109.561693
 20
236.120873
 30
0.0
 10
109.522094
 20
236.057969
 30
0.0
 10
109.480116
 20
235.996627
 30
0.0
 10
109.435814
 20
235.936943
 30
0.0
 10
109.389018
 20
235.878731
 30
0.0
 10
109.339744
 20
235.822119
 30
0.0
 10
109.288047
 20
235.767214
 30
0.0
 10
109.234248
 20
235.714361
 30
0.0
 10
109.178436
 20
235.663633
 30
0.0
 10
109.120697
 20
235.615105
 30
0.0
 10
109.061121
 20
235.568850
 30
0.0
 10
108.999795
 20
235.524944
 30
0.0
 10
108.936807
 20
235.483459
 30
0.0
 10
108.872243
 20
235.444470
 30
0.0
 10
108.806194
 20
235.408052
 30
0.0
 10
108.738771
 20
235.374245
 30
0.0
 10
108.670082
 20
235.343088
 30
0.0
 10
108.600235
 20
235.314620
 30
0.0
 10
108.529338
 20
235.288879
 30
0.0
 10
108.457501
 20
235.265907
 30
0.0
 10
108.384833
 20
235.245741
 30
0.0
 10
108.311441
 20
235.228420
 30
0.0
 10
108.237785
 20
235.214053
 30
0.0
 10
108.163985
 20
235.202631
 30
0.0
 10
108.090161
 20
235.194106
 30
0.0
 10
108.016060
 20
235.188422
 30
0.0
 10
107.941793
 20
235.185581
 30
0.0
 10
107.867469
 20
235.185581
 30
0.0
 10
107.793191
 20
235.188423
 30
0.0
 10
107.719068
 20
235.194108
 30
0.0
 10
107.645211
 20
235.202633
 30
0.0
 10
107.571371
 20
235.214055
 30
0.0
 10
107.497666
 20
235.228420
 30
0.0
 10
107.424218
 20
235.245740
 30
0.0
 10
107.351504
 20
235.265904
 30
0.0
 10
107.279632
 20
235.288872
 30
0.0
 10
107.208711
 20
235.314610
 30
0.0
 10
107.138873
 20
235.343074
 30
0.0
 10
107.070224
 20
235.374225
 30
0.0
 10
107.002877
 20
235.408029
 30
0.0
 10
106.936944
 20
235.444451
 30
0.0
 10
106.872539
 20
235.483454
 30
0.0
 10
106.809746
 20
235.524945
 30
0.0
 10
106.748592
 20
235.568870
 30
0.0
 10
106.689160
 20
235.615147
 30
0.0
 10
106.631522
 20
235.663684
 30
0.0
 10
106.575707
 20
235.714429
 30
0.0
 10
106.521787
 20
235.767300
 30
0.0
 10
106.469826
 20
235.822214
 30
0.0
 10
106.420130
 20
235.878805
 30
0.0
 10
106.372725
 20
235.936960
 30
0.0
 10
106.327700
 20
235.996617
 30
0.0
 10
106.285043
 20
236.057890
 30
0.0
 10
106.244867
 20
236.120724
 30
0.0
 10
106.207320
 20
236.185076
 30
0.0
 10
106.172608
 20
236.250799
 30
0.0
 10
106.140876
 20
236.317809
 30
0.0
 10
106.112289
 20
236.386014
 30
0.0
 10
106.086880
 20
236.455728
 30
0.0
 10
106.064896
 20
236.526859
 30
0.0
 10
106.046019
 20
236.599141
 30
0.0
 10
106.029912
 20
236.672260
 30
0.0
 10
106.016214
 20
236.746025
 30
0.0
 10
106.004534
 20
236.820292
 30
0.0
 10
105.994456
 20
236.894962
 30
0.0
 10
105.985564
 20
236.969955
 30
0.0
 10
105.977464
 20
237.045212
 30
0.0
 10
105.972335
 20
237.095411
 30
0.0
 10
105.969771
 20
237.120511
 30
0.0
 11
105.969771
 21
237.120511
 31
0.0
 11
105.977535
 21
237.195803
 31
0.0
 11
105.985704
 21
237.271050
 31
0.0
 11
105.994684
 21
237.346206
 31
0.0
 11
106.004810
 21
237.420689
 31
0.0
 11
106.016558
 21
237.494934
 31
0.0
 11
106.030353
 21
237.568837
 31
0.0
 11
106.046488
 21
237.641770
 31
0.0
 11
106.065429
 21
237.714019
 31
0.0
 11
106.087545
 21
237.785337
 31
0.0
 11
106.112830
 21
237.854787
 31
0.0
 11
106.141386
 21
237.922981
 31
0.0
 11
106.173009
 21
237.989815
 31
0.0
 11
106.207780
 21
238.055691
 31
0.0
 11
106.245299
 21
238.120031
 31
0.0
 11
106.285404
 21
238.182791
 31
0.0
 11
106.328087
 21
238.244121
 31
0.0
 11
106.373091
 21
238.303771
 31
0.0
 11
106.420295
 21
238.361698
 31
0.0
 11
106.470172
 21
238.418491
 31
0.0
 11
106.522123
 21
238.473389
 31
0.0
 11
106.576092
 21
238.526303
 31
0.0
 11
106.631835
 21
238.576977
 31
0.0
 11
106.689462
 21
238.625500
 31
0.0
 11
106.748906
 21
238.671779
 31
0.0
 11
106.810023
 21
238.715673
 31
0.0
 11
106.872804
 21
238.757151
 31
0.0
 11
106.937168
 21
238.796123
 31
0.0
 11
107.003107
 21
238.832552
 31
0.0
 11
107.070436
 21
238.866350
 31
0.0
 11
107.139039
 21
238.897482
 31
0.0
 11
107.208888
 21
238.925951
 31
0.0
 11
107.279790
 21
238.951681
 31
0.0
 11
107.351638
 21
238.974641
 31
0.0
 11
107.424340
 21
238.994798
 31
0.0
 11
107.497771
 21
239.012111
 31
0.0
 11
107.571820
 21
239.026539
 31
0.0
 11
107.645276
 21
239.037903
 31
0.0
 11
107.719114
 21
239.046428
 31
0.0
 11
107.793226
 21
239.052113
 31
0.0
 11
107.867478
 21
239.054954
 31
0.0
 11
107.941784
 21
239.054955
 31
0.0
 11
108.016036
 21
239.052113
 31
0.0
 11
108.090115
 21
239.046430
 31
0.0
 11
108.163921
 21
239.037905
 31
0.0
 11
108.237342
 21
239.026540
 31
0.0
 11
108.311337
 21
239.012111
 31
0.0
 11
108.384711
 21
238.994798
 31
0.0
 11
108.457357
 21
238.974641
 31
0.0
 11
108.529181
 21
238.951674
 31
0.0
 11
108.600060
 21
238.925941
 31
0.0
 11
108.669889
 21
238.897480
 31
0.0
 11
108.738560
 21
238.866330
 31
0.0
 11
108.805966
 21
238.832531
 31
0.0
 11
108.871996
 21
238.796120
 31
0.0
 11
108.936544
 21
238.757144
 31
0.0
 11
108.999518
 21
238.715671
 31
0.0
 11
109.060829
 21
238.671778
 31
0.0
 11
109.120391
 21
238.625536
 31
0.0
 11
109.178115
 21
238.577020
 31
0.0
 11
109.233915
 21
238.526302
 31
0.0
 11
109.287697
 21
238.473463
 31
0.0
 11
109.339381
 21
238.418570
 31
0.0
 11
109.388876
 21
238.361698
 31
0.0
 11
109.435436
 21
238.303783
 31
0.0
 11
109.479729
 21
238.244115
 31
0.0
 11
109.521697
 21
238.182791
 31
0.0
 11
109.561288
 21
238.119902
 31
0.0
 11
109.598445
 21
238.055545
 31
0.0
 11
109.633115
 21
237.989814
 31
0.0
 11
109.665240
 21
237.922806
 31
0.0
 11
109.694769
 21
237.854614
 31
0.0
 11
109.721645
 21
237.785335
 31
0.0
 11
109.746150
 21
237.714036
 31
0.0
 11
109.767848
 21
237.641832
 31
0.0
 11
109.786717
 21
237.568837
 31
0.0
 11
109.802740
 21
237.495155
 31
0.0
 11
109.815894
 21
237.420907
 31
0.0
 11
109.826160
 21
237.346206
 31
0.0
 11
109.833518
 21
237.271165
 31
0.0
 11
109.837948
 21
237.195895
 31
0.0
 11
109.839429
 21
237.120511
 31
0.0
 11
109.837948
 21
237.045126
 31
0.0
 11
109.833518
 21
236.969855
 31
0.0
 11
109.826160
 21
236.894813
 31
0.0
 11
109.815894
 21
236.820112
 31
0.0
 11
109.802740
 21
236.745865
 31
0.0
 11
109.786717
 21
236.672183
 31
0.0
 11
109.767848
 21
236.599188
 31
0.0
 11
109.746150
 21
236.526983
 31
0.0
 11
109.721645
 21
236.455684
 31
0.0
 11
109.694769
 21
236.386404
 31
0.0
 11
109.665241
 21
236.318213
 31
0.0
 11
109.633115
 21
236.251205
 31
0.0
 11
109.598445
 21
236.185474
 31
0.0
 11
109.561288
 21
236.121118
 31
0.0
 11
109.521697
 21
236.058228
 31
0.0
 11
109.479728
 21
235.996903
 31
0.0
 11
109.435436
 21
235.937235
 31
0.0
 11
109.388875
 21
235.879321
 31
0.0
 11
109.339380
 21
235.822449
 31
0.0
 11
109.287697
 21
235.767557
 31
0.0
 11
109.233915
 21
235.714718
 31
0.0
 11
109.178115
 21
235.664000
 31
0.0
 11
109.120391
 21
235.615484
 31
0.0
 11
109.060829
 21
235.569241
 31
0.0
 11
108.999518
 21
235.525348
 31
0.0
 11
108.936544
 21
235.483875
 31
0.0
 11
108.871996
 21
235.444899
 31
0.0
 11
108.805965
 21
235.408488
 31
0.0
 11
108.738560
 21
235.374687
 31
0.0
 11
108.669889
 21
235.343536
 31
0.0
 11
108.600060
 21
235.315074
 31
0.0
 11
108.529181
 21
235.289340
 31
0.0
 11
108.457357
 21
235.266373
 31
0.0
 11
108.384711
 21
235.246215
 31
0.0
 11
108.311337
 21
235.228901
 31
0.0
 11
108.237343
 21
235.214471
 31
0.0
 11
108.163921
 21
235.203105
 31
0.0
 11
108.090116
 21
235.194580
 31
0.0
 11
108.016037
 21
235.188896
 31
0.0
 11
107.941784
 21
235.186054
 31
0.0
 11
107.867478
 21
235.186055
 31
0.0
 11
107.793225
 21
235.188896
 31
0.0
 11
107.719114
 21
235.194581
 31
0.0
 11
107.645275
 21
235.203106
 31
0.0
 11
107.571820
 21
235.214471
 31
0.0
 11
107.497770
 21
235.228901
 31
0.0
 11
107.424340
 21
235.246214
 31
0.0
 11
107.351638
 21
235.266373
 31
0.0
 11
107.279790
 21
235.289334
 31
0.0
 11
107.208887
 21
235.315066
 31
0.0
 11
107.139038
 21
235.343536
 31
0.0
 11
107.070436
 21
235.374670
 31
0.0
 11
107.003107
 21
235.408468
 31
0.0
 11
106.937168
 21
235.444899
 31
0.0
 11
106.872804
 21
235.483871
 31
0.0
 11
106.810023
 21
235.525348
 31
0.0
 11
106.748907
 21
235.569241
 31
0.0
 11
106.689463
 21
235.615521
 31
0.0
 11
106.631836
 21
235.664043
 31
0.0
 11
106.576093
 21
235.714717
 31
0.0
 11
106.522123
 21
235.767630
 31
0.0
 11
106.470173
 21
235.822529
 31
0.0
 11
106.420296
 21
235.879321
 31
0.0
 11
106.373091
 21
235.937248
 31
0.0
 11
106.328087
 21
235.996898
 31
0.0
 11
106.285404
 21
236.058228
 31
0.0
 11
106.245299
 21
236.120988
 31
0.0
 11
106.207780
 21
236.185329
 31
0.0
 11
106.173009
 21
236.251205
 31
0.0
 11
106.141386
 21
236.318039
 31
0.0
 11
106.112830
 21
236.386234
 31
0.0
 11
106.087545
 21
236.455684
 31
0.0
 11
106.065428
 21
236.527003
 31
0.0
 11
106.046487
 21
236.599251
 31
0.0
 11
106.030351
 21
236.672184
 31
0.0
 11
106.016555
 21
236.746087
 31
0.0
 11
106.004805
 21
236.820332
 31
0.0
 11
105.994679
 21
236.894814
 31
0.0
 11
105.985699
 21
236.969970
 31
0.0
 11
105.977532
 21
237.045218
 31
0.0
 11
105.969771
 21
237.120511
 31
0.0
  0
LWPOLYLINE
  5
106
100
AcDbEntity
  8
Layer_1
 62
1
100
AcDbPolyline
 90
65
 70
1
 10
-21.095000
 20
265.983010
 30
0.0
 10
-21.095000
 20
257.183010
 30
0.0
 10
-19.095419
 20
257.183010
 30
0.0
 10
-19.095419
 20
248.183007
 30
0.0
 10
-21.095000
 20
248.183007
 30
0.0
 10
-21.095000
 20
240.382781
 30
0.0
 10
-4.595419
 20
240.382781
 30
0.0
 10
-4.595419
 20
242.383007
 30
0.0
 10
4.404581
 20
242.383007
 30
0.0
 10
4.404581
 20
240.382781
 30
0.0
 10
13.404581
 20
240.382781
 30
0.0
 10
13.404581
 20
242.383007
 30
0.0
 10
22.404581
 20
242.383007
 30
0.0
 10
22.404581
 20
240.382781
 30
0.0
 10
31.404581
 20
240.382781
 30
0.0
 10
31.404581
 20
242.383007
 30
0.0
 10
40.404582
 20
242.383007
 30
0.0
 10
40.404582
 20
240.382781
 30
0.0
 10
49.404580
 20
240.382781
 30
0.0
 10
49.404580
 20
242.383007
 30
0.0
 10
58.404580
 20
242.383007
 30
0.0
 10
58.404580
 20
240.382781
 30
0.0
 10
67.404581
 20
240.382781
 30
0.0
 10
67.404581
 20
242.383007
 30
0.0
 10
76.404581
 20
242.383007
 30
0.0
 10
76.404581
 20
240.382781
 30
0.0
 10
85.404582
 20
240.382781
 30
0.0
 10
85.404582
 20
242.383007
 30
0.0
 10
94.404582
 20
242.383007
 30
0.0
 10
94.404582
 20
240.382781
 30
0.0
 10
103.404580
 20
240.382781
 30
0.0
 10
103.404580
 20
242.383007
 30
0.0
 10
112.404581
 20
242.383007
 30
0.0
 10
112.404581
 20
240.382781
 30
0.0
 10
121.404581
 20
240.382781
 30
0.0
 10
121.404581
 20
242.383007
 30
0.0
 10
130.404582
 20
242.383007
 30
0.0
 10
130.404582
 20
240.382781
 30
0.0
 10
139.404582
 20
240.382781
 30
0.0
 10
139.404582
 20
242.383007
 30
0.0
 10
148.404580
 20
242.383007
 30
0.0
 10
148.404580
 20
240.382781
 30
0.0
 10
157.404581
 20
240.382781
 30
0.0
 10
157.404581
 20
242.383007
 30
0.0
 10
166.404581
 20
242.383007
 30
0.0
 10
166.404581
 20
240.382781
 30
0.0
 10
175.404582
 20
240.382781
 30
0.0
 10
175.404582
 20
242.383007
 30
0.0
 10
184.404582
 20
242.383007
 30
0.0
 10
184.404582
 20
240.382781
 30
0.0
 10
193.404580
 20
240.382781
 30
0.0
 10
193.404580
 20
242.383007
 30
0.0
 10
202.404580
 20
242.383007
 30
0.0
 10
202.404580
 20
240.382781
 30
0.0
 10
211.404581
 20
240.382781
 30
0.0
 10
211.404581
 20
242.383007
 30
0.0
 10
220.404582
 20
242.383007
 30
0.0
 10
220.404582
 20
240.382781
 30
0.0
 10
229.404582
 20
240.382781
 30
0.0
 10
236.905001
 20
240.382781
 30
0.0
 10
236.905001
 20
248.183007
 30
0.0
 10
234.904582
 20
248.183007
 30
0.0
 10
234.904582
 20
257.183010
 30
0.0
 10
236.905001
 20
257.183010
 30
0.0
 10
236.905001
 20
265.983010
 30
0.0
  0
SPLINE
  5
107
100
AcDbEntity
  8
Layer_1
 62
1
100
AcDbSpline
 70
0
 71
3
 72
61
 73
57
 74
55
 40
0.000000
 40
0.000000
 40
0.000000
 40
0.000000
 40
0.047422
 40
0.094842
 40
0.142263
 40
0.189529
 40
0.236796
 40
0.284065
 40
0.331259
 40
0.378450
 40
0.425634
 40
0.472728
 40
0.519834
 40
0.566943
 40
0.614513
 40
0.662077
 40
0.709640
 40
0.757582
 40
0.805527
 40
0.853474
 40
0.902042
 40
0.950609
 40
0.999176
 40
1.047955
 40
1.096735
 40
1.145515
 40
1.194567
 40
1.243618
 40
1.292670
 40
1.342075
 40
1.391481
 40
1.440887
 40
1.490705
 40
1.540523
 40
1.590339
 40
1.640576
 40
1.690813
 40
1.741052
 40
1.791232
 40
1.841406
 40
1.891579
 40
1.941912
 40
1.992247
 40
2.042585
 40
2.092948
 40
2.143307
 40
2.193661
 40
2.244504
 40
2.295353
 40
2.346206
 40
2.397333
 40
2.448456
 40
2.499581
 40
2.550934
 40
2.602286
 40
2.653639
 40
2.653639
 40
2.653639
 40
2.653639
 10
-36.352686
 20
212.121458
 30
0.0
 10
-36.336933
 20
212.122761
 30
0.0
 10
-36.305427
 20
212.125369
 30
0.0
 10
-36.258183
 20
212.129474
 30
0.0
 10
-36.211030
 20
212.133997
 30
0.0
 10
-36.163989
 20
212.139130
 30
0.0
 10
-36.117097
 20
212.145102
 30
0.0
 10
-36.070370
 20
212.152093
 30
0.0
 10
-36.023871
 20
212.160346
 30
0.0
 10
-35.977678
 20
212.170033
 30
0.0
 10
-35.931889
 20
212.181353
 30
0.0
 10
-35.886610
 20
212.194469
 30
0.0
 10
-35.841895
 20
212.209311
 30
0.0
 10
-35.797602
 20
212.225829
 30
0.0
 10
-35.753780
 20
212.243957
 30
0.0
 10
-35.710456
 20
212.263611
 30
0.0
 10
-35.667684
 20
212.284722
 30
0.0
 10
-35.625481
 20
212.307217
 30
0.0
 10
-35.583871
 20
212.331049
 30
0.0
 10
-35.542795
 20
212.356192
 30
0.0
 10
-35.502268
 20
212.382592
 30
0.0
 10
-35.462344
 20
212.410259
 30
0.0
 10
-35.423171
 20
212.439100
 30
0.0
 10
-35.384792
 20
212.469103
 30
0.0
 10
-35.347245
 20
212.500254
 30
0.0
 10
-35.310555
 20
212.532548
 30
0.0
 10
-35.274767
 20
212.565971
 30
0.0
 10
-35.239921
 20
212.600504
 30
0.0
 10
-35.206041
 20
212.636148
 30
0.0
 10
-35.173169
 20
212.672882
 30
0.0
 10
-35.141323
 20
212.710664
 30
0.0
 10
-35.110504
 20
212.749464
 30
0.0
 10
-35.080723
 20
212.789237
 30
0.0
 10
-35.051997
 20
212.829946
 30
0.0
 10
-35.024333
 20
212.871551
 30
0.0
 10
-34.997737
 20
212.914013
 30
0.0
 10
-34.972226
 20
212.957298
 30
0.0
 10
-34.947882
 20
213.001228
 30
0.0
 10
-34.924693
 20
213.045755
 30
0.0
 10
-34.902722
 20
213.090871
 30
0.0
 10
-34.881976
 20
213.136621
 30
0.0
 10
-34.862511
 20
213.182988
 30
0.0
 10
-34.844381
 20
213.229953
 30
0.0
 10
-34.827676
 20
213.277454
 30
0.0
 10
-34.812442
 20
213.325457
 30
0.0
 10
-34.798771
 20
213.373933
 30
0.0
 10
-34.786676
 20
213.422993
 30
0.0
 10
-34.776246
 20
213.472599
 30
0.0
 10
-34.767321
 20
213.522665
 30
0.0
 10
-34.759706
 20
213.573041
 30
0.0
 10
-34.753263
 20
213.623671
 30
0.0
 10
-34.747753
 20
213.674501
 30
0.0
 10
-34.743013
 20
213.725483
 30
0.0
 10
-34.738837
 20
213.776590
 30
0.0
 10
-34.735045
 20
213.827803
 30
0.0
 10
-34.732646
 20
213.861954
 30
0.0
 10
-34.731447
 20
213.879029
 30
0.0
 11
-36.352686
 21
212.121458
 31
0.0
 11
-36.305429
 21
212.125401
 31
0.0
 11
-36.258190
 21
212.129544
 31
0.0
 11
-36.210989
 21
212.134105
 31
0.0
 11
-36.164006
 21
212.139271
 31
0.0
 11
-36.117122
 21
212.145272
 31
0.0
 11
-36.070379
 21
212.152308
 31
0.0
 11
-36.023917
 21
212.160586
 31
0.0
 11
-35.977737
 21
212.170307
 31
0.0
 11
-35.931941
 21
212.181661
 31
0.0
 11
-35.886703
 21
212.194757
 31
0.0
 11
-35.841991
 21
212.209581
 31
0.0
 11
-35.797847
 21
212.226032
 31
0.0
 11
-35.753885
 21
212.244202
 31
0.0
 11
-35.710566
 21
212.263845
 31
0.0
 11
-35.667910
 21
212.284885
 31
0.0
 11
-35.625600
 21
212.307429
 31
0.0
 11
-35.583990
 21
212.331249
 31
0.0
 11
-35.543090
 21
212.356273
 31
0.0
 11
-35.502397
 21
212.382784
 31
0.0
 11
-35.462478
 21
212.410448
 31
0.0
 11
-35.423369
 21
212.439243
 31
0.0
 11
-35.384940
 21
212.469287
 31
0.0
 11
-35.347400
 21
212.500434
 31
0.0
 11
-35.310784
 21
212.532665
 31
0.0
 11
-35.274935
 21
212.566146
 31
0.0
 11
-35.240096
 21
212.600675
 31
0.0
 11
-35.206302
 21
212.636228
 31
0.0
 11
-35.173353
 21
212.673042
 31
0.0
 11
-35.141508
 21
212.710816
 31
0.0
 11
-35.110775
 21
212.749499
 31
0.0
 11
-35.080912
 21
212.789375
 31
0.0
 11
-35.052187
 21
212.830076
 31
0.0
 11
-35.024600
 21
212.871557
 31
0.0
 11
-34.997930
 21
212.914130
 31
0.0
 11
-34.972419
 21
212.957408
 31
0.0
 11
-34.948064
 21
213.001348
 31
0.0
 11
-34.924893
 21
213.045858
 31
0.0
 11
-34.902929
 21
213.090969
 31
0.0
 11
-34.882214
 21
213.136667
 31
0.0
 11
-34.862737
 21
213.183079
 31
0.0
 11
-34.844619
 21
213.230040
 31
0.0
 11
-34.827924
 21
213.277528
 31
0.0
 11
-34.812703
 21
213.325536
 31
0.0
 11
-34.799039
 21
213.374007
 31
0.0
 11
-34.786996
 21
213.422898
 31
0.0
 11
-34.776503
 21
213.472647
 31
0.0
 11
-34.767542
 21
213.522700
 31
0.0
 11
-34.759916
 21
213.572978
 31
0.0
 11
-34.753420
 21
213.623690
 31
0.0
 11
-34.747882
 21
213.674513
 31
0.0
 11
-34.743115
 21
213.725415
 31
0.0
 11
-34.738902
 21
213.776595
 31
0.0
 11
-34.735077
 21
213.827805
 31
0.0
 11
-34.731447
 21
213.879029
 31
0.0
  0
LWPOLYLINE
  5
108
100
AcDbEntity
  8
Layer_1
 62
1
100
AcDbPolyline
 90
40
 70
1
 10
-43.695001
 20
111.382785
 30
0.0
 10
-34.895002
 20
111.382785
 30
0.0
 10
-34.895002
 20
109.383008
 30
0.0
 10
-25.895000
 20
109.383008
 30
0.0
 10
-25.895000
 20
111.382785
 30
0.0
 10
-18.095369
 20
111.382785
 30
0.0
 10
-18.095369
 20
117.382783
 30
0.0
 10
-20.095000
 20
117.382783
 30
0.0
 10
-20.095000
 20
126.382784
 30
0.0
 10
-18.095369
 20
126.382784
 30
0.0
 10
-18.095369
 20
135.382785
 30
0.0
 10
-20.095000
 20
135.382785
 30
0.0
 10
-20.095000
 20
144.382785
 30
0.0
 10
-18.095369
 20
144.382785
 30
0.0
 10
-18.095369
 20
153.382786
 30
0.0
 10
-20.095000
 20
153.382786
 30
0.0
 10
-20.095000
 20
162.382786
 30
0.0
 10
-18.095369
 20
162.382786
 30
0.0
 10
-18.095369
 20
171.382784
 30
0.0
 10
-20.095000
 20
171.382784
 30
0.0
 10
-20.095000
 20
180.382784
 30
0.0
 10
-18.095369
 20
180.382784
 30
0.0
 10
-18.095369
 20
189.382785
 30
0.0
 10
-20.095000
 20
189.382785
 30
0.0
 10
-20.095000
 20
198.382780
 30
0.0
 10
-18.095369
 20
198.382780
 30
0.0
 10
-18.095369
 20
207.382781
 30
0.0
 10
-20.095000
 20
207.382781
 30
0.0
 10
-20.095000
 20
216.382779
 30
0.0
 10
-18.095369
 20
216.382779
 30
0.0
 10
-18.095369
 20
225.382779
 30
0.0
 10
-20.095000
 20
225.382779
 30
0.0
 10
-20.095000
 20
234.382780
 30
0.0
 10
-18.095369
 20
234.382780
 30
0.0
 10
-18.095369
 20
240.382781
 30
0.0
 10
-25.895000
 20
240.382781
 30
0.0
 10
-25.895000
 20
242.383010
 30
0.0
 10
-34.895002
 20
242.383010
 30
0.0
 10
-34.895002
 20
240.382781
 30
0.0
 10
-43.695001
 20
240.382781
 30
0.0
  0
LWPOLYLINE
  5
109
100
AcDbEntity
  8
Layer_1
 62
1
100
AcDbPolyline
 90
2
 70
0
 10
-40.407564
 20
212.121458
 30
0.0
 10
-36.352686
 20
212.121458
 30
0.0
  0
SPLINE
  5
10a
100
AcDbEntity
  8
Layer_1
 62
1
100
AcDbSpline
 70
0
 71
3
 72
61
 73
57
 74
55
 40
0.000000
 40
0.000000
 40
0.000000
 40
0.000000
 40
0.051353
 40
0.102705
 40
0.154059
 40
0.205183
 40
0.256307
 40
0.307434
 40
0.358285
 40
0.409134
 40
0.459978
 40
0.510332
 40
0.560692
 40
0.611056
 40
0.661392
 40
0.711726
 40
0.762060
 40
0.812235
 40
0.862410
 40
0.912586
 40
0.962827
 40
1.013064
 40
1.063302
 40
1.113117
 40
1.162934
 40
1.212751
 40
1.262158
 40
1.311565
 40
1.360971
 40
1.410021
 40
1.459072
 40
1.508123
 40
1.556904
 40
1.605684
 40
1.654463
 40
1.703029
 40
1.751595
 40
1.800164
 40
1.848113
 40
1.896056
 40
1.943998
 40
1.991565
 40
2.039129
 40
2.086696
 40
2.133804
 40
2.180910
 40
2.228006
 40
2.275187
 40
2.322379
 40
2.369574
 40
2.416844
 40
2.464111
 40
2.511377
 40
2.558798
 40
2.606218
 40
2.653640
 40
2.653640
 40
2.653640
 40
2.653640
 10
-34.731455
 20
224.050454
 30
0.0
 10
-34.732654
 20
224.067529
 30
0.0
 10
-34.735053
 20
224.101680
 30
0.0
 10
-34.738845
 20
224.152893
 30
0.0
 10
-34.743022
 20
224.204000
 30
0.0
 10
-34.747756
 20
224.254983
 30
0.0
 10
-34.753252
 20
224.305814
 30
0.0
 10
-34.759721
 20
224.356441
 30
0.0
 10
-34.767317
 20
224.406819
 30
0.0
 10
-34.776243
 20
224.456884
 30
0.0
 10
-34.786676
 20
224.506490
 30
0.0
 10
-34.798774
 20
224.555550
 30
0.0
 10
-34.812445
 20
224.604027
 30
0.0
 10
-34.827676
 20
224.652030
 30
0.0
 10
-34.844375
 20
224.699534
 30
0.0
 10
-34.862505
 20
224.746497
 30
0.0
 10
-34.881977
 20
224.792863
 30
0.0
 10
-34.902727
 20
224.838612
 30
0.0
 10
-34.924700
 20
224.883727
 30
0.0
 10
-34.947881
 20
224.928258
 30
0.0
 10
-34.972231
 20
224.972184
 30
0.0
 10
-34.997738
 20
225.015472
 30
0.0
 10
-35.024332
 20
225.057934
 30
0.0
 10
-35.051997
 20
225.099539
 30
0.0
 10
-35.080723
 20
225.140247
 30
0.0
 10
-35.110504
 20
225.180020
 30
0.0
 10
-35.141323
 20
225.218820
 30
0.0
 10
-35.173169
 20
225.256603
 30
0.0
 10
-35.206040
 20
225.293338
 30
0.0
 10
-35.239922
 20
225.328980
 30
0.0
 10
-35.274767
 20
225.363513
 30
0.0
 10
-35.310556
 20
225.396936
 30
0.0
 10
-35.347246
 20
225.429229
 30
0.0
 10
-35.384793
 20
225.460379
 30
0.0
 10
-35.423171
 20
225.490384
 30
0.0
 10
-35.462344
 20
225.519223
 30
0.0
 10
-35.502269
 20
225.546889
 30
0.0
 10
-35.542795
 20
225.573291
 30
0.0
 10
-35.583869
 20
225.598437
 30
0.0
 10
-35.625483
 20
225.622263
 30
0.0
 10
-35.667685
 20
225.644761
 30
0.0
 10
-35.710455
 20
225.665878
 30
0.0
 10
-35.753779
 20
225.685536
 30
0.0
 10
-35.797603
 20
225.703657
 30
0.0
 10
-35.841895
 20
225.720170
 30
0.0
 10
-35.886611
 20
225.735008
 30
0.0
 10
-35.931886
 20
225.748137
 30
0.0
 10
-35.977679
 20
225.759444
 30
0.0
 10
-36.023872
 20
225.769132
 30
0.0
 10
-36.070369
 20
225.777394
 30
0.0
 10
-36.117095
 20
225.784403
 30
0.0
 10
-36.163989
 20
225.790363
 30
0.0
 10
-36.211030
 20
225.795490
 30
0.0
 10
-36.258183
 20
225.800015
 30
0.0
 10
-36.305427
 20
225.804120
 30
0.0
 10
-36.336933
 20
225.806727
 30
0.0
 10
-36.352686
 20
225.808031
 30
0.0
 11
-34.731455
 21
224.050454
 31
0.0
 11
-34.735085
 21
224.101678
 31
0.0
 11
-34.738910
 21
224.152888
 31
0.0
 11
-34.743123
 21
224.204068
 31
0.0
 11
-34.747884
 21
224.254970
 31
0.0
 11
-34.753416
 21
224.305794
 31
0.0
 11
-34.759924
 21
224.356505
 31
0.0
 11
-34.767541
 21
224.406783
 31
0.0
 11
-34.776500
 21
224.456836
 31
0.0
 11
-34.786996
 21
224.506585
 31
0.0
 11
-34.799042
 21
224.555477
 31
0.0
 11
-34.812705
 21
224.603948
 31
0.0
 11
-34.827924
 21
224.651958
 31
0.0
 11
-34.844614
 21
224.699446
 31
0.0
 11
-34.862732
 21
224.746406
 31
0.0
 11
-34.882214
 21
224.792817
 31
0.0
 11
-34.902934
 21
224.838514
 31
0.0
 11
-34.924899
 21
224.883626
 31
0.0
 11
-34.948064
 21
224.928135
 31
0.0
 11
-34.972423
 21
224.972075
 31
0.0
 11
-34.997932
 21
225.015354
 31
0.0
 11
-35.024600
 21
225.057929
 31
0.0
 11
-35.052187
 21
225.099409
 31
0.0
 11
-35.080912
 21
225.140109
 31
0.0
 11
-35.110775
 21
225.179984
 31
0.0
 11
-35.141508
 21
225.218668
 31
0.0
 11
-35.173353
 21
225.256443
 31
0.0
 11
-35.206302
 21
225.293257
 31
0.0
 11
-35.240096
 21
225.328809
 31
0.0
 11
-35.274935
 21
225.363338
 31
0.0
 11
-35.310784
 21
225.396818
 31
0.0
 11
-35.347400
 21
225.429049
 31
0.0
 11
-35.384941
 21
225.460196
 31
0.0
 11
-35.423369
 21
225.490240
 31
0.0
 11
-35.462478
 21
225.519034
 31
0.0
 11
-35.502397
 21
225.546696
 31
0.0
 11
-35.543090
 21
225.573210
 31
0.0
 11
-35.583990
 21
225.598236
 31
0.0
 11
-35.625600
 21
225.622052
 31
0.0
 11
-35.667910
 21
225.644598
 31
0.0
 11
-35.710567
 21
225.665645
 31
0.0
 11
-35.753885
 21
225.685289
 31
0.0
 11
-35.797847
 21
225.703454
 31
0.0
 11
-35.841991
 21
225.719900
 31
0.0
 11
-35.886703
 21
225.734723
 31
0.0
 11
-35.931941
 21
225.747825
 31
0.0
 11
-35.977737
 21
225.759172
 31
0.0
 11
-36.023917
 21
225.768893
 31
0.0
 11
-36.070379
 21
225.777180
 31
0.0
 11
-36.117121
 21
225.784228
 31
0.0
 11
-36.164005
 21
225.790223
 31
0.0
 11
-36.210989
 21
225.795384
 31
0.0
 11
-36.258190
 21
225.799944
 31
0.0
 11
-36.305429
 21
225.804087
 31
0.0
 11
-36.352686
 21
225.808031
 31
0.0
  0
LWPOLYLINE
  5
10b
100
AcDbEntity
  8
Layer_1
 62
1
100
AcDbPolyline
 90
2
 70
0
 10
-36.352686
 20
225.808041
 30
0.0
 10
-40.407564
 20
225.808041
 30
0.0
  0
SPLINE
  5
10c
100
AcDbEntity
  8
Layer_1
 62
1
100
AcDbSpline
 70
0
 71
3
 72
61
 73
57
 74
55
 40
0.000000
 40
0.000000
 40
0.000000
 40
0.000000
 40
0.047424
 40
0.094845
 40
0.142266
 40
0.189533
 40
0.236800
 40
0.284071
 40
0.331266
 40
0.378458
 40
0.425641
 40
0.472736
 40
0.519842
 40
0.566951
 40
0.614519
 40
0.662081
 40
0.709643
 40
0.757585
 40
0.805532
 40
0.853480
 40
0.902046
 40
0.950612
 40
0.999179
 40
1.047958
 40
1.096737
 40
1.145516
 40
1.194569
 40
1.243622
 40
1.292673
 40
1.342078
 40
1.391485
 40
1.440892
 40
1.490710
 40
1.540527
 40
1.590344
 40
1.640580
 40
1.690818
 40
1.741057
 40
1.791235
 40
1.841408
 40
1.891582
 40
1.941915
 40
1.992251
 40
2.042589
 40
2.092948
 40
2.143309
 40
2.193663
 40
2.244506
 40
2.295355
 40
2.346208
 40
2.397335
 40
2.448459
 40
2.499583
 40
2.550936
 40
2.602289
 40
2.653642
 40
2.653642
 40
2.653642
 40
2.653642
 10
-40.407564
 20
225.808041
 30
0.0
 10
-40.423318
 20
225.806738
 30
0.0
 10
-40.454825
 20
225.804130
 30
0.0
 10
-40.502069
 20
225.800025
 30
0.0
 10
-40.549223
 20
225.795502
 30
0.0
 10
-40.596264
 20
225.790368
 30
0.0
 10
-40.643157
 20
225.784397
 30
0.0
 10
-40.689886
 20
225.777406
 30
0.0
 10
-40.736385
 20
225.769153
 30
0.0
 10
-40.782579
 20
225.759466
 30
0.0
 10
-40.828369
 20
225.748146
 30
0.0
 10
-40.873648
 20
225.735030
 30
0.0
 10
-40.918363
 20
225.720187
 30
0.0
 10
-40.962655
 20
225.703671
 30
0.0
 10
-41.006475
 20
225.685542
 30
0.0
 10
-41.049798
 20
225.665888
 30
0.0
 10
-41.092568
 20
225.644776
 30
0.0
 10
-41.134773
 20
225.622282
 30
0.0
 10
-41.176384
 20
225.598450
 30
0.0
 10
-41.217460
 20
225.573308
 30
0.0
 10
-41.257985
 20
225.546907
 30
0.0
 10
-41.297909
 20
225.519240
 30
0.0
 10
-41.337081
 20
225.490399
 30
0.0
 10
-41.375461
 20
225.460396
 30
0.0
 10
-41.413007
 20
225.429245
 30
0.0
 10
-41.449694
 20
225.396950
 30
0.0
 10
-41.485486
 20
225.363529
 30
0.0
 10
-41.520332
 20
225.328996
 30
0.0
 10
-41.554215
 20
225.293354
 30
0.0
 10
-41.587086
 20
225.256618
 30
0.0
 10
-41.618931
 20
225.218835
 30
0.0
 10
-41.649751
 20
225.180036
 30
0.0
 10
-41.679532
 20
225.140262
 30
0.0
 10
-41.708257
 20
225.099553
 30
0.0
 10
-41.735922
 20
225.057948
 30
0.0
 10
-41.762517
 20
225.015486
 30
0.0
 10
-41.788029
 20
224.972201
 30
0.0
 10
-41.812372
 20
224.928271
 30
0.0
 10
-41.835562
 20
224.883746
 30
0.0
 10
-41.857532
 20
224.838629
 30
0.0
 10
-41.878280
 20
224.792881
 30
0.0
 10
-41.897744
 20
224.746513
 30
0.0
 10
-41.915871
 20
224.699546
 30
0.0
 10
-41.932580
 20
224.652048
 30
0.0
 10
-41.947793
 20
224.604039
 30
0.0
 10
-41.961475
 20
224.555566
 30
0.0
 10
-41.973575
 20
224.506507
 30
0.0
 10
-41.984003
 20
224.456900
 30
0.0
 10
-41.992929
 20
224.406834
 30
0.0
 10
-42.000536
 20
224.356457
 30
0.0
 10
-42.007003
 20
224.305830
 30
0.0
 10
-42.012499
 20
224.254999
 30
0.0
 10
-42.017233
 20
224.204016
 30
0.0
 10
-42.021411
 20
224.152909
 30
0.0
 10
-42.025202
 20
224.101696
 30
0.0
 10
-42.027601
 20
224.067545
 30
0.0
 10
-42.028801
 20
224.050470
 30
0.0
 11
-40.407564
 21
225.808041
 31
0.0
 11
-40.454823
 21
225.804098
 31
0.0
 11
-40.502063
 21
225.799955
 31
0.0
 11
-40.549264
 21
225.795394
 31
0.0
 11
-40.596248
 21
225.790228
 31
0.0
 11
-40.643133
 21
225.784227
 31
0.0
 11
-40.689877
 21
225.777191
 31
0.0
 11
-40.736340
 21
225.768913
 31
0.0
 11
-40.782520
 21
225.759192
 31
0.0
 11
-40.828317
 21
225.747838
 31
0.0
 11
-40.873554
 21
225.734742
 31
0.0
 11
-40.918267
 21
225.719918
 31
0.0
 11
-40.962411
 21
225.703467
 31
0.0
 11
-41.006371
 21
225.685297
 31
0.0
 11
-41.049687
 21
225.665654
 31
0.0
 11
-41.092342
 21
225.644613
 31
0.0
 11
-41.134654
 21
225.622070
 31
0.0
 11
-41.176264
 21
225.598250
 31
0.0
 11
-41.217165
 21
225.573226
 31
0.0
 11
-41.257856
 21
225.546715
 31
0.0
 11
-41.297774
 21
225.519051
 31
0.0
 11
-41.336883
 21
225.490256
 31
0.0
 11
-41.375313
 21
225.460212
 31
0.0
 11
-41.412852
 21
225.429065
 31
0.0
 11
-41.449466
 21
225.396834
 31
0.0
 11
-41.485317
 21
225.363354
 31
0.0
 11
-41.520159
 21
225.328825
 31
0.0
 11
-41.553953
 21
225.293273
 31
0.0
 11
-41.586901
 21
225.256459
 31
0.0
 11
-41.618746
 21
225.218684
 31
0.0
 11
-41.649481
 21
225.180000
 31
0.0
 11
-41.679342
 21
225.140124
 31
0.0
 11
-41.708067
 21
225.099423
 31
0.0
 11
-41.735655
 21
225.057942
 31
0.0
 11
-41.762324
 21
225.015369
 31
0.0
 11
-41.787836
 21
224.972091
 31
0.0
 11
-41.812191
 21
224.928151
 31
0.0
 11
-41.835361
 21
224.883643
 31
0.0
 11
-41.857325
 21
224.838532
 31
0.0
 11
-41.878041
 21
224.792835
 31
0.0
 11
-41.897517
 21
224.746422
 31
0.0
 11
-41.915634
 21
224.699460
 31
0.0
 11
-41.932328
 21
224.651971
 31
0.0
 11
-41.947538
 21
224.603963
 31
0.0
 11
-41.961205
 21
224.555492
 31
0.0
 11
-41.973254
 21
224.506601
 31
0.0
 11
-41.983747
 21
224.456852
 31
0.0
 11
-41.992707
 21
224.406799
 31
0.0
 11
-42.000331
 21
224.356521
 31
0.0
 11
-42.006839
 21
224.305810
 31
0.0
 11
-42.012371
 21
224.254986
 31
0.0
 11
-42.017132
 21
224.204084
 31
0.0
 11
-42.021345
 21
224.152904
 31
0.0
 11
-42.025170
 21
224.101694
 31
0.0
 11
-42.028801
 21
224.050470
 31
0.0
  0
LWPOLYLINE
  5
10d
100
AcDbEntity
  8
Layer_1
 62
1
100
AcDbPolyline
 90
2
 70
0
 10
-42.028798
 20
224.050454
 30
0.0
 10
-42.028798
 20
213.879045
 30
0.0
  0
LWPOLYLINE
  5
10e
100
AcDbEntity
  8
Layer_1
 62
1
100
AcDbPolyline
 90
2
 70
0
 10
-34.731455
 20
213.879045
 30
0.0
 10
-34.731455
 20
224.050454
 30
0.0
  0
LWPOLYLINE
  5
10f
100
AcDbEntity
  8
Layer_1
 62
1
100
AcDbPolyline
 90
40
 70
1
 10
260.504212
 20
240.382778
 30
0.0
 10
251.704213
 20
240.382778
 30
0.0
 10
251.704213
 20
242.382555
 30
0.0
 10
242.704213
 20
242.382555
 30
0.0
 10
242.704213
 20
240.382778
 30
0.0
 10
234.904582
 20
240.382778
 30
0.0
 10
234.904582
 20
234.382780
 30
0.0
 10
236.904213
 20
234.382780
 30
0.0
 10
236.904213
 20
225.382779
 30
0.0
 10
234.904582
 20
225.382779
 30
0.0
 10
234.904582
 20
216.382779
 30
0.0
 10
236.904213
 20
216.382779
 30
0.0
 10
236.904213
 20
207.382778
 30
0.0
 10
234.904582
 20
207.382778
 30
0.0
 10
234.904582
 20
198.382778
 30
0.0
 10
236.904213
 20
198.382778
 30
0.0
 10
236.904213
 20
189.382777
 30
0.0
 10
234.904582
 20
189.382777
 30
0.0
 10
234.904582
 20
180.382779
 30
0.0
 10
236.904213
 20
180.382779
 30
0.0
 10
236.904213
 20
171.382779
 30
0.0
 10
234.904582
 20
171.382779
 30
0.0
 10
234.904582
 20
162.382778
 30
0.0
 10
236.904213
 20
162.382778
 30
0.0
 10
236.904213
 20
153.382783
 30
0.0
 10
234.904582
 20
153.382783
 30
0.0
 10
234.904582
 20
144.382782
 30
0.0
 10
236.904213
 20
144.382782
 30
0.0
 10
236.904213
 20
135.382785
 30
0.0
 10
234.904582
 20
135.382785
 30
0.0
 10
234.904582
 20
126.382784
 30
0.0
 10
236.904213
 20
126.382784
 30
0.0
 10
236.904213
 20
117.382783
 30
0.0
 10
234.904582
 20
117.382783
 30
0.0
 10
234.904582
 20
111.382782
 30
0.0
 10
242.704213
 20
111.382782
 30
0.0
 10
242.704213
 20
109.382553
 30
0.0
 10
251.704213
 20
109.382553
 30
0.0
 10
251.704213
 20
111.382782
 30
0.0
 10
260.504212
 20
111.382782
 30
0.0
  0
SPLINE
  5
110
100
AcDbEntity
  8
Layer_1
 62
1
100
AcDbSpline
 70
0
 71
3
 72
61
 73
57
 74
55
 40
0.000000
 40
0.000000
 40
0.000000
 40
0.000000
 40
0.051353
 40
0.102705
 40
0.154059
 40
0.205182
 40
0.256305
 40
0.307434
 40
0.358285
 40
0.409134
 40
0.459978
 40
0.510332
 40
0.560691
 40
0.611053
 40
0.661389
 40
0.711724
 40
0.762058
 40
0.812234
 40
0.862409
 40
0.912585
 40
0.962825
 40
1.013062
 40
1.063298
 40
1.113114
 40
1.162930
 40
1.212747
 40
1.262155
 40
1.311561
 40
1.360967
 40
1.410018
 40
1.459071
 40
1.508125
 40
1.556905
 40
1.605684
 40
1.654462
 40
1.703028
 40
1.751594
 40
1.800162
 40
1.848111
 40
1.896055
 40
1.943998
 40
1.991563
 40
2.039126
 40
2.086690
 40
2.133798
 40
2.180903
 40
2.228000
 40
2.275183
 40
2.322374
 40
2.369569
 40
2.416843
 40
2.464110
 40
2.511377
 40
2.558798
 40
2.606219
 40
2.653642
 40
2.653642
 40
2.653642
 40
2.653642
 10
-42.028798
 20
213.879045
 30
0.0
 10
-42.027598
 20
213.861970
 30
0.0
 10
-42.025199
 20
213.827819
 30
0.0
 10
-42.021408
 20
213.776606
 30
0.0
 10
-42.017230
 20
213.725499
 30
0.0
 10
-42.012496
 20
213.674517
 30
0.0
 10
-42.007000
 20
213.623685
 30
0.0
 10
-42.000531
 20
213.573059
 30
0.0
 10
-41.992936
 20
213.522680
 30
0.0
 10
-41.984009
 20
213.472615
 30
0.0
 10
-41.973573
 20
213.423009
 30
0.0
 10
-41.961476
 20
213.373950
 30
0.0
 10
-41.947806
 20
213.325473
 30
0.0
 10
-41.932576
 20
213.277470
 30
0.0
 10
-41.915878
 20
213.229968
 30
0.0
 10
-41.897748
 20
213.183003
 30
0.0
 10
-41.878280
 20
213.136636
 30
0.0
 10
-41.857528
 20
213.090887
 30
0.0
 10
-41.835556
 20
213.045772
 30
0.0
 10
-41.812375
 20
213.001241
 30
0.0
 10
-41.788024
 20
212.957316
 30
0.0
 10
-41.762515
 20
212.914030
 30
0.0
 10
-41.735923
 20
212.871566
 30
0.0
 10
-41.708257
 20
212.829963
 30
0.0
 10
-41.679532
 20
212.789255
 30
0.0
 10
-41.649751
 20
212.749481
 30
0.0
 10
-41.618931
 20
212.710682
 30
0.0
 10
-41.587086
 20
212.672899
 30
0.0
 10
-41.554215
 20
212.636163
 30
0.0
 10
-41.520332
 20
212.600521
 30
0.0
 10
-41.485485
 20
212.565987
 30
0.0
 10
-41.449695
 20
212.532565
 30
0.0
 10
-41.413006
 20
212.500270
 30
0.0
 10
-41.375459
 20
212.469119
 30
0.0
 10
-41.337082
 20
212.439115
 30
0.0
 10
-41.297909
 20
212.410276
 30
0.0
 10
-41.257985
 20
212.382611
 30
0.0
 10
-41.217460
 20
212.356208
 30
0.0
 10
-41.176386
 20
212.331062
 30
0.0
 10
-41.134771
 20
212.307236
 30
0.0
 10
-41.092568
 20
212.284739
 30
0.0
 10
-41.049799
 20
212.263620
 30
0.0
 10
-41.006477
 20
212.243964
 30
0.0
 10
-40.962654
 20
212.225845
 30
0.0
 10
-40.918363
 20
212.209332
 30
0.0
 10
-40.873646
 20
212.194495
 30
0.0
 10
-40.828371
 20
212.181364
 30
0.0
 10
-40.782578
 20
212.170058
 30
0.0
 10
-40.736385
 20
212.160369
 30
0.0
 10
-40.689887
 20
212.152104
 30
0.0
 10
-40.643160
 20
212.145096
 30
0.0
 10
-40.596264
 20
212.139136
 30
0.0
 10
-40.549223
 20
212.134009
 30
0.0
 10
-40.502069
 20
212.129484
 30
0.0
 10
-40.454825
 20
212.125379
 30
0.0
 10
-40.423318
 20
212.122772
 30
0.0
 10
-40.407564
 20
212.121468
 30
0.0
 11
-42.028798
 21
213.879045
 31
0.0
 11
-42.025167
 21
213.827821
 31
0.0
 11
-42.021343
 21
213.776611
 31
0.0
 11
-42.017130
 21
213.725431
 31
0.0
 11
-42.012368
 21
213.674529
 31
0.0
 11
-42.006837
 21
213.623706
 31
0.0
 11
-42.000329
 21
213.572994
 31
0.0
 11
-41.992711
 21
213.522716
 31
0.0
 11
-41.983752
 21
213.472663
 31
0.0
 11
-41.973254
 21
213.422914
 31
0.0
 11
-41.961208
 21
213.374022
 31
0.0
 11
-41.947546
 21
213.325552
 31
0.0
 11
-41.932328
 21
213.277544
 31
0.0
 11
-41.915638
 21
213.230056
 31
0.0
 11
-41.897521
 21
213.183095
 31
0.0
 11
-41.878041
 21
213.136682
 31
0.0
 11
-41.857321
 21
213.090985
 31
0.0
 11
-41.835356
 21
213.045873
 31
0.0
 11
-41.812191
 21
213.001364
 31
0.0
 11
-41.787832
 21
212.957424
 31
0.0
 11
-41.762322
 21
212.914147
 31
0.0
 11
-41.735655
 21
212.871573
 31
0.0
 11
-41.708067
 21
212.830093
 31
0.0
 11
-41.679342
 21
212.789392
 31
0.0
 11
-41.649481
 21
212.749518
 31
0.0
 11
-41.618746
 21
212.710834
 31
0.0
 11
-41.586901
 21
212.673059
 31
0.0
 11
-41.553953
 21
212.636244
 31
0.0
 11
-41.520159
 21
212.600692
 31
0.0
 11
-41.485317
 21
212.566162
 31
0.0
 11
-41.449466
 21
212.532681
 31
0.0
 11
-41.412852
 21
212.500450
 31
0.0
 11
-41.375311
 21
212.469303
 31
0.0
 11
-41.336883
 21
212.439259
 31
0.0
 11
-41.297774
 21
212.410465
 31
0.0
 11
-41.257856
 21
212.382802
 31
0.0
 11
-41.217165
 21
212.356289
 31
0.0
 11
-41.176264
 21
212.331263
 31
0.0
 11
-41.134654
 21
212.307447
 31
0.0
 11
-41.092342
 21
212.284901
 31
0.0
 11
-41.049687
 21
212.263854
 31
0.0
 11
-41.006371
 21
212.244210
 31
0.0
 11
-40.962411
 21
212.226047
 31
0.0
 11
-40.918267
 21
212.209602
 31
0.0
 11
-40.873554
 21
212.194780
 31
0.0
 11
-40.828317
 21
212.181677
 31
0.0
 11
-40.782519
 21
212.170330
 31
0.0
 11
-40.736340
 21
212.160607
 31
0.0
 11
-40.689879
 21
212.152319
 31
0.0
 11
-40.643133
 21
212.145271
 31
0.0
 11
-40.596248
 21
212.139276
 31
0.0
 11
-40.549264
 21
212.134115
 31
0.0
 11
-40.502063
 21
212.129555
 31
0.0
 11
-40.454823
 21
212.125412
 31
0.0
 11
-40.407564
 21
212.121468
 31
0.0
  0
LWPOLYLINE
  5
111
100
AcDbEntity
  8
Layer_1
 62
1
100
AcDbPolyline
 90
65
 70
1
 10
236.904162
 20
85.782551
 30
0.0
 10
236.904162
 20
94.582550
 30
0.0
 10
234.904582
 20
94.582550
 30
0.0
 10
234.904582
 20
103.582553
 30
0.0
 10
236.904162
 20
103.582553
 30
0.0
 10
236.904162
 20
111.382780
 30
0.0
 10
220.404582
 20
111.382780
 30
0.0
 10
220.404582
 20
109.382553
 30
0.0
 10
211.404581
 20
109.382553
 30
0.0
 10
211.404581
 20
111.382780
 30
0.0
 10
202.404580
 20
111.382780
 30
0.0
 10
202.404580
 20
109.382553
 30
0.0
 10
193.404580
 20
109.382553
 30
0.0
 10
193.404580
 20
111.382780
 30
0.0
 10
184.404582
 20
111.382780
 30
0.0
 10
184.404582
 20
109.382553
 30
0.0
 10
175.404582
 20
109.382553
 30
0.0
 10
175.404582
 20
111.382780
 30
0.0
 10
166.404584
 20
111.382780
 30
0.0
 10
166.404584
 20
109.382553
 30
0.0
 10
157.404583
 20
109.382553
 30
0.0
 10
157.404583
 20
111.382780
 30
0.0
 10
148.404583
 20
111.382780
 30
0.0
 10
148.404583
 20
109.382553
 30
0.0
 10
139.404582
 20
109.382553
 30
0.0
 10
139.404582
 20
111.382780
 30
0.0
 10
130.404582
 20
111.382780
 30
0.0
 10
130.404582
 20
109.382553
 30
0.0
 10
121.404581
 20
109.382553
 30
0.0
 10
121.404581
 20
111.382780
 30
0.0
 10
112.404583
 20
111.382780
 30
0.0
 10
112.404583
 20
109.382553
 30
0.0
 10
103.404583
 20
109.382553
 30
0.0
 10
103.404583
 20
111.382780
 30
0.0
 10
94.404582
 20
111.382780
 30
0.0
 10
94.404582
 20
109.382553
 30
0.0
 10
85.404582
 20
109.382553
 30
0.0
 10
85.404582
 20
111.382780
 30
0.0
 10
76.404581
 20
111.382780
 30
0.0
 10
76.404581
 20
109.382553
 30
0.0
 10
67.404583
 20
109.382553
 30
0.0
 10
67.404583
 20
111.382780
 30
0.0
 10
58.404583
 20
111.382780
 30
0.0
 10
58.404583
 20
109.382553
 30
0.0
 10
49.404582
 20
109.382553
 30
0.0
 10
49.404582
 20
111.382780
 30
0.0
 10
40.404582
 20
111.382780
 30
0.0
 10
40.404582
 20
109.382553
 30
0.0
 10
31.404581
 20
109.382553
 30
0.0
 10
31.404581
 20
111.382780
 30
0.0
 10
22.404583
 20
111.382780
 30
0.0
 10
22.404583
 20
109.382553
 30
0.0
 10
13.404583
 20
109.382553
 30
0.0
 10
13.404583
 20
111.382780
 30
0.0
 10
4.404582
 20
111.382780
 30
0.0
 10
4.404582
 20
109.382553
 30
0.0
 10
-4.595419
 20
109.382553
 30
0.0
 10
-4.595419
 20
111.382780
 30
0.0
 10
-13.595419
 20
111.382780
 30
0.0
 10
-21.095838
 20
111.382780
 30
0.0
 10
-21.095838
 20
103.582553
 30
0.0
 10
-19.095419
 20
103.582553
 30
0.0
 10
-19.095419
 20
94.582550
 30
0.0
 10
-21.095838
 20
94.582550
 30
0.0
 10
-21.095838
 20
85.782551
 30
0.0
  0
ENDSEC
  0
SECTION
  2
OBJECTS
  0
DICTIONARY
  5
C
330
0
100
AcDbDictionary
  3
ACAD_GROUP
350
D
  3
ACAD_MLINESTYLE
350
17
  0
DICTIONARY
  5
D
330
C
100
AcDbDictionary
  0
DICTIONARY
  5
1A
330
C
100
AcDbDictionary
  0
DICTIONARY
  5
17
330
C
100
AcDbDictionary
  3
STANDARD
350
18
  0
DICTIONARY
  5
19
330
C
100
AcDbDictionary
  0
ENDSEC
  0
EOF
