  0
SECTION
  2
HEADER
  9
$ACADVER
  1
AC1014
  9
$HANDSEED
  5
FFFF
  9
$MEASUREMENT
 70
     1
  0
ENDSEC
  0
SECTION
  2
TABLES
  0
TABLE
  2
VPORT
  5
8
330
0
100
AcDbSymbolTable
 70
     4
  0
VPORT
  5
2E
330
8
100
AcDbSymbolTableRecord
100
AcDbViewportTableRecord
  2
*ACTIVE
 70
     0
 10
0.0
 20
0.0
 11
1.0
 21
1.0
 12
210.0
 22
148.5
 13
0.0
 23
0.0
 14
10.0
 24
10.0
 15
10.0
 25
10.0
 16
0.0
 26
0.0
 36
1.0
 17
0.0
 27
0.0
 37
0.0
 40
341.0
 41
1.24
 42
50.0
 43
0.0
 44
0.0
 50
0.0
 51
0.0
 71
     0
 72
   100
 73
     1
 74
     3
 75
     0
 76
     0
 77
     0
 78
     0
  0
ENDTAB
  0
TABLE
  2
LTYPE
  5
5
330
0
100
AcDbSymbolTable
 70
     1
  0
LTYPE
  5
14
330
5
100
AcDbSymbolTableRecord
100
AcDbLinetypeTableRecord
  2
BYBLOCK
 70
     0
  3

 72
    65
 73
     0
 40
0.0
  0
LTYPE
  5
15
330
5
100
AcDbSymbolTableRecord
100
AcDbLinetypeTableRecord
  2
BYLAYER
 70
     0
  3

 72
    65
 73
     0
 40
0.0
  0
LTYPE
  5
16
330
5
100
AcDbSymbolTableRecord
100
AcDbLinetypeTableRecord
  2
CONTINUOUS
 70
     0
  3
Solid line
 72
    65
 73
     0
 40
0.0
  0
ENDTAB
  0
TABLE
  2
LAYER
  5
2
100
AcDbSymbolTable
 70
1
  0
LAYER
  5
50
100
AcDbSymbolTableRecord
100
AcDbLayerTableRecord
  2
0
 70
0
  6
CONTINUOUS
  0
ENDTAB
  0
TABLE
  2
STYLE
  5
3
330
0
100
AcDbSymbolTable
 70
     1
  0
STYLE
  5
11
330
3
100
AcDbSymbolTableRecord
100
AcDbTextStyleTableRecord
  2
STANDARD
 70
     0
 40
0.0
 41
1.0
 50
0.0
 71
     0
 42
2.5
  3
txt
  4

  0
ENDTAB
  0
TABLE
  2
VIEW
  5
6
330
0
100
AcDbSymbolTable
 70
     0
  0
ENDTAB
  0
TABLE
  2
UCS
  5
7
330
0
100
AcDbSymbolTable
 70
     0
  0
ENDTAB
  0
TABLE
  2
APPID
  5
9
330
0
100
AcDbSymbolTable
 70
     2
  0
APPID
  5
12
330
9
100
AcDbSymbolTableRecord
100
AcDbRegAppTableRecord
  2
ACAD
 70
     0
  0
ENDTAB
  0
TABLE
  2
DIMSTYLE
  5
A
330
0
100
AcDbSymbolTable
 70
     1
  0
DIMSTYLE
105
27
330
A
100
AcDbSymbolTableRecord
100
AcDbDimStyleTableRecord
  2
ISO-25
 70
     0
  3

  4

  5

  6

  7

 40
1.0
 41
2.5
 42
0.625
 43
3.75
 44
1.25
 45
0.0
 46
0.0
 47
0.0
 48
0.0
140
2.5
141
2.5
142
0.0
143
0.03937007874016
144
1.0
145
0.0
146
1.0
147
0.625
 71
     0
 72
     0
 73
     0
 74
     0
 75
     0
 76
     0
 77
     1
 78
     8
170
     0
171
     3
172
     1
173
     0
174
     0
175
     0
176
     0
177
     0
178
     0
270
     2
271
     2
272
     2
273
     2
274
     3
340
11
275
     0
280
     0
281
     0
282
     0
283
     0
284
     8
285
     0
286
     0
287
     3
288
     0
  0
ENDTAB
  0
TABLE
  2
BLOCK_RECORD
  5
1
330
0
100
AcDbSymbolTable
 70
     1
  0
BLOCK_RECORD
  5
1F
330
1
100
AcDbSymbolTableRecord
100
AcDbBlockTableRecord
  2
*MODEL_SPACE
  0
BLOCK_RECORD
  5
1B
330
1
100
AcDbSymbolTableRecord
100
AcDbBlockTableRecord
  2
*PAPER_SPACE
  0
ENDTAB
  0
ENDSEC
  0
SECTION
  2
BLOCKS
  0
BLOCK
  5
20
330
1F
100
AcDbEntity
  8
0
100
AcDbBlockBegin
  2
*MODEL_SPACE
 70
     0
 10
0.0
 20
0.0
 30
0.0
  3
*MODEL_SPACE
  1

  0
ENDBLK
  5
21
330
1F
100
AcDbEntity
  8
0
100
AcDbBlockEnd
  0
BLOCK
  5
1C
330
1B
100
AcDbEntity
 67
     1
  8
0
100
AcDbBlockBegin
  2
*PAPER_SPACE
  1

  0
ENDBLK
  5
1D
330
1B
100
AcDbEntity
 67
     1
  8
0
100
AcDbBlockEnd
  0
ENDSEC
  0
SECTION
  2
ENTITIES
  0
SPLINE
  5
100
100
AcDbEntity
  8
0
 62
1
100
AcDbSpline
 70
0
 71
3
 72
13
 73
9
 74
7
 40
0.000000
 40
0.000000
 40
0.000000
 40
0.000000
 40
0.392663
 40
0.782076
 40
1.174737
 40
1.567400
 40
1.956814
 40
2.349477
 40
2.349477
 40
2.349477
 40
2.349477
 10
18.778193
 20
129.301649
 30
0.0
 10
18.909463
 20
129.311648
 30
0.0
 10
19.170917
 20
129.331564
 30
0.0
 10
19.536678
 20
129.488952
 30
0.0
 10
19.851441
 20
129.728400
 30
0.0
 10
20.090891
 20
130.043163
 30
0.0
 10
20.248280
 20
130.408925
 30
0.0
 10
20.268196
 20
130.670378
 30
0.0
 10
20.278195
 20
130.801648
 30
0.0
 11
18.778193
 21
129.301649
 31
0.0
 11
19.167478
 21
129.353040
 31
0.0
 11
19.527249
 21
129.502061
 31
0.0
 11
19.838854
 21
129.740987
 31
0.0
 11
20.077782
 21
130.052592
 31
0.0
 11
20.226804
 21
130.412363
 31
0.0
 11
20.278195
 21
130.801648
 31
0.0
  0
SPLINE
  5
101
100
AcDbEntity
  8
0
 62
1
100
AcDbSpline
 70
0
 71
3
 72
13
 73
9
 74
7
 40
0.000000
 40
0.000000
 40
0.000000
 40
0.000000
 40
0.392663
 40
0.782076
 40
1.174737
 40
1.567400
 40
1.956813
 40
2.349476
 40
2.349476
 40
2.349476
 40
2.349476
 10
20.278195
 20
139.482363
 30
0.0
 10
20.268196
 20
139.613633
 30
0.0
 10
20.248280
 20
139.875086
 30
0.0
 10
20.090892
 20
140.240848
 30
0.0
 10
19.851440
 20
140.555609
 30
0.0
 10
19.536679
 20
140.795059
 30
0.0
 10
19.170917
 20
140.952447
 30
0.0
 10
18.909463
 20
140.972363
 30
0.0
 10
18.778193
 20
140.982363
 30
0.0
 11
20.278195
 21
139.482363
 31
0.0
 11
20.226804
 21
139.871648
 31
0.0
 11
20.077782
 21
140.231419
 31
0.0
 11
19.838854
 21
140.543022
 31
0.0
 11
19.527249
 21
140.781950
 31
0.0
 11
19.167478
 21
140.930972
 31
0.0
 11
18.778193
 21
140.982363
 31
0.0
  0
LWPOLYLINE
  5
102
100
AcDbEntity
  8
0
 62
1
100
AcDbPolyline
 90
2
 70
0
 10
15.026533
 20
129.301649
 30
0.0
 10
18.778193
 20
129.301649
 30
0.0
  0
SPLINE
  5
103
100
AcDbEntity
  8
0
 62
1
100
AcDbSpline
 70
0
 71
3
 72
13
 73
9
 74
7
 40
0.000000
 40
0.000000
 40
0.000000
 40
0.000000
 40
0.392663
 40
0.782076
 40
1.174739
 40
1.567400
 40
1.956813
 40
2.349476
 40
2.349476
 40
2.349476
 40
2.349476
 10
15.026533
 20
140.982363
 30
0.0
 10
14.895263
 20
140.972363
 30
0.0
 10
14.633809
 20
140.952447
 30
0.0
 10
14.268047
 20
140.795059
 30
0.0
 10
13.953286
 20
140.555609
 30
0.0
 10
13.713834
 20
140.240848
 30
0.0
 10
13.556447
 20
139.875086
 30
0.0
 10
13.536531
 20
139.613633
 30
0.0
 10
13.526531
 20
139.482363
 30
0.0
 11
15.026533
 21
140.982363
 31
0.0
 11
14.637248
 21
140.930972
 31
0.0
 11
14.277477
 21
140.781950
 31
0.0
 11
13.965872
 21
140.543022
 31
0.0
 11
13.726944
 21
140.231419
 31
0.0
 11
13.577922
 21
139.871648
 31
0.0
 11
13.526531
 21
139.482363
 31
0.0
  0
LWPOLYLINE
  5
104
100
AcDbEntity
  8
0
 62
1
100
AcDbPolyline
 90
2
 70
0
 10
18.778193
 20
140.982363
 30
0.0
 10
15.026533
 20
140.982363
 30
0.0
  0
LWPOLYLINE
  5
105
100
AcDbEntity
  8
0
 62
1
100
AcDbPolyline
 90
2
 70
0
 10
13.526531
 20
139.482363
 30
0.0
 10
13.526531
 20
130.801648
 30
0.0
  0
LWPOLYLINE
  5
106
100
AcDbEntity
  8
0
 62
1
100
AcDbPolyline
 90
2
 70
0
 10
20.278195
 20
130.801648
 30
0.0
 10
20.278195
 20
139.482363
 30
0.0
  0
LWPOLYLINE
  5
107
100
AcDbEntity
  8
0
 62
1
100
AcDbPolyline
 90
36
 70
1
 10
36.476731
 20
57.001726
 30
0.0
 10
40.476726
 20
57.001726
 30
0.0
 10
40.476726
 20
47.001820
 30
0.0
 10
36.476731
 20
47.001820
 30
0.0
 10
36.476731
 20
37.001914
 30
0.0
 10
40.476726
 20
37.001914
 30
0.0
 10
40.476726
 20
27.868268
 30
0.0
 10
28.691501
 20
27.868268
 30
0.0
 10
28.691501
 20
23.868270
 30
0.0
 10
18.691493
 20
23.868270
 30
0.0
 10
18.691493
 20
27.868268
 30
0.0
 10
10.906499
 20
27.868268
 30
0.0
 10
10.906499
 20
156.251816
 30
0.0
 10
18.691493
 20
156.251816
 30
0.0
 10
18.691493
 20
160.251816
 30
0.0
 10
28.691501
 20
160.251816
 30
0.0
 10
28.691501
 20
156.251816
 30
0.0
 10
40.476726
 20
156.251816
 30
0.0
 10
40.476726
 20
147.001917
 30
0.0
 10
36.476731
 20
147.001917
 30
0.0
 10
36.476731
 20
137.002011
 30
0.0
 10
40.476726
 20
137.002011
 30
0.0
 10
40.476726
 20
127.001589
 30
0.0
 10
36.476731
 20
127.001589
 30
0.0
 10
36.476731
 20
117.001680
 30
0.0
 10
40.476726
 20
117.001680
 30
0.0
 10
40.476726
 20
107.001774
 30
0.0
 10
36.476731
 20
107.001774
 30
0.0
 10
36.476731
 20
97.001868
 30
0.0
 10
40.476726
 20
97.001868
 30
0.0
 10
40.476726
 20
87.001963
 30
0.0
 10
36.476731
 20
87.001963
 30
0.0
 10
36.476731
 20
77.001538
 30
0.0
 10
40.476726
 20
77.001538
 30
0.0
 10
40.476726
 20
67.001632
 30
0.0
 10
36.476731
 20
67.001632
 30
0.0
  0
LWPOLYLINE
  5
108
100
AcDbEntity
  8
0
 62
1
100
AcDbPolyline
 90
56
 70
1
 10
294.116548
 20
6.083508
 30
0.0
 10
298.116546
 20
6.083508
 30
0.0
 10
298.116546
 20
-1.701486
 30
0.0
 10
36.476731
 20
-1.701486
 30
0.0
 10
36.476731
 20
6.083508
 30
0.0
 10
40.476728
 20
6.083508
 30
0.0
 10
40.476728
 20
16.083514
 30
0.0
 10
36.476731
 20
16.083514
 30
0.0
 10
36.476731
 20
27.868268
 30
0.0
 10
40.476728
 20
27.868268
 30
0.0
 10
40.476728
 20
23.868270
 30
0.0
 10
62.296593
 20
23.868270
 30
0.0
 10
62.296593
 20
27.868268
 30
0.0
 10
72.296494
 20
27.868268
 30
0.0
 10
72.296494
 20
23.868270
 30
0.0
 10
82.296394
 20
23.868270
 30
0.0
 10
82.296394
 20
27.868268
 30
0.0
 10
92.296824
 20
27.868268
 30
0.0
 10
92.296824
 20
23.868270
 30
0.0
 10
102.296725
 20
23.868270
 30
0.0
 10
102.296725
 20
27.868268
 30
0.0
 10
112.296625
 20
27.868268
 30
0.0
 10
112.296625
 20
23.868270
 30
0.0
 10
122.296552
 20
23.868270
 30
0.0
 10
122.296552
 20
27.868268
 30
0.0
 10
132.296453
 20
27.868268
 30
0.0
 10
132.296453
 20
23.868270
 30
0.0
 10
142.296856
 20
23.868270
 30
0.0
 10
142.296856
 20
27.868268
 30
0.0
 10
152.296783
 20
27.868268
 30
0.0
 10
152.296783
 20
23.868270
 30
0.0
 10
182.296485
 20
23.868270
 30
0.0
 10
182.296485
 20
27.868268
 30
0.0
 10
192.296412
 20
27.868268
 30
0.0
 10
192.296412
 20
23.868270
 30
0.0
 10
202.296816
 20
23.868270
 30
0.0
 10
202.296816
 20
27.868268
 30
0.0
 10
212.296735
 20
27.868268
 30
0.0
 10
212.296735
 20
23.868270
 30
0.0
 10
222.296643
 20
23.868270
 30
0.0
 10
222.296643
 20
27.868268
 30
0.0
 10
232.296549
 20
27.868268
 30
0.0
 10
232.296549
 20
23.868270
 30
0.0
 10
242.296455
 20
23.868270
 30
0.0
 10
242.296455
 20
27.868268
 30
0.0
 10
252.296880
 20
27.868268
 30
0.0
 10
252.296880
 20
23.868270
 30
0.0
 10
262.296786
 20
23.868270
 30
0.0
 10
262.296786
 20
27.868268
 30
0.0
 10
272.296705
 20
27.868268
 30
0.0
 10
272.296705
 20
23.868270
 30
0.0
 10
294.116548
 20
23.868270
 30
0.0
 10
294.116548
 20
27.868268
 30
0.0
 10
298.116546
 20
27.868268
 30
0.0
 10
298.116546
 20
16.083514
 30
0.0
 10
294.116548
 20
16.083514
 30
0.0
  0
SPLINE
  5
109
100
AcDbEntity
  8
0
 62
1
100
AcDbSpline
 70
0
 71
3
 72
13
 73
9
 74
7
 40
0.000000
 40
0.000000
 40
0.000000
 40
0.000000
 40
0.392663
 40
0.782076
 40
1.174739
 40
1.567401
 40
1.956814
 40
2.349477
 40
2.349477
 40
2.349477
 40
2.349477
 10
13.526531
 20
130.801648
 30
0.0
 10
13.536530
 20
130.670378
 30
0.0
 10
13.556447
 20
130.408925
 30
0.0
 10
13.713835
 20
130.043163
 30
0.0
 10
13.953285
 20
129.728400
 30
0.0
 10
14.268048
 20
129.488952
 30
0.0
 10
14.633810
 20
129.331564
 30
0.0
 10
14.895263
 20
129.311648
 30
0.0
 10
15.026533
 20
129.301649
 30
0.0
 11
13.526531
 21
130.801648
 31
0.0
 11
13.577922
 21
130.412363
 31
0.0
 11
13.726944
 21
130.052592
 31
0.0
 11
13.965872
 21
129.740987
 31
0.0
 11
14.277477
 21
129.502061
 31
0.0
 11
14.637248
 21
129.353040
 31
0.0
 11
15.026533
 21
129.301649
 31
0.0
  0
SPLINE
  5
10a
100
AcDbEntity
  8
0
 62
1
100
AcDbSpline
 70
0
 71
3
 72
25
 73
21
 74
19
 40
0.000000
 40
0.000000
 40
0.000000
 40
0.000000
 40
0.540794
 40
1.073839
 40
1.614628
 40
2.155409
 40
2.688455
 40
3.229236
 40
3.770025
 40
4.303070
 40
4.843864
 40
5.384638
 40
5.917677
 40
6.458473
 40
6.999256
 40
7.532302
 40
8.073085
 40
8.613881
 40
9.146920
 40
9.687694
 40
9.687694
 40
9.687694
 40
9.687694
 10
287.859740
 20
30.830803
 30
0.0
 10
287.878254
 20
31.011988
 30
0.0
 10
287.915017
 20
31.371760
 30
0.0
 10
288.200259
 20
31.847206
 30
0.0
 10
288.617898
 20
32.200698
 30
0.0
 10
289.135089
 20
32.388143
 30
0.0
 10
289.683865
 20
32.388143
 30
0.0
 10
290.200331
 20
32.200698
 30
0.0
 10
290.620863
 20
31.847206
 30
0.0
 10
290.895359
 20
31.371760
 30
0.0
 10
290.991193
 20
30.830810
 30
0.0
 10
290.895358
 20
30.289862
 30
0.0
 10
290.620857
 20
29.814427
 30
0.0
 10
290.200334
 20
29.460925
 30
0.0
 10
289.683866
 20
29.273474
 30
0.0
 10
289.135088
 20
29.273474
 30
0.0
 10
288.617895
 20
29.460925
 30
0.0
 10
288.200264
 20
29.814427
 30
0.0
 10
287.915019
 20
30.289862
 30
0.0
 10
287.878254
 20
30.649626
 30
0.0
 10
287.859740
 20
30.830803
 30
0.0
 11
287.859740
 21
30.830803
 31
0.0
 11
287.954072
 21
31.363306
 31
0.0
 11
288.220588
 21
31.824941
 31
0.0
 11
288.634572
 21
32.172892
 31
0.0
 11
289.142894
 21
32.357425
 31
0.0
 11
289.675941
 21
32.357425
 31
0.0
 11
290.184263
 21
32.172892
 31
0.0
 11
290.598247
 21
31.824941
 31
0.0
 11
290.864763
 21
31.363306
 31
0.0
 11
290.959095
 21
30.830803
 31
0.0
 11
290.864763
 21
30.298321
 31
0.0
 11
290.598247
 21
29.836693
 31
0.0
 11
290.184263
 21
29.488731
 31
0.0
 11
289.675941
 21
29.304193
 31
0.0
 11
289.142894
 21
29.304193
 31
0.0
 11
288.634572
 21
29.488731
 31
0.0
 11
288.220588
 21
29.836693
 31
0.0
 11
287.954072
 21
30.298321
 31
0.0
 11
287.859740
 21
30.830803
 31
0.0
  0
SPLINE
  5
10b
100
AcDbEntity
  8
0
 62
1
100
AcDbSpline
 70
0
 71
3
 72
25
 73
21
 74
19
 40
0.000000
 40
0.000000
 40
0.000000
 40
0.000000
 40
0.540777
 40
1.073817
 40
1.614602
 40
2.155390
 40
2.688436
 40
3.229223
 40
3.770014
 40
4.303060
 40
4.843839
 40
5.384619
 40
5.917670
 40
6.458464
 40
6.999259
 40
7.532305
 40
8.073100
 40
8.613888
 40
9.146933
 40
9.687712
 40
9.687712
 40
9.687712
 40
9.687712
 10
165.754241
 20
30.830803
 30
0.0
 10
165.772756
 20
31.011982
 30
0.0
 10
165.809520
 20
31.371746
 30
0.0
 10
166.094760
 20
31.847185
 30
0.0
 10
166.512405
 20
32.200664
 30
0.0
 10
167.029585
 20
32.388138
 30
0.0
 10
167.578371
 20
32.388138
 30
0.0
 10
168.094827
 20
32.200662
 30
0.0
 10
168.515369
 20
31.847184
 30
0.0
 10
168.789878
 20
31.371749
 30
0.0
 10
168.885725
 20
30.830802
 30
0.0
 10
168.789877
 20
30.289855
 30
0.0
 10
168.515371
 20
29.814414
 30
0.0
 10
168.094824
 20
29.460936
 30
0.0
 10
167.578377
 20
29.273430
 30
0.0
 10
167.029579
 20
29.273430
 30
0.0
 10
166.512409
 20
29.460935
 30
0.0
 10
166.094758
 20
29.814413
 30
0.0
 10
165.809521
 20
30.289858
 30
0.0
 10
165.772756
 20
30.649624
 30
0.0
 10
165.754241
 20
30.830803
 30
0.0
 11
165.754241
 21
30.830803
 31
0.0
 11
165.848573
 21
31.363289
 31
0.0
 11
166.115089
 21
31.824917
 31
0.0
 11
166.529073
 21
32.172863
 31
0.0
 11
167.037395
 21
32.357415
 31
0.0
 11
167.570442
 21
32.357415
 31
0.0
 11
168.078764
 21
32.172863
 31
0.0
 11
168.492755
 21
31.824917
 31
0.0
 11
168.759284
 21
31.363289
 31
0.0
 11
168.853623
 21
30.830803
 31
0.0
 11
168.759284
 21
30.298315
 31
0.0
 11
168.492755
 21
29.836681
 31
0.0
 11
168.078764
 21
29.488731
 31
0.0
 11
167.570442
 21
29.304158
 31
0.0
 11
167.037395
 21
29.304158
 31
0.0
 11
166.529073
 21
29.488731
 31
0.0
 11
166.115089
 21
29.836681
 31
0.0
 11
165.848573
 21
30.298315
 31
0.0
 11
165.754241
 21
30.830803
 31
0.0
  0
SPLINE
  5
10c
100
AcDbEntity
  8
0
 62
1
100
AcDbSpline
 70
0
 71
3
 72
25
 73
21
 74
19
 40
0.000000
 40
0.000000
 40
0.000000
 40
0.000000
 40
0.563833
 40
1.119569
 40
1.683383
 40
2.247202
 40
2.802940
 40
3.366761
 40
3.930585
 40
4.486327
 40
5.050156
 40
5.614011
 40
6.169758
 40
6.733583
 40
7.297416
 40
7.853171
 40
8.417009
 40
8.980847
 40
9.536601
 40
10.100449
 40
10.100449
 40
10.100449
 40
10.100449
 10
43.584233
 20
30.830803
 30
0.0
 10
43.603289
 20
31.019734
 30
0.0
 10
43.641126
 20
31.394882
 30
0.0
 10
43.938026
 20
31.890898
 30
0.0
 10
44.373224
 20
32.259740
 30
0.0
 10
44.912388
 20
32.455371
 30
0.0
 10
45.484560
 20
32.455371
 30
0.0
 10
46.022982
 20
32.259738
 30
0.0
 10
46.461162
 20
31.890899
 30
0.0
 10
46.747032
 20
31.394889
 30
0.0
 10
46.845619
 20
30.830793
 30
0.0
 10
46.747005
 20
30.266706
 30
0.0
 10
46.461174
 20
29.770665
 30
0.0
 10
46.023002
 20
29.401800
 30
0.0
 10
45.484565
 20
29.206173
 30
0.0
 10
44.912379
 20
29.206173
 30
0.0
 10
44.373191
 20
29.401802
 30
0.0
 10
43.937984
 20
29.770664
 30
0.0
 10
43.641067
 20
30.266698
 30
0.0
 10
43.603269
 20
30.641864
 30
0.0
 10
43.584233
 20
30.830803
 30
0.0
 11
43.584233
 21
30.830803
 31
0.0
 11
43.681885
 21
31.386116
 31
0.0
 11
43.959266
 21
31.867678
 31
0.0
 11
44.390633
 21
32.230732
 31
0.0
 11
44.920543
 21
32.423312
 31
0.0
 11
45.476281
 21
32.423312
 31
0.0
 11
46.006194
 21
32.230732
 31
0.0
 11
46.437574
 21
31.867678
 31
0.0
 11
46.714967
 21
31.386116
 31
0.0
 11
46.812594
 21
30.830803
 31
0.0
 11
46.714950
 21
30.275467
 31
0.0
 11
46.437580
 21
29.793885
 31
0.0
 11
46.006213
 21
29.430813
 31
0.0
 11
45.476289
 21
29.238232
 31
0.0
 11
44.920534
 21
29.238232
 31
0.0
 11
44.390604
 21
29.430813
 31
0.0
 11
43.959221
 21
29.793885
 31
0.0
 11
43.681837
 21
30.275467
 31
0.0
 11
43.584233
 21
30.830803
 31
0.0
  0
SPLINE
  5
10d
100
AcDbEntity
  8
0
 62
1
100
AcDbSpline
 70
0
 71
3
 72
25
 73
21
 74
19
 40
0.000000
 40
0.000000
 40
0.000000
 40
0.000000
 40
0.540784
 40
1.073830
 40
1.614620
 40
2.155401
 40
2.688449
 40
3.229237
 40
3.770022
 40
4.303068
 40
4.843851
 40
5.384639
 40
5.917687
 40
6.458469
 40
6.999259
 40
7.532306
 40
8.073090
 40
8.613876
 40
9.146925
 40
9.687712
 40
9.687712
 40
9.687712
 40
9.687712
 10
43.648715
 20
153.306240
 30
0.0
 10
43.667231
 20
153.487421
 30
0.0
 10
43.703997
 20
153.847190
 30
0.0
 10
43.989246
 20
154.322630
 30
0.0
 10
44.406892
 20
154.676110
 30
0.0
 10
44.924073
 20
154.863580
 30
0.0
 10
45.472857
 20
154.863579
 30
0.0
 10
45.989317
 20
154.676114
 30
0.0
 10
46.409852
 20
154.322628
 30
0.0
 10
46.684353
 20
153.847190
 30
0.0
 10
46.780195
 20
153.306239
 30
0.0
 10
46.684352
 20
152.765288
 30
0.0
 10
46.409855
 20
152.289845
 30
0.0
 10
45.989314
 20
151.936366
 30
0.0
 10
45.472859
 20
151.748894
 30
0.0
 10
44.924072
 20
151.748892
 30
0.0
 10
44.406895
 20
151.936370
 30
0.0
 10
43.989243
 20
152.289843
 30
0.0
 10
43.703997
 20
152.765287
 30
0.0
 10
43.667231
 20
153.125058
 30
0.0
 10
43.648715
 20
153.306240
 30
0.0
 11
43.648715
 21
153.306240
 31
0.0
 11
43.743051
 21
153.838732
 31
0.0
 11
44.009575
 21
154.300363
 31
0.0
 11
44.423563
 21
154.648310
 31
0.0
 11
44.931881
 21
154.832857
 31
0.0
 11
45.464928
 21
154.832857
 31
0.0
 11
45.973254
 21
154.648310
 31
0.0
 11
46.387236
 21
154.300363
 31
0.0
 11
46.653759
 21
153.838732
 31
0.0
 11
46.748094
 21
153.306240
 31
0.0
 11
46.653759
 21
152.773744
 31
0.0
 11
46.387236
 21
152.312110
 31
0.0
 11
45.973254
 21
151.964168
 31
0.0
 11
45.464928
 21
151.779616
 31
0.0
 11
44.931881
 21
151.779616
 31
0.0
 11
44.423563
 21
151.964168
 31
0.0
 11
44.009575
 21
152.312110
 31
0.0
 11
43.743051
 21
152.773744
 31
0.0
 11
43.648715
 21
153.306240
 31
0.0
  0
SPLINE
  5
10e
100
AcDbEntity
  8
0
 62
1
100
AcDbSpline
 70
0
 71
3
 72
25
 73
21
 74
19
 40
0.000000
 40
0.000000
 40
0.000000
 40
0.000000
 40
0.558228
 40
1.108467
 40
1.666694
 40
2.224933
 40
2.775177
 40
3.333416
 40
3.891643
 40
4.441883
 40
5.000110
 40
5.558342
 40
6.108587
 40
6.666815
 40
7.225052
 40
7.775296
 40
8.333533
 40
8.891761
 40
9.442005
 40
10.000237
 40
10.000237
 40
10.000237
 40
10.000237
 10
287.809734
 20
153.306240
 30
0.0
 10
287.828847
 20
153.493265
 30
0.0
 10
287.866801
 20
153.864639
 30
0.0
 10
288.161250
 20
154.355411
 30
0.0
 10
288.592365
 20
154.720300
 30
0.0
 10
289.126232
 20
154.913819
 30
0.0
 10
289.692726
 20
154.913819
 30
0.0
 10
290.225845
 20
154.720300
 30
0.0
 10
290.659945
 20
154.355411
 30
0.0
 10
290.943302
 20
153.864639
 30
0.0
 10
291.042239
 20
153.306239
 30
0.0
 10
290.943302
 20
152.747837
 30
0.0
 10
290.659946
 20
152.257061
 30
0.0
 10
290.225847
 20
151.892167
 30
0.0
 10
289.692724
 20
151.698657
 30
0.0
 10
289.126234
 20
151.698657
 30
0.0
 10
288.592363
 20
151.892167
 30
0.0
 10
288.161249
 20
152.257061
 30
0.0
 10
287.866801
 20
152.747837
 30
0.0
 10
287.828847
 20
153.119214
 30
0.0
 10
287.809734
 20
153.306240
 30
0.0
 11
287.809734
 21
153.306240
 31
0.0
 11
287.907114
 21
153.855908
 31
0.0
 11
288.182235
 21
154.332429
 31
0.0
 11
288.609569
 21
154.691599
 31
0.0
 11
289.134296
 21
154.882106
 31
0.0
 11
289.684540
 21
154.882106
 31
0.0
 11
290.209266
 21
154.691599
 31
0.0
 11
290.636600
 21
154.332429
 31
0.0
 11
290.911722
 21
153.855908
 31
0.0
 11
291.009102
 21
153.306240
 31
0.0
 11
290.911722
 21
152.756567
 31
0.0
 11
290.636600
 21
152.280041
 31
0.0
 11
290.209266
 21
151.920869
 31
0.0
 11
289.684540
 21
151.730369
 31
0.0
 11
289.134296
 21
151.730369
 31
0.0
 11
288.609569
 21
151.920869
 31
0.0
 11
288.182235
 21
152.280041
 31
0.0
 11
287.907114
 21
152.756567
 31
0.0
 11
287.809734
 21
153.306240
 31
0.0
  0
SPLINE
  5
10f
100
AcDbEntity
  8
0
 62
1
100
AcDbSpline
 70
0
 71
3
 72
25
 73
21
 74
19
 40
0.000000
 40
0.000000
 40
0.000000
 40
0.000000
 40
0.540778
 40
1.073823
 40
1.614611
 40
2.155398
 40
2.688444
 40
3.229232
 40
3.770025
 40
4.303076
 40
4.843856
 40
5.384637
 40
5.917688
 40
6.458481
 40
6.999271
 40
7.532317
 40
8.073107
 40
8.613895
 40
9.146940
 40
9.687720
 40
9.687720
 40
9.687720
 40
9.687720
 10
165.754241
 20
153.306240
 30
0.0
 10
165.772756
 20
153.487419
 30
0.0
 10
165.809521
 20
153.847185
 30
0.0
 10
166.094759
 20
154.322628
 30
0.0
 10
166.512404
 20
154.676111
 30
0.0
 10
167.029585
 20
154.863586
 30
0.0
 10
167.578371
 20
154.863586
 30
0.0
 10
168.094828
 20
154.676109
 30
0.0
 10
168.515370
 20
154.322627
 30
0.0
 10
168.789877
 20
153.847188
 30
0.0
 10
168.885726
 20
153.306239
 30
0.0
 10
168.789877
 20
152.765291
 30
0.0
 10
168.515371
 20
152.289851
 30
0.0
 10
168.094827
 20
151.936370
 30
0.0
 10
167.578373
 20
151.748884
 30
0.0
 10
167.029583
 20
151.748884
 30
0.0
 10
166.512406
 20
151.936369
 30
0.0
 10
166.094758
 20
152.289850
 30
0.0
 10
165.809521
 20
152.765294
 30
0.0
 10
165.772756
 20
153.125061
 30
0.0
 10
165.754241
 20
153.306240
 30
0.0
 11
165.754241
 21
153.306240
 31
0.0
 11
165.848573
 21
153.838727
 31
0.0
 11
166.115089
 21
154.300361
 31
0.0
 11
166.529073
 21
154.648310
 31
0.0
 11
167.037395
 21
154.832863
 31
0.0
 11
167.570442
 21
154.832863
 31
0.0
 11
168.078764
 21
154.648310
 31
0.0
 11
168.492755
 21
154.300361
 31
0.0
 11
168.759284
 21
153.838727
 31
0.0
 11
168.853623
 21
153.306240
 31
0.0
 11
168.759284
 21
152.773751
 31
0.0
 11
168.492755
 21
152.312117
 31
0.0
 11
168.078764
 21
151.964168
 31
0.0
 11
167.570442
 21
151.779609
 31
0.0
 11
167.037395
 21
151.779609
 31
0.0
 11
166.529073
 21
151.964168
 31
0.0
 11
166.115089
 21
152.312117
 31
0.0
 11
165.848573
 21
152.773751
 31
0.0
 11
165.754241
 21
153.306240
 31
0.0
  0
SPLINE
  5
110
100
AcDbEntity
  8
0
 62
1
100
AcDbSpline
 70
0
 71
3
 72
25
 73
21
 74
19
 40
0.000000
 40
0.000000
 40
0.000000
 40
0.000000
 40
0.540794
 40
1.073839
 40
1.614628
 40
2.155408
 40
2.688455
 40
3.229236
 40
3.770024
 40
4.303069
 40
4.843863
 40
5.384637
 40
5.917677
 40
6.458473
 40
6.999256
 40
7.532302
 40
8.073084
 40
8.613880
 40
9.146920
 40
9.687694
 40
9.687694
 40
9.687694
 40
9.687694
 10
1136.133904
 20
-88.147980
 30
0.0
 10
1136.152418
 20
-87.966796
 30
0.0
 10
1136.189181
 20
-87.607023
 30
0.0
 10
1136.474423
 20
-87.131578
 30
0.0
 10
1136.892062
 20
-86.778086
 30
0.0
 10
1137.409253
 20
-86.590641
 30
0.0
 10
1137.958029
 20
-86.590641
 30
0.0
 10
1138.474495
 20
-86.778086
 30
0.0
 10
1138.895027
 20
-87.131578
 30
0.0
 10
1139.169523
 20
-87.607023
 30
0.0
 10
1139.265357
 20
-88.147973
 30
0.0
 10
1139.169522
 20
-88.688922
 30
0.0
 10
1138.895021
 20
-89.164357
 30
0.0
 10
1138.474498
 20
-89.517859
 30
0.0
 10
1137.958030
 20
-89.705310
 30
0.0
 10
1137.409252
 20
-89.705310
 30
0.0
 10
1136.892059
 20
-89.517859
 30
0.0
 10
1136.474428
 20
-89.164357
 30
0.0
 10
1136.189183
 20
-88.688922
 30
0.0
 10
1136.152419
 20
-88.329158
 30
0.0
 10
1136.133904
 20
-88.147980
 30
0.0
 11
1136.133904
 21
-88.147980
 31
0.0
 11
1136.228236
 21
-87.615477
 31
0.0
 11
1136.494752
 21
-87.153843
 31
0.0
 11
1136.908736
 21
-86.805892
 31
0.0
 11
1137.417058
 21
-86.621359
 31
0.0
 11
1137.950105
 21
-86.621359
 31
0.0
 11
1138.458427
 21
-86.805892
 31
0.0
 11
1138.872411
 21
-87.153843
 31
0.0
 11
1139.138927
 21
-87.615477
 31
0.0
 11
1139.233259
 21
-88.147980
 31
0.0
 11
1139.138927
 21
-88.680463
 31
0.0
 11
1138.872411
 21
-89.142091
 31
0.0
 11
1138.458427
 21
-89.490053
 31
0.0
 11
1137.950105
 21
-89.674591
 31
0.0
 11
1137.417058
 21
-89.674591
 31
0.0
 11
1136.908736
 21
-89.490053
 31
0.0
 11
1136.494752
 21
-89.142091
 31
0.0
 11
1136.228236
 21
-88.680463
 31
0.0
 11
1136.133904
 21
-88.147980
 31
0.0
  0
SPLINE
  5
111
100
AcDbEntity
  8
0
 62
1
100
AcDbSpline
 70
0
 71
3
 72
25
 73
21
 74
19
 40
0.000000
 40
0.000000
 40
0.000000
 40
0.000000
 40
0.540777
 40
1.073816
 40
1.614602
 40
2.155389
 40
2.688436
 40
3.229223
 40
3.770014
 40
4.303059
 40
4.843837
 40
5.384618
 40
5.917669
 40
6.458463
 40
6.999257
 40
7.532303
 40
8.073098
 40
8.613887
 40
9.146932
 40
9.687712
 40
9.687712
 40
9.687712
 40
9.687712
 10
1014.028404
 20
-88.147980
 30
0.0
 10
1014.046919
 20
-87.966802
 30
0.0
 10
1014.083683
 20
-87.607037
 30
0.0
 10
1014.368924
 20
-87.131599
 30
0.0
 10
1014.786569
 20
-86.778120
 30
0.0
 10
1015.303749
 20
-86.590646
 30
0.0
 10
1015.852535
 20
-86.590646
 30
0.0
 10
1016.368991
 20
-86.778122
 30
0.0
 10
1016.789533
 20
-87.131600
 30
0.0
 10
1017.064041
 20
-87.607035
 30
0.0
 10
1017.159888
 20
-88.147981
 30
0.0
 10
1017.064040
 20
-88.688929
 30
0.0
 10
1016.789534
 20
-89.164370
 30
0.0
 10
1016.368988
 20
-89.517848
 30
0.0
 10
1015.852541
 20
-89.705354
 30
0.0
 10
1015.303743
 20
-89.705354
 30
0.0
 10
1014.786572
 20
-89.517849
 30
0.0
 10
1014.368922
 20
-89.164371
 30
0.0
 10
1014.083684
 20
-88.688926
 30
0.0
 10
1014.046919
 20
-88.329159
 30
0.0
 10
1014.028404
 20
-88.147980
 30
0.0
 11
1014.028404
 21
-88.147980
 31
0.0
 11
1014.122736
 21
-87.615495
 31
0.0
 11
1014.389253
 21
-87.153867
 31
0.0
 11
1014.803237
 21
-86.805921
 31
0.0
 11
1015.311559
 21
-86.621369
 31
0.0
 11
1015.844606
 21
-86.621369
 31
0.0
 11
1016.352928
 21
-86.805921
 31
0.0
 11
1016.766918
 21
-87.153867
 31
0.0
 11
1017.033447
 21
-87.615495
 31
0.0
 11
1017.127786
 21
-88.147980
 31
0.0
 11
1017.033447
 21
-88.680469
 31
0.0
 11
1016.766918
 21
-89.142102
 31
0.0
 11
1016.352928
 21
-89.490053
 31
0.0
 11
1015.844606
 21
-89.674626
 31
0.0
 11
1015.311559
 21
-89.674626
 31
0.0
 11
1014.803237
 21
-89.490053
 31
0.0
 11
1014.389253
 21
-89.142102
 31
0.0
 11
1014.122736
 21
-88.680469
 31
0.0
 11
1014.028404
 21
-88.147980
 31
0.0
  0
SPLINE
  5
112
100
AcDbEntity
  8
0
 62
1
100
AcDbSpline
 70
0
 71
3
 72
25
 73
21
 74
19
 40
0.000000
 40
0.000000
 40
0.000000
 40
0.000000
 40
0.563833
 40
1.119570
 40
1.683383
 40
2.247202
 40
2.802941
 40
3.366762
 40
3.930585
 40
4.486327
 40
5.050156
 40
5.614011
 40
6.169758
 40
6.733584
 40
7.297416
 40
7.853170
 40
8.417009
 40
8.980847
 40
9.536601
 40
10.100449
 40
10.100449
 40
10.100449
 40
10.100449
 10
891.858397
 20
-88.147980
 30
0.0
 10
891.877453
 20
-87.959049
 30
0.0
 10
891.915290
 20
-87.583901
 30
0.0
 10
892.212190
 20
-87.087885
 30
0.0
 10
892.647387
 20
-86.719043
 30
0.0
 10
893.186552
 20
-86.523413
 30
0.0
 10
893.758724
 20
-86.523412
 30
0.0
 10
894.297146
 20
-86.719045
 30
0.0
 10
894.735326
 20
-87.087884
 30
0.0
 10
895.021195
 20
-87.583895
 30
0.0
 10
895.119783
 20
-88.147991
 30
0.0
 10
895.021170
 20
-88.712078
 30
0.0
 10
894.735338
 20
-89.208118
 30
0.0
 10
894.297166
 20
-89.576983
 30
0.0
 10
893.758728
 20
-89.772610
 30
0.0
 10
893.186543
 20
-89.772610
 30
0.0
 10
892.647355
 20
-89.576981
 30
0.0
 10
892.212148
 20
-89.208120
 30
0.0
 10
891.915231
 20
-88.712086
 30
0.0
 10
891.877433
 20
-88.336919
 30
0.0
 10
891.858397
 20
-88.147980
 30
0.0
 11
891.858397
 21
-88.147980
 31
0.0
 11
891.956049
 21
-87.592667
 31
0.0
 11
892.233429
 21
-87.111105
 31
0.0
 11
892.664797
 21
-86.748051
 31
0.0
 11
893.194708
 21
-86.555472
 31
0.0
 11
893.750446
 21
-86.555472
 31
0.0
 11
894.280358
 21
-86.748051
 31
0.0
 11
894.711738
 21
-87.111105
 31
0.0
 11
894.989131
 21
-87.592667
 31
0.0
 11
895.086758
 21
-88.147980
 31
0.0
 11
894.989114
 21
-88.703316
 31
0.0
 11
894.711744
 21
-89.184898
 31
0.0
 11
894.280377
 21
-89.547970
 31
0.0
 11
893.750453
 21
-89.740551
 31
0.0
 11
893.194699
 21
-89.740551
 31
0.0
 11
892.664768
 21
-89.547970
 31
0.0
 11
892.233385
 21
-89.184898
 31
0.0
 11
891.956002
 21
-88.703316
 31
0.0
 11
891.858397
 21
-88.147980
 31
0.0
  0
SPLINE
  5
113
100
AcDbEntity
  8
0
 62
1
100
AcDbSpline
 70
0
 71
3
 72
25
 73
21
 74
19
 40
0.000000
 40
0.000000
 40
0.000000
 40
0.000000
 40
0.540784
 40
1.073830
 40
1.614619
 40
2.155401
 40
2.688448
 40
3.229237
 40
3.770022
 40
4.303067
 40
4.843851
 40
5.384638
 40
5.917686
 40
6.458469
 40
6.999259
 40
7.532306
 40
8.073090
 40
8.613876
 40
9.146925
 40
9.687713
 40
9.687713
 40
9.687713
 40
9.687713
 10
891.922879
 20
34.327457
 30
0.0
 10
891.941395
 20
34.508638
 30
0.0
 10
891.978161
 20
34.868407
 30
0.0
 10
892.263410
 20
35.343846
 30
0.0
 10
892.681056
 20
35.697327
 30
0.0
 10
893.198237
 20
35.884797
 30
0.0
 10
893.747021
 20
35.884795
 30
0.0
 10
894.263481
 20
35.697331
 30
0.0
 10
894.684016
 20
35.343845
 30
0.0
 10
894.958517
 20
34.868407
 30
0.0
 10
895.054358
 20
34.327456
 30
0.0
 10
894.958516
 20
33.786505
 30
0.0
 10
894.684019
 20
33.311062
 30
0.0
 10
894.263478
 20
32.957582
 30
0.0
 10
893.747023
 20
32.770110
 30
0.0
 10
893.198236
 20
32.770108
 30
0.0
 10
892.681059
 20
32.957586
 30
0.0
 10
892.263407
 20
33.311060
 30
0.0
 10
891.978161
 20
33.786504
 30
0.0
 10
891.941395
 20
34.146275
 30
0.0
 10
891.922879
 20
34.327457
 30
0.0
 11
891.922879
 21
34.327457
 31
0.0
 11
892.017215
 21
34.859949
 31
0.0
 11
892.283739
 21
35.321580
 31
0.0
 11
892.697727
 21
35.669527
 31
0.0
 11
893.206045
 21
35.854074
 31
0.0
 11
893.739092
 21
35.854074
 31
0.0
 11
894.247418
 21
35.669527
 31
0.0
 11
894.661400
 21
35.321580
 31
0.0
 11
894.927922
 21
34.859949
 31
0.0
 11
895.022258
 21
34.327457
 31
0.0
 11
894.927922
 21
33.794961
 31
0.0
 11
894.661400
 21
33.333327
 31
0.0
 11
894.247418
 21
32.985384
 31
0.0
 11
893.739092
 21
32.800832
 31
0.0
 11
893.206045
 21
32.800832
 31
0.0
 11
892.697727
 21
32.985384
 31
0.0
 11
892.283739
 21
33.333327
 31
0.0
 11
892.017215
 21
33.794961
 31
0.0
 11
891.922879
 21
34.327457
 31
0.0
  0
SPLINE
  5
114
100
AcDbEntity
  8
0
 62
1
100
AcDbSpline
 70
0
 71
3
 72
25
 73
21
 74
19
 40
0.000000
 40
0.000000
 40
0.000000
 40
0.000000
 40
0.558228
 40
1.108467
 40
1.666693
 40
2.224932
 40
2.775176
 40
3.333415
 40
3.891642
 40
4.441881
 40
5.000109
 40
5.558341
 40
6.108586
 40
6.666815
 40
7.225051
 40
7.775295
 40
8.333532
 40
8.891761
 40
9.442005
 40
10.000237
 40
10.000237
 40
10.000237
 40
10.000237
 10
1136.083898
 20
34.327457
 30
0.0
 10
1136.103011
 20
34.514482
 30
0.0
 10
1136.140965
 20
34.885856
 30
0.0
 10
1136.435414
 20
35.376628
 30
0.0
 10
1136.866530
 20
35.741515
 30
0.0
 10
1137.400396
 20
35.935036
 30
0.0
 10
1137.966890
 20
35.935036
 30
0.0
 10
1138.500008
 20
35.741515
 30
0.0
 10
1138.934109
 20
35.376628
 30
0.0
 10
1139.217466
 20
34.885856
 30
0.0
 10
1139.316403
 20
34.327455
 30
0.0
 10
1139.217466
 20
33.769054
 30
0.0
 10
1138.934110
 20
33.278277
 30
0.0
 10
1138.500011
 20
32.913383
 30
0.0
 10
1137.966888
 20
32.719873
 30
0.0
 10
1137.400398
 20
32.719873
 30
0.0
 10
1136.866527
 20
32.913383
 30
0.0
 10
1136.435414
 20
33.278277
 30
0.0
 10
1136.140965
 20
33.769054
 30
0.0
 10
1136.103011
 20
34.140431
 30
0.0
 10
1136.083898
 20
34.327457
 30
0.0
 11
1136.083898
 21
34.327457
 31
0.0
 11
1136.181278
 21
34.877125
 31
0.0
 11
1136.456399
 21
35.353645
 31
0.0
 11
1136.883733
 21
35.712815
 31
0.0
 11
1137.408459
 21
35.903322
 31
0.0
 11
1137.958703
 21
35.903322
 31
0.0
 11
1138.483430
 21
35.712815
 31
0.0
 11
1138.910764
 21
35.353645
 31
0.0
 11
1139.185885
 21
34.877125
 31
0.0
 11
1139.283266
 21
34.327457
 31
0.0
 11
1139.185885
 21
33.777784
 31
0.0
 11
1138.910764
 21
33.301258
 31
0.0
 11
1138.483430
 21
32.942085
 31
0.0
 11
1137.958703
 21
32.751585
 31
0.0
 11
1137.408459
 21
32.751585
 31
0.0
 11
1136.883733
 21
32.942085
 31
0.0
 11
1136.456399
 21
33.301258
 31
0.0
 11
1136.181278
 21
33.777784
 31
0.0
 11
1136.083898
 21
34.327457
 31
0.0
  0
LWPOLYLINE
  5
115
100
AcDbEntity
  8
0
 62
1
100
AcDbPolyline
 90
56
 70
1
 10
40.476726
 20
178.036515
 30
0.0
 10
36.476726
 20
178.036515
 30
0.0
 10
36.476726
 20
185.821509
 30
0.0
 10
298.116546
 20
185.821509
 30
0.0
 10
298.116546
 20
178.036515
 30
0.0
 10
294.116548
 20
178.036515
 30
0.0
 10
294.116548
 20
168.036509
 30
0.0
 10
298.116546
 20
168.036509
 30
0.0
 10
298.116546
 20
156.251816
 30
0.0
 10
294.116548
 20
156.251816
 30
0.0
 10
294.116548
 20
160.251813
 30
0.0
 10
272.296678
 20
160.251813
 30
0.0
 10
272.296678
 20
156.251816
 30
0.0
 10
262.296783
 20
156.251816
 30
0.0
 10
262.296783
 20
160.251813
 30
0.0
 10
252.296882
 20
160.251813
 30
0.0
 10
252.296882
 20
156.251816
 30
0.0
 10
242.296453
 20
156.251816
 30
0.0
 10
242.296453
 20
160.251813
 30
0.0
 10
232.296552
 20
160.251813
 30
0.0
 10
232.296552
 20
156.251816
 30
0.0
 10
222.296651
 20
156.251816
 30
0.0
 10
222.296651
 20
160.251813
 30
0.0
 10
212.296724
 20
160.251813
 30
0.0
 10
212.296724
 20
156.251816
 30
0.0
 10
202.296824
 20
156.251816
 30
0.0
 10
202.296824
 20
160.251813
 30
0.0
 10
192.296420
 20
160.251813
 30
0.0
 10
192.296420
 20
156.251816
 30
0.0
 10
182.296493
 20
156.251816
 30
0.0
 10
182.296493
 20
160.251813
 30
0.0
 10
152.296791
 20
160.251813
 30
0.0
 10
152.296791
 20
156.251816
 30
0.0
 10
142.296864
 20
156.251816
 30
0.0
 10
142.296864
 20
160.251813
 30
0.0
 10
132.296461
 20
160.251813
 30
0.0
 10
132.296461
 20
156.251816
 30
0.0
 10
122.296542
 20
156.251816
 30
0.0
 10
122.296542
 20
160.251813
 30
0.0
 10
112.296633
 20
160.251813
 30
0.0
 10
112.296633
 20
156.251816
 30
0.0
 10
102.296727
 20
156.251816
 30
0.0
 10
102.296727
 20
160.251813
 30
0.0
 10
92.296821
 20
160.251813
 30
0.0
 10
92.296821
 20
156.251816
 30
0.0
 10
82.296397
 20
156.251816
 30
0.0
 10
82.296397
 20
160.251813
 30
0.0
 10
72.296491
 20
160.251813
 30
0.0
 10
72.296491
 20
156.251816
 30
0.0
 10
62.296585
 20
156.251816
 30
0.0
 10
62.296585
 20
160.251813
 30
0.0
 10
40.476726
 20
160.251813
 30
0.0
 10
40.476726
 20
156.251816
 30
0.0
 10
36.476726
 20
156.251816
 30
0.0
 10
36.476726
 20
168.036509
 30
0.0
 10
40.476726
 20
168.036509
 30
0.0
  0
SPLINE
  5
116
100
AcDbEntity
  8
0
 62
1
100
AcDbSpline
 70
0
 71
3
 72
25
 73
21
 74
19
 40
0.000000
 40
0.000000
 40
0.000000
 40
0.000000
 40
0.540778
 40
1.073823
 40
1.614611
 40
2.155398
 40
2.688444
 40
3.229232
 40
3.770025
 40
4.303075
 40
4.843855
 40
5.384637
 40
5.917688
 40
6.458481
 40
6.999270
 40
7.532317
 40
8.073106
 40
8.613894
 40
9.146940
 40
9.687720
 40
9.687720
 40
9.687720
 40
9.687720
 10
1014.028404
 20
34.327457
 30
0.0
 10
1014.046919
 20
34.508636
 30
0.0
 10
1014.083684
 20
34.868402
 30
0.0
 10
1014.368923
 20
35.343844
 30
0.0
 10
1014.786568
 20
35.697328
 30
0.0
 10
1015.303749
 20
35.884802
 30
0.0
 10
1015.852535
 20
35.884802
 30
0.0
 10
1016.368992
 20
35.697326
 30
0.0
 10
1016.789534
 20
35.343844
 30
0.0
 10
1017.064040
 20
34.868405
 30
0.0
 10
1017.159888
 20
34.327456
 30
0.0
 10
1017.064040
 20
33.786507
 30
0.0
 10
1016.789535
 20
33.311067
 30
0.0
 10
1016.368991
 20
32.957586
 30
0.0
 10
1015.852537
 20
32.770101
 30
0.0
 10
1015.303747
 20
32.770101
 30
0.0
 10
1014.786570
 20
32.957585
 30
0.0
 10
1014.368922
 20
33.311066
 30
0.0
 10
1014.083684
 20
33.786510
 30
0.0
 10
1014.046919
 20
34.146278
 30
0.0
 10
1014.028404
 20
34.327457
 30
0.0
 11
1014.028404
 21
34.327457
 31
0.0
 11
1014.122736
 21
34.859944
 31
0.0
 11
1014.389253
 21
35.321578
 31
0.0
 11
1014.803237
 21
35.669527
 31
0.0
 11
1015.311559
 21
35.854079
 31
0.0
 11
1015.844606
 21
35.854079
 31
0.0
 11
1016.352928
 21
35.669527
 31
0.0
 11
1016.766918
 21
35.321578
 31
0.0
 11
1017.033447
 21
34.859944
 31
0.0
 11
1017.127786
 21
34.327457
 31
0.0
 11
1017.033447
 21
33.794967
 31
0.0
 11
1016.766918
 21
33.333333
 31
0.0
 11
1016.352928
 21
32.985384
 31
0.0
 11
1015.844606
 21
32.800825
 31
0.0
 11
1015.311559
 21
32.800825
 31
0.0
 11
1014.803237
 21
32.985384
 31
0.0
 11
1014.389253
 21
33.333333
 31
0.0
 11
1014.122736
 21
33.794967
 31
0.0
 11
1014.028404
 21
34.327457
 31
0.0
  0
SPLINE
  5
117
100
AcDbEntity
  8
0
 62
1
100
AcDbSpline
 70
0
 71
3
 72
25
 73
21
 74
19
 40
0.000000
 40
0.000000
 40
0.000000
 40
0.000000
 40
0.540785
 40
1.073831
 40
1.614620
 40
2.155402
 40
2.688450
 40
3.229239
 40
3.770024
 40
4.303069
 40
4.843853
 40
5.384639
 40
5.917687
 40
6.458469
 40
6.999259
 40
7.532307
 40
8.073091
 40
8.613877
 40
9.146925
 40
9.687711
 40
9.687711
 40
9.687711
 40
9.687711
 10
28.859283
 20
174.900034
 30
0.0
 10
28.877799
 20
175.081215
 30
0.0
 10
28.914565
 20
175.440985
 30
0.0
 10
29.199814
 20
175.916425
 30
0.0
 10
29.617462
 20
176.269904
 30
0.0
 10
30.134642
 20
176.457376
 30
0.0
 10
30.683427
 20
176.457375
 30
0.0
 10
31.199886
 20
176.269907
 30
0.0
 10
31.620422
 20
175.916423
 30
0.0
 10
31.894922
 20
175.440984
 30
0.0
 10
31.990764
 20
174.900034
 30
0.0
 10
31.894922
 20
174.359083
 30
0.0
 10
31.620424
 20
173.883642
 30
0.0
 10
31.199883
 20
173.530163
 30
0.0
 10
30.683428
 20
173.342690
 30
0.0
 10
30.134641
 20
173.342688
 30
0.0
 10
29.617464
 20
173.530167
 30
0.0
 10
29.199812
 20
173.883640
 30
0.0
 10
28.914566
 20
174.359083
 30
0.0
 10
28.877799
 20
174.718853
 30
0.0
 10
28.859283
 20
174.900034
 30
0.0
 11
28.859283
 21
174.900034
 31
0.0
 11
28.953619
 21
175.432528
 31
0.0
 11
29.220144
 21
175.894158
 31
0.0
 11
29.634132
 21
176.242104
 31
0.0
 11
30.142450
 21
176.426653
 31
0.0
 11
30.675498
 21
176.426653
 31
0.0
 11
31.183823
 21
176.242104
 31
0.0
 11
31.597806
 21
175.894158
 31
0.0
 11
31.864328
 21
175.432528
 31
0.0
 11
31.958664
 21
174.900034
 31
0.0
 11
31.864328
 21
174.367540
 31
0.0
 11
31.597806
 21
173.905907
 31
0.0
 11
31.183823
 21
173.557965
 31
0.0
 11
30.675498
 21
173.373412
 31
0.0
 11
30.142450
 21
173.373412
 31
0.0
 11
29.634132
 21
173.557965
 31
0.0
 11
29.220144
 21
173.905907
 31
0.0
 11
28.953619
 21
174.367540
 31
0.0
 11
28.859283
 21
174.900034
 31
0.0
  0
SPLINE
  5
118
100
AcDbEntity
  8
0
 62
1
100
AcDbSpline
 70
0
 71
3
 72
25
 73
21
 74
19
 40
0.000000
 40
0.000000
 40
0.000000
 40
0.000000
 40
1.460119
 40
2.899343
 40
4.359473
 40
5.819586
 40
7.258815
 40
8.718946
 40
10.179065
 40
11.618285
 40
13.078404
 40
14.538527
 40
15.977754
 40
17.437865
 40
18.898000
 40
20.337229
 40
21.797345
 40
23.257468
 40
24.696698
 40
26.156821
 40
26.156821
 40
26.156821
 40
26.156821
 10
26.224809
 20
174.900038
 30
0.0
 10
26.274802
 20
175.389227
 30
0.0
 10
26.374071
 20
176.360604
 30
0.0
 10
27.144243
 20
177.644292
 30
0.0
 10
28.271890
 20
178.598685
 30
0.0
 10
29.668277
 20
179.104861
 30
0.0
 10
31.149996
 20
179.104857
 30
0.0
 10
32.544436
 20
178.598695
 30
0.0
 10
33.679883
 20
177.644287
 30
0.0
 10
34.421035
 20
176.360604
 30
0.0
 10
34.679807
 20
174.900037
 30
0.0
 10
34.421033
 20
173.439470
 30
0.0
 10
33.679889
 20
172.155778
 30
0.0
 10
32.544429
 20
171.201385
 30
0.0
 10
31.150000
 20
170.695208
 30
0.0
 10
29.668274
 20
170.695203
 30
0.0
 10
28.271897
 20
171.201395
 30
0.0
 10
27.144237
 20
172.155774
 30
0.0
 10
26.374072
 20
173.439469
 30
0.0
 10
26.274802
 20
174.410849
 30
0.0
 10
26.224809
 20
174.900038
 30
0.0
 11
26.224809
 21
174.900038
 31
0.0
 11
26.479516
 21
176.337770
 31
0.0
 11
27.199132
 21
177.584172
 31
0.0
 11
28.316899
 21
178.523627
 31
0.0
 11
29.689359
 21
179.021908
 31
0.0
 11
31.128588
 21
179.021908
 31
0.0
 11
32.501067
 21
178.523627
 31
0.0
 11
33.618820
 21
177.584172
 31
0.0
 11
34.338430
 21
176.337770
 31
0.0
 11
34.593136
 21
174.900038
 31
0.0
 11
34.338430
 21
173.462303
 31
0.0
 11
33.618820
 21
172.215894
 31
0.0
 11
32.501067
 21
171.276450
 31
0.0
 11
31.128588
 21
170.778159
 31
0.0
 11
29.689359
 21
170.778159
 31
0.0
 11
28.316899
 21
171.276450
 31
0.0
 11
27.199132
 21
172.215894
 31
0.0
 11
26.479516
 21
173.462303
 31
0.0
 11
26.224809
 21
174.900038
 31
0.0
  0
SPLINE
  5
119
100
AcDbEntity
  8
0
 62
1
100
AcDbSpline
 70
0
 71
3
 72
25
 73
21
 74
19
 40
0.000000
 40
0.000000
 40
0.000000
 40
0.000000
 40
0.540785
 40
1.073831
 40
1.614620
 40
2.155402
 40
2.688450
 40
3.229239
 40
3.770024
 40
4.303069
 40
4.843853
 40
5.384639
 40
5.917687
 40
6.458469
 40
6.999259
 40
7.532307
 40
8.073091
 40
8.613877
 40
9.146925
 40
9.687711
 40
9.687711
 40
9.687711
 40
9.687711
 10
28.747460
 20
165.321449
 30
0.0
 10
28.765976
 20
165.502630
 30
0.0
 10
28.802742
 20
165.862399
 30
0.0
 10
29.087991
 20
166.337839
 30
0.0
 10
29.505638
 20
166.691318
 30
0.0
 10
30.022818
 20
166.878791
 30
0.0
 10
30.571603
 20
166.878789
 30
0.0
 10
31.088062
 20
166.691322
 30
0.0
 10
31.508598
 20
166.337837
 30
0.0
 10
31.783099
 20
165.862399
 30
0.0
 10
31.878941
 20
165.321448
 30
0.0
 10
31.783098
 20
164.780498
 30
0.0
 10
31.508601
 20
164.305056
 30
0.0
 10
31.088060
 20
163.951577
 30
0.0
 10
30.571604
 20
163.764104
 30
0.0
 10
30.022817
 20
163.764103
 30
0.0
 10
29.505640
 20
163.951581
 30
0.0
 10
29.087989
 20
164.305054
 30
0.0
 10
28.802742
 20
164.780497
 30
0.0
 10
28.765976
 20
165.140268
 30
0.0
 10
28.747460
 20
165.321449
 30
0.0
 11
28.747460
 21
165.321449
 31
0.0
 11
28.841796
 21
165.853942
 31
0.0
 11
29.108320
 21
166.315572
 31
0.0
 11
29.522308
 21
166.663519
 31
0.0
 11
30.030627
 21
166.848067
 31
0.0
 11
30.563674
 21
166.848067
 31
0.0
 11
31.072000
 21
166.663519
 31
0.0
 11
31.485982
 21
166.315572
 31
0.0
 11
31.752505
 21
165.853942
 31
0.0
 11
31.846840
 21
165.321449
 31
0.0
 11
31.752505
 21
164.788954
 31
0.0
 11
31.485982
 21
164.327321
 31
0.0
 11
31.072000
 21
163.979379
 31
0.0
 11
30.563674
 21
163.794827
 31
0.0
 11
30.030627
 21
163.794827
 31
0.0
 11
29.522308
 21
163.979379
 31
0.0
 11
29.108320
 21
164.327321
 31
0.0
 11
28.841796
 21
164.788954
 31
0.0
 11
28.747460
 21
165.321449
 31
0.0
  0
SPLINE
  5
11a
100
AcDbEntity
  8
0
 62
1
100
AcDbSpline
 70
0
 71
3
 72
25
 73
21
 74
19
 40
0.000000
 40
0.000000
 40
0.000000
 40
0.000000
 40
1.460119
 40
2.899343
 40
4.359473
 40
5.819586
 40
7.258815
 40
8.718946
 40
10.179065
 40
11.618285
 40
13.078404
 40
14.538527
 40
15.977754
 40
17.437865
 40
18.898000
 40
20.337229
 40
21.797345
 40
23.257468
 40
24.696698
 40
26.156821
 40
26.156821
 40
26.156821
 40
26.156821
 10
26.112986
 20
165.321453
 30
0.0
 10
26.162978
 20
165.810642
 30
0.0
 10
26.262247
 20
166.782019
 30
0.0
 10
27.032420
 20
168.065706
 30
0.0
 10
28.160067
 20
169.020100
 30
0.0
 10
29.556453
 20
169.526276
 30
0.0
 10
31.038173
 20
169.526271
 30
0.0
 10
32.432612
 20
169.020110
 30
0.0
 10
33.568059
 20
168.065701
 30
0.0
 10
34.309211
 20
166.782018
 30
0.0
 10
34.567984
 20
165.321451
 30
0.0
 10
34.309209
 20
163.860885
 30
0.0
 10
33.568066
 20
162.577193
 30
0.0
 10
32.432606
 20
161.622800
 30
0.0
 10
31.038176
 20
161.116622
 30
0.0
 10
29.556450
 20
161.116618
 30
0.0
 10
28.160073
 20
161.622810
 30
0.0
 10
27.032413
 20
162.577188
 30
0.0
 10
26.262249
 20
163.860884
 30
0.0
 10
26.162979
 20
164.832263
 30
0.0
 10
26.112986
 20
165.321453
 30
0.0
 11
26.112986
 21
165.321453
 31
0.0
 11
26.367693
 21
166.759185
 31
0.0
 11
27.087309
 21
168.005586
 31
0.0
 11
28.205076
 21
168.945041
 31
0.0
 11
29.577536
 21
169.443323
 31
0.0
 11
31.016765
 21
169.443323
 31
0.0
 11
32.389244
 21
168.945041
 31
0.0
 11
33.506996
 21
168.005586
 31
0.0
 11
34.226606
 21
166.759185
 31
0.0
 11
34.481313
 21
165.321453
 31
0.0
 11
34.226606
 21
163.883718
 31
0.0
 11
33.506996
 21
162.637308
 31
0.0
 11
32.389244
 21
161.697864
 31
0.0
 11
31.016765
 21
161.199573
 31
0.0
 11
29.577536
 21
161.199573
 31
0.0
 11
28.205076
 21
161.697864
 31
0.0
 11
27.087309
 21
162.637308
 31
0.0
 11
26.367693
 21
163.883718
 31
0.0
 11
26.112986
 21
165.321453
 31
0.0
  0
SPLINE
  5
11b
100
AcDbEntity
  8
0
 62
1
100
AcDbSpline
 70
0
 71
3
 72
25
 73
21
 74
19
 40
0.000000
 40
0.000000
 40
0.000000
 40
0.000000
 40
0.540785
 40
1.073831
 40
1.614620
 40
2.155402
 40
2.688450
 40
3.229239
 40
3.770024
 40
4.303069
 40
4.843853
 40
5.384639
 40
5.917687
 40
6.458469
 40
6.999259
 40
7.532307
 40
8.073091
 40
8.613877
 40
9.146925
 40
9.687711
 40
9.687711
 40
9.687711
 40
9.687711
 10
309.339752
 20
9.903426
 30
0.0
 10
309.358267
 20
10.084607
 30
0.0
 10
309.395034
 20
10.444376
 30
0.0
 10
309.680283
 20
10.919816
 30
0.0
 10
310.097930
 20
11.273295
 30
0.0
 10
310.615110
 20
11.460767
 30
0.0
 10
311.163895
 20
11.460766
 30
0.0
 10
311.680354
 20
11.273299
 30
0.0
 10
312.100890
 20
10.919814
 30
0.0
 10
312.375391
 20
10.444376
 30
0.0
 10
312.471233
 20
9.903425
 30
0.0
 10
312.375390
 20
9.362475
 30
0.0
 10
312.100893
 20
8.887033
 30
0.0
 10
311.680352
 20
8.533554
 30
0.0
 10
311.163896
 20
8.346081
 30
0.0
 10
310.615109
 20
8.346079
 30
0.0
 10
310.097932
 20
8.533558
 30
0.0
 10
309.680280
 20
8.887031
 30
0.0
 10
309.395034
 20
9.362474
 30
0.0
 10
309.358268
 20
9.722244
 30
0.0
 10
309.339752
 20
9.903426
 30
0.0
 11
309.339752
 21
9.903426
 31
0.0
 11
309.434088
 21
10.435919
 31
0.0
 11
309.700612
 21
10.897549
 31
0.0
 11
310.114600
 21
11.245495
 31
0.0
 11
310.622918
 21
11.430044
 31
0.0
 11
311.155966
 21
11.430044
 31
0.0
 11
311.664292
 21
11.245495
 31
0.0
 11
312.078274
 21
10.897549
 31
0.0
 11
312.344796
 21
10.435919
 31
0.0
 11
312.439132
 21
9.903426
 31
0.0
 11
312.344796
 21
9.370931
 31
0.0
 11
312.078274
 21
8.909298
 31
0.0
 11
311.664292
 21
8.561356
 31
0.0
 11
311.155966
 21
8.376804
 31
0.0
 11
310.622918
 21
8.376804
 31
0.0
 11
310.114600
 21
8.561356
 31
0.0
 11
309.700612
 21
8.909298
 31
0.0
 11
309.434088
 21
9.370931
 31
0.0
 11
309.339752
 21
9.903426
 31
0.0
  0
SPLINE
  5
11c
100
AcDbEntity
  8
0
 62
1
100
AcDbSpline
 70
0
 71
3
 72
25
 73
21
 74
19
 40
0.000000
 40
0.000000
 40
0.000000
 40
0.000000
 40
1.460119
 40
2.899343
 40
4.359473
 40
5.819586
 40
7.258815
 40
8.718946
 40
10.179065
 40
11.618285
 40
13.078404
 40
14.538527
 40
15.977754
 40
17.437865
 40
18.898000
 40
20.337229
 40
21.797345
 40
23.257468
 40
24.696698
 40
26.156821
 40
26.156821
 40
26.156821
 40
26.156821
 10
306.705278
 20
9.903430
 30
0.0
 10
306.755270
 20
10.392619
 30
0.0
 10
306.854539
 20
11.363996
 30
0.0
 10
307.624712
 20
12.647683
 30
0.0
 10
308.752359
 20
13.602077
 30
0.0
 10
310.148745
 20
14.108252
 30
0.0
 10
311.630465
 20
14.108248
 30
0.0
 10
313.024904
 20
13.602087
 30
0.0
 10
314.160351
 20
12.647678
 30
0.0
 10
314.901503
 20
11.363995
 30
0.0
 10
315.160276
 20
9.903428
 30
0.0
 10
314.901501
 20
8.442862
 30
0.0
 10
314.160358
 20
7.159170
 30
0.0
 10
313.024897
 20
6.204776
 30
0.0
 10
311.630468
 20
5.698599
 30
0.0
 10
310.148742
 20
5.698595
 30
0.0
 10
308.752365
 20
6.204786
 30
0.0
 10
307.624705
 20
7.159165
 30
0.0
 10
306.854541
 20
8.442861
 30
0.0
 10
306.755271
 20
9.414240
 30
0.0
 10
306.705278
 20
9.903430
 30
0.0
 11
306.705278
 21
9.903430
 31
0.0
 11
306.959985
 21
11.341161
 31
0.0
 11
307.679601
 21
12.587563
 31
0.0
 11
308.797368
 21
13.527018
 31
0.0
 11
310.169828
 21
14.025300
 31
0.0
 11
311.609057
 21
14.025300
 31
0.0
 11
312.981536
 21
13.527018
 31
0.0
 11
314.099288
 21
12.587563
 31
0.0
 11
314.818898
 21
11.341161
 31
0.0
 11
315.073604
 21
9.903430
 31
0.0
 11
314.818898
 21
8.465695
 31
0.0
 11
314.099288
 21
7.219285
 31
0.0
 11
312.981536
 21
6.279841
 31
0.0
 11
311.609057
 21
5.781550
 31
0.0
 11
310.169828
 21
5.781550
 31
0.0
 11
308.797368
 21
6.279841
 31
0.0
 11
307.679601
 21
7.219285
 31
0.0
 11
306.959985
 21
8.465695
 31
0.0
 11
306.705278
 21
9.903430
 31
0.0
  0
SPLINE
  5
11d
100
AcDbEntity
  8
0
 62
1
100
AcDbSpline
 70
0
 71
3
 72
25
 73
21
 74
19
 40
0.000000
 40
0.000000
 40
0.000000
 40
0.000000
 40
0.540785
 40
1.073831
 40
1.614620
 40
2.155402
 40
2.688450
 40
3.229239
 40
3.770024
 40
4.303069
 40
4.843853
 40
5.384639
 40
5.917687
 40
6.458469
 40
6.999259
 40
7.532307
 40
8.073091
 40
8.613877
 40
9.146925
 40
9.687711
 40
9.687711
 40
9.687711
 40
9.687711
 10
305.503796
 20
171.278237
 30
0.0
 10
305.522312
 20
171.459418
 30
0.0
 10
305.559078
 20
171.819187
 30
0.0
 10
305.844327
 20
172.294627
 30
0.0
 10
306.261974
 20
172.648106
 30
0.0
 10
306.779154
 20
172.835579
 30
0.0
 10
307.327940
 20
172.835577
 30
0.0
 10
307.844398
 20
172.648110
 30
0.0
 10
308.264935
 20
172.294625
 30
0.0
 10
308.539435
 20
171.819187
 30
0.0
 10
308.635277
 20
171.278236
 30
0.0
 10
308.539434
 20
170.737286
 30
0.0
 10
308.264937
 20
170.261844
 30
0.0
 10
307.844396
 20
169.908365
 30
0.0
 10
307.327941
 20
169.720892
 30
0.0
 10
306.779153
 20
169.720890
 30
0.0
 10
306.261977
 20
169.908369
 30
0.0
 10
305.844325
 20
170.261842
 30
0.0
 10
305.559079
 20
170.737285
 30
0.0
 10
305.522312
 20
171.097055
 30
0.0
 10
305.503796
 20
171.278237
 30
0.0
 11
305.503796
 21
171.278237
 31
0.0
 11
305.598132
 21
171.810730
 31
0.0
 11
305.864656
 21
172.272360
 31
0.0
 11
306.278644
 21
172.620307
 31
0.0
 11
306.786963
 21
172.804855
 31
0.0
 11
307.320011
 21
172.804855
 31
0.0
 11
307.828336
 21
172.620307
 31
0.0
 11
308.242318
 21
172.272360
 31
0.0
 11
308.508841
 21
171.810730
 31
0.0
 11
308.603176
 21
171.278237
 31
0.0
 11
308.508841
 21
170.745742
 31
0.0
 11
308.242318
 21
170.284109
 31
0.0
 11
307.828336
 21
169.936167
 31
0.0
 11
307.320011
 21
169.751615
 31
0.0
 11
306.786963
 21
169.751615
 31
0.0
 11
306.278644
 21
169.936167
 31
0.0
 11
305.864656
 21
170.284109
 31
0.0
 11
305.598132
 21
170.745742
 31
0.0
 11
305.503796
 21
171.278237
 31
0.0
  0
SPLINE
  5
11e
100
AcDbEntity
  8
0
 62
1
100
AcDbSpline
 70
0
 71
3
 72
25
 73
21
 74
19
 40
0.000000
 40
0.000000
 40
0.000000
 40
0.000000
 40
1.460119
 40
2.899343
 40
4.359473
 40
5.819586
 40
7.258815
 40
8.718946
 40
10.179065
 40
11.618285
 40
13.078404
 40
14.538527
 40
15.977754
 40
17.437865
 40
18.898000
 40
20.337229
 40
21.797345
 40
23.257468
 40
24.696698
 40
26.156821
 40
26.156821
 40
26.156821
 40
26.156821
 10
302.869322
 20
171.278241
 30
0.0
 10
302.919314
 20
171.767430
 30
0.0
 10
303.018583
 20
172.738807
 30
0.0
 10
303.788756
 20
174.022494
 30
0.0
 10
304.916403
 20
174.976888
 30
0.0
 10
306.312790
 20
175.483064
 30
0.0
 10
307.794509
 20
175.483059
 30
0.0
 10
309.188948
 20
174.976898
 30
0.0
 10
310.324396
 20
174.022489
 30
0.0
 10
311.065547
 20
172.738806
 30
0.0
 10
311.324320
 20
171.278239
 30
0.0
 10
311.065545
 20
169.817673
 30
0.0
 10
310.324402
 20
168.533981
 30
0.0
 10
309.188942
 20
167.579588
 30
0.0
 10
307.794512
 20
167.073410
 30
0.0
 10
306.312786
 20
167.073406
 30
0.0
 10
304.916410
 20
167.579597
 30
0.0
 10
303.788749
 20
168.533976
 30
0.0
 10
303.018585
 20
169.817672
 30
0.0
 10
302.919315
 20
170.789051
 30
0.0
 10
302.869322
 20
171.278241
 30
0.0
 11
302.869322
 21
171.278241
 31
0.0
 11
303.124029
 21
172.715973
 31
0.0
 11
303.843645
 21
173.962374
 31
0.0
 11
304.961412
 21
174.901829
 31
0.0
 11
306.333872
 21
175.400111
 31
0.0
 11
307.773101
 21
175.400111
 31
0.0
 11
309.145580
 21
174.901829
 31
0.0
 11
310.263332
 21
173.962374
 31
0.0
 11
310.982943
 21
172.715973
 31
0.0
 11
311.237649
 21
171.278241
 31
0.0
 11
310.982943
 21
169.840506
 31
0.0
 11
310.263332
 21
168.594096
 31
0.0
 11
309.145580
 21
167.654652
 31
0.0
 11
307.773101
 21
167.156361
 31
0.0
 11
306.333872
 21
167.156361
 31
0.0
 11
304.961412
 21
167.654652
 31
0.0
 11
303.843645
 21
168.594096
 31
0.0
 11
303.124029
 21
169.840506
 31
0.0
 11
302.869322
 21
171.278241
 31
0.0
  0
SPLINE
  5
11f
100
AcDbEntity
  8
0
 62
1
100
AcDbSpline
 70
0
 71
3
 72
25
 73
21
 74
19
 40
0.000000
 40
0.000000
 40
0.000000
 40
0.000000
 40
0.540785
 40
1.073831
 40
1.614620
 40
2.155402
 40
2.688450
 40
3.229239
 40
3.770024
 40
4.303069
 40
4.843853
 40
5.384639
 40
5.917687
 40
6.458469
 40
6.999259
 40
7.532307
 40
8.073091
 40
8.613877
 40
9.146925
 40
9.687711
 40
9.687711
 40
9.687711
 40
9.687711
 10
29.031247
 20
9.070422
 30
0.0
 10
29.049762
 20
9.251603
 30
0.0
 10
29.086529
 20
9.611372
 30
0.0
 10
29.371778
 20
10.086812
 30
0.0
 10
29.789425
 20
10.440291
 30
0.0
 10
30.306605
 20
10.627764
 30
0.0
 10
30.855390
 20
10.627762
 30
0.0
 10
31.371849
 20
10.440295
 30
0.0
 10
31.792385
 20
10.086810
 30
0.0
 10
32.066886
 20
9.611372
 30
0.0
 10
32.162727
 20
9.070421
 30
0.0
 10
32.066885
 20
8.529471
 30
0.0
 10
31.792387
 20
8.054029
 30
0.0
 10
31.371847
 20
7.700550
 30
0.0
 10
30.855391
 20
7.513077
 30
0.0
 10
30.306604
 20
7.513076
 30
0.0
 10
29.789427
 20
7.700554
 30
0.0
 10
29.371775
 20
8.054028
 30
0.0
 10
29.086529
 20
8.529471
 30
0.0
 10
29.049763
 20
8.889241
 30
0.0
 10
29.031247
 20
9.070422
 30
0.0
 11
29.031247
 21
9.070422
 31
0.0
 11
29.125583
 21
9.602915
 31
0.0
 11
29.392107
 21
10.064545
 31
0.0
 11
29.806095
 21
10.412492
 31
0.0
 11
30.314413
 21
10.597041
 31
0.0
 11
30.847461
 21
10.597041
 31
0.0
 11
31.355787
 21
10.412492
 31
0.0
 11
31.769769
 21
10.064545
 31
0.0
 11
32.036291
 21
9.602915
 31
0.0
 11
32.130627
 21
9.070422
 31
0.0
 11
32.036291
 21
8.537928
 31
0.0
 11
31.769769
 21
8.076294
 31
0.0
 11
31.355787
 21
7.728352
 31
0.0
 11
30.847461
 21
7.543800
 31
0.0
 11
30.314413
 21
7.543800
 31
0.0
 11
29.806095
 21
7.728352
 31
0.0
 11
29.392107
 21
8.076294
 31
0.0
 11
29.125583
 21
8.537928
 31
0.0
 11
29.031247
 21
9.070422
 31
0.0
  0
SPLINE
  5
120
100
AcDbEntity
  8
0
 62
1
100
AcDbSpline
 70
0
 71
3
 72
25
 73
21
 74
19
 40
0.000000
 40
0.000000
 40
0.000000
 40
0.000000
 40
1.460119
 40
2.899343
 40
4.359473
 40
5.819586
 40
7.258815
 40
8.718946
 40
10.179065
 40
11.618285
 40
13.078404
 40
14.538527
 40
15.977754
 40
17.437865
 40
18.898000
 40
20.337229
 40
21.797345
 40
23.257468
 40
24.696698
 40
26.156821
 40
26.156821
 40
26.156821
 40
26.156821
 10
26.396773
 20
9.070426
 30
0.0
 10
26.446765
 20
9.559615
 30
0.0
 10
26.546034
 20
10.530992
 30
0.0
 10
27.316207
 20
11.814679
 30
0.0
 10
28.443854
 20
12.769073
 30
0.0
 10
29.840240
 20
13.275249
 30
0.0
 10
31.321960
 20
13.275244
 30
0.0
 10
32.716399
 20
12.769083
 30
0.0
 10
33.851846
 20
11.814675
 30
0.0
 10
34.592998
 20
10.530991
 30
0.0
 10
34.851771
 20
9.070425
 30
0.0
 10
34.592996
 20
7.609858
 30
0.0
 10
33.851853
 20
6.326166
 30
0.0
 10
32.716392
 20
5.371773
 30
0.0
 10
31.321963
 20
4.865596
 30
0.0
 10
29.840237
 20
4.865591
 30
0.0
 10
28.443860
 20
5.371783
 30
0.0
 10
27.316200
 20
6.326161
 30
0.0
 10
26.546036
 20
7.609857
 30
0.0
 10
26.446765
 20
8.581236
 30
0.0
 10
26.396773
 20
9.070426
 30
0.0
 11
26.396773
 21
9.070426
 31
0.0
 11
26.651480
 21
10.508158
 31
0.0
 11
27.371096
 21
11.754559
 31
0.0
 11
28.488863
 21
12.694015
 31
0.0
 11
29.861323
 21
13.192296
 31
0.0
 11
31.300552
 21
13.192296
 31
0.0
 11
32.673031
 21
12.694015
 31
0.0
 11
33.790783
 21
11.754559
 31
0.0
 11
34.510393
 21
10.508158
 31
0.0
 11
34.765099
 21
9.070426
 31
0.0
 11
34.510393
 21
7.632691
 31
0.0
 11
33.790783
 21
6.386282
 31
0.0
 11
32.673031
 21
5.446837
 31
0.0
 11
31.300552
 21
4.948547
 31
0.0
 11
29.861323
 21
4.948547
 31
0.0
 11
28.488863
 21
5.446837
 31
0.0
 11
27.371096
 21
6.386282
 31
0.0
 11
26.651480
 21
7.632691
 31
0.0
 11
26.396773
 21
9.070426
 31
0.0
  0
SPLINE
  5
121
100
AcDbEntity
  8
0
 62
1
100
AcDbSpline
 70
0
 71
3
 72
25
 73
21
 74
19
 40
0.000000
 40
0.000000
 40
0.000000
 40
0.000000
 40
0.540785
 40
1.073831
 40
1.614620
 40
2.155402
 40
2.688450
 40
3.229239
 40
3.770024
 40
4.303069
 40
4.843853
 40
5.384639
 40
5.917687
 40
6.458469
 40
6.999259
 40
7.532307
 40
8.073091
 40
8.613877
 40
9.146925
 40
9.687711
 40
9.687711
 40
9.687711
 40
9.687711
 10
29.233885
 20
19.186345
 30
0.0
 10
29.252401
 20
19.367526
 30
0.0
 10
29.289167
 20
19.727295
 30
0.0
 10
29.574416
 20
20.202735
 30
0.0
 10
29.992063
 20
20.556214
 30
0.0
 10
30.509244
 20
20.743687
 30
0.0
 10
31.058029
 20
20.743685
 30
0.0
 10
31.574488
 20
20.556218
 30
0.0
 10
31.995024
 20
20.202733
 30
0.0
 10
32.269524
 20
19.727295
 30
0.0
 10
32.365366
 20
19.186345
 30
0.0
 10
32.269524
 20
18.645394
 30
0.0
 10
31.995026
 20
18.169952
 30
0.0
 10
31.574485
 20
17.816474
 30
0.0
 10
31.058030
 20
17.629000
 30
0.0
 10
30.509242
 20
17.628999
 30
0.0
 10
29.992066
 20
17.816477
 30
0.0
 10
29.574414
 20
18.169951
 30
0.0
 10
29.289168
 20
18.645394
 30
0.0
 10
29.252401
 20
19.005164
 30
0.0
 10
29.233885
 20
19.186345
 30
0.0
 11
29.233885
 21
19.186345
 31
0.0
 11
29.328221
 21
19.718838
 31
0.0
 11
29.594746
 21
20.180469
 31
0.0
 11
30.008733
 21
20.528415
 31
0.0
 11
30.517052
 21
20.712964
 31
0.0
 11
31.050100
 21
20.712964
 31
0.0
 11
31.558425
 21
20.528415
 31
0.0
 11
31.972408
 21
20.180469
 31
0.0
 11
32.238930
 21
19.718838
 31
0.0
 11
32.333265
 21
19.186345
 31
0.0
 11
32.238930
 21
18.653851
 31
0.0
 11
31.972408
 21
18.192218
 31
0.0
 11
31.558425
 21
17.844275
 31
0.0
 11
31.050100
 21
17.659723
 31
0.0
 11
30.517052
 21
17.659723
 31
0.0
 11
30.008733
 21
17.844275
 31
0.0
 11
29.594746
 21
18.192218
 31
0.0
 11
29.328221
 21
18.653851
 31
0.0
 11
29.233885
 21
19.186345
 31
0.0
  0
SPLINE
  5
122
100
AcDbEntity
  8
0
 62
1
100
AcDbSpline
 70
0
 71
3
 72
25
 73
21
 74
19
 40
0.000000
 40
0.000000
 40
0.000000
 40
0.000000
 40
1.460119
 40
2.899343
 40
4.359473
 40
5.819586
 40
7.258815
 40
8.718946
 40
10.179065
 40
11.618285
 40
13.078404
 40
14.538527
 40
15.977754
 40
17.437865
 40
18.898000
 40
20.337229
 40
21.797345
 40
23.257468
 40
24.696698
 40
26.156821
 40
26.156821
 40
26.156821
 40
26.156821
 10
26.599411
 20
19.186349
 30
0.0
 10
26.649403
 20
19.675538
 30
0.0
 10
26.748672
 20
20.646915
 30
0.0
 10
27.518845
 20
21.930602
 30
0.0
 10
28.646492
 20
22.884996
 30
0.0
 10
30.042879
 20
23.391172
 30
0.0
 10
31.524598
 20
23.391167
 30
0.0
 10
32.919037
 20
22.885006
 30
0.0
 10
34.054485
 20
21.930598
 30
0.0
 10
34.795636
 20
20.646914
 30
0.0
 10
35.054409
 20
19.186348
 30
0.0
 10
34.795635
 20
17.725781
 30
0.0
 10
34.054491
 20
16.442089
 30
0.0
 10
32.919031
 20
15.487696
 30
0.0
 10
31.524601
 20
14.981519
 30
0.0
 10
30.042876
 20
14.981514
 30
0.0
 10
28.646499
 20
15.487706
 30
0.0
 10
27.518839
 20
16.442084
 30
0.0
 10
26.748674
 20
17.725780
 30
0.0
 10
26.649404
 20
18.697160
 30
0.0
 10
26.599411
 20
19.186349
 30
0.0
 11
26.599411
 21
19.186349
 31
0.0
 11
26.854118
 21
20.624081
 31
0.0
 11
27.573734
 21
21.870482
 31
0.0
 11
28.691501
 21
22.809938
 31
0.0
 11
30.063961
 21
23.308219
 31
0.0
 11
31.503190
 21
23.308219
 31
0.0
 11
32.875669
 21
22.809938
 31
0.0
 11
33.993421
 21
21.870482
 31
0.0
 11
34.713032
 21
20.624081
 31
0.0
 11
34.967738
 21
19.186349
 31
0.0
 11
34.713032
 21
17.748614
 31
0.0
 11
33.993421
 21
16.502205
 31
0.0
 11
32.875669
 21
15.562760
 31
0.0
 11
31.503190
 21
15.064470
 31
0.0
 11
30.063961
 21
15.064470
 31
0.0
 11
28.691501
 21
15.562760
 31
0.0
 11
27.573734
 21
16.502205
 31
0.0
 11
26.854118
 21
17.748614
 31
0.0
 11
26.599411
 21
19.186349
 31
0.0
  0
LWPOLYLINE
  5
123
100
AcDbEntity
  8
0
 62
1
100
AcDbPolyline
 90
36
 70
1
 10
298.116546
 20
127.118355
 30
0.0
 10
294.116548
 20
127.118355
 30
0.0
 10
294.116548
 20
137.118261
 30
0.0
 10
298.116546
 20
137.118261
 30
0.0
 10
298.116546
 20
147.118164
 30
0.0
 10
294.116548
 20
147.118164
 30
0.0
 10
294.116548
 20
156.251816
 30
0.0
 10
305.901487
 20
156.251816
 30
0.0
 10
305.901487
 20
160.251816
 30
0.0
 10
315.901493
 20
160.251816
 30
0.0
 10
315.901493
 20
156.251816
 30
0.0
 10
323.686488
 20
156.251816
 30
0.0
 10
323.686488
 20
27.868268
 30
0.0
 10
315.901493
 20
27.868268
 30
0.0
 10
315.901493
 20
23.868270
 30
0.0
 10
305.901487
 20
23.868270
 30
0.0
 10
305.901487
 20
27.868268
 30
0.0
 10
294.116548
 20
27.868268
 30
0.0
 10
294.116548
 20
37.118164
 30
0.0
 10
298.116546
 20
37.118164
 30
0.0
 10
298.116546
 20
47.118068
 30
0.0
 10
294.116548
 20
47.118068
 30
0.0
 10
294.116548
 20
57.118492
 30
0.0
 10
298.116546
 20
57.118492
 30
0.0
 10
298.116546
 20
67.118401
 30
0.0
 10
294.116548
 20
67.118401
 30
0.0
 10
294.116548
 20
77.118304
 30
0.0
 10
298.116546
 20
77.118304
 30
0.0
 10
298.116546
 20
87.118210
 30
0.0
 10
294.116548
 20
87.118210
 30
0.0
 10
294.116548
 20
97.118116
 30
0.0
 10
298.116546
 20
97.118116
 30
0.0
 10
298.116546
 20
107.118543
 30
0.0
 10
294.116548
 20
107.118543
 30
0.0
 10
294.116548
 20
117.118449
 30
0.0
 10
298.116546
 20
117.118449
 30
0.0
  0
ENDSEC
  0
SECTION
  2
OBJECTS
  0
DICTIONARY
  5
C
330
0
100
AcDbDictionary
  3
ACAD_GROUP
350
D
  3
ACAD_MLINESTYLE
350
17
  0
DICTIONARY
  5
D
330
C
100
AcDbDictionary
  0
DICTIONARY
  5
1A
330
C
100
AcDbDictionary
  0
DICTIONARY
  5
17
330
C
100
AcDbDictionary
  3
STANDARD
350
18
  0
DICTIONARY
  5
19
330
C
100
AcDbDictionary
  0
ENDSEC
  0
EOF
