  0
SECTION
  2
HEADER
  9
$ACADVER
  1
AC1014
  9
$HANDSEED
  5
FFFF
  9
$MEASUREMENT
 70
     1
  0
ENDSEC
  0
SECTION
  2
TABLES
  0
TABLE
  2
VPORT
  5
8
330
0
100
AcDbSymbolTable
 70
     4
  0
VPORT
  5
2E
330
8
100
AcDbSymbolTableRecord
100
AcDbViewportTableRecord
  2
*ACTIVE
 70
     0
 10
0.0
 20
0.0
 11
1.0
 21
1.0
 12
210.0
 22
148.5
 13
0.0
 23
0.0
 14
10.0
 24
10.0
 15
10.0
 25
10.0
 16
0.0
 26
0.0
 36
1.0
 17
0.0
 27
0.0
 37
0.0
 40
341.0
 41
1.24
 42
50.0
 43
0.0
 44
0.0
 50
0.0
 51
0.0
 71
     0
 72
   100
 73
     1
 74
     3
 75
     0
 76
     0
 77
     0
 78
     0
  0
ENDTAB
  0
TABLE
  2
LTYPE
  5
5
330
0
100
AcDbSymbolTable
 70
     1
  0
LTYPE
  5
14
330
5
100
AcDbSymbolTableRecord
100
AcDbLinetypeTableRecord
  2
BYBLOCK
 70
     0
  3

 72
    65
 73
     0
 40
0.0
  0
LTYPE
  5
15
330
5
100
AcDbSymbolTableRecord
100
AcDbLinetypeTableRecord
  2
BYLAYER
 70
     0
  3

 72
    65
 73
     0
 40
0.0
  0
LTYPE
  5
16
330
5
100
AcDbSymbolTableRecord
100
AcDbLinetypeTableRecord
  2
CONTINUOUS
 70
     0
  3
Solid line
 72
    65
 73
     0
 40
0.0
  0
ENDTAB
  0
TABLE
  2
LAYER
  5
2
100
AcDbSymbolTable
 70
2
  0
LAYER
  5
50
100
AcDbSymbolTableRecord
100
AcDbLayerTableRecord
  2
0
 70
0
  6
CONTINUOUS
  0
LAYER
  5
51
100
AcDbSymbolTableRecord
100
AcDbLayerTableRecord
  2
Layer_1
 70
0
  6
CONTINUOUS
  0
ENDTAB
  0
TABLE
  2
STYLE
  5
3
330
0
100
AcDbSymbolTable
 70
     1
  0
STYLE
  5
11
330
3
100
AcDbSymbolTableRecord
100
AcDbTextStyleTableRecord
  2
STANDARD
 70
     0
 40
0.0
 41
1.0
 50
0.0
 71
     0
 42
2.5
  3
txt
  4

  0
ENDTAB
  0
TABLE
  2
VIEW
  5
6
330
0
100
AcDbSymbolTable
 70
     0
  0
ENDTAB
  0
TABLE
  2
UCS
  5
7
330
0
100
AcDbSymbolTable
 70
     0
  0
ENDTAB
  0
TABLE
  2
APPID
  5
9
330
0
100
AcDbSymbolTable
 70
     2
  0
APPID
  5
12
330
9
100
AcDbSymbolTableRecord
100
AcDbRegAppTableRecord
  2
ACAD
 70
     0
  0
ENDTAB
  0
TABLE
  2
DIMSTYLE
  5
A
330
0
100
AcDbSymbolTable
 70
     1
  0
DIMSTYLE
105
27
330
A
100
AcDbSymbolTableRecord
100
AcDbDimStyleTableRecord
  2
ISO-25
 70
     0
  3

  4

  5

  6

  7

 40
1.0
 41
2.5
 42
0.625
 43
3.75
 44
1.25
 45
0.0
 46
0.0
 47
0.0
 48
0.0
140
2.5
141
2.5
142
0.0
143
0.03937007874016
144
1.0
145
0.0
146
1.0
147
0.625
 71
     0
 72
     0
 73
     0
 74
     0
 75
     0
 76
     0
 77
     1
 78
     8
170
     0
171
     3
172
     1
173
     0
174
     0
175
     0
176
     0
177
     0
178
     0
270
     2
271
     2
272
     2
273
     2
274
     3
340
11
275
     0
280
     0
281
     0
282
     0
283
     0
284
     8
285
     0
286
     0
287
     3
288
     0
  0
ENDTAB
  0
TABLE
  2
BLOCK_RECORD
  5
1
330
0
100
AcDbSymbolTable
 70
     1
  0
BLOCK_RECORD
  5
1F
330
1
100
AcDbSymbolTableRecord
100
AcDbBlockTableRecord
  2
*MODEL_SPACE
  0
BLOCK_RECORD
  5
1B
330
1
100
AcDbSymbolTableRecord
100
AcDbBlockTableRecord
  2
*PAPER_SPACE
  0
ENDTAB
  0
ENDSEC
  0
SECTION
  2
BLOCKS
  0
BLOCK
  5
20
330
1F
100
AcDbEntity
  8
0
100
AcDbBlockBegin
  2
*MODEL_SPACE
 70
     0
 10
0.0
 20
0.0
 30
0.0
  3
*MODEL_SPACE
  1

  0
ENDBLK
  5
21
330
1F
100
AcDbEntity
  8
0
100
AcDbBlockEnd
  0
BLOCK
  5
1C
330
1B
100
AcDbEntity
 67
     1
  8
0
100
AcDbBlockBegin
  2
*PAPER_SPACE
  1

  0
ENDBLK
  5
1D
330
1B
100
AcDbEntity
 67
     1
  8
0
100
AcDbBlockEnd
  0
ENDSEC
  0
SECTION
  2
ENTITIES
  0
SPLINE
  5
100
100
AcDbEntity
  8
Layer_1
 62
1
100
AcDbSpline
 70
0
 71
3
 72
61
 73
57
 74
55
 40
0.000000
 40
0.000000
 40
0.000000
 40
0.000000
 40
0.227073
 40
0.452549
 40
0.676482
 40
0.898102
 40
1.121424
 40
1.345486
 40
1.572128
 40
1.798021
 40
2.023636
 40
2.249525
 40
2.475695
 40
2.701913
 40
2.924793
 40
3.147605
 40
3.370387
 40
3.596437
 40
3.822541
 40
4.048637
 40
4.274731
 40
4.500832
 40
4.726901
 40
4.949719
 40
5.172547
 40
5.395365
 40
5.621438
 40
5.847541
 40
6.073633
 40
6.299719
 40
6.525816
 40
6.751880
 40
6.974697
 40
7.197526
 40
7.420345
 40
7.646418
 40
7.872524
 40
8.098621
 40
8.324717
 40
8.550821
 40
8.776874
 40
8.999654
 40
9.222465
 40
9.445345
 40
9.671563
 40
9.897733
 40
10.123621
 40
10.349240
 40
10.575137
 40
10.801785
 40
11.025848
 40
11.249169
 40
11.470786
 40
11.694713
 40
11.920183
 40
12.147248
 40
12.147248
 40
12.147248
 40
12.147248
 10
228.075257
 20
114.645076
 30
0.0
 10
228.082953
 20
114.720379
 30
0.0
 10
228.098290
 20
114.870454
 30
0.0
 10
228.132060
 20
115.093574
 30
0.0
 10
228.187523
 20
115.310935
 30
0.0
 10
228.274424
 20
115.517119
 30
0.0
 10
228.387385
 20
115.710031
 30
0.0
 10
228.523192
 20
115.889611
 30
0.0
 10
228.678469
 20
116.053814
 30
0.0
 10
228.851703
 20
116.199801
 30
0.0
 10
229.040483
 20
116.324643
 30
0.0
 10
229.242879
 20
116.426145
 30
0.0
 10
229.455893
 20
116.503424
 30
0.0
 10
229.675470
 20
116.555237
 30
0.0
 10
229.898463
 20
116.580938
 30
0.0
 10
230.121773
 20
116.580940
 30
0.0
 10
230.344678
 20
116.555241
 30
0.0
 10
230.564138
 20
116.503411
 30
0.0
 10
230.777126
 20
116.426091
 30
0.0
 10
230.979728
 20
116.324560
 30
0.0
 10
231.168963
 20
116.199878
 30
0.0
 10
231.342425
 20
116.054085
 30
0.0
 10
231.497050
 20
115.889926
 30
0.0
 10
231.630767
 20
115.709712
 30
0.0
 10
231.742420
 20
115.516322
 30
0.0
 10
231.831631
 20
115.310411
 30
0.0
 10
231.896482
 20
115.094419
 30
0.0
 10
231.936008
 20
114.871298
 30
0.0
 10
231.949369
 20
114.645078
 30
0.0
 10
231.936008
 20
114.418861
 30
0.0
 10
231.896482
 20
114.195747
 30
0.0
 10
231.831634
 20
113.979760
 30
0.0
 10
231.742420
 20
113.773853
 30
0.0
 10
231.630765
 20
113.580464
 30
0.0
 10
231.497048
 20
113.400247
 30
0.0
 10
231.342426
 20
113.236082
 30
0.0
 10
231.168965
 20
113.090281
 30
0.0
 10
230.979729
 20
112.965596
 30
0.0
 10
230.777128
 20
112.864061
 30
0.0
 10
230.564137
 20
112.786743
 30
0.0
 10
230.344677
 20
112.734914
 30
0.0
 10
230.121772
 20
112.709217
 30
0.0
 10
229.898462
 20
112.709220
 30
0.0
 10
229.675470
 20
112.734922
 30
0.0
 10
229.455892
 20
112.786731
 30
0.0
 10
229.242878
 20
112.864008
 30
0.0
 10
229.040480
 20
112.965509
 30
0.0
 10
228.851702
 20
113.090358
 30
0.0
 10
228.678470
 20
113.236353
 30
0.0
 10
228.523193
 20
113.400562
 30
0.0
 10
228.387388
 20
113.580146
 30
0.0
 10
228.274427
 20
113.773056
 30
0.0
 10
228.187527
 20
113.979237
 30
0.0
 10
228.132060
 20
114.196592
 30
0.0
 10
228.098286
 20
114.419705
 30
0.0
 10
228.082951
 20
114.569776
 30
0.0
 10
228.075257
 20
114.645076
 30
0.0
 11
228.075257
 21
114.645076
 31
0.0
 11
228.100170
 21
114.870779
 31
0.0
 11
228.135840
 21
115.093416
 31
0.0
 11
228.193034
 21
115.309921
 31
0.0
 11
228.278500
 21
115.514398
 31
0.0
 11
228.390898
 21
115.707373
 31
0.0
 11
228.525792
 21
115.886279
 31
0.0
 11
228.681587
 21
116.050884
 31
0.0
 11
228.854400
 21
116.196360
 31
0.0
 11
229.042659
 21
116.320701
 31
0.0
 11
229.244532
 21
116.422057
 31
0.0
 11
229.457135
 21
116.499212
 31
0.0
 11
229.677320
 21
116.551108
 31
0.0
 11
229.898729
 21
116.576677
 31
0.0
 11
230.121540
 21
116.576677
 31
0.0
 11
230.342850
 21
116.551105
 31
0.0
 11
230.562863
 21
116.499210
 31
0.0
 11
230.775395
 21
116.422056
 31
0.0
 11
230.977501
 21
116.320701
 31
0.0
 11
231.166333
 21
116.196360
 31
0.0
 11
231.339419
 21
116.050884
 31
0.0
 11
231.494378
 21
115.886279
 31
0.0
 11
231.627196
 21
115.707373
 31
0.0
 11
231.738609
 21
115.514398
 31
0.0
 11
231.827136
 21
115.309921
 31
0.0
 11
231.892206
 21
115.093416
 31
0.0
 11
231.931647
 21
114.870779
 31
0.0
 11
231.944915
 21
114.645076
 31
0.0
 11
231.931647
 21
114.419380
 31
0.0
 11
231.892207
 21
114.196750
 31
0.0
 11
231.827139
 21
113.980252
 31
0.0
 11
231.738610
 21
113.775777
 31
0.0
 11
231.627195
 21
113.582802
 31
0.0
 11
231.494378
 21
113.403895
 31
0.0
 11
231.339419
 21
113.239283
 31
0.0
 11
231.166335
 21
113.093800
 31
0.0
 11
230.977501
 21
112.969454
 31
0.0
 11
230.775396
 21
112.868097
 31
0.0
 11
230.562863
 21
112.790944
 31
0.0
 11
230.342847
 21
112.739050
 31
0.0
 11
230.121539
 21
112.713480
 31
0.0
 11
229.898728
 21
112.713480
 31
0.0
 11
229.677320
 21
112.739050
 31
0.0
 11
229.457134
 21
112.790944
 31
0.0
 11
229.244531
 21
112.868096
 31
0.0
 11
229.042658
 21
112.969451
 31
0.0
 11
228.854399
 21
113.093799
 31
0.0
 11
228.681588
 21
113.239283
 31
0.0
 11
228.525792
 21
113.403895
 31
0.0
 11
228.390900
 21
113.582804
 31
0.0
 11
228.278503
 21
113.775778
 31
0.0
 11
228.193036
 21
113.980252
 31
0.0
 11
228.135840
 21
114.196751
 31
0.0
 11
228.100167
 21
114.419381
 31
0.0
 11
228.075257
 21
114.645076
 31
0.0
  0
SPLINE
  5
101
100
AcDbEntity
  8
Layer_1
 62
1
100
AcDbSpline
 70
0
 71
3
 72
61
 73
57
 74
55
 40
0.000000
 40
0.000000
 40
0.000000
 40
0.000000
 40
0.227065
 40
0.452532
 40
0.676456
 40
0.898072
 40
1.121389
 40
1.345446
 40
1.572088
 40
1.797980
 40
2.023594
 40
2.249485
 40
2.475655
 40
2.701873
 40
2.924751
 40
3.147561
 40
3.370340
 40
3.596393
 40
3.822499
 40
4.048600
 40
4.274694
 40
4.500794
 40
4.726862
 40
4.949679
 40
5.172506
 40
5.395323
 40
5.621387
 40
5.847482
 40
6.073566
 40
6.299652
 40
6.525750
 40
6.751817
 40
6.974639
 40
7.197470
 40
7.420290
 40
7.646359
 40
7.872460
 40
8.098557
 40
8.324660
 40
8.550768
 40
8.776824
 40
8.999603
 40
9.222414
 40
9.445291
 40
9.671511
 40
9.897683
 40
10.123577
 40
10.349193
 40
10.575087
 40
10.801731
 40
11.025791
 40
11.249113
 40
11.470732
 40
11.694660
 40
11.920130
 40
12.147196
 40
12.147196
 40
12.147196
 40
12.147196
 10
105.969771
 20
114.645082
 30
0.0
 10
105.977466
 20
114.720381
 30
0.0
 10
105.992803
 20
114.870450
 30
0.0
 10
106.026571
 20
115.093562
 30
0.0
 10
106.082036
 20
115.310915
 30
0.0
 10
106.168932
 20
115.517095
 30
0.0
 10
106.281891
 20
115.710003
 30
0.0
 10
106.417696
 20
115.889581
 30
0.0
 10
106.572975
 20
116.053779
 30
0.0
 10
106.746210
 20
116.199763
 30
0.0
 10
106.934989
 20
116.324606
 30
0.0
 10
107.137384
 20
116.426112
 30
0.0
 10
107.350394
 20
116.503401
 30
0.0
 10
107.569970
 20
116.555217
 30
0.0
 10
107.792960
 20
116.580926
 30
0.0
 10
108.016269
 20
116.580928
 30
0.0
 10
108.239173
 20
116.555225
 30
0.0
 10
108.458632
 20
116.503389
 30
0.0
 10
108.671621
 20
116.426060
 30
0.0
 10
108.874221
 20
116.324522
 30
0.0
 10
109.063458
 20
116.199841
 30
0.0
 10
109.236921
 20
116.054050
 30
0.0
 10
109.391547
 20
115.889894
 30
0.0
 10
109.525268
 20
115.709684
 30
0.0
 10
109.636926
 20
115.516298
 30
0.0
 10
109.726142
 20
115.310393
 30
0.0
 10
109.790993
 20
115.094407
 30
0.0
 10
109.830521
 20
114.871296
 30
0.0
 10
109.843883
 20
114.645081
 30
0.0
 10
109.830521
 20
114.418865
 30
0.0
 10
109.790993
 20
114.195751
 30
0.0
 10
109.726142
 20
113.979762
 30
0.0
 10
109.636926
 20
113.773852
 30
0.0
 10
109.525269
 20
113.580461
 30
0.0
 10
109.391547
 20
113.400248
 30
0.0
 10
109.236921
 20
113.236089
 30
0.0
 10
109.063458
 20
113.090297
 30
0.0
 10
108.874221
 20
112.965612
 30
0.0
 10
108.671622
 20
112.864066
 30
0.0
 10
108.458633
 20
112.786730
 30
0.0
 10
108.239174
 20
112.734887
 30
0.0
 10
108.016269
 20
112.709182
 30
0.0
 10
107.792960
 20
112.709185
 30
0.0
 10
107.569969
 20
112.734895
 30
0.0
 10
107.350394
 20
112.786718
 30
0.0
 10
107.137383
 20
112.864014
 30
0.0
 10
106.934991
 20
112.965529
 30
0.0
 10
106.746210
 20
113.090373
 30
0.0
 10
106.572975
 20
113.236360
 30
0.0
 10
106.417695
 20
113.400561
 30
0.0
 10
106.281891
 20
113.580144
 30
0.0
 10
106.168933
 20
113.773056
 30
0.0
 10
106.082036
 20
113.979240
 30
0.0
 10
106.026571
 20
114.196596
 30
0.0
 10
105.992797
 20
114.419710
 30
0.0
 10
105.977464
 20
114.569781
 30
0.0
 10
105.969771
 20
114.645082
 30
0.0
 11
105.969771
 21
114.645082
 31
0.0
 11
105.994684
 21
114.870775
 31
0.0
 11
106.030352
 21
115.093403
 31
0.0
 11
106.087545
 21
115.309900
 31
0.0
 11
106.173009
 21
115.514374
 31
0.0
 11
106.285404
 21
115.707346
 31
0.0
 11
106.420296
 21
115.886247
 31
0.0
 11
106.576093
 21
116.050849
 31
0.0
 11
106.748907
 21
116.196323
 31
0.0
 11
106.937164
 21
116.320664
 31
0.0
 11
107.139037
 21
116.422025
 31
0.0
 11
107.351637
 21
116.499188
 31
0.0
 11
107.571820
 21
116.551090
 31
0.0
 11
107.793226
 21
116.576664
 31
0.0
 11
108.016036
 21
116.576664
 31
0.0
 11
108.237343
 21
116.551090
 31
0.0
 11
108.457357
 21
116.499188
 31
0.0
 11
108.669889
 21
116.422025
 31
0.0
 11
108.871996
 21
116.320664
 31
0.0
 11
109.060829
 21
116.196323
 31
0.0
 11
109.233915
 21
116.050849
 31
0.0
 11
109.388876
 21
115.886247
 31
0.0
 11
109.521697
 21
115.707346
 31
0.0
 11
109.633115
 21
115.514374
 31
0.0
 11
109.721647
 21
115.309900
 31
0.0
 11
109.786718
 21
115.093404
 31
0.0
 11
109.826161
 21
114.870776
 31
0.0
 11
109.839429
 21
114.645082
 31
0.0
 11
109.826161
 21
114.419385
 31
0.0
 11
109.786718
 21
114.196755
 31
0.0
 11
109.721647
 21
113.980255
 31
0.0
 11
109.633115
 21
113.775776
 31
0.0
 11
109.521697
 21
113.582800
 31
0.0
 11
109.388876
 21
113.403895
 31
0.0
 11
109.233915
 21
113.239291
 31
0.0
 11
109.060829
 21
113.093815
 31
0.0
 11
108.871996
 21
112.969470
 31
0.0
 11
108.669890
 21
112.868101
 31
0.0
 11
108.457358
 21
112.790931
 31
0.0
 11
108.237343
 21
112.739023
 31
0.0
 11
108.016036
 21
112.713447
 31
0.0
 11
107.793226
 21
112.713447
 31
0.0
 11
107.571820
 21
112.739023
 31
0.0
 11
107.351637
 21
112.790931
 31
0.0
 11
107.139037
 21
112.868101
 31
0.0
 11
106.937164
 21
112.969470
 31
0.0
 11
106.748907
 21
113.093814
 31
0.0
 11
106.576093
 21
113.239290
 31
0.0
 11
106.420296
 21
113.403895
 31
0.0
 11
106.285404
 21
113.582801
 31
0.0
 11
106.173009
 21
113.775777
 31
0.0
 11
106.087545
 21
113.980255
 31
0.0
 11
106.030350
 21
114.196755
 31
0.0
 11
105.994679
 21
114.419386
 31
0.0
 11
105.969771
 21
114.645082
 31
0.0
  0
SPLINE
  5
102
100
AcDbEntity
  8
Layer_1
 62
1
100
AcDbSpline
 70
0
 71
3
 72
61
 73
57
 74
55
 40
0.000000
 40
0.000000
 40
0.000000
 40
0.000000
 40
0.224445
 40
0.447309
 40
0.668645
 40
0.887690
 40
1.108419
 40
1.329882
 40
1.553900
 40
1.777177
 40
2.000178
 40
2.223447
 40
2.446995
 40
2.670590
 40
2.890880
 40
3.111102
 40
3.331296
 40
3.554732
 40
3.778218
 40
4.001693
 40
4.225161
 40
4.448642
 40
4.672104
 40
4.892357
 40
5.112609
 40
5.332822
 40
5.556231
 40
5.779700
 40
6.003199
 40
6.226706
 40
6.450186
 40
6.673609
 40
6.893822
 40
7.114076
 40
7.334331
 40
7.557790
 40
7.781270
 40
8.004738
 40
8.228218
 40
8.451709
 40
8.675151
 40
8.895352
 40
9.115582
 40
9.335879
 40
9.559482
 40
9.783037
 40
10.006315
 40
10.229323
 40
10.452606
 40
10.676633
 40
10.898103
 40
11.118842
 40
11.337895
 40
11.559235
 40
11.782105
 40
12.006556
 40
12.006556
 40
12.006556
 40
12.006556
 10
-16.111578
 20
114.645082
 30
0.0
 10
-16.104071
 20
114.719522
 30
0.0
 10
-16.089109
 20
114.867880
 30
0.0
 10
-16.056008
 20
115.088458
 30
0.0
 10
-16.001444
 20
115.303363
 30
0.0
 10
-15.915778
 20
115.507250
 30
0.0
 10
-15.804320
 20
115.698035
 30
0.0
 10
-15.670251
 20
115.875657
 30
0.0
 10
-15.516902
 20
116.038081
 30
0.0
 10
-15.345773
 20
116.182496
 30
0.0
 10
-15.159250
 20
116.305997
 30
0.0
 10
-14.959243
 20
116.406411
 30
0.0
 10
-14.748723
 20
116.482862
 30
0.0
 10
-14.531704
 20
116.534120
 30
0.0
 10
-14.311302
 20
116.559547
 30
0.0
 10
-14.090586
 20
116.559550
 30
0.0
 10
-13.870269
 20
116.534128
 30
0.0
 10
-13.653362
 20
116.482850
 30
0.0
 10
-13.442863
 20
116.406360
 30
0.0
 10
-13.242654
 20
116.305916
 30
0.0
 10
-13.055684
 20
116.182572
 30
0.0
 10
-12.884331
 20
116.038345
 30
0.0
 10
-12.731617
 20
115.875963
 30
0.0
 10
-12.599578
 20
115.697726
 30
0.0
 10
-12.489391
 20
115.506476
 30
0.0
 10
-12.401469
 20
115.302858
 30
0.0
 10
-12.337755
 20
115.089279
 30
0.0
 10
-12.299056
 20
114.868693
 30
0.0
 10
-12.286032
 20
114.645079
 30
0.0
 10
-12.299064
 20
114.421460
 30
0.0
 10
-12.337771
 20
114.200865
 30
0.0
 10
-12.401486
 20
113.987278
 30
0.0
 10
-12.489402
 20
113.783652
 30
0.0
 10
-12.599578
 20
113.592393
 30
0.0
 10
-12.731605
 20
113.414147
 30
0.0
 10
-12.884313
 20
113.251760
 30
0.0
 10
-13.055663
 20
113.107532
 30
0.0
 10
-13.242633
 20
112.984185
 30
0.0
 10
-13.442844
 20
112.883738
 30
0.0
 10
-13.653348
 20
112.807244
 30
0.0
 10
-13.870261
 20
112.755967
 30
0.0
 10
-14.090584
 20
112.730542
 30
0.0
 10
-14.311309
 20
112.730545
 30
0.0
 10
-14.531717
 20
112.755974
 30
0.0
 10
-14.748744
 20
112.807233
 30
0.0
 10
-14.959271
 20
112.883687
 30
0.0
 10
-15.159285
 20
112.984105
 30
0.0
 10
-15.345814
 20
113.107609
 30
0.0
 10
-15.516951
 20
113.252026
 30
0.0
 10
-15.670305
 20
113.414456
 30
0.0
 10
-15.804383
 20
113.592082
 30
0.0
 10
-15.915843
 20
113.782875
 30
0.0
 10
-16.001505
 20
113.986772
 30
0.0
 10
-16.056055
 20
114.201688
 30
0.0
 10
-16.089134
 20
114.422275
 30
0.0
 10
-16.104079
 20
114.570638
 30
0.0
 10
-16.111578
 20
114.645082
 30
0.0
 11
-16.111578
 21
114.645082
 31
0.0
 11
-16.087248
 21
114.868204
 31
0.0
 11
-16.052269
 21
115.088306
 31
0.0
 11
-15.995992
 21
115.302367
 31
0.0
 11
-15.911743
 21
115.504563
 31
0.0
 11
-15.800843
 21
115.695410
 31
0.0
 11
-15.667676
 21
115.872362
 31
0.0
 11
-15.513815
 21
116.035185
 31
0.0
 11
-15.343103
 21
116.179093
 31
0.0
 11
-15.157094
 21
116.302098
 31
0.0
 11
-14.957606
 21
116.402367
 31
0.0
 11
-14.747493
 21
116.478695
 31
0.0
 11
-14.529872
 21
116.530037
 31
0.0
 11
-14.311039
 21
116.555333
 31
0.0
 11
-14.090817
 21
116.555333
 31
0.0
 11
-13.872081
 21
116.530037
 31
0.0
 11
-13.654623
 21
116.478695
 31
0.0
 11
-13.444576
 21
116.402367
 31
0.0
 11
-13.244859
 21
116.302098
 31
0.0
 11
-13.058289
 21
116.179093
 31
0.0
 11
-12.887310
 21
116.035185
 31
0.0
 11
-12.734261
 21
115.872362
 31
0.0
 11
-12.603112
 21
115.695411
 31
0.0
 11
-12.493165
 21
115.504564
 31
0.0
 11
-12.405929
 21
115.302367
 31
0.0
 11
-12.341981
 21
115.088306
 31
0.0
 11
-12.303337
 21
114.868204
 31
0.0
 11
-12.290375
 21
114.645082
 31
0.0
 11
-12.303345
 21
114.421951
 31
0.0
 11
-12.341995
 21
114.201839
 31
0.0
 11
-12.405946
 21
113.987764
 31
0.0
 11
-12.493176
 21
113.785563
 31
0.0
 11
-12.603112
 21
113.594708
 31
0.0
 11
-12.734251
 21
113.417748
 31
0.0
 11
-12.887293
 21
113.254922
 31
0.0
 11
-13.058268
 21
113.111011
 31
0.0
 11
-13.244835
 21
112.988004
 31
0.0
 11
-13.444557
 21
112.887731
 31
0.0
 11
-13.654609
 21
112.811400
 31
0.0
 11
-13.872072
 21
112.760058
 31
0.0
 11
-14.090815
 21
112.734760
 31
0.0
 11
-14.311045
 21
112.734760
 31
0.0
 11
-14.529885
 21
112.760058
 31
0.0
 11
-14.747514
 21
112.811400
 31
0.0
 11
-14.957634
 21
112.887731
 31
0.0
 11
-15.157129
 21
112.988004
 31
0.0
 11
-15.343144
 21
113.111012
 31
0.0
 11
-15.513863
 21
113.254923
 31
0.0
 11
-15.667731
 21
113.417751
 31
0.0
 11
-15.800904
 21
113.594708
 31
0.0
 11
-15.911807
 21
113.785564
 31
0.0
 11
-15.996052
 21
113.987769
 31
0.0
 11
-16.052314
 21
114.201839
 31
0.0
 11
-16.087272
 21
114.421950
 31
0.0
 11
-16.111578
 21
114.645082
 31
0.0
  0
SPLINE
  5
103
100
AcDbEntity
  8
Layer_1
 62
1
100
AcDbSpline
 70
0
 71
3
 72
61
 73
57
 74
55
 40
0.000000
 40
0.000000
 40
0.000000
 40
0.000000
 40
0.227072
 40
0.452548
 40
0.676479
 40
0.898102
 40
1.121426
 40
1.345491
 40
1.572133
 40
1.798025
 40
2.023639
 40
2.249527
 40
2.475696
 40
2.701912
 40
2.924790
 40
3.147600
 40
3.370380
 40
3.596435
 40
3.822543
 40
4.048644
 40
4.274732
 40
4.500827
 40
4.726889
 40
4.949707
 40
5.172536
 40
5.395355
 40
5.621424
 40
5.847524
 40
6.073612
 40
6.299700
 40
6.525799
 40
6.751867
 40
6.974686
 40
7.197514
 40
7.420332
 40
7.646399
 40
7.872498
 40
8.098590
 40
8.324688
 40
8.550791
 40
8.776842
 40
8.999622
 40
9.222433
 40
9.445312
 40
9.671526
 40
9.897693
 40
10.123580
 40
10.349196
 40
10.575090
 40
10.801733
 40
11.025796
 40
11.249118
 40
11.470739
 40
11.694665
 40
11.920134
 40
12.147199
 40
12.147199
 40
12.147199
 40
12.147199
 10
-15.168325
 20
235.444897
 30
0.0
 10
-15.229692
 20
235.489211
 30
0.0
 10
-15.351994
 20
235.577527
 30
0.0
 10
-15.528334
 20
235.718335
 30
0.0
 10
-15.688842
 20
235.875049
 30
0.0
 10
-15.823954
 20
236.053400
 30
0.0
 10
-15.934541
 20
236.247685
 30
0.0
 10
-16.022159
 20
236.455089
 30
0.0
 10
-16.086722
 20
236.671666
 30
0.0
 10
-16.126531
 20
236.894684
 30
0.0
 10
-16.140256
 20
237.120592
 30
0.0
 10
-16.126965
 20
237.346623
 30
0.0
 10
-16.087390
 20
237.569737
 30
0.0
 10
-16.022473
 20
237.785802
 30
0.0
 10
-15.933238
 20
237.991769
 30
0.0
 10
-15.821585
 20
238.185160
 30
0.0
 10
-15.687874
 20
238.365351
 30
0.0
 10
-15.533252
 20
238.529492
 30
0.0
 10
-15.359790
 20
238.675284
 30
0.0
 10
-15.170557
 20
238.799972
 30
0.0
 10
-14.967963
 20
238.901512
 30
0.0
 10
-14.754977
 20
238.978834
 30
0.0
 10
-14.535503
 20
239.030662
 30
0.0
 10
-14.312576
 20
239.056356
 30
0.0
 10
-14.089269
 20
239.056357
 30
0.0
 10
-13.866339
 20
239.030661
 30
0.0
 10
-13.646861
 20
238.978833
 30
0.0
 10
-13.433871
 20
238.901510
 30
0.0
 10
-13.231278
 20
238.799975
 30
0.0
 10
-13.042049
 20
238.675293
 30
0.0
 10
-12.868590
 20
238.529501
 30
0.0
 10
-12.713964
 20
238.365344
 30
0.0
 10
-12.580247
 20
238.185130
 30
0.0
 10
-12.468594
 20
237.991740
 30
0.0
 10
-12.379383
 20
237.785831
 30
0.0
 10
-12.314530
 20
237.569844
 30
0.0
 10
-12.275001
 20
237.346727
 30
0.0
 10
-12.261641
 20
237.120504
 30
0.0
 10
-12.275010
 20
236.894280
 30
0.0
 10
-12.314540
 20
236.671166
 30
0.0
 10
-12.379381
 20
236.455193
 30
0.0
 10
-12.468575
 20
236.249302
 30
0.0
 10
-12.580232
 20
236.055912
 30
0.0
 10
-12.713987
 20
235.875648
 30
0.0
 10
-12.868645
 20
235.711397
 30
0.0
 10
-13.042079
 20
235.565567
 30
0.0
 10
-13.231181
 20
235.441041
 30
0.0
 10
-13.433686
 20
235.339973
 30
0.0
 10
-13.646732
 20
235.262940
 30
0.0
 10
-13.866575
 20
235.210566
 30
0.0
 10
-14.090001
 20
235.182743
 30
0.0
 10
-14.313548
 20
235.181370
 30
0.0
 10
-14.535558
 20
235.209205
 30
0.0
 10
-14.751526
 20
235.269848
 30
0.0
 10
-14.961634
 20
235.352155
 30
0.0
 10
-15.099266
 20
235.413910
 30
0.0
 10
-15.168325
 20
235.444897
 30
0.0
 11
-15.168325
 21
235.444897
 31
0.0
 11
-15.351334
 21
235.579319
 31
0.0
 11
-15.526307
 21
235.721529
 31
0.0
 11
-15.685207
 21
235.879313
 31
0.0
 11
-15.819559
 21
236.055569
 31
0.0
 11
-15.930483
 21
236.249399
 31
0.0
 11
-16.017973
 21
236.455676
 31
0.0
 11
-16.082625
 21
236.672901
 31
0.0
 11
-16.122203
 21
236.895299
 31
0.0
 11
-16.135755
 21
237.120505
 31
0.0
 11
-16.122599
 21
237.346011
 31
0.0
 11
-16.083120
 21
237.568707
 31
0.0
 11
-16.017973
 21
237.785340
 31
0.0
 11
-15.929415
 21
237.989868
 31
0.0
 11
-15.818009
 21
238.182827
 31
0.0
 11
-15.685207
 21
238.361698
 31
0.0
 11
-15.530252
 21
238.526287
 31
0.0
 11
-15.357161
 21
238.671767
 31
0.0
 11
-15.168326
 21
238.796117
 31
0.0
 11
-14.966231
 21
238.897476
 31
0.0
 11
-14.753708
 21
238.974630
 31
0.0
 11
-14.533683
 21
239.026524
 31
0.0
 11
-14.312337
 21
239.052094
 31
0.0
 11
-14.089508
 21
239.052095
 31
0.0
 11
-13.868161
 21
239.026524
 31
0.0
 11
-13.648129
 21
238.974629
 31
0.0
 11
-13.435601
 21
238.897473
 31
0.0
 11
-13.233505
 21
238.796117
 31
0.0
 11
-13.044680
 21
238.671776
 31
0.0
 11
-12.871596
 21
238.526301
 31
0.0
 11
-12.716637
 21
238.361698
 31
0.0
 11
-12.583819
 21
238.182791
 31
0.0
 11
-12.472405
 21
237.989816
 31
0.0
 11
-12.383877
 21
237.785340
 31
0.0
 11
-12.318805
 21
237.568841
 31
0.0
 11
-12.279362
 21
237.346209
 31
0.0
 11
-12.266096
 21
237.120505
 31
0.0
 11
-12.279370
 21
236.894798
 31
0.0
 11
-12.318815
 21
236.672162
 31
0.0
 11
-12.383877
 21
236.455676
 31
0.0
 11
-12.472384
 21
236.251233
 31
0.0
 11
-12.583789
 21
236.058272
 31
0.0
 11
-12.716638
 21
235.879313
 31
0.0
 11
-12.871673
 21
235.714580
 31
0.0
 11
-13.044792
 21
235.569043
 31
0.0
 11
-13.233505
 21
235.444897
 31
0.0
 11
-13.435318
 21
235.344029
 31
0.0
 11
-13.647711
 21
235.267106
 31
0.0
 11
-13.868161
 21
235.214484
 31
0.0
 11
-14.090546
 21
235.187114
 31
0.0
 11
-14.313867
 21
235.186261
 31
0.0
 11
-14.533683
 21
235.214484
 31
0.0
 11
-14.749774
 21
235.273201
 31
0.0
 11
-14.960412
 21
235.353622
 31
0.0
 11
-15.168325
 21
235.444897
 31
0.0
  0
LWPOLYLINE
  5
104
100
AcDbEntity
  8
Layer_1
 62
1
100
AcDbPolyline
 90
65
 70
1
 10
237.904581
 20
84.782778
 30
0.0
 10
237.904581
 20
93.582780
 30
0.0
 10
234.904582
 20
93.582780
 30
0.0
 10
234.904582
 20
102.582778
 30
0.0
 10
237.904581
 20
102.582778
 30
0.0
 10
237.904581
 20
111.382780
 30
0.0
 10
220.404582
 20
111.382780
 30
0.0
 10
220.404582
 20
108.382778
 30
0.0
 10
211.404581
 20
108.382778
 30
0.0
 10
211.404581
 20
111.382780
 30
0.0
 10
202.404580
 20
111.382780
 30
0.0
 10
202.404580
 20
108.382778
 30
0.0
 10
193.404580
 20
108.382778
 30
0.0
 10
193.404580
 20
111.382780
 30
0.0
 10
184.404582
 20
111.382780
 30
0.0
 10
184.404582
 20
108.382778
 30
0.0
 10
175.404582
 20
108.382778
 30
0.0
 10
175.404582
 20
111.382780
 30
0.0
 10
166.404581
 20
111.382780
 30
0.0
 10
166.404581
 20
108.382778
 30
0.0
 10
157.404581
 20
108.382778
 30
0.0
 10
157.404581
 20
111.382780
 30
0.0
 10
148.404580
 20
111.382780
 30
0.0
 10
148.404580
 20
108.382778
 30
0.0
 10
139.404582
 20
108.382778
 30
0.0
 10
139.404582
 20
111.382780
 30
0.0
 10
130.404582
 20
111.382780
 30
0.0
 10
130.404582
 20
108.382778
 30
0.0
 10
121.404581
 20
108.382778
 30
0.0
 10
121.404581
 20
111.382780
 30
0.0
 10
112.404581
 20
111.382780
 30
0.0
 10
112.404581
 20
108.382778
 30
0.0
 10
103.404580
 20
108.382778
 30
0.0
 10
103.404580
 20
111.382780
 30
0.0
 10
94.404582
 20
111.382780
 30
0.0
 10
94.404582
 20
108.382778
 30
0.0
 10
85.404582
 20
108.382778
 30
0.0
 10
85.404582
 20
111.382780
 30
0.0
 10
76.404581
 20
111.382780
 30
0.0
 10
76.404581
 20
108.382778
 30
0.0
 10
67.404581
 20
108.382778
 30
0.0
 10
67.404581
 20
111.382780
 30
0.0
 10
58.404580
 20
111.382780
 30
0.0
 10
58.404580
 20
108.382778
 30
0.0
 10
49.404580
 20
108.382778
 30
0.0
 10
49.404580
 20
111.382780
 30
0.0
 10
40.404582
 20
111.382780
 30
0.0
 10
40.404582
 20
108.382778
 30
0.0
 10
31.404581
 20
108.382778
 30
0.0
 10
31.404581
 20
111.382780
 30
0.0
 10
22.404581
 20
111.382780
 30
0.0
 10
22.404581
 20
108.382778
 30
0.0
 10
13.404581
 20
108.382778
 30
0.0
 10
13.404581
 20
111.382780
 30
0.0
 10
4.404581
 20
111.382780
 30
0.0
 10
4.404581
 20
108.382778
 30
0.0
 10
-4.595419
 20
108.382778
 30
0.0
 10
-4.595419
 20
111.382780
 30
0.0
 10
-13.595419
 20
111.382780
 30
0.0
 10
-22.095419
 20
111.382780
 30
0.0
 10
-22.095419
 20
102.582778
 30
0.0
 10
-19.095419
 20
102.582778
 30
0.0
 10
-19.095419
 20
93.582780
 30
0.0
 10
-22.095419
 20
93.582780
 30
0.0
 10
-22.095419
 20
84.782778
 30
0.0
  0
LWPOLYLINE
  5
105
100
AcDbEntity
  8
Layer_1
 62
1
100
AcDbPolyline
 90
40
 70
1
 10
261.504581
 20
240.382781
 30
0.0
 10
252.704581
 20
240.382781
 30
0.0
 10
252.704581
 20
243.382780
 30
0.0
 10
243.704581
 20
243.382780
 30
0.0
 10
243.704581
 20
240.382781
 30
0.0
 10
234.904582
 20
240.382781
 30
0.0
 10
234.904582
 20
234.382780
 30
0.0
 10
237.904581
 20
234.382780
 30
0.0
 10
237.904581
 20
225.382779
 30
0.0
 10
234.904582
 20
225.382779
 30
0.0
 10
234.904582
 20
216.382779
 30
0.0
 10
237.904581
 20
216.382779
 30
0.0
 10
237.904581
 20
207.382781
 30
0.0
 10
234.904582
 20
207.382781
 30
0.0
 10
234.904582
 20
198.382780
 30
0.0
 10
237.904581
 20
198.382780
 30
0.0
 10
237.904581
 20
189.382780
 30
0.0
 10
234.904582
 20
189.382780
 30
0.0
 10
234.904582
 20
180.382779
 30
0.0
 10
237.904581
 20
180.382779
 30
0.0
 10
237.904581
 20
171.382779
 30
0.0
 10
234.904582
 20
171.382779
 30
0.0
 10
234.904582
 20
162.382778
 30
0.0
 10
237.904581
 20
162.382778
 30
0.0
 10
237.904581
 20
153.382778
 30
0.0
 10
234.904582
 20
153.382778
 30
0.0
 10
234.904582
 20
144.382780
 30
0.0
 10
237.904581
 20
144.382780
 30
0.0
 10
237.904581
 20
135.382779
 30
0.0
 10
234.904582
 20
135.382779
 30
0.0
 10
234.904582
 20
126.382779
 30
0.0
 10
237.904581
 20
126.382779
 30
0.0
 10
237.904581
 20
117.382778
 30
0.0
 10
234.904582
 20
117.382778
 30
0.0
 10
234.904582
 20
111.382780
 30
0.0
 10
243.704581
 20
111.382780
 30
0.0
 10
243.704581
 20
108.382778
 30
0.0
 10
252.704581
 20
108.382778
 30
0.0
 10
252.704581
 20
111.382780
 30
0.0
 10
261.504581
 20
111.382780
 30
0.0
  0
SPLINE
  5
106
100
AcDbEntity
  8
Layer_1
 62
1
100
AcDbSpline
 70
0
 71
3
 72
61
 73
57
 74
55
 40
0.000000
 40
0.000000
 40
0.000000
 40
0.000000
 40
0.227628
 40
0.453656
 40
0.678137
 40
0.900301
 40
1.124173
 40
1.348787
 40
1.575987
 40
1.802435
 40
2.028605
 40
2.255053
 40
2.481781
 40
2.708558
 40
2.931985
 40
3.155344
 40
3.378673
 40
3.605286
 40
3.831952
 40
4.058611
 40
4.285256
 40
4.511909
 40
4.738531
 40
4.961897
 40
5.185273
 40
5.408640
 40
5.635263
 40
5.861919
 40
6.088564
 40
6.315209
 40
6.541865
 40
6.768490
 40
6.991859
 40
7.215237
 40
7.438604
 40
7.665225
 40
7.891879
 40
8.118527
 40
8.345185
 40
8.571850
 40
8.798463
 40
9.021791
 40
9.245150
 40
9.468577
 40
9.695353
 40
9.922081
 40
10.148527
 40
10.374698
 40
10.601147
 40
10.828348
 40
11.052963
 40
11.276836
 40
11.499003
 40
11.723484
 40
11.949513
 40
12.177142
 40
12.177142
 40
12.177142
 40
12.177142
 10
228.070476
 20
237.120511
 30
0.0
 10
228.078190
 20
237.195997
 30
0.0
 10
228.093564
 20
237.346440
 30
0.0
 10
228.127422
 20
237.570105
 30
0.0
 10
228.183025
 20
237.787997
 30
0.0
 10
228.270142
 20
237.994687
 30
0.0
 10
228.383383
 20
238.188072
 30
0.0
 10
228.519526
 20
238.368093
 30
0.0
 10
228.675186
 20
238.532700
 30
0.0
 10
228.848846
 20
238.679046
 30
0.0
 10
229.038092
 20
238.804193
 30
0.0
 10
229.240985
 20
238.905951
 30
0.0
 10
229.454524
 20
238.983426
 30
0.0
 10
229.674642
 20
239.035365
 30
0.0
 10
229.898182
 20
239.061137
 30
0.0
 10
230.122041
 20
239.061139
 30
0.0
 10
230.345495
 20
239.035373
 30
0.0
 10
230.565498
 20
238.983414
 30
0.0
 10
230.779016
 20
238.905898
 30
0.0
 10
230.982116
 20
238.804112
 30
0.0
 10
231.171815
 20
238.679122
 30
0.0
 10
231.345699
 20
238.532971
 30
0.0
 10
231.500700
 20
238.368408
 30
0.0
 10
231.634746
 20
238.187752
 30
0.0
 10
231.746674
 20
237.993886
 30
0.0
 10
231.836105
 20
237.787470
 30
0.0
 10
231.901116
 20
237.570951
 30
0.0
 10
231.940740
 20
237.347286
 30
0.0
 10
231.954135
 20
237.120511
 30
0.0
 10
231.940740
 20
236.893736
 30
0.0
 10
231.901116
 20
236.670070
 30
0.0
 10
231.836105
 20
236.453548
 30
0.0
 10
231.746674
 20
236.247130
 30
0.0
 10
231.634746
 20
236.053262
 30
0.0
 10
231.500700
 20
235.872606
 30
0.0
 10
231.345700
 20
235.708041
 30
0.0
 10
231.171816
 20
235.561888
 30
0.0
 10
230.982118
 20
235.436896
 30
0.0
 10
230.779016
 20
235.335113
 30
0.0
 10
230.565498
 20
235.257601
 30
0.0
 10
230.345495
 20
235.205642
 30
0.0
 10
230.122041
 20
235.179881
 30
0.0
 10
229.898182
 20
235.179884
 30
0.0
 10
229.674641
 20
235.205650
 30
0.0
 10
229.454523
 20
235.257589
 30
0.0
 10
229.240985
 20
235.335060
 30
0.0
 10
229.038091
 20
235.436815
 30
0.0
 10
228.848846
 20
235.561965
 30
0.0
 10
228.675186
 20
235.708313
 30
0.0
 10
228.519526
 20
235.872920
 30
0.0
 10
228.383384
 20
236.052943
 30
0.0
 10
228.270142
 20
236.246330
 30
0.0
 10
228.183026
 20
236.453021
 30
0.0
 10
228.127421
 20
236.670915
 30
0.0
 10
228.093563
 20
236.894581
 30
0.0
 10
228.078190
 20
237.045024
 30
0.0
 10
228.070476
 20
237.120511
 30
0.0
 11
228.070476
 21
237.120511
 31
0.0
 11
228.095450
 21
237.346765
 31
0.0
 11
228.131211
 21
237.569946
 31
0.0
 11
228.188549
 21
237.786980
 31
0.0
 11
228.274228
 21
237.991959
 31
0.0
 11
228.386905
 21
238.185408
 31
0.0
 11
228.522133
 21
238.364754
 31
0.0
 11
228.678312
 21
238.529763
 31
0.0
 11
228.851550
 21
238.675596
 31
0.0
 11
229.040272
 21
238.800242
 31
0.0
 11
229.242643
 21
238.901853
 31
0.0
 11
229.455769
 21
238.979202
 31
0.0
 11
229.676497
 21
239.031228
 31
0.0
 11
229.898448
 21
239.056865
 31
0.0
 11
230.121807
 21
239.056865
 31
0.0
 11
230.343660
 21
239.031228
 31
0.0
 11
230.564220
 21
238.979202
 31
0.0
 11
230.777280
 21
238.901853
 31
0.0
 11
230.979887
 21
238.800242
 31
0.0
 11
231.169179
 21
238.675596
 31
0.0
 11
231.342684
 21
238.529763
 31
0.0
 11
231.498021
 21
238.364754
 31
0.0
 11
231.631166
 21
238.185408
 31
0.0
 11
231.742854
 21
237.991958
 31
0.0
 11
231.831600
 21
237.786978
 31
0.0
 11
231.896830
 21
237.569945
 31
0.0
 11
231.936369
 21
237.346765
 31
0.0
 11
231.949670
 21
237.120511
 31
0.0
 11
231.936369
 21
236.894256
 31
0.0
 11
231.896830
 21
236.671076
 31
0.0
 11
231.831600
 21
236.454041
 31
0.0
 11
231.742854
 21
236.249058
 31
0.0
 11
231.631166
 21
236.055607
 31
0.0
 11
231.498021
 21
235.876260
 31
0.0
 11
231.342686
 21
235.711250
 31
0.0
 11
231.169181
 21
235.565415
 31
0.0
 11
230.979887
 21
235.440766
 31
0.0
 11
230.777280
 21
235.339159
 31
0.0
 11
230.564220
 21
235.261812
 31
0.0
 11
230.343660
 21
235.209788
 31
0.0
 11
230.121807
 21
235.184155
 31
0.0
 11
229.898448
 21
235.184155
 31
0.0
 11
229.676497
 21
235.209788
 31
0.0
 11
229.455769
 21
235.261812
 31
0.0
 11
229.242642
 21
235.339159
 31
0.0
 11
229.040272
 21
235.440766
 31
0.0
 11
228.851550
 21
235.565415
 31
0.0
 11
228.678312
 21
235.711250
 31
0.0
 11
228.522133
 21
235.876260
 31
0.0
 11
228.386905
 21
236.055608
 31
0.0
 11
228.274228
 21
236.249058
 31
0.0
 11
228.188549
 21
236.454039
 31
0.0
 11
228.131211
 21
236.671074
 31
0.0
 11
228.095449
 21
236.894256
 31
0.0
 11
228.070476
 21
237.120511
 31
0.0
  0
SPLINE
  5
107
100
AcDbEntity
  8
Layer_1
 62
1
100
AcDbSpline
 70
0
 71
3
 72
61
 73
57
 74
55
 40
0.000000
 40
0.000000
 40
0.000000
 40
0.000000
 40
0.227066
 40
0.452536
 40
0.676463
 40
0.898083
 40
1.121404
 40
1.345465
 40
1.572109
 40
1.798003
 40
2.023621
 40
2.249510
 40
2.475678
 40
2.701894
 40
2.924772
 40
3.147582
 40
3.370361
 40
3.596414
 40
3.822519
 40
4.048619
 40
4.274714
 40
4.500815
 40
4.726885
 40
4.949706
 40
5.172537
 40
5.395359
 40
5.621425
 40
5.847523
 40
6.073607
 40
6.299694
 40
6.525792
 40
6.751859
 40
6.974680
 40
7.197512
 40
7.420333
 40
7.646401
 40
7.872503
 40
8.098598
 40
8.324699
 40
8.550806
 40
8.776859
 40
8.999638
 40
9.222449
 40
9.445326
 40
9.671543
 40
9.897713
 40
10.123603
 40
10.349220
 40
10.575113
 40
10.801757
 40
11.025818
 40
11.249140
 40
11.470761
 40
11.694688
 40
11.920158
 40
12.147225
 40
12.147225
 40
12.147225
 40
12.147225
 10
105.969771
 20
237.120511
 30
0.0
 10
105.977467
 20
237.195811
 30
0.0
 10
105.992804
 20
237.345882
 30
0.0
 10
106.026573
 20
237.568996
 30
0.0
 10
106.082035
 20
237.786353
 30
0.0
 10
106.168933
 20
237.992536
 30
0.0
 10
106.281891
 20
238.185448
 30
0.0
 10
106.417695
 20
238.365031
 30
0.0
 10
106.572974
 20
238.529233
 30
0.0
 10
106.746210
 20
238.675221
 30
0.0
 10
106.934991
 20
238.800063
 30
0.0
 10
107.137385
 20
238.901570
 30
0.0
 10
107.350396
 20
238.978854
 30
0.0
 10
107.569971
 20
239.030667
 30
0.0
 10
107.792960
 20
239.056374
 30
0.0
 10
108.016269
 20
239.056377
 30
0.0
 10
108.239172
 20
239.030675
 30
0.0
 10
108.458632
 20
238.978842
 30
0.0
 10
108.671621
 20
238.901515
 30
0.0
 10
108.874222
 20
238.799978
 30
0.0
 10
109.063458
 20
238.675296
 30
0.0
 10
109.236922
 20
238.529503
 30
0.0
 10
109.391548
 20
238.365344
 30
0.0
 10
109.525268
 20
238.185129
 30
0.0
 10
109.636926
 20
237.991738
 30
0.0
 10
109.726138
 20
237.785827
 30
0.0
 10
109.790993
 20
237.569840
 30
0.0
 10
109.830521
 20
237.346726
 30
0.0
 10
109.843883
 20
237.120510
 30
0.0
 10
109.830521
 20
236.894294
 30
0.0
 10
109.790993
 20
236.671179
 30
0.0
 10
109.726138
 20
236.455192
 30
0.0
 10
109.636926
 20
236.249281
 30
0.0
 10
109.525268
 20
236.055890
 30
0.0
 10
109.391548
 20
235.875675
 30
0.0
 10
109.236921
 20
235.711517
 30
0.0
 10
109.063459
 20
235.565723
 30
0.0
 10
108.874221
 20
235.441041
 30
0.0
 10
108.671621
 20
235.339501
 30
0.0
 10
108.458632
 20
235.262172
 30
0.0
 10
108.239173
 20
235.210335
 30
0.0
 10
108.016269
 20
235.184632
 30
0.0
 10
107.792960
 20
235.184635
 30
0.0
 10
107.569970
 20
235.210343
 30
0.0
 10
107.350395
 20
235.262160
 30
0.0
 10
107.137385
 20
235.339448
 30
0.0
 10
106.934992
 20
235.440959
 30
0.0
 10
106.746211
 20
235.565800
 30
0.0
 10
106.572975
 20
235.711787
 30
0.0
 10
106.417695
 20
235.875988
 30
0.0
 10
106.281891
 20
236.055571
 30
0.0
 10
106.168932
 20
236.248484
 30
0.0
 10
106.082036
 20
236.454668
 30
0.0
 10
106.026571
 20
236.672025
 30
0.0
 10
105.992797
 20
236.895139
 30
0.0
 10
105.977464
 20
237.045210
 30
0.0
 10
105.969771
 20
237.120511
 30
0.0
 11
105.969771
 21
237.120511
 31
0.0
 11
105.994684
 21
237.346206
 31
0.0
 11
106.030353
 21
237.568837
 31
0.0
 11
106.087545
 21
237.785337
 31
0.0
 11
106.173009
 21
237.989815
 31
0.0
 11
106.285404
 21
238.182791
 31
0.0
 11
106.420296
 21
238.361698
 31
0.0
 11
106.576092
 21
238.526303
 31
0.0
 11
106.748906
 21
238.671780
 31
0.0
 11
106.937167
 21
238.796122
 31
0.0
 11
107.139038
 21
238.897482
 31
0.0
 11
107.351638
 21
238.974641
 31
0.0
 11
107.571820
 21
239.026540
 31
0.0
 11
107.793226
 21
239.052113
 31
0.0
 11
108.016036
 21
239.052113
 31
0.0
 11
108.237343
 21
239.026540
 31
0.0
 11
108.457357
 21
238.974641
 31
0.0
 11
108.669889
 21
238.897480
 31
0.0
 11
108.871996
 21
238.796120
 31
0.0
 11
109.060829
 21
238.671778
 31
0.0
 11
109.233915
 21
238.526302
 31
0.0
 11
109.388876
 21
238.361698
 31
0.0
 11
109.521697
 21
238.182791
 31
0.0
 11
109.633115
 21
237.989814
 31
0.0
 11
109.721645
 21
237.785335
 31
0.0
 11
109.786717
 21
237.568836
 31
0.0
 11
109.826160
 21
237.346206
 31
0.0
 11
109.839429
 21
237.120511
 31
0.0
 11
109.826160
 21
236.894814
 31
0.0
 11
109.786717
 21
236.672183
 31
0.0
 11
109.721645
 21
236.455684
 31
0.0
 11
109.633115
 21
236.251205
 31
0.0
 11
109.521697
 21
236.058228
 31
0.0
 11
109.388876
 21
235.879321
 31
0.0
 11
109.233915
 21
235.714718
 31
0.0
 11
109.060829
 21
235.569242
 31
0.0
 11
108.871996
 21
235.444899
 31
0.0
 11
108.669889
 21
235.343536
 31
0.0
 11
108.457357
 21
235.266373
 31
0.0
 11
108.237343
 21
235.214471
 31
0.0
 11
108.016036
 21
235.188896
 31
0.0
 11
107.793226
 21
235.188896
 31
0.0
 11
107.571820
 21
235.214471
 31
0.0
 11
107.351638
 21
235.266373
 31
0.0
 11
107.139038
 21
235.343536
 31
0.0
 11
106.937167
 21
235.444899
 31
0.0
 11
106.748907
 21
235.569241
 31
0.0
 11
106.576093
 21
235.714717
 31
0.0
 11
106.420296
 21
235.879321
 31
0.0
 11
106.285404
 21
236.058228
 31
0.0
 11
106.173009
 21
236.251205
 31
0.0
 11
106.087545
 21
236.455684
 31
0.0
 11
106.030350
 21
236.672184
 31
0.0
 11
105.994679
 21
236.894814
 31
0.0
 11
105.969771
 21
237.120511
 31
0.0
  0
LWPOLYLINE
  5
108
100
AcDbEntity
  8
Layer_1
 62
1
100
AcDbPolyline
 90
65
 70
1
 10
-22.095419
 20
266.982780
 30
0.0
 10
-22.095419
 20
258.182781
 30
0.0
 10
-19.095419
 20
258.182781
 30
0.0
 10
-19.095419
 20
249.182780
 30
0.0
 10
-22.095419
 20
249.182780
 30
0.0
 10
-22.095419
 20
240.382781
 30
0.0
 10
-4.595419
 20
240.382781
 30
0.0
 10
-4.595419
 20
243.382780
 30
0.0
 10
4.404581
 20
243.382780
 30
0.0
 10
4.404581
 20
240.382781
 30
0.0
 10
13.404581
 20
240.382781
 30
0.0
 10
13.404581
 20
243.382780
 30
0.0
 10
22.404581
 20
243.382780
 30
0.0
 10
22.404581
 20
240.382781
 30
0.0
 10
31.404581
 20
240.382781
 30
0.0
 10
31.404581
 20
243.382780
 30
0.0
 10
40.404582
 20
243.382780
 30
0.0
 10
40.404582
 20
240.382781
 30
0.0
 10
49.404580
 20
240.382781
 30
0.0
 10
49.404580
 20
243.382780
 30
0.0
 10
58.404580
 20
243.382780
 30
0.0
 10
58.404580
 20
240.382781
 30
0.0
 10
67.404581
 20
240.382781
 30
0.0
 10
67.404581
 20
243.382780
 30
0.0
 10
76.404581
 20
243.382780
 30
0.0
 10
76.404581
 20
240.382781
 30
0.0
 10
85.404582
 20
240.382781
 30
0.0
 10
85.404582
 20
243.382780
 30
0.0
 10
94.404582
 20
243.382780
 30
0.0
 10
94.404582
 20
240.382781
 30
0.0
 10
103.404580
 20
240.382781
 30
0.0
 10
103.404580
 20
243.382780
 30
0.0
 10
112.404581
 20
243.382780
 30
0.0
 10
112.404581
 20
240.382781
 30
0.0
 10
121.404581
 20
240.382781
 30
0.0
 10
121.404581
 20
243.382780
 30
0.0
 10
130.404582
 20
243.382780
 30
0.0
 10
130.404582
 20
240.382781
 30
0.0
 10
139.404582
 20
240.382781
 30
0.0
 10
139.404582
 20
243.382780
 30
0.0
 10
148.404580
 20
243.382780
 30
0.0
 10
148.404580
 20
240.382781
 30
0.0
 10
157.404581
 20
240.382781
 30
0.0
 10
157.404581
 20
243.382780
 30
0.0
 10
166.404581
 20
243.382780
 30
0.0
 10
166.404581
 20
240.382781
 30
0.0
 10
175.404582
 20
240.382781
 30
0.0
 10
175.404582
 20
243.382780
 30
0.0
 10
184.404582
 20
243.382780
 30
0.0
 10
184.404582
 20
240.382781
 30
0.0
 10
193.404580
 20
240.382781
 30
0.0
 10
193.404580
 20
243.382780
 30
0.0
 10
202.404580
 20
243.382780
 30
0.0
 10
202.404580
 20
240.382781
 30
0.0
 10
211.404581
 20
240.382781
 30
0.0
 10
211.404581
 20
243.382780
 30
0.0
 10
220.404582
 20
243.382780
 30
0.0
 10
220.404582
 20
240.382781
 30
0.0
 10
229.404582
 20
240.382781
 30
0.0
 10
237.904581
 20
240.382781
 30
0.0
 10
237.904581
 20
249.182780
 30
0.0
 10
234.904582
 20
249.182780
 30
0.0
 10
234.904582
 20
258.182781
 30
0.0
 10
237.904581
 20
258.182781
 30
0.0
 10
237.904581
 20
266.982780
 30
0.0
  0
SPLINE
  5
109
100
AcDbEntity
  8
Layer_1
 62
1
100
AcDbSpline
 70
0
 71
3
 72
25
 73
21
 74
19
 40
0.000000
 40
0.000000
 40
0.000000
 40
0.000000
 40
0.142261
 40
0.284047
 40
0.425562
 40
0.566806
 40
0.709449
 40
0.853242
 40
0.998904
 40
1.145201
 40
1.292313
 40
1.440489
 40
1.589900
 40
1.740578
 40
1.891069
 40
2.042029
 40
2.193051
 40
2.345554
 40
2.498914
 40
2.652970
 40
2.652970
 40
2.652970
 40
2.652970
 10
-36.617167
 20
212.121458
 30
0.0
 10
-36.569906
 20
212.125362
 30
0.0
 10
-36.475542
 20
212.133157
 30
0.0
 10
-36.334673
 20
212.150430
 30
0.0
 10
-36.195787
 20
212.178925
 30
0.0
 10
-36.060962
 20
212.223898
 30
0.0
 10
-35.931021
 20
212.283087
 30
0.0
 10
-35.805950
 20
212.354894
 30
0.0
 10
-35.686409
 20
212.437708
 30
0.0
 10
-35.573612
 20
212.531260
 30
0.0
 10
-35.468906
 20
212.634998
 30
0.0
 10
-35.373314
 20
212.748544
 30
0.0
 10
-35.287127
 20
212.870818
 30
0.0
 10
-35.210844
 20
213.000379
 30
0.0
 10
-35.144681
 20
213.135970
 30
0.0
 10
-35.090174
 20
213.276807
 30
0.0
 10
-35.048810
 20
213.422822
 30
0.0
 10
-35.022619
 20
213.573061
 30
0.0
 10
-35.006714
 20
213.725595
 30
0.0
 10
-34.999533
 20
213.827818
 30
0.0
 10
-34.995935
 20
213.879045
 30
0.0
 11
-36.617167
 21
212.121458
 31
0.0
 11
-36.475469
 21
212.134107
 31
0.0
 11
-36.334858
 21
212.152324
 31
0.0
 11
-36.196421
 21
212.181677
 31
0.0
 11
-36.062327
 21
212.226046
 31
0.0
 11
-35.932392
 21
212.284902
 31
0.0
 11
-35.807571
 21
212.356289
 31
0.0
 11
-35.687850
 21
212.439260
 31
0.0
 11
-35.575265
 21
212.532681
 31
0.0
 11
-35.470783
 21
212.636244
 31
0.0
 11
-35.375254
 21
212.749516
 31
0.0
 11
-35.289079
 21
212.871572
 31
0.0
 11
-35.212544
 21
213.001364
 31
0.0
 11
-35.146694
 21
213.136683
 31
0.0
 11
-35.092404
 21
213.277544
 31
0.0
 11
-35.051476
 21
213.422914
 31
0.0
 11
-35.024398
 21
213.572994
 31
0.0
 11
-35.007597
 21
213.725431
 31
0.0
 11
-34.995935
 21
213.879045
 31
0.0
  0
LWPOLYLINE
  5
10a
100
AcDbEntity
  8
Layer_1
 62
1
100
AcDbPolyline
 90
40
 70
1
 10
-44.695369
 20
111.382785
 30
0.0
 10
-35.895370
 20
111.382785
 30
0.0
 10
-35.895370
 20
108.382786
 30
0.0
 10
-26.895369
 20
108.382786
 30
0.0
 10
-26.895369
 20
111.382785
 30
0.0
 10
-18.095369
 20
111.382785
 30
0.0
 10
-18.095369
 20
117.382783
 30
0.0
 10
-21.095369
 20
117.382783
 30
0.0
 10
-21.095369
 20
126.382784
 30
0.0
 10
-18.095369
 20
126.382784
 30
0.0
 10
-18.095369
 20
135.382785
 30
0.0
 10
-21.095369
 20
135.382785
 30
0.0
 10
-21.095369
 20
144.382785
 30
0.0
 10
-18.095369
 20
144.382785
 30
0.0
 10
-18.095369
 20
153.382786
 30
0.0
 10
-21.095369
 20
153.382786
 30
0.0
 10
-21.095369
 20
162.382786
 30
0.0
 10
-18.095369
 20
162.382786
 30
0.0
 10
-18.095369
 20
171.382784
 30
0.0
 10
-21.095369
 20
171.382784
 30
0.0
 10
-21.095369
 20
180.382784
 30
0.0
 10
-18.095369
 20
180.382784
 30
0.0
 10
-18.095369
 20
189.382785
 30
0.0
 10
-21.095369
 20
189.382785
 30
0.0
 10
-21.095369
 20
198.382780
 30
0.0
 10
-18.095369
 20
198.382780
 30
0.0
 10
-18.095369
 20
207.382781
 30
0.0
 10
-21.095369
 20
207.382781
 30
0.0
 10
-21.095369
 20
216.382779
 30
0.0
 10
-18.095369
 20
216.382779
 30
0.0
 10
-18.095369
 20
225.382779
 30
0.0
 10
-21.095369
 20
225.382779
 30
0.0
 10
-21.095369
 20
234.382780
 30
0.0
 10
-18.095369
 20
234.382780
 30
0.0
 10
-18.095369
 20
240.382781
 30
0.0
 10
-26.895369
 20
240.382781
 30
0.0
 10
-26.895369
 20
243.382780
 30
0.0
 10
-35.895370
 20
243.382780
 30
0.0
 10
-35.895370
 20
240.382781
 30
0.0
 10
-44.695369
 20
240.382781
 30
0.0
  0
SPLINE
  5
10b
100
AcDbEntity
  8
Layer_1
 62
1
100
AcDbSpline
 70
0
 71
3
 72
25
 73
21
 74
19
 40
0.000000
 40
0.000000
 40
0.000000
 40
0.000000
 40
0.154058
 40
0.307417
 40
0.459919
 40
0.610942
 40
0.761903
 40
0.912392
 40
1.063070
 40
1.212482
 40
1.360659
 40
1.507770
 40
1.654067
 40
1.799728
 40
1.943521
 40
2.086164
 40
2.227409
 40
2.368925
 40
2.510711
 40
2.652971
 40
2.652971
 40
2.652971
 40
2.652971
 10
-34.995935
 20
224.050454
 30
0.0
 10
-34.999537
 20
224.101681
 30
0.0
 10
-35.006725
 20
224.203904
 30
0.0
 10
-35.022626
 20
224.356438
 30
0.0
 10
-35.048808
 20
224.506678
 30
0.0
 10
-35.090175
 20
224.652693
 30
0.0
 10
-35.144680
 20
224.793530
 30
0.0
 10
-35.210846
 20
224.929120
 30
0.0
 10
-35.287126
 20
225.058682
 30
0.0
 10
-35.373315
 20
225.180956
 30
0.0
 10
-35.468905
 20
225.294503
 30
0.0
 10
-35.573613
 20
225.398239
 30
0.0
 10
-35.686409
 20
225.491791
 30
0.0
 10
-35.805950
 20
225.574604
 30
0.0
 10
-35.931021
 20
225.646412
 30
0.0
 10
-36.060963
 20
225.705602
 30
0.0
 10
-36.195787
 20
225.750577
 30
0.0
 10
-36.334672
 20
225.779075
 30
0.0
 10
-36.475542
 20
225.796347
 30
0.0
 10
-36.569906
 20
225.804139
 30
0.0
 10
-36.617167
 20
225.808041
 30
0.0
 11
-34.995935
 21
224.050454
 31
0.0
 11
-35.007605
 21
224.204070
 31
0.0
 11
-35.024404
 21
224.356506
 31
0.0
 11
-35.051476
 21
224.506585
 31
0.0
 11
-35.092404
 21
224.651956
 31
0.0
 11
-35.146694
 21
224.792818
 31
0.0
 11
-35.212544
 21
224.928135
 31
0.0
 11
-35.289079
 21
225.057928
 31
0.0
 11
-35.375254
 21
225.179985
 31
0.0
 11
-35.470783
 21
225.293257
 31
0.0
 11
-35.575265
 21
225.396819
 31
0.0
 11
-35.687850
 21
225.490239
 31
0.0
 11
-35.807571
 21
225.573210
 31
0.0
 11
-35.932392
 21
225.644597
 31
0.0
 11
-36.062327
 21
225.703453
 31
0.0
 11
-36.196421
 21
225.747825
 31
0.0
 11
-36.334858
 21
225.777181
 31
0.0
 11
-36.475469
 21
225.795396
 31
0.0
 11
-36.617167
 21
225.808041
 31
0.0
  0
LWPOLYLINE
  5
10c
100
AcDbEntity
  8
Layer_1
 62
1
100
AcDbPolyline
 90
2
 70
0
 10
-40.672044
 20
212.121458
 30
0.0
 10
-36.617167
 20
212.121458
 30
0.0
  0
LWPOLYLINE
  5
10d
100
AcDbEntity
  8
Layer_1
 62
1
100
AcDbPolyline
 90
2
 70
0
 10
-36.617167
 20
225.808041
 30
0.0
 10
-40.672044
 20
225.808041
 30
0.0
  0
SPLINE
  5
10e
100
AcDbEntity
  8
Layer_1
 62
1
100
AcDbSpline
 70
0
 71
3
 72
25
 73
21
 74
19
 40
0.000000
 40
0.000000
 40
0.000000
 40
0.000000
 40
0.142264
 40
0.284053
 40
0.425570
 40
0.566813
 40
0.709454
 40
0.853247
 40
0.998907
 40
1.145203
 40
1.292316
 40
1.440493
 40
1.589905
 40
1.740583
 40
1.891071
 40
2.042032
 40
2.193054
 40
2.345557
 40
2.498916
 40
2.652974
 40
2.652974
 40
2.652974
 40
2.652974
 10
-40.672044
 20
225.808041
 30
0.0
 10
-40.719306
 20
225.804137
 30
0.0
 10
-40.813672
 20
225.796342
 30
0.0
 10
-40.954543
 20
225.779069
 30
0.0
 10
-41.093431
 20
225.750575
 30
0.0
 10
-41.228254
 20
225.705601
 30
0.0
 10
-41.358194
 20
225.646411
 30
0.0
 10
-41.483265
 20
225.574605
 30
0.0
 10
-41.602805
 20
225.491791
 30
0.0
 10
-41.715600
 20
225.398238
 30
0.0
 10
-41.820310
 20
225.294504
 30
0.0
 10
-41.915900
 20
225.180955
 30
0.0
 10
-42.002087
 20
225.058681
 30
0.0
 10
-42.078371
 20
224.929121
 30
0.0
 10
-42.144534
 20
224.793531
 30
0.0
 10
-42.199037
 20
224.652692
 30
0.0
 10
-42.240400
 20
224.506677
 30
0.0
 10
-42.266591
 20
224.356439
 30
0.0
 10
-42.282498
 20
224.203904
 30
0.0
 10
-42.289679
 20
224.101681
 30
0.0
 10
-42.293278
 20
224.050454
 30
0.0
 11
-40.672044
 21
225.808041
 31
0.0
 11
-40.813745
 21
225.795392
 31
0.0
 11
-40.954358
 21
225.777175
 31
0.0
 11
-41.092797
 21
225.747822
 31
0.0
 11
-41.226890
 21
225.703453
 31
0.0
 11
-41.356823
 21
225.644597
 31
0.0
 11
-41.481645
 21
225.573210
 31
0.0
 11
-41.601363
 21
225.490239
 31
0.0
 11
-41.713948
 21
225.396819
 31
0.0
 11
-41.818433
 21
225.293257
 31
0.0
 11
-41.913961
 21
225.179984
 31
0.0
 11
-42.000135
 21
225.057927
 31
0.0
 11
-42.076672
 21
224.928135
 31
0.0
 11
-42.142520
 21
224.792818
 31
0.0
 11
-42.196807
 21
224.651956
 31
0.0
 11
-42.237734
 21
224.506585
 31
0.0
 11
-42.264813
 21
224.356506
 31
0.0
 11
-42.281615
 21
224.204070
 31
0.0
 11
-42.293278
 21
224.050454
 31
0.0
  0
LWPOLYLINE
  5
10f
100
AcDbEntity
  8
Layer_1
 62
1
100
AcDbPolyline
 90
2
 70
0
 10
-42.293278
 20
224.050454
 30
0.0
 10
-42.293278
 20
213.879045
 30
0.0
  0
SPLINE
  5
110
100
AcDbEntity
  8
Layer_1
 62
1
100
AcDbSpline
 70
0
 71
3
 72
25
 73
21
 74
19
 40
0.000000
 40
0.000000
 40
0.000000
 40
0.000000
 40
0.154057
 40
0.307417
 40
0.459919
 40
0.610940
 40
0.761900
 40
0.912391
 40
1.063068
 40
1.212479
 40
1.360655
 40
1.507769
 40
1.654066
 40
1.799726
 40
1.943519
 40
2.086160
 40
2.227403
 40
2.368921
 40
2.510710
 40
2.652974
 40
2.652974
 40
2.652974
 40
2.652974
 10
-42.293278
 20
213.879045
 30
0.0
 10
-42.289676
 20
213.827818
 30
0.0
 10
-42.282488
 20
213.725596
 30
0.0
 10
-42.266587
 20
213.573061
 30
0.0
 10
-42.240401
 20
213.422822
 30
0.0
 10
-42.199037
 20
213.276808
 30
0.0
 10
-42.144533
 20
213.135970
 30
0.0
 10
-42.078372
 20
213.000379
 30
0.0
 10
-42.002087
 20
212.870819
 30
0.0
 10
-41.915900
 20
212.748546
 30
0.0
 10
-41.820310
 20
212.634997
 30
0.0
 10
-41.715600
 20
212.531262
 30
0.0
 10
-41.602805
 20
212.437708
 30
0.0
 10
-41.483265
 20
212.354894
 30
0.0
 10
-41.358194
 20
212.283088
 30
0.0
 10
-41.228254
 20
212.223897
 30
0.0
 10
-41.093430
 20
212.178926
 30
0.0
 10
-40.954544
 20
212.150424
 30
0.0
 10
-40.813672
 20
212.133152
 30
0.0
 10
-40.719306
 20
212.125360
 30
0.0
 10
-40.672044
 20
212.121458
 30
0.0
 11
-42.293278
 21
213.879045
 31
0.0
 11
-42.281608
 21
213.725431
 31
0.0
 11
-42.264809
 21
213.572994
 31
0.0
 11
-42.237734
 21
213.422914
 31
0.0
 11
-42.196807
 21
213.277544
 31
0.0
 11
-42.142520
 21
213.136683
 31
0.0
 11
-42.076672
 21
213.001364
 31
0.0
 11
-42.000135
 21
212.871572
 31
0.0
 11
-41.913961
 21
212.749517
 31
0.0
 11
-41.818433
 21
212.636244
 31
0.0
 11
-41.713948
 21
212.532681
 31
0.0
 11
-41.601363
 21
212.439260
 31
0.0
 11
-41.481645
 21
212.356289
 31
0.0
 11
-41.356823
 21
212.284902
 31
0.0
 11
-41.226890
 21
212.226046
 31
0.0
 11
-41.092797
 21
212.181677
 31
0.0
 11
-40.954358
 21
212.152319
 31
0.0
 11
-40.813745
 21
212.134103
 31
0.0
 11
-40.672044
 21
212.121458
 31
0.0
  0
LWPOLYLINE
  5
111
100
AcDbEntity
  8
Layer_1
 62
1
100
AcDbPolyline
 90
2
 70
0
 10
-34.995935
 20
213.879045
 30
0.0
 10
-34.995935
 20
224.050454
 30
0.0
  0
ENDSEC
  0
SECTION
  2
OBJECTS
  0
DICTIONARY
  5
C
330
0
100
AcDbDictionary
  3
ACAD_GROUP
350
D
  3
ACAD_MLINESTYLE
350
17
  0
DICTIONARY
  5
D
330
C
100
AcDbDictionary
  0
DICTIONARY
  5
1A
330
C
100
AcDbDictionary
  0
DICTIONARY
  5
17
330
C
100
AcDbDictionary
  3
STANDARD
350
18
  0
DICTIONARY
  5
19
330
C
100
AcDbDictionary
  0
ENDSEC
  0
EOF
