  0
SECTION
  2
HEADER
  9
$ACADVER
  1
AC1014
  9
$HANDSEED
  5
FFFF
  9
$MEASUREMENT
 70
     1
  0
ENDSEC
  0
SECTION
  2
TABLES
  0
TABLE
  2
VPORT
  5
8
330
0
100
AcDbSymbolTable
 70
     4
  0
VPORT
  5
2E
330
8
100
AcDbSymbolTableRecord
100
AcDbViewportTableRecord
  2
*ACTIVE
 70
     0
 10
0.0
 20
0.0
 11
1.0
 21
1.0
 12
210.0
 22
148.5
 13
0.0
 23
0.0
 14
10.0
 24
10.0
 15
10.0
 25
10.0
 16
0.0
 26
0.0
 36
1.0
 17
0.0
 27
0.0
 37
0.0
 40
341.0
 41
1.24
 42
50.0
 43
0.0
 44
0.0
 50
0.0
 51
0.0
 71
     0
 72
   100
 73
     1
 74
     3
 75
     0
 76
     0
 77
     0
 78
     0
  0
ENDTAB
  0
TABLE
  2
LTYPE
  5
5
330
0
100
AcDbSymbolTable
 70
     1
  0
LTYPE
  5
14
330
5
100
AcDbSymbolTableRecord
100
AcDbLinetypeTableRecord
  2
BYBLOCK
 70
     0
  3

 72
    65
 73
     0
 40
0.0
  0
LTYPE
  5
15
330
5
100
AcDbSymbolTableRecord
100
AcDbLinetypeTableRecord
  2
BYLAYER
 70
     0
  3

 72
    65
 73
     0
 40
0.0
  0
LTYPE
  5
16
330
5
100
AcDbSymbolTableRecord
100
AcDbLinetypeTableRecord
  2
CONTINUOUS
 70
     0
  3
Solid line
 72
    65
 73
     0
 40
0.0
  0
ENDTAB
  0
TABLE
  2
LAYER
  5
2
100
AcDbSymbolTable
 70
1
  0
LAYER
  5
50
100
AcDbSymbolTableRecord
100
AcDbLayerTableRecord
  2
0
 70
0
  6
CONTINUOUS
  0
ENDTAB
  0
TABLE
  2
STYLE
  5
3
330
0
100
AcDbSymbolTable
 70
     1
  0
STYLE
  5
11
330
3
100
AcDbSymbolTableRecord
100
AcDbTextStyleTableRecord
  2
STANDARD
 70
     0
 40
0.0
 41
1.0
 50
0.0
 71
     0
 42
2.5
  3
txt
  4

  0
ENDTAB
  0
TABLE
  2
VIEW
  5
6
330
0
100
AcDbSymbolTable
 70
     0
  0
ENDTAB
  0
TABLE
  2
UCS
  5
7
330
0
100
AcDbSymbolTable
 70
     0
  0
ENDTAB
  0
TABLE
  2
APPID
  5
9
330
0
100
AcDbSymbolTable
 70
     2
  0
APPID
  5
12
330
9
100
AcDbSymbolTableRecord
100
AcDbRegAppTableRecord
  2
ACAD
 70
     0
  0
ENDTAB
  0
TABLE
  2
DIMSTYLE
  5
A
330
0
100
AcDbSymbolTable
 70
     1
  0
DIMSTYLE
105
27
330
A
100
AcDbSymbolTableRecord
100
AcDbDimStyleTableRecord
  2
ISO-25
 70
     0
  3

  4

  5

  6

  7

 40
1.0
 41
2.5
 42
0.625
 43
3.75
 44
1.25
 45
0.0
 46
0.0
 47
0.0
 48
0.0
140
2.5
141
2.5
142
0.0
143
0.03937007874016
144
1.0
145
0.0
146
1.0
147
0.625
 71
     0
 72
     0
 73
     0
 74
     0
 75
     0
 76
     0
 77
     1
 78
     8
170
     0
171
     3
172
     1
173
     0
174
     0
175
     0
176
     0
177
     0
178
     0
270
     2
271
     2
272
     2
273
     2
274
     3
340
11
275
     0
280
     0
281
     0
282
     0
283
     0
284
     8
285
     0
286
     0
287
     3
288
     0
  0
ENDTAB
  0
TABLE
  2
BLOCK_RECORD
  5
1
330
0
100
AcDbSymbolTable
 70
     1
  0
BLOCK_RECORD
  5
1F
330
1
100
AcDbSymbolTableRecord
100
AcDbBlockTableRecord
  2
*MODEL_SPACE
  0
BLOCK_RECORD
  5
1B
330
1
100
AcDbSymbolTableRecord
100
AcDbBlockTableRecord
  2
*PAPER_SPACE
  0
ENDTAB
  0
ENDSEC
  0
SECTION
  2
BLOCKS
  0
BLOCK
  5
20
330
1F
100
AcDbEntity
  8
0
100
AcDbBlockBegin
  2
*MODEL_SPACE
 70
     0
 10
0.0
 20
0.0
 30
0.0
  3
*MODEL_SPACE
  1

  0
ENDBLK
  5
21
330
1F
100
AcDbEntity
  8
0
100
AcDbBlockEnd
  0
BLOCK
  5
1C
330
1B
100
AcDbEntity
 67
     1
  8
0
100
AcDbBlockBegin
  2
*PAPER_SPACE
  1

  0
ENDBLK
  5
1D
330
1B
100
AcDbEntity
 67
     1
  8
0
100
AcDbBlockEnd
  0
ENDSEC
  0
SECTION
  2
ENTITIES
  0
SPLINE
  5
100
100
AcDbEntity
  8
0
 62
1
100
AcDbSpline
 70
0
 71
3
 72
13
 73
9
 74
7
 40
0.000000
 40
0.000000
 40
0.000000
 40
0.000000
 40
0.392663
 40
0.782076
 40
1.174737
 40
1.567400
 40
1.956814
 40
2.349477
 40
2.349477
 40
2.349477
 40
2.349477
 10
19.777954
 20
129.301649
 30
0.0
 10
19.909224
 20
129.311648
 30
0.0
 10
20.170677
 20
129.331564
 30
0.0
 10
20.536439
 20
129.488952
 30
0.0
 10
20.851202
 20
129.728400
 30
0.0
 10
21.090652
 20
130.043163
 30
0.0
 10
21.248040
 20
130.408925
 30
0.0
 10
21.267956
 20
130.670378
 30
0.0
 10
21.277956
 20
130.801648
 30
0.0
 11
19.777954
 21
129.301649
 31
0.0
 11
20.167239
 21
129.353040
 31
0.0
 11
20.527010
 21
129.502061
 31
0.0
 11
20.838615
 21
129.740987
 31
0.0
 11
21.077542
 21
130.052592
 31
0.0
 11
21.226565
 21
130.412363
 31
0.0
 11
21.277956
 21
130.801648
 31
0.0
  0
SPLINE
  5
101
100
AcDbEntity
  8
0
 62
1
100
AcDbSpline
 70
0
 71
3
 72
13
 73
9
 74
7
 40
0.000000
 40
0.000000
 40
0.000000
 40
0.000000
 40
0.392663
 40
0.782076
 40
1.174737
 40
1.567400
 40
1.956813
 40
2.349476
 40
2.349476
 40
2.349476
 40
2.349476
 10
21.277956
 20
139.482363
 30
0.0
 10
21.267956
 20
139.613633
 30
0.0
 10
21.248040
 20
139.875086
 30
0.0
 10
21.090652
 20
140.240848
 30
0.0
 10
20.851201
 20
140.555609
 30
0.0
 10
20.536439
 20
140.795059
 30
0.0
 10
20.170677
 20
140.952447
 30
0.0
 10
19.909224
 20
140.972363
 30
0.0
 10
19.777954
 20
140.982363
 30
0.0
 11
21.277956
 21
139.482363
 31
0.0
 11
21.226565
 21
139.871648
 31
0.0
 11
21.077542
 21
140.231419
 31
0.0
 11
20.838615
 21
140.543022
 31
0.0
 11
20.527010
 21
140.781950
 31
0.0
 11
20.167239
 21
140.930972
 31
0.0
 11
19.777954
 21
140.982363
 31
0.0
  0
LWPOLYLINE
  5
102
100
AcDbEntity
  8
0
 62
1
100
AcDbPolyline
 90
2
 70
0
 10
16.026294
 20
129.301649
 30
0.0
 10
19.777954
 20
129.301649
 30
0.0
  0
SPLINE
  5
103
100
AcDbEntity
  8
0
 62
1
100
AcDbSpline
 70
0
 71
3
 72
13
 73
9
 74
7
 40
0.000000
 40
0.000000
 40
0.000000
 40
0.000000
 40
0.392663
 40
0.782076
 40
1.174739
 40
1.567400
 40
1.956813
 40
2.349476
 40
2.349476
 40
2.349476
 40
2.349476
 10
16.026294
 20
140.982363
 30
0.0
 10
15.895024
 20
140.972363
 30
0.0
 10
15.633570
 20
140.952447
 30
0.0
 10
15.267808
 20
140.795059
 30
0.0
 10
14.953047
 20
140.555609
 30
0.0
 10
14.713595
 20
140.240848
 30
0.0
 10
14.556207
 20
139.875086
 30
0.0
 10
14.536291
 20
139.613633
 30
0.0
 10
14.526292
 20
139.482363
 30
0.0
 11
16.026294
 21
140.982363
 31
0.0
 11
15.637009
 21
140.930972
 31
0.0
 11
15.277238
 21
140.781950
 31
0.0
 11
14.965633
 21
140.543022
 31
0.0
 11
14.726705
 21
140.231419
 31
0.0
 11
14.577683
 21
139.871648
 31
0.0
 11
14.526292
 21
139.482363
 31
0.0
  0
LWPOLYLINE
  5
104
100
AcDbEntity
  8
0
 62
1
100
AcDbPolyline
 90
2
 70
0
 10
19.777954
 20
140.982363
 30
0.0
 10
16.026294
 20
140.982363
 30
0.0
  0
LWPOLYLINE
  5
105
100
AcDbEntity
  8
0
 62
1
100
AcDbPolyline
 90
2
 70
0
 10
14.526292
 20
139.482363
 30
0.0
 10
14.526292
 20
130.801648
 30
0.0
  0
LWPOLYLINE
  5
106
100
AcDbEntity
  8
0
 62
1
100
AcDbPolyline
 90
2
 70
0
 10
21.277956
 20
130.801648
 30
0.0
 10
21.277956
 20
139.482363
 30
0.0
  0
LWPOLYLINE
  5
107
100
AcDbEntity
  8
0
 62
1
100
AcDbPolyline
 90
36
 70
1
 10
37.476999
 20
57.001726
 30
0.0
 10
40.476726
 20
57.001726
 30
0.0
 10
40.476726
 20
47.001820
 30
0.0
 10
37.476999
 20
47.001820
 30
0.0
 10
37.476999
 20
37.001914
 30
0.0
 10
40.476726
 20
37.001914
 30
0.0
 10
40.476726
 20
27.868268
 30
0.0
 10
28.691501
 20
27.868268
 30
0.0
 10
28.691501
 20
24.867998
 30
0.0
 10
18.691493
 20
24.867998
 30
0.0
 10
18.691493
 20
27.868268
 30
0.0
 10
11.906000
 20
27.868268
 30
0.0
 10
11.906000
 20
156.251816
 30
0.0
 10
18.691493
 20
156.251816
 30
0.0
 10
18.691493
 20
159.252009
 30
0.0
 10
28.691501
 20
159.252009
 30
0.0
 10
28.691501
 20
156.251816
 30
0.0
 10
40.476726
 20
156.251816
 30
0.0
 10
40.476726
 20
147.001917
 30
0.0
 10
37.476999
 20
147.001917
 30
0.0
 10
37.476999
 20
137.002011
 30
0.0
 10
40.476726
 20
137.002011
 30
0.0
 10
40.476726
 20
127.001589
 30
0.0
 10
37.476999
 20
127.001589
 30
0.0
 10
37.476999
 20
117.001680
 30
0.0
 10
40.476726
 20
117.001680
 30
0.0
 10
40.476726
 20
107.001774
 30
0.0
 10
37.476999
 20
107.001774
 30
0.0
 10
37.476999
 20
97.001868
 30
0.0
 10
40.476726
 20
97.001868
 30
0.0
 10
40.476726
 20
87.001963
 30
0.0
 10
37.476999
 20
87.001963
 30
0.0
 10
37.476999
 20
77.001538
 30
0.0
 10
40.476726
 20
77.001538
 30
0.0
 10
40.476726
 20
67.001632
 30
0.0
 10
37.476999
 20
67.001632
 30
0.0
  0
LWPOLYLINE
  5
108
100
AcDbEntity
  8
0
 62
1
100
AcDbPolyline
 90
56
 70
1
 10
294.116548
 20
6.083508
 30
0.0
 10
297.117003
 20
6.083508
 30
0.0
 10
297.117003
 20
-0.700991
 30
0.0
 10
37.476999
 20
-0.700991
 30
0.0
 10
37.476999
 20
6.083508
 30
0.0
 10
40.476728
 20
6.083508
 30
0.0
 10
40.476728
 20
16.083514
 30
0.0
 10
37.476999
 20
16.083514
 30
0.0
 10
37.476999
 20
27.868268
 30
0.0
 10
40.476728
 20
27.868268
 30
0.0
 10
40.476728
 20
24.867998
 30
0.0
 10
62.296593
 20
24.867998
 30
0.0
 10
62.296593
 20
27.868268
 30
0.0
 10
72.296494
 20
27.868268
 30
0.0
 10
72.296494
 20
24.867998
 30
0.0
 10
82.296394
 20
24.867998
 30
0.0
 10
82.296394
 20
27.868268
 30
0.0
 10
92.296824
 20
27.868268
 30
0.0
 10
92.296824
 20
24.867998
 30
0.0
 10
102.296725
 20
24.867998
 30
0.0
 10
102.296725
 20
27.868268
 30
0.0
 10
112.296625
 20
27.868268
 30
0.0
 10
112.296625
 20
24.867998
 30
0.0
 10
122.296552
 20
24.867998
 30
0.0
 10
122.296552
 20
27.868268
 30
0.0
 10
132.296453
 20
27.868268
 30
0.0
 10
132.296453
 20
24.867998
 30
0.0
 10
142.296856
 20
24.867998
 30
0.0
 10
142.296856
 20
27.868268
 30
0.0
 10
152.296783
 20
27.868268
 30
0.0
 10
152.296783
 20
24.867998
 30
0.0
 10
182.296485
 20
24.867998
 30
0.0
 10
182.296485
 20
27.868268
 30
0.0
 10
192.296412
 20
27.868268
 30
0.0
 10
192.296412
 20
24.867998
 30
0.0
 10
202.296816
 20
24.867998
 30
0.0
 10
202.296816
 20
27.868268
 30
0.0
 10
212.296735
 20
27.868268
 30
0.0
 10
212.296735
 20
24.867998
 30
0.0
 10
222.296643
 20
24.867998
 30
0.0
 10
222.296643
 20
27.868268
 30
0.0
 10
232.296549
 20
27.868268
 30
0.0
 10
232.296549
 20
24.867998
 30
0.0
 10
242.296455
 20
24.867998
 30
0.0
 10
242.296455
 20
27.868268
 30
0.0
 10
252.296880
 20
27.868268
 30
0.0
 10
252.296880
 20
24.867998
 30
0.0
 10
262.296786
 20
24.867998
 30
0.0
 10
262.296786
 20
27.868268
 30
0.0
 10
272.296705
 20
27.868268
 30
0.0
 10
272.296705
 20
24.867998
 30
0.0
 10
294.116548
 20
24.867998
 30
0.0
 10
294.116548
 20
27.868268
 30
0.0
 10
297.117003
 20
27.868268
 30
0.0
 10
297.117003
 20
16.083514
 30
0.0
 10
294.116548
 20
16.083514
 30
0.0
  0
SPLINE
  5
109
100
AcDbEntity
  8
0
 62
1
100
AcDbSpline
 70
0
 71
3
 72
13
 73
9
 74
7
 40
0.000000
 40
0.000000
 40
0.000000
 40
0.000000
 40
0.392663
 40
0.782076
 40
1.174739
 40
1.567401
 40
1.956814
 40
2.349477
 40
2.349477
 40
2.349477
 40
2.349477
 10
14.526292
 20
130.801648
 30
0.0
 10
14.536291
 20
130.670378
 30
0.0
 10
14.556207
 20
130.408925
 30
0.0
 10
14.713596
 20
130.043163
 30
0.0
 10
14.953045
 20
129.728400
 30
0.0
 10
15.267809
 20
129.488952
 30
0.0
 10
15.633570
 20
129.331564
 30
0.0
 10
15.895024
 20
129.311648
 30
0.0
 10
16.026294
 20
129.301649
 30
0.0
 11
14.526292
 21
130.801648
 31
0.0
 11
14.577683
 21
130.412363
 31
0.0
 11
14.726705
 21
130.052592
 31
0.0
 11
14.965633
 21
129.740987
 31
0.0
 11
15.277238
 21
129.502061
 31
0.0
 11
15.637009
 21
129.353040
 31
0.0
 11
16.026294
 21
129.301649
 31
0.0
  0
SPLINE
  5
10a
100
AcDbEntity
  8
0
 62
1
100
AcDbSpline
 70
0
 71
3
 72
25
 73
21
 74
19
 40
0.000000
 40
0.000000
 40
0.000000
 40
0.000000
 40
0.540794
 40
1.073839
 40
1.614628
 40
2.155409
 40
2.688455
 40
3.229236
 40
3.770025
 40
4.303070
 40
4.843864
 40
5.384638
 40
5.917677
 40
6.458473
 40
6.999256
 40
7.532302
 40
8.073085
 40
8.613881
 40
9.146920
 40
9.687694
 40
9.687694
 40
9.687694
 40
9.687694
 10
287.859740
 20
30.830803
 30
0.0
 10
287.878254
 20
31.011988
 30
0.0
 10
287.915017
 20
31.371760
 30
0.0
 10
288.200259
 20
31.847206
 30
0.0
 10
288.617898
 20
32.200698
 30
0.0
 10
289.135089
 20
32.388143
 30
0.0
 10
289.683865
 20
32.388143
 30
0.0
 10
290.200331
 20
32.200698
 30
0.0
 10
290.620863
 20
31.847206
 30
0.0
 10
290.895359
 20
31.371760
 30
0.0
 10
290.991193
 20
30.830810
 30
0.0
 10
290.895358
 20
30.289862
 30
0.0
 10
290.620857
 20
29.814427
 30
0.0
 10
290.200334
 20
29.460925
 30
0.0
 10
289.683866
 20
29.273474
 30
0.0
 10
289.135088
 20
29.273474
 30
0.0
 10
288.617895
 20
29.460925
 30
0.0
 10
288.200264
 20
29.814427
 30
0.0
 10
287.915019
 20
30.289862
 30
0.0
 10
287.878254
 20
30.649626
 30
0.0
 10
287.859740
 20
30.830803
 30
0.0
 11
287.859740
 21
30.830803
 31
0.0
 11
287.954072
 21
31.363306
 31
0.0
 11
288.220588
 21
31.824941
 31
0.0
 11
288.634572
 21
32.172892
 31
0.0
 11
289.142894
 21
32.357425
 31
0.0
 11
289.675941
 21
32.357425
 31
0.0
 11
290.184263
 21
32.172892
 31
0.0
 11
290.598247
 21
31.824941
 31
0.0
 11
290.864763
 21
31.363306
 31
0.0
 11
290.959095
 21
30.830803
 31
0.0
 11
290.864763
 21
30.298321
 31
0.0
 11
290.598247
 21
29.836693
 31
0.0
 11
290.184263
 21
29.488731
 31
0.0
 11
289.675941
 21
29.304193
 31
0.0
 11
289.142894
 21
29.304193
 31
0.0
 11
288.634572
 21
29.488731
 31
0.0
 11
288.220588
 21
29.836693
 31
0.0
 11
287.954072
 21
30.298321
 31
0.0
 11
287.859740
 21
30.830803
 31
0.0
  0
SPLINE
  5
10b
100
AcDbEntity
  8
0
 62
1
100
AcDbSpline
 70
0
 71
3
 72
25
 73
21
 74
19
 40
0.000000
 40
0.000000
 40
0.000000
 40
0.000000
 40
0.540777
 40
1.073817
 40
1.614602
 40
2.155390
 40
2.688436
 40
3.229223
 40
3.770014
 40
4.303060
 40
4.843839
 40
5.384619
 40
5.917670
 40
6.458464
 40
6.999259
 40
7.532305
 40
8.073100
 40
8.613888
 40
9.146933
 40
9.687712
 40
9.687712
 40
9.687712
 40
9.687712
 10
165.754241
 20
30.830803
 30
0.0
 10
165.772756
 20
31.011982
 30
0.0
 10
165.809520
 20
31.371746
 30
0.0
 10
166.094760
 20
31.847185
 30
0.0
 10
166.512405
 20
32.200664
 30
0.0
 10
167.029585
 20
32.388138
 30
0.0
 10
167.578371
 20
32.388138
 30
0.0
 10
168.094827
 20
32.200662
 30
0.0
 10
168.515369
 20
31.847184
 30
0.0
 10
168.789878
 20
31.371749
 30
0.0
 10
168.885725
 20
30.830802
 30
0.0
 10
168.789877
 20
30.289855
 30
0.0
 10
168.515371
 20
29.814414
 30
0.0
 10
168.094824
 20
29.460936
 30
0.0
 10
167.578377
 20
29.273430
 30
0.0
 10
167.029579
 20
29.273430
 30
0.0
 10
166.512409
 20
29.460935
 30
0.0
 10
166.094758
 20
29.814413
 30
0.0
 10
165.809521
 20
30.289858
 30
0.0
 10
165.772756
 20
30.649624
 30
0.0
 10
165.754241
 20
30.830803
 30
0.0
 11
165.754241
 21
30.830803
 31
0.0
 11
165.848573
 21
31.363289
 31
0.0
 11
166.115089
 21
31.824917
 31
0.0
 11
166.529073
 21
32.172863
 31
0.0
 11
167.037395
 21
32.357415
 31
0.0
 11
167.570442
 21
32.357415
 31
0.0
 11
168.078764
 21
32.172863
 31
0.0
 11
168.492755
 21
31.824917
 31
0.0
 11
168.759284
 21
31.363289
 31
0.0
 11
168.853623
 21
30.830803
 31
0.0
 11
168.759284
 21
30.298315
 31
0.0
 11
168.492755
 21
29.836681
 31
0.0
 11
168.078764
 21
29.488731
 31
0.0
 11
167.570442
 21
29.304158
 31
0.0
 11
167.037395
 21
29.304158
 31
0.0
 11
166.529073
 21
29.488731
 31
0.0
 11
166.115089
 21
29.836681
 31
0.0
 11
165.848573
 21
30.298315
 31
0.0
 11
165.754241
 21
30.830803
 31
0.0
  0
SPLINE
  5
10c
100
AcDbEntity
  8
0
 62
1
100
AcDbSpline
 70
0
 71
3
 72
25
 73
21
 74
19
 40
0.000000
 40
0.000000
 40
0.000000
 40
0.000000
 40
0.563833
 40
1.119569
 40
1.683383
 40
2.247202
 40
2.802940
 40
3.366761
 40
3.930585
 40
4.486327
 40
5.050156
 40
5.614011
 40
6.169758
 40
6.733583
 40
7.297416
 40
7.853171
 40
8.417009
 40
8.980847
 40
9.536601
 40
10.100449
 40
10.100449
 40
10.100449
 40
10.100449
 10
43.584233
 20
30.830803
 30
0.0
 10
43.603289
 20
31.019734
 30
0.0
 10
43.641126
 20
31.394882
 30
0.0
 10
43.938026
 20
31.890898
 30
0.0
 10
44.373224
 20
32.259740
 30
0.0
 10
44.912388
 20
32.455371
 30
0.0
 10
45.484560
 20
32.455371
 30
0.0
 10
46.022982
 20
32.259738
 30
0.0
 10
46.461162
 20
31.890899
 30
0.0
 10
46.747032
 20
31.394889
 30
0.0
 10
46.845619
 20
30.830793
 30
0.0
 10
46.747005
 20
30.266706
 30
0.0
 10
46.461174
 20
29.770665
 30
0.0
 10
46.023002
 20
29.401800
 30
0.0
 10
45.484565
 20
29.206173
 30
0.0
 10
44.912379
 20
29.206173
 30
0.0
 10
44.373191
 20
29.401802
 30
0.0
 10
43.937984
 20
29.770664
 30
0.0
 10
43.641067
 20
30.266698
 30
0.0
 10
43.603269
 20
30.641864
 30
0.0
 10
43.584233
 20
30.830803
 30
0.0
 11
43.584233
 21
30.830803
 31
0.0
 11
43.681885
 21
31.386116
 31
0.0
 11
43.959266
 21
31.867678
 31
0.0
 11
44.390633
 21
32.230732
 31
0.0
 11
44.920543
 21
32.423312
 31
0.0
 11
45.476281
 21
32.423312
 31
0.0
 11
46.006194
 21
32.230732
 31
0.0
 11
46.437574
 21
31.867678
 31
0.0
 11
46.714967
 21
31.386116
 31
0.0
 11
46.812594
 21
30.830803
 31
0.0
 11
46.714950
 21
30.275467
 31
0.0
 11
46.437580
 21
29.793885
 31
0.0
 11
46.006213
 21
29.430813
 31
0.0
 11
45.476289
 21
29.238232
 31
0.0
 11
44.920534
 21
29.238232
 31
0.0
 11
44.390604
 21
29.430813
 31
0.0
 11
43.959221
 21
29.793885
 31
0.0
 11
43.681837
 21
30.275467
 31
0.0
 11
43.584233
 21
30.830803
 31
0.0
  0
SPLINE
  5
10d
100
AcDbEntity
  8
0
 62
1
100
AcDbSpline
 70
0
 71
3
 72
25
 73
21
 74
19
 40
0.000000
 40
0.000000
 40
0.000000
 40
0.000000
 40
0.540784
 40
1.073830
 40
1.614620
 40
2.155401
 40
2.688449
 40
3.229237
 40
3.770022
 40
4.303068
 40
4.843851
 40
5.384639
 40
5.917687
 40
6.458469
 40
6.999259
 40
7.532306
 40
8.073090
 40
8.613876
 40
9.146925
 40
9.687712
 40
9.687712
 40
9.687712
 40
9.687712
 10
43.648715
 20
153.306240
 30
0.0
 10
43.667231
 20
153.487421
 30
0.0
 10
43.703997
 20
153.847190
 30
0.0
 10
43.989246
 20
154.322630
 30
0.0
 10
44.406892
 20
154.676110
 30
0.0
 10
44.924073
 20
154.863580
 30
0.0
 10
45.472857
 20
154.863579
 30
0.0
 10
45.989317
 20
154.676114
 30
0.0
 10
46.409852
 20
154.322628
 30
0.0
 10
46.684353
 20
153.847190
 30
0.0
 10
46.780195
 20
153.306239
 30
0.0
 10
46.684352
 20
152.765288
 30
0.0
 10
46.409855
 20
152.289845
 30
0.0
 10
45.989314
 20
151.936366
 30
0.0
 10
45.472859
 20
151.748894
 30
0.0
 10
44.924072
 20
151.748892
 30
0.0
 10
44.406895
 20
151.936370
 30
0.0
 10
43.989243
 20
152.289843
 30
0.0
 10
43.703997
 20
152.765287
 30
0.0
 10
43.667231
 20
153.125058
 30
0.0
 10
43.648715
 20
153.306240
 30
0.0
 11
43.648715
 21
153.306240
 31
0.0
 11
43.743051
 21
153.838732
 31
0.0
 11
44.009575
 21
154.300363
 31
0.0
 11
44.423563
 21
154.648310
 31
0.0
 11
44.931881
 21
154.832857
 31
0.0
 11
45.464928
 21
154.832857
 31
0.0
 11
45.973254
 21
154.648310
 31
0.0
 11
46.387236
 21
154.300363
 31
0.0
 11
46.653759
 21
153.838732
 31
0.0
 11
46.748094
 21
153.306240
 31
0.0
 11
46.653759
 21
152.773744
 31
0.0
 11
46.387236
 21
152.312110
 31
0.0
 11
45.973254
 21
151.964168
 31
0.0
 11
45.464928
 21
151.779616
 31
0.0
 11
44.931881
 21
151.779616
 31
0.0
 11
44.423563
 21
151.964168
 31
0.0
 11
44.009575
 21
152.312110
 31
0.0
 11
43.743051
 21
152.773744
 31
0.0
 11
43.648715
 21
153.306240
 31
0.0
  0
SPLINE
  5
10e
100
AcDbEntity
  8
0
 62
1
100
AcDbSpline
 70
0
 71
3
 72
25
 73
21
 74
19
 40
0.000000
 40
0.000000
 40
0.000000
 40
0.000000
 40
0.558228
 40
1.108467
 40
1.666694
 40
2.224933
 40
2.775177
 40
3.333416
 40
3.891643
 40
4.441883
 40
5.000110
 40
5.558342
 40
6.108587
 40
6.666815
 40
7.225052
 40
7.775296
 40
8.333533
 40
8.891761
 40
9.442005
 40
10.000237
 40
10.000237
 40
10.000237
 40
10.000237
 10
287.809734
 20
153.306240
 30
0.0
 10
287.828847
 20
153.493265
 30
0.0
 10
287.866801
 20
153.864639
 30
0.0
 10
288.161250
 20
154.355411
 30
0.0
 10
288.592365
 20
154.720300
 30
0.0
 10
289.126232
 20
154.913819
 30
0.0
 10
289.692726
 20
154.913819
 30
0.0
 10
290.225845
 20
154.720300
 30
0.0
 10
290.659945
 20
154.355411
 30
0.0
 10
290.943302
 20
153.864639
 30
0.0
 10
291.042239
 20
153.306239
 30
0.0
 10
290.943302
 20
152.747837
 30
0.0
 10
290.659946
 20
152.257061
 30
0.0
 10
290.225847
 20
151.892167
 30
0.0
 10
289.692724
 20
151.698657
 30
0.0
 10
289.126234
 20
151.698657
 30
0.0
 10
288.592363
 20
151.892167
 30
0.0
 10
288.161249
 20
152.257061
 30
0.0
 10
287.866801
 20
152.747837
 30
0.0
 10
287.828847
 20
153.119214
 30
0.0
 10
287.809734
 20
153.306240
 30
0.0
 11
287.809734
 21
153.306240
 31
0.0
 11
287.907114
 21
153.855908
 31
0.0
 11
288.182235
 21
154.332429
 31
0.0
 11
288.609569
 21
154.691599
 31
0.0
 11
289.134296
 21
154.882106
 31
0.0
 11
289.684540
 21
154.882106
 31
0.0
 11
290.209266
 21
154.691599
 31
0.0
 11
290.636600
 21
154.332429
 31
0.0
 11
290.911722
 21
153.855908
 31
0.0
 11
291.009102
 21
153.306240
 31
0.0
 11
290.911722
 21
152.756567
 31
0.0
 11
290.636600
 21
152.280041
 31
0.0
 11
290.209266
 21
151.920869
 31
0.0
 11
289.684540
 21
151.730369
 31
0.0
 11
289.134296
 21
151.730369
 31
0.0
 11
288.609569
 21
151.920869
 31
0.0
 11
288.182235
 21
152.280041
 31
0.0
 11
287.907114
 21
152.756567
 31
0.0
 11
287.809734
 21
153.306240
 31
0.0
  0
SPLINE
  5
10f
100
AcDbEntity
  8
0
 62
1
100
AcDbSpline
 70
0
 71
3
 72
25
 73
21
 74
19
 40
0.000000
 40
0.000000
 40
0.000000
 40
0.000000
 40
0.540778
 40
1.073823
 40
1.614611
 40
2.155398
 40
2.688444
 40
3.229232
 40
3.770025
 40
4.303076
 40
4.843856
 40
5.384637
 40
5.917688
 40
6.458481
 40
6.999271
 40
7.532317
 40
8.073107
 40
8.613895
 40
9.146940
 40
9.687720
 40
9.687720
 40
9.687720
 40
9.687720
 10
165.754241
 20
153.306240
 30
0.0
 10
165.772756
 20
153.487419
 30
0.0
 10
165.809521
 20
153.847185
 30
0.0
 10
166.094759
 20
154.322628
 30
0.0
 10
166.512404
 20
154.676111
 30
0.0
 10
167.029585
 20
154.863586
 30
0.0
 10
167.578371
 20
154.863586
 30
0.0
 10
168.094828
 20
154.676109
 30
0.0
 10
168.515370
 20
154.322627
 30
0.0
 10
168.789877
 20
153.847188
 30
0.0
 10
168.885726
 20
153.306239
 30
0.0
 10
168.789877
 20
152.765291
 30
0.0
 10
168.515371
 20
152.289851
 30
0.0
 10
168.094827
 20
151.936370
 30
0.0
 10
167.578373
 20
151.748884
 30
0.0
 10
167.029583
 20
151.748884
 30
0.0
 10
166.512406
 20
151.936369
 30
0.0
 10
166.094758
 20
152.289850
 30
0.0
 10
165.809521
 20
152.765294
 30
0.0
 10
165.772756
 20
153.125061
 30
0.0
 10
165.754241
 20
153.306240
 30
0.0
 11
165.754241
 21
153.306240
 31
0.0
 11
165.848573
 21
153.838727
 31
0.0
 11
166.115089
 21
154.300361
 31
0.0
 11
166.529073
 21
154.648310
 31
0.0
 11
167.037395
 21
154.832863
 31
0.0
 11
167.570442
 21
154.832863
 31
0.0
 11
168.078764
 21
154.648310
 31
0.0
 11
168.492755
 21
154.300361
 31
0.0
 11
168.759284
 21
153.838727
 31
0.0
 11
168.853623
 21
153.306240
 31
0.0
 11
168.759284
 21
152.773751
 31
0.0
 11
168.492755
 21
152.312117
 31
0.0
 11
168.078764
 21
151.964168
 31
0.0
 11
167.570442
 21
151.779609
 31
0.0
 11
167.037395
 21
151.779609
 31
0.0
 11
166.529073
 21
151.964168
 31
0.0
 11
166.115089
 21
152.312117
 31
0.0
 11
165.848573
 21
152.773751
 31
0.0
 11
165.754241
 21
153.306240
 31
0.0
  0
SPLINE
  5
110
100
AcDbEntity
  8
0
 62
1
100
AcDbSpline
 70
0
 71
3
 72
25
 73
21
 74
19
 40
0.000000
 40
0.000000
 40
0.000000
 40
0.000000
 40
0.540794
 40
1.073839
 40
1.614628
 40
2.155408
 40
2.688455
 40
3.229236
 40
3.770024
 40
4.303069
 40
4.843863
 40
5.384637
 40
5.917677
 40
6.458473
 40
6.999256
 40
7.532302
 40
8.073084
 40
8.613880
 40
9.146920
 40
9.687694
 40
9.687694
 40
9.687694
 40
9.687694
 10
1136.133904
 20
-88.147980
 30
0.0
 10
1136.152418
 20
-87.966796
 30
0.0
 10
1136.189181
 20
-87.607023
 30
0.0
 10
1136.474423
 20
-87.131578
 30
0.0
 10
1136.892062
 20
-86.778086
 30
0.0
 10
1137.409253
 20
-86.590641
 30
0.0
 10
1137.958029
 20
-86.590641
 30
0.0
 10
1138.474495
 20
-86.778086
 30
0.0
 10
1138.895027
 20
-87.131578
 30
0.0
 10
1139.169523
 20
-87.607023
 30
0.0
 10
1139.265357
 20
-88.147973
 30
0.0
 10
1139.169522
 20
-88.688922
 30
0.0
 10
1138.895021
 20
-89.164357
 30
0.0
 10
1138.474498
 20
-89.517859
 30
0.0
 10
1137.958030
 20
-89.705310
 30
0.0
 10
1137.409252
 20
-89.705310
 30
0.0
 10
1136.892059
 20
-89.517859
 30
0.0
 10
1136.474428
 20
-89.164357
 30
0.0
 10
1136.189183
 20
-88.688922
 30
0.0
 10
1136.152419
 20
-88.329158
 30
0.0
 10
1136.133904
 20
-88.147980
 30
0.0
 11
1136.133904
 21
-88.147980
 31
0.0
 11
1136.228236
 21
-87.615477
 31
0.0
 11
1136.494752
 21
-87.153843
 31
0.0
 11
1136.908736
 21
-86.805892
 31
0.0
 11
1137.417058
 21
-86.621359
 31
0.0
 11
1137.950105
 21
-86.621359
 31
0.0
 11
1138.458427
 21
-86.805892
 31
0.0
 11
1138.872411
 21
-87.153843
 31
0.0
 11
1139.138927
 21
-87.615477
 31
0.0
 11
1139.233259
 21
-88.147980
 31
0.0
 11
1139.138927
 21
-88.680463
 31
0.0
 11
1138.872411
 21
-89.142091
 31
0.0
 11
1138.458427
 21
-89.490053
 31
0.0
 11
1137.950105
 21
-89.674591
 31
0.0
 11
1137.417058
 21
-89.674591
 31
0.0
 11
1136.908736
 21
-89.490053
 31
0.0
 11
1136.494752
 21
-89.142091
 31
0.0
 11
1136.228236
 21
-88.680463
 31
0.0
 11
1136.133904
 21
-88.147980
 31
0.0
  0
SPLINE
  5
111
100
AcDbEntity
  8
0
 62
1
100
AcDbSpline
 70
0
 71
3
 72
25
 73
21
 74
19
 40
0.000000
 40
0.000000
 40
0.000000
 40
0.000000
 40
0.540777
 40
1.073816
 40
1.614602
 40
2.155389
 40
2.688436
 40
3.229223
 40
3.770014
 40
4.303059
 40
4.843837
 40
5.384618
 40
5.917669
 40
6.458463
 40
6.999257
 40
7.532303
 40
8.073098
 40
8.613887
 40
9.146932
 40
9.687712
 40
9.687712
 40
9.687712
 40
9.687712
 10
1014.028404
 20
-88.147980
 30
0.0
 10
1014.046919
 20
-87.966802
 30
0.0
 10
1014.083683
 20
-87.607037
 30
0.0
 10
1014.368924
 20
-87.131599
 30
0.0
 10
1014.786569
 20
-86.778120
 30
0.0
 10
1015.303749
 20
-86.590646
 30
0.0
 10
1015.852535
 20
-86.590646
 30
0.0
 10
1016.368991
 20
-86.778122
 30
0.0
 10
1016.789533
 20
-87.131600
 30
0.0
 10
1017.064041
 20
-87.607035
 30
0.0
 10
1017.159888
 20
-88.147981
 30
0.0
 10
1017.064040
 20
-88.688929
 30
0.0
 10
1016.789534
 20
-89.164370
 30
0.0
 10
1016.368988
 20
-89.517848
 30
0.0
 10
1015.852541
 20
-89.705354
 30
0.0
 10
1015.303743
 20
-89.705354
 30
0.0
 10
1014.786572
 20
-89.517849
 30
0.0
 10
1014.368922
 20
-89.164371
 30
0.0
 10
1014.083684
 20
-88.688926
 30
0.0
 10
1014.046919
 20
-88.329159
 30
0.0
 10
1014.028404
 20
-88.147980
 30
0.0
 11
1014.028404
 21
-88.147980
 31
0.0
 11
1014.122736
 21
-87.615495
 31
0.0
 11
1014.389253
 21
-87.153867
 31
0.0
 11
1014.803237
 21
-86.805921
 31
0.0
 11
1015.311559
 21
-86.621369
 31
0.0
 11
1015.844606
 21
-86.621369
 31
0.0
 11
1016.352928
 21
-86.805921
 31
0.0
 11
1016.766918
 21
-87.153867
 31
0.0
 11
1017.033447
 21
-87.615495
 31
0.0
 11
1017.127786
 21
-88.147980
 31
0.0
 11
1017.033447
 21
-88.680469
 31
0.0
 11
1016.766918
 21
-89.142102
 31
0.0
 11
1016.352928
 21
-89.490053
 31
0.0
 11
1015.844606
 21
-89.674626
 31
0.0
 11
1015.311559
 21
-89.674626
 31
0.0
 11
1014.803237
 21
-89.490053
 31
0.0
 11
1014.389253
 21
-89.142102
 31
0.0
 11
1014.122736
 21
-88.680469
 31
0.0
 11
1014.028404
 21
-88.147980
 31
0.0
  0
SPLINE
  5
112
100
AcDbEntity
  8
0
 62
1
100
AcDbSpline
 70
0
 71
3
 72
25
 73
21
 74
19
 40
0.000000
 40
0.000000
 40
0.000000
 40
0.000000
 40
0.563833
 40
1.119570
 40
1.683383
 40
2.247202
 40
2.802941
 40
3.366762
 40
3.930585
 40
4.486327
 40
5.050156
 40
5.614011
 40
6.169758
 40
6.733584
 40
7.297416
 40
7.853170
 40
8.417009
 40
8.980847
 40
9.536601
 40
10.100449
 40
10.100449
 40
10.100449
 40
10.100449
 10
891.858397
 20
-88.147980
 30
0.0
 10
891.877453
 20
-87.959049
 30
0.0
 10
891.915290
 20
-87.583901
 30
0.0
 10
892.212190
 20
-87.087885
 30
0.0
 10
892.647387
 20
-86.719043
 30
0.0
 10
893.186552
 20
-86.523413
 30
0.0
 10
893.758724
 20
-86.523412
 30
0.0
 10
894.297146
 20
-86.719045
 30
0.0
 10
894.735326
 20
-87.087884
 30
0.0
 10
895.021195
 20
-87.583895
 30
0.0
 10
895.119783
 20
-88.147991
 30
0.0
 10
895.021170
 20
-88.712078
 30
0.0
 10
894.735338
 20
-89.208118
 30
0.0
 10
894.297166
 20
-89.576983
 30
0.0
 10
893.758728
 20
-89.772610
 30
0.0
 10
893.186543
 20
-89.772610
 30
0.0
 10
892.647355
 20
-89.576981
 30
0.0
 10
892.212148
 20
-89.208120
 30
0.0
 10
891.915231
 20
-88.712086
 30
0.0
 10
891.877433
 20
-88.336919
 30
0.0
 10
891.858397
 20
-88.147980
 30
0.0
 11
891.858397
 21
-88.147980
 31
0.0
 11
891.956049
 21
-87.592667
 31
0.0
 11
892.233429
 21
-87.111105
 31
0.0
 11
892.664797
 21
-86.748051
 31
0.0
 11
893.194708
 21
-86.555472
 31
0.0
 11
893.750446
 21
-86.555472
 31
0.0
 11
894.280358
 21
-86.748051
 31
0.0
 11
894.711738
 21
-87.111105
 31
0.0
 11
894.989131
 21
-87.592667
 31
0.0
 11
895.086758
 21
-88.147980
 31
0.0
 11
894.989114
 21
-88.703316
 31
0.0
 11
894.711744
 21
-89.184898
 31
0.0
 11
894.280377
 21
-89.547970
 31
0.0
 11
893.750453
 21
-89.740551
 31
0.0
 11
893.194699
 21
-89.740551
 31
0.0
 11
892.664768
 21
-89.547970
 31
0.0
 11
892.233385
 21
-89.184898
 31
0.0
 11
891.956002
 21
-88.703316
 31
0.0
 11
891.858397
 21
-88.147980
 31
0.0
  0
SPLINE
  5
113
100
AcDbEntity
  8
0
 62
1
100
AcDbSpline
 70
0
 71
3
 72
25
 73
21
 74
19
 40
0.000000
 40
0.000000
 40
0.000000
 40
0.000000
 40
0.540784
 40
1.073830
 40
1.614619
 40
2.155401
 40
2.688448
 40
3.229237
 40
3.770022
 40
4.303067
 40
4.843851
 40
5.384638
 40
5.917686
 40
6.458469
 40
6.999259
 40
7.532306
 40
8.073090
 40
8.613876
 40
9.146925
 40
9.687713
 40
9.687713
 40
9.687713
 40
9.687713
 10
891.922879
 20
34.327457
 30
0.0
 10
891.941395
 20
34.508638
 30
0.0
 10
891.978161
 20
34.868407
 30
0.0
 10
892.263410
 20
35.343846
 30
0.0
 10
892.681056
 20
35.697327
 30
0.0
 10
893.198237
 20
35.884797
 30
0.0
 10
893.747021
 20
35.884795
 30
0.0
 10
894.263481
 20
35.697331
 30
0.0
 10
894.684016
 20
35.343845
 30
0.0
 10
894.958517
 20
34.868407
 30
0.0
 10
895.054358
 20
34.327456
 30
0.0
 10
894.958516
 20
33.786505
 30
0.0
 10
894.684019
 20
33.311062
 30
0.0
 10
894.263478
 20
32.957582
 30
0.0
 10
893.747023
 20
32.770110
 30
0.0
 10
893.198236
 20
32.770108
 30
0.0
 10
892.681059
 20
32.957586
 30
0.0
 10
892.263407
 20
33.311060
 30
0.0
 10
891.978161
 20
33.786504
 30
0.0
 10
891.941395
 20
34.146275
 30
0.0
 10
891.922879
 20
34.327457
 30
0.0
 11
891.922879
 21
34.327457
 31
0.0
 11
892.017215
 21
34.859949
 31
0.0
 11
892.283739
 21
35.321580
 31
0.0
 11
892.697727
 21
35.669527
 31
0.0
 11
893.206045
 21
35.854074
 31
0.0
 11
893.739092
 21
35.854074
 31
0.0
 11
894.247418
 21
35.669527
 31
0.0
 11
894.661400
 21
35.321580
 31
0.0
 11
894.927922
 21
34.859949
 31
0.0
 11
895.022258
 21
34.327457
 31
0.0
 11
894.927922
 21
33.794961
 31
0.0
 11
894.661400
 21
33.333327
 31
0.0
 11
894.247418
 21
32.985384
 31
0.0
 11
893.739092
 21
32.800832
 31
0.0
 11
893.206045
 21
32.800832
 31
0.0
 11
892.697727
 21
32.985384
 31
0.0
 11
892.283739
 21
33.333327
 31
0.0
 11
892.017215
 21
33.794961
 31
0.0
 11
891.922879
 21
34.327457
 31
0.0
  0
SPLINE
  5
114
100
AcDbEntity
  8
0
 62
1
100
AcDbSpline
 70
0
 71
3
 72
25
 73
21
 74
19
 40
0.000000
 40
0.000000
 40
0.000000
 40
0.000000
 40
0.558228
 40
1.108467
 40
1.666693
 40
2.224932
 40
2.775176
 40
3.333415
 40
3.891642
 40
4.441881
 40
5.000109
 40
5.558341
 40
6.108586
 40
6.666815
 40
7.225051
 40
7.775295
 40
8.333532
 40
8.891761
 40
9.442005
 40
10.000237
 40
10.000237
 40
10.000237
 40
10.000237
 10
1136.083898
 20
34.327457
 30
0.0
 10
1136.103011
 20
34.514482
 30
0.0
 10
1136.140965
 20
34.885856
 30
0.0
 10
1136.435414
 20
35.376628
 30
0.0
 10
1136.866530
 20
35.741515
 30
0.0
 10
1137.400396
 20
35.935036
 30
0.0
 10
1137.966890
 20
35.935036
 30
0.0
 10
1138.500008
 20
35.741515
 30
0.0
 10
1138.934109
 20
35.376628
 30
0.0
 10
1139.217466
 20
34.885856
 30
0.0
 10
1139.316403
 20
34.327455
 30
0.0
 10
1139.217466
 20
33.769054
 30
0.0
 10
1138.934110
 20
33.278277
 30
0.0
 10
1138.500011
 20
32.913383
 30
0.0
 10
1137.966888
 20
32.719873
 30
0.0
 10
1137.400398
 20
32.719873
 30
0.0
 10
1136.866527
 20
32.913383
 30
0.0
 10
1136.435414
 20
33.278277
 30
0.0
 10
1136.140965
 20
33.769054
 30
0.0
 10
1136.103011
 20
34.140431
 30
0.0
 10
1136.083898
 20
34.327457
 30
0.0
 11
1136.083898
 21
34.327457
 31
0.0
 11
1136.181278
 21
34.877125
 31
0.0
 11
1136.456399
 21
35.353645
 31
0.0
 11
1136.883733
 21
35.712815
 31
0.0
 11
1137.408459
 21
35.903322
 31
0.0
 11
1137.958703
 21
35.903322
 31
0.0
 11
1138.483430
 21
35.712815
 31
0.0
 11
1138.910764
 21
35.353645
 31
0.0
 11
1139.185885
 21
34.877125
 31
0.0
 11
1139.283266
 21
34.327457
 31
0.0
 11
1139.185885
 21
33.777784
 31
0.0
 11
1138.910764
 21
33.301258
 31
0.0
 11
1138.483430
 21
32.942085
 31
0.0
 11
1137.958703
 21
32.751585
 31
0.0
 11
1137.408459
 21
32.751585
 31
0.0
 11
1136.883733
 21
32.942085
 31
0.0
 11
1136.456399
 21
33.301258
 31
0.0
 11
1136.181278
 21
33.777784
 31
0.0
 11
1136.083898
 21
34.327457
 31
0.0
  0
LWPOLYLINE
  5
115
100
AcDbEntity
  8
0
 62
1
100
AcDbPolyline
 90
56
 70
1
 10
40.476726
 20
178.036515
 30
0.0
 10
37.476999
 20
178.036515
 30
0.0
 10
37.476999
 20
184.821876
 30
0.0
 10
297.117003
 20
184.822141
 30
0.0
 10
297.117003
 20
178.036780
 30
0.0
 10
294.116548
 20
178.036515
 30
0.0
 10
294.116548
 20
168.036509
 30
0.0
 10
297.117003
 20
168.036773
 30
0.0
 10
297.117003
 20
156.252081
 30
0.0
 10
294.116548
 20
156.251816
 30
0.0
 10
294.116548
 20
159.252009
 30
0.0
 10
272.296678
 20
159.252009
 30
0.0
 10
272.296678
 20
156.251816
 30
0.0
 10
262.296783
 20
156.251816
 30
0.0
 10
262.296783
 20
159.252009
 30
0.0
 10
252.296882
 20
159.252009
 30
0.0
 10
252.296882
 20
156.251816
 30
0.0
 10
242.296453
 20
156.251816
 30
0.0
 10
242.296453
 20
159.252009
 30
0.0
 10
232.296552
 20
159.252009
 30
0.0
 10
232.296552
 20
156.251816
 30
0.0
 10
222.296651
 20
156.251816
 30
0.0
 10
222.296651
 20
159.252009
 30
0.0
 10
212.296724
 20
159.252009
 30
0.0
 10
212.296724
 20
156.251816
 30
0.0
 10
202.296824
 20
156.251816
 30
0.0
 10
202.296824
 20
159.252009
 30
0.0
 10
192.296420
 20
159.252009
 30
0.0
 10
192.296420
 20
156.251816
 30
0.0
 10
182.296493
 20
156.251816
 30
0.0
 10
182.296493
 20
159.252009
 30
0.0
 10
152.296791
 20
159.252009
 30
0.0
 10
152.296791
 20
156.251816
 30
0.0
 10
142.296864
 20
156.251816
 30
0.0
 10
142.296864
 20
159.252009
 30
0.0
 10
132.296461
 20
159.252009
 30
0.0
 10
132.296461
 20
156.251816
 30
0.0
 10
122.296542
 20
156.251816
 30
0.0
 10
122.296542
 20
159.252009
 30
0.0
 10
112.296633
 20
159.252009
 30
0.0
 10
112.296633
 20
156.251816
 30
0.0
 10
102.296727
 20
156.251816
 30
0.0
 10
102.296727
 20
159.252009
 30
0.0
 10
92.296821
 20
159.252009
 30
0.0
 10
92.296821
 20
156.251816
 30
0.0
 10
82.296397
 20
156.251816
 30
0.0
 10
82.296397
 20
159.252009
 30
0.0
 10
72.296491
 20
159.252009
 30
0.0
 10
72.296491
 20
156.251816
 30
0.0
 10
62.296585
 20
156.251816
 30
0.0
 10
62.296585
 20
159.252009
 30
0.0
 10
40.476726
 20
159.252009
 30
0.0
 10
40.476726
 20
156.251816
 30
0.0
 10
37.476999
 20
156.251816
 30
0.0
 10
37.476999
 20
168.036509
 30
0.0
 10
40.476726
 20
168.036509
 30
0.0
  0
SPLINE
  5
116
100
AcDbEntity
  8
0
 62
1
100
AcDbSpline
 70
0
 71
3
 72
25
 73
21
 74
19
 40
0.000000
 40
0.000000
 40
0.000000
 40
0.000000
 40
0.540778
 40
1.073823
 40
1.614611
 40
2.155398
 40
2.688444
 40
3.229232
 40
3.770025
 40
4.303075
 40
4.843855
 40
5.384637
 40
5.917688
 40
6.458481
 40
6.999270
 40
7.532317
 40
8.073106
 40
8.613894
 40
9.146940
 40
9.687720
 40
9.687720
 40
9.687720
 40
9.687720
 10
1014.028404
 20
34.327457
 30
0.0
 10
1014.046919
 20
34.508636
 30
0.0
 10
1014.083684
 20
34.868402
 30
0.0
 10
1014.368923
 20
35.343844
 30
0.0
 10
1014.786568
 20
35.697328
 30
0.0
 10
1015.303749
 20
35.884802
 30
0.0
 10
1015.852535
 20
35.884802
 30
0.0
 10
1016.368992
 20
35.697326
 30
0.0
 10
1016.789534
 20
35.343844
 30
0.0
 10
1017.064040
 20
34.868405
 30
0.0
 10
1017.159888
 20
34.327456
 30
0.0
 10
1017.064040
 20
33.786507
 30
0.0
 10
1016.789535
 20
33.311067
 30
0.0
 10
1016.368991
 20
32.957586
 30
0.0
 10
1015.852537
 20
32.770101
 30
0.0
 10
1015.303747
 20
32.770101
 30
0.0
 10
1014.786570
 20
32.957585
 30
0.0
 10
1014.368922
 20
33.311066
 30
0.0
 10
1014.083684
 20
33.786510
 30
0.0
 10
1014.046919
 20
34.146278
 30
0.0
 10
1014.028404
 20
34.327457
 30
0.0
 11
1014.028404
 21
34.327457
 31
0.0
 11
1014.122736
 21
34.859944
 31
0.0
 11
1014.389253
 21
35.321578
 31
0.0
 11
1014.803237
 21
35.669527
 31
0.0
 11
1015.311559
 21
35.854079
 31
0.0
 11
1015.844606
 21
35.854079
 31
0.0
 11
1016.352928
 21
35.669527
 31
0.0
 11
1016.766918
 21
35.321578
 31
0.0
 11
1017.033447
 21
34.859944
 31
0.0
 11
1017.127786
 21
34.327457
 31
0.0
 11
1017.033447
 21
33.794967
 31
0.0
 11
1016.766918
 21
33.333333
 31
0.0
 11
1016.352928
 21
32.985384
 31
0.0
 11
1015.844606
 21
32.800825
 31
0.0
 11
1015.311559
 21
32.800825
 31
0.0
 11
1014.803237
 21
32.985384
 31
0.0
 11
1014.389253
 21
33.333333
 31
0.0
 11
1014.122736
 21
33.794967
 31
0.0
 11
1014.028404
 21
34.327457
 31
0.0
  0
SPLINE
  5
117
100
AcDbEntity
  8
0
 62
1
100
AcDbSpline
 70
0
 71
3
 72
25
 73
21
 74
19
 40
0.000000
 40
0.000000
 40
0.000000
 40
0.000000
 40
0.540785
 40
1.073831
 40
1.614620
 40
2.155402
 40
2.688450
 40
3.229239
 40
3.770024
 40
4.303069
 40
4.843853
 40
5.384639
 40
5.917687
 40
6.458469
 40
6.999259
 40
7.532307
 40
8.073091
 40
8.613877
 40
9.146925
 40
9.687711
 40
9.687711
 40
9.687711
 40
9.687711
 10
28.547022
 20
177.472882
 30
0.0
 10
28.565538
 20
177.654064
 30
0.0
 10
28.602304
 20
178.013833
 30
0.0
 10
28.887553
 20
178.489273
 30
0.0
 10
29.305200
 20
178.842752
 30
0.0
 10
29.822380
 20
179.030224
 30
0.0
 10
30.371166
 20
179.030223
 30
0.0
 10
30.887624
 20
178.842755
 30
0.0
 10
31.308161
 20
178.489271
 30
0.0
 10
31.582661
 20
178.013833
 30
0.0
 10
31.678503
 20
177.472882
 30
0.0
 10
31.582660
 20
176.931931
 30
0.0
 10
31.308163
 20
176.456490
 30
0.0
 10
30.887622
 20
176.103011
 30
0.0
 10
30.371167
 20
175.915538
 30
0.0
 10
29.822379
 20
175.915536
 30
0.0
 10
29.305203
 20
176.103015
 30
0.0
 10
28.887551
 20
176.456488
 30
0.0
 10
28.602305
 20
176.931931
 30
0.0
 10
28.565538
 20
177.291701
 30
0.0
 10
28.547022
 20
177.472882
 30
0.0
 11
28.547022
 21
177.472882
 31
0.0
 11
28.641358
 21
178.005376
 31
0.0
 11
28.907882
 21
178.467006
 31
0.0
 11
29.321870
 21
178.814952
 31
0.0
 11
29.830189
 21
178.999501
 31
0.0
 11
30.363237
 21
178.999501
 31
0.0
 11
30.871562
 21
178.814952
 31
0.0
 11
31.285544
 21
178.467006
 31
0.0
 11
31.552067
 21
178.005376
 31
0.0
 11
31.646402
 21
177.472882
 31
0.0
 11
31.552067
 21
176.940388
 31
0.0
 11
31.285544
 21
176.478755
 31
0.0
 11
30.871562
 21
176.130813
 31
0.0
 11
30.363237
 21
175.946260
 31
0.0
 11
29.830189
 21
175.946260
 31
0.0
 11
29.321870
 21
176.130813
 31
0.0
 11
28.907882
 21
176.478755
 31
0.0
 11
28.641358
 21
176.940388
 31
0.0
 11
28.547022
 21
177.472882
 31
0.0
  0
SPLINE
  5
118
100
AcDbEntity
  8
0
 62
1
100
AcDbSpline
 70
0
 71
3
 72
25
 73
21
 74
19
 40
0.000000
 40
0.000000
 40
0.000000
 40
0.000000
 40
1.460119
 40
2.899343
 40
4.359473
 40
5.819586
 40
7.258815
 40
8.718946
 40
10.179065
 40
11.618285
 40
13.078404
 40
14.538527
 40
15.977754
 40
17.437865
 40
18.898000
 40
20.337229
 40
21.797345
 40
23.257468
 40
24.696698
 40
26.156821
 40
26.156821
 40
26.156821
 40
26.156821
 10
25.912548
 20
177.472886
 30
0.0
 10
25.962540
 20
177.962075
 30
0.0
 10
26.061809
 20
178.933452
 30
0.0
 10
26.831982
 20
180.217140
 30
0.0
 10
27.959629
 20
181.171533
 30
0.0
 10
29.356016
 20
181.677709
 30
0.0
 10
30.837735
 20
181.677705
 30
0.0
 10
32.232174
 20
181.171543
 30
0.0
 10
33.367622
 20
180.217135
 30
0.0
 10
34.108773
 20
178.933452
 30
0.0
 10
34.367546
 20
177.472885
 30
0.0
 10
34.108771
 20
176.012318
 30
0.0
 10
33.367628
 20
174.728626
 30
0.0
 10
32.232168
 20
173.774233
 30
0.0
 10
30.837738
 20
173.268056
 30
0.0
 10
29.356012
 20
173.268051
 30
0.0
 10
27.959636
 20
173.774243
 30
0.0
 10
26.831975
 20
174.728622
 30
0.0
 10
26.061811
 20
176.012317
 30
0.0
 10
25.962541
 20
176.983697
 30
0.0
 10
25.912548
 20
177.472886
 30
0.0
 11
25.912548
 21
177.472886
 31
0.0
 11
26.167255
 21
178.910618
 31
0.0
 11
26.886871
 21
180.157020
 31
0.0
 11
28.004638
 21
181.096475
 31
0.0
 11
29.377098
 21
181.594756
 31
0.0
 11
30.816327
 21
181.594756
 31
0.0
 11
32.188806
 21
181.096475
 31
0.0
 11
33.306558
 21
180.157020
 31
0.0
 11
34.026169
 21
178.910618
 31
0.0
 11
34.280875
 21
177.472886
 31
0.0
 11
34.026169
 21
176.035151
 31
0.0
 11
33.306558
 21
174.788742
 31
0.0
 11
32.188806
 21
173.849298
 31
0.0
 11
30.816327
 21
173.351007
 31
0.0
 11
29.377098
 21
173.351007
 31
0.0
 11
28.004638
 21
173.849298
 31
0.0
 11
26.886871
 21
174.788742
 31
0.0
 11
26.167255
 21
176.035151
 31
0.0
 11
25.912548
 21
177.472886
 31
0.0
  0
SPLINE
  5
119
100
AcDbEntity
  8
0
 62
1
100
AcDbSpline
 70
0
 71
3
 72
25
 73
21
 74
19
 40
0.000000
 40
0.000000
 40
0.000000
 40
0.000000
 40
0.540785
 40
1.073831
 40
1.614620
 40
2.155402
 40
2.688450
 40
3.229239
 40
3.770024
 40
4.303069
 40
4.843853
 40
5.384639
 40
5.917687
 40
6.458469
 40
6.999259
 40
7.532307
 40
8.073091
 40
8.613877
 40
9.146925
 40
9.687711
 40
9.687711
 40
9.687711
 40
9.687711
 10
28.181773
 20
165.961340
 30
0.0
 10
28.200288
 20
166.142521
 30
0.0
 10
28.237055
 20
166.502290
 30
0.0
 10
28.522304
 20
166.977730
 30
0.0
 10
28.939951
 20
167.331209
 30
0.0
 10
29.457131
 20
167.518682
 30
0.0
 10
30.005916
 20
167.518680
 30
0.0
 10
30.522375
 20
167.331213
 30
0.0
 10
30.942911
 20
166.977728
 30
0.0
 10
31.217412
 20
166.502290
 30
0.0
 10
31.313254
 20
165.961339
 30
0.0
 10
31.217411
 20
165.420389
 30
0.0
 10
30.942914
 20
164.944947
 30
0.0
 10
30.522373
 20
164.591468
 30
0.0
 10
30.005917
 20
164.403995
 30
0.0
 10
29.457130
 20
164.403994
 30
0.0
 10
28.939953
 20
164.591472
 30
0.0
 10
28.522301
 20
164.944946
 30
0.0
 10
28.237055
 20
165.420388
 30
0.0
 10
28.200289
 20
165.780159
 30
0.0
 10
28.181773
 20
165.961340
 30
0.0
 11
28.181773
 21
165.961340
 31
0.0
 11
28.276109
 21
166.493833
 31
0.0
 11
28.542633
 21
166.955463
 31
0.0
 11
28.956621
 21
167.303410
 31
0.0
 11
29.464939
 21
167.487958
 31
0.0
 11
29.997987
 21
167.487958
 31
0.0
 11
30.506313
 21
167.303410
 31
0.0
 11
30.920295
 21
166.955463
 31
0.0
 11
31.186817
 21
166.493833
 31
0.0
 11
31.281153
 21
165.961340
 31
0.0
 11
31.186817
 21
165.428846
 31
0.0
 11
30.920295
 21
164.967212
 31
0.0
 11
30.506313
 21
164.619270
 31
0.0
 11
29.997987
 21
164.434718
 31
0.0
 11
29.464939
 21
164.434718
 31
0.0
 11
28.956621
 21
164.619270
 31
0.0
 11
28.542633
 21
164.967212
 31
0.0
 11
28.276109
 21
165.428846
 31
0.0
 11
28.181773
 21
165.961340
 31
0.0
  0
SPLINE
  5
11a
100
AcDbEntity
  8
0
 62
1
100
AcDbSpline
 70
0
 71
3
 72
25
 73
21
 74
19
 40
0.000000
 40
0.000000
 40
0.000000
 40
0.000000
 40
1.460119
 40
2.899343
 40
4.359473
 40
5.819586
 40
7.258815
 40
8.718946
 40
10.179065
 40
11.618285
 40
13.078404
 40
14.538527
 40
15.977754
 40
17.437865
 40
18.898000
 40
20.337229
 40
21.797345
 40
23.257468
 40
24.696698
 40
26.156821
 40
26.156821
 40
26.156821
 40
26.156821
 10
25.547299
 20
165.961344
 30
0.0
 10
25.597291
 20
166.450533
 30
0.0
 10
25.696560
 20
167.421910
 30
0.0
 10
26.466733
 20
168.705597
 30
0.0
 10
27.594380
 20
169.659991
 30
0.0
 10
28.990766
 20
170.166167
 30
0.0
 10
30.472486
 20
170.166162
 30
0.0
 10
31.866925
 20
169.660001
 30
0.0
 10
33.002372
 20
168.705593
 30
0.0
 10
33.743524
 20
167.421909
 30
0.0
 10
34.002297
 20
165.961342
 30
0.0
 10
33.743522
 20
164.500776
 30
0.0
 10
33.002379
 20
163.217084
 30
0.0
 10
31.866918
 20
162.262691
 30
0.0
 10
30.472489
 20
161.756513
 30
0.0
 10
28.990763
 20
161.756509
 30
0.0
 10
27.594386
 20
162.262701
 30
0.0
 10
26.466726
 20
163.217079
 30
0.0
 10
25.696562
 20
164.500775
 30
0.0
 10
25.597292
 20
165.472154
 30
0.0
 10
25.547299
 20
165.961344
 30
0.0
 11
25.547299
 21
165.961344
 31
0.0
 11
25.802006
 21
167.399076
 31
0.0
 11
26.521622
 21
168.645477
 31
0.0
 11
27.639389
 21
169.584933
 31
0.0
 11
29.011849
 21
170.083214
 31
0.0
 11
30.451078
 21
170.083214
 31
0.0
 11
31.823557
 21
169.584933
 31
0.0
 11
32.941309
 21
168.645477
 31
0.0
 11
33.660919
 21
167.399076
 31
0.0
 11
33.915625
 21
165.961344
 31
0.0
 11
33.660919
 21
164.523609
 31
0.0
 11
32.941309
 21
163.277199
 31
0.0
 11
31.823557
 21
162.337755
 31
0.0
 11
30.451078
 21
161.839464
 31
0.0
 11
29.011849
 21
161.839464
 31
0.0
 11
27.639389
 21
162.337755
 31
0.0
 11
26.521622
 21
163.277199
 31
0.0
 11
25.802006
 21
164.523609
 31
0.0
 11
25.547299
 21
165.961344
 31
0.0
  0
SPLINE
  5
11b
100
AcDbEntity
  8
0
 62
1
100
AcDbSpline
 70
0
 71
3
 72
25
 73
21
 74
19
 40
0.000000
 40
0.000000
 40
0.000000
 40
0.000000
 40
0.540785
 40
1.073831
 40
1.614620
 40
2.155402
 40
2.688450
 40
3.229239
 40
3.770024
 40
4.303069
 40
4.843853
 40
5.384639
 40
5.917687
 40
6.458469
 40
6.999259
 40
7.532307
 40
8.073091
 40
8.613877
 40
9.146925
 40
9.687711
 40
9.687711
 40
9.687711
 40
9.687711
 10
309.339752
 20
9.903426
 30
0.0
 10
309.358267
 20
10.084607
 30
0.0
 10
309.395034
 20
10.444376
 30
0.0
 10
309.680283
 20
10.919816
 30
0.0
 10
310.097930
 20
11.273295
 30
0.0
 10
310.615110
 20
11.460767
 30
0.0
 10
311.163895
 20
11.460766
 30
0.0
 10
311.680354
 20
11.273299
 30
0.0
 10
312.100890
 20
10.919814
 30
0.0
 10
312.375391
 20
10.444376
 30
0.0
 10
312.471233
 20
9.903425
 30
0.0
 10
312.375390
 20
9.362475
 30
0.0
 10
312.100893
 20
8.887033
 30
0.0
 10
311.680352
 20
8.533554
 30
0.0
 10
311.163896
 20
8.346081
 30
0.0
 10
310.615109
 20
8.346079
 30
0.0
 10
310.097932
 20
8.533558
 30
0.0
 10
309.680280
 20
8.887031
 30
0.0
 10
309.395034
 20
9.362474
 30
0.0
 10
309.358268
 20
9.722244
 30
0.0
 10
309.339752
 20
9.903426
 30
0.0
 11
309.339752
 21
9.903426
 31
0.0
 11
309.434088
 21
10.435919
 31
0.0
 11
309.700612
 21
10.897549
 31
0.0
 11
310.114600
 21
11.245495
 31
0.0
 11
310.622918
 21
11.430044
 31
0.0
 11
311.155966
 21
11.430044
 31
0.0
 11
311.664292
 21
11.245495
 31
0.0
 11
312.078274
 21
10.897549
 31
0.0
 11
312.344796
 21
10.435919
 31
0.0
 11
312.439132
 21
9.903426
 31
0.0
 11
312.344796
 21
9.370931
 31
0.0
 11
312.078274
 21
8.909298
 31
0.0
 11
311.664292
 21
8.561356
 31
0.0
 11
311.155966
 21
8.376804
 31
0.0
 11
310.622918
 21
8.376804
 31
0.0
 11
310.114600
 21
8.561356
 31
0.0
 11
309.700612
 21
8.909298
 31
0.0
 11
309.434088
 21
9.370931
 31
0.0
 11
309.339752
 21
9.903426
 31
0.0
  0
SPLINE
  5
11c
100
AcDbEntity
  8
0
 62
1
100
AcDbSpline
 70
0
 71
3
 72
25
 73
21
 74
19
 40
0.000000
 40
0.000000
 40
0.000000
 40
0.000000
 40
1.460119
 40
2.899343
 40
4.359473
 40
5.819586
 40
7.258815
 40
8.718946
 40
10.179065
 40
11.618285
 40
13.078404
 40
14.538527
 40
15.977754
 40
17.437865
 40
18.898000
 40
20.337229
 40
21.797345
 40
23.257468
 40
24.696698
 40
26.156821
 40
26.156821
 40
26.156821
 40
26.156821
 10
306.705278
 20
9.903430
 30
0.0
 10
306.755270
 20
10.392619
 30
0.0
 10
306.854539
 20
11.363996
 30
0.0
 10
307.624712
 20
12.647683
 30
0.0
 10
308.752359
 20
13.602077
 30
0.0
 10
310.148745
 20
14.108252
 30
0.0
 10
311.630465
 20
14.108248
 30
0.0
 10
313.024904
 20
13.602087
 30
0.0
 10
314.160351
 20
12.647678
 30
0.0
 10
314.901503
 20
11.363995
 30
0.0
 10
315.160276
 20
9.903428
 30
0.0
 10
314.901501
 20
8.442862
 30
0.0
 10
314.160358
 20
7.159170
 30
0.0
 10
313.024897
 20
6.204776
 30
0.0
 10
311.630468
 20
5.698599
 30
0.0
 10
310.148742
 20
5.698595
 30
0.0
 10
308.752365
 20
6.204786
 30
0.0
 10
307.624705
 20
7.159165
 30
0.0
 10
306.854541
 20
8.442861
 30
0.0
 10
306.755271
 20
9.414240
 30
0.0
 10
306.705278
 20
9.903430
 30
0.0
 11
306.705278
 21
9.903430
 31
0.0
 11
306.959985
 21
11.341161
 31
0.0
 11
307.679601
 21
12.587563
 31
0.0
 11
308.797368
 21
13.527018
 31
0.0
 11
310.169828
 21
14.025300
 31
0.0
 11
311.609057
 21
14.025300
 31
0.0
 11
312.981536
 21
13.527018
 31
0.0
 11
314.099288
 21
12.587563
 31
0.0
 11
314.818898
 21
11.341161
 31
0.0
 11
315.073604
 21
9.903430
 31
0.0
 11
314.818898
 21
8.465695
 31
0.0
 11
314.099288
 21
7.219285
 31
0.0
 11
312.981536
 21
6.279841
 31
0.0
 11
311.609057
 21
5.781550
 31
0.0
 11
310.169828
 21
5.781550
 31
0.0
 11
308.797368
 21
6.279841
 31
0.0
 11
307.679601
 21
7.219285
 31
0.0
 11
306.959985
 21
8.465695
 31
0.0
 11
306.705278
 21
9.903430
 31
0.0
  0
SPLINE
  5
11d
100
AcDbEntity
  8
0
 62
1
100
AcDbSpline
 70
0
 71
3
 72
25
 73
21
 74
19
 40
0.000000
 40
0.000000
 40
0.000000
 40
0.000000
 40
0.540785
 40
1.073831
 40
1.614620
 40
2.155402
 40
2.688450
 40
3.229239
 40
3.770024
 40
4.303069
 40
4.843853
 40
5.384639
 40
5.917687
 40
6.458469
 40
6.999259
 40
7.532307
 40
8.073091
 40
8.613877
 40
9.146925
 40
9.687711
 40
9.687711
 40
9.687711
 40
9.687711
 10
305.503796
 20
171.278237
 30
0.0
 10
305.522312
 20
171.459418
 30
0.0
 10
305.559078
 20
171.819187
 30
0.0
 10
305.844327
 20
172.294627
 30
0.0
 10
306.261974
 20
172.648106
 30
0.0
 10
306.779154
 20
172.835579
 30
0.0
 10
307.327940
 20
172.835577
 30
0.0
 10
307.844398
 20
172.648110
 30
0.0
 10
308.264935
 20
172.294625
 30
0.0
 10
308.539435
 20
171.819187
 30
0.0
 10
308.635277
 20
171.278236
 30
0.0
 10
308.539434
 20
170.737286
 30
0.0
 10
308.264937
 20
170.261844
 30
0.0
 10
307.844396
 20
169.908365
 30
0.0
 10
307.327941
 20
169.720892
 30
0.0
 10
306.779153
 20
169.720890
 30
0.0
 10
306.261977
 20
169.908369
 30
0.0
 10
305.844325
 20
170.261842
 30
0.0
 10
305.559079
 20
170.737285
 30
0.0
 10
305.522312
 20
171.097055
 30
0.0
 10
305.503796
 20
171.278237
 30
0.0
 11
305.503796
 21
171.278237
 31
0.0
 11
305.598132
 21
171.810730
 31
0.0
 11
305.864656
 21
172.272360
 31
0.0
 11
306.278644
 21
172.620307
 31
0.0
 11
306.786963
 21
172.804855
 31
0.0
 11
307.320011
 21
172.804855
 31
0.0
 11
307.828336
 21
172.620307
 31
0.0
 11
308.242318
 21
172.272360
 31
0.0
 11
308.508841
 21
171.810730
 31
0.0
 11
308.603176
 21
171.278237
 31
0.0
 11
308.508841
 21
170.745742
 31
0.0
 11
308.242318
 21
170.284109
 31
0.0
 11
307.828336
 21
169.936167
 31
0.0
 11
307.320011
 21
169.751615
 31
0.0
 11
306.786963
 21
169.751615
 31
0.0
 11
306.278644
 21
169.936167
 31
0.0
 11
305.864656
 21
170.284109
 31
0.0
 11
305.598132
 21
170.745742
 31
0.0
 11
305.503796
 21
171.278237
 31
0.0
  0
SPLINE
  5
11e
100
AcDbEntity
  8
0
 62
1
100
AcDbSpline
 70
0
 71
3
 72
25
 73
21
 74
19
 40
0.000000
 40
0.000000
 40
0.000000
 40
0.000000
 40
1.460119
 40
2.899343
 40
4.359473
 40
5.819586
 40
7.258815
 40
8.718946
 40
10.179065
 40
11.618285
 40
13.078404
 40
14.538527
 40
15.977754
 40
17.437865
 40
18.898000
 40
20.337229
 40
21.797345
 40
23.257468
 40
24.696698
 40
26.156821
 40
26.156821
 40
26.156821
 40
26.156821
 10
302.869322
 20
171.278241
 30
0.0
 10
302.919314
 20
171.767430
 30
0.0
 10
303.018583
 20
172.738807
 30
0.0
 10
303.788756
 20
174.022494
 30
0.0
 10
304.916403
 20
174.976888
 30
0.0
 10
306.312790
 20
175.483064
 30
0.0
 10
307.794509
 20
175.483059
 30
0.0
 10
309.188948
 20
174.976898
 30
0.0
 10
310.324396
 20
174.022489
 30
0.0
 10
311.065547
 20
172.738806
 30
0.0
 10
311.324320
 20
171.278239
 30
0.0
 10
311.065545
 20
169.817673
 30
0.0
 10
310.324402
 20
168.533981
 30
0.0
 10
309.188942
 20
167.579588
 30
0.0
 10
307.794512
 20
167.073410
 30
0.0
 10
306.312786
 20
167.073406
 30
0.0
 10
304.916410
 20
167.579597
 30
0.0
 10
303.788749
 20
168.533976
 30
0.0
 10
303.018585
 20
169.817672
 30
0.0
 10
302.919315
 20
170.789051
 30
0.0
 10
302.869322
 20
171.278241
 30
0.0
 11
302.869322
 21
171.278241
 31
0.0
 11
303.124029
 21
172.715973
 31
0.0
 11
303.843645
 21
173.962374
 31
0.0
 11
304.961412
 21
174.901829
 31
0.0
 11
306.333872
 21
175.400111
 31
0.0
 11
307.773101
 21
175.400111
 31
0.0
 11
309.145580
 21
174.901829
 31
0.0
 11
310.263332
 21
173.962374
 31
0.0
 11
310.982943
 21
172.715973
 31
0.0
 11
311.237649
 21
171.278241
 31
0.0
 11
310.982943
 21
169.840506
 31
0.0
 11
310.263332
 21
168.594096
 31
0.0
 11
309.145580
 21
167.654652
 31
0.0
 11
307.773101
 21
167.156361
 31
0.0
 11
306.333872
 21
167.156361
 31
0.0
 11
304.961412
 21
167.654652
 31
0.0
 11
303.843645
 21
168.594096
 31
0.0
 11
303.124029
 21
169.840506
 31
0.0
 11
302.869322
 21
171.278241
 31
0.0
  0
SPLINE
  5
11f
100
AcDbEntity
  8
0
 62
1
100
AcDbSpline
 70
0
 71
3
 72
25
 73
21
 74
19
 40
0.000000
 40
0.000000
 40
0.000000
 40
0.000000
 40
0.540785
 40
1.073831
 40
1.614620
 40
2.155402
 40
2.688450
 40
3.229239
 40
3.770024
 40
4.303069
 40
4.843853
 40
5.384639
 40
5.917687
 40
6.458469
 40
6.999259
 40
7.532307
 40
8.073091
 40
8.613877
 40
9.146925
 40
9.687711
 40
9.687711
 40
9.687711
 40
9.687711
 10
26.385413
 20
5.366255
 30
0.0
 10
26.403929
 20
5.547436
 30
0.0
 10
26.440695
 20
5.907206
 30
0.0
 10
26.725944
 20
6.382646
 30
0.0
 10
27.143591
 20
6.736125
 30
0.0
 10
27.660772
 20
6.923597
 30
0.0
 10
28.209557
 20
6.923595
 30
0.0
 10
28.726016
 20
6.736128
 30
0.0
 10
29.146552
 20
6.382644
 30
0.0
 10
29.421052
 20
5.907205
 30
0.0
 10
29.516894
 20
5.366255
 30
0.0
 10
29.421052
 20
4.825304
 30
0.0
 10
29.146554
 20
4.349863
 30
0.0
 10
28.726013
 20
3.996384
 30
0.0
 10
28.209558
 20
3.808911
 30
0.0
 10
27.660771
 20
3.808909
 30
0.0
 10
27.143594
 20
3.996388
 30
0.0
 10
26.725942
 20
4.349861
 30
0.0
 10
26.440696
 20
4.825304
 30
0.0
 10
26.403929
 20
5.185074
 30
0.0
 10
26.385413
 20
5.366255
 30
0.0
 11
26.385413
 21
5.366255
 31
0.0
 11
26.479749
 21
5.898749
 31
0.0
 11
26.746274
 21
6.360379
 31
0.0
 11
27.160262
 21
6.708325
 31
0.0
 11
27.668580
 21
6.892874
 31
0.0
 11
28.201628
 21
6.892874
 31
0.0
 11
28.709953
 21
6.708325
 31
0.0
 11
29.123936
 21
6.360379
 31
0.0
 11
29.390458
 21
5.898749
 31
0.0
 11
29.484794
 21
5.366255
 31
0.0
 11
29.390458
 21
4.833761
 31
0.0
 11
29.123936
 21
4.372128
 31
0.0
 11
28.709953
 21
4.024186
 31
0.0
 11
28.201628
 21
3.839633
 31
0.0
 11
27.668580
 21
3.839633
 31
0.0
 11
27.160262
 21
4.024186
 31
0.0
 11
26.746274
 21
4.372128
 31
0.0
 11
26.479749
 21
4.833761
 31
0.0
 11
26.385413
 21
5.366255
 31
0.0
  0
SPLINE
  5
120
100
AcDbEntity
  8
0
 62
1
100
AcDbSpline
 70
0
 71
3
 72
25
 73
21
 74
19
 40
0.000000
 40
0.000000
 40
0.000000
 40
0.000000
 40
1.460119
 40
2.899343
 40
4.359473
 40
5.819586
 40
7.258815
 40
8.718946
 40
10.179065
 40
11.618285
 40
13.078404
 40
14.538527
 40
15.977754
 40
17.437865
 40
18.898000
 40
20.337229
 40
21.797345
 40
23.257468
 40
24.696698
 40
26.156821
 40
26.156821
 40
26.156821
 40
26.156821
 10
23.750939
 20
5.366259
 30
0.0
 10
23.800932
 20
5.855448
 30
0.0
 10
23.900201
 20
6.826825
 30
0.0
 10
24.670373
 20
8.110513
 30
0.0
 10
25.798020
 20
9.064906
 30
0.0
 10
27.194407
 20
9.571082
 30
0.0
 10
28.676126
 20
9.571078
 30
0.0
 10
30.070566
 20
9.064916
 30
0.0
 10
31.206013
 20
8.110508
 30
0.0
 10
31.947165
 20
6.826825
 30
0.0
 10
32.205937
 20
5.366258
 30
0.0
 10
31.947163
 20
3.905691
 30
0.0
 10
31.206019
 20
2.621999
 30
0.0
 10
30.070559
 20
1.667606
 30
0.0
 10
28.676130
 20
1.161429
 30
0.0
 10
27.194404
 20
1.161424
 30
0.0
 10
25.798027
 20
1.667616
 30
0.0
 10
24.670367
 20
2.621995
 30
0.0
 10
23.900202
 20
3.905690
 30
0.0
 10
23.800932
 20
4.877070
 30
0.0
 10
23.750939
 20
5.366259
 30
0.0
 11
23.750939
 21
5.366259
 31
0.0
 11
24.005646
 21
6.803991
 31
0.0
 11
24.725262
 21
8.050393
 31
0.0
 11
25.843029
 21
8.989848
 31
0.0
 11
27.215489
 21
9.488129
 31
0.0
 11
28.654718
 21
9.488129
 31
0.0
 11
30.027197
 21
8.989848
 31
0.0
 11
31.144950
 21
8.050393
 31
0.0
 11
31.864560
 21
6.803991
 31
0.0
 11
32.119266
 21
5.366259
 31
0.0
 11
31.864560
 21
3.928524
 31
0.0
 11
31.144950
 21
2.682115
 31
0.0
 11
30.027197
 21
1.742671
 31
0.0
 11
28.654718
 21
1.244380
 31
0.0
 11
27.215489
 21
1.244380
 31
0.0
 11
25.843029
 21
1.742671
 31
0.0
 11
24.725262
 21
2.682115
 31
0.0
 11
24.005646
 21
3.928524
 31
0.0
 11
23.750939
 21
5.366259
 31
0.0
  0
SPLINE
  5
121
100
AcDbEntity
  8
0
 62
1
100
AcDbSpline
 70
0
 71
3
 72
25
 73
21
 74
19
 40
0.000000
 40
0.000000
 40
0.000000
 40
0.000000
 40
0.540785
 40
1.073831
 40
1.614620
 40
2.155402
 40
2.688450
 40
3.229239
 40
3.770024
 40
4.303069
 40
4.843853
 40
5.384639
 40
5.917687
 40
6.458469
 40
6.999259
 40
7.532307
 40
8.073091
 40
8.613877
 40
9.146925
 40
9.687711
 40
9.687711
 40
9.687711
 40
9.687711
 10
24.988154
 20
15.058903
 30
0.0
 10
25.006670
 20
15.240084
 30
0.0
 10
25.043436
 20
15.599854
 30
0.0
 10
25.328685
 20
16.075293
 30
0.0
 10
25.746332
 20
16.428773
 30
0.0
 10
26.263512
 20
16.616245
 30
0.0
 10
26.812297
 20
16.616243
 30
0.0
 10
27.328756
 20
16.428776
 30
0.0
 10
27.749292
 20
16.075292
 30
0.0
 10
28.023793
 20
15.599853
 30
0.0
 10
28.119635
 20
15.058903
 30
0.0
 10
28.023792
 20
14.517952
 30
0.0
 10
27.749295
 20
14.042511
 30
0.0
 10
27.328754
 20
13.689032
 30
0.0
 10
26.812299
 20
13.501559
 30
0.0
 10
26.263511
 20
13.501557
 30
0.0
 10
25.746335
 20
13.689035
 30
0.0
 10
25.328683
 20
14.042509
 30
0.0
 10
25.043437
 20
14.517952
 30
0.0
 10
25.006670
 20
14.877722
 30
0.0
 10
24.988154
 20
15.058903
 30
0.0
 11
24.988154
 21
15.058903
 31
0.0
 11
25.082490
 21
15.591397
 31
0.0
 11
25.349014
 21
16.053027
 31
0.0
 11
25.763002
 21
16.400973
 31
0.0
 11
26.271321
 21
16.585522
 31
0.0
 11
26.804369
 21
16.585522
 31
0.0
 11
27.312694
 21
16.400973
 31
0.0
 11
27.726676
 21
16.053027
 31
0.0
 11
27.993199
 21
15.591397
 31
0.0
 11
28.087534
 21
15.058903
 31
0.0
 11
27.993199
 21
14.526409
 31
0.0
 11
27.726676
 21
14.064776
 31
0.0
 11
27.312694
 21
13.716833
 31
0.0
 11
26.804369
 21
13.532281
 31
0.0
 11
26.271321
 21
13.532281
 31
0.0
 11
25.763002
 21
13.716833
 31
0.0
 11
25.349014
 21
14.064776
 31
0.0
 11
25.082490
 21
14.526409
 31
0.0
 11
24.988154
 21
15.058903
 31
0.0
  0
SPLINE
  5
122
100
AcDbEntity
  8
0
 62
1
100
AcDbSpline
 70
0
 71
3
 72
25
 73
21
 74
19
 40
0.000000
 40
0.000000
 40
0.000000
 40
0.000000
 40
1.460119
 40
2.899343
 40
4.359473
 40
5.819586
 40
7.258815
 40
8.718946
 40
10.179065
 40
11.618285
 40
13.078404
 40
14.538527
 40
15.977754
 40
17.437865
 40
18.898000
 40
20.337229
 40
21.797345
 40
23.257468
 40
24.696698
 40
26.156821
 40
26.156821
 40
26.156821
 40
26.156821
 10
22.353680
 20
15.058907
 30
0.0
 10
22.403672
 20
15.548096
 30
0.0
 10
22.502941
 20
16.519473
 30
0.0
 10
23.273114
 20
17.803161
 30
0.0
 10
24.400761
 20
18.757554
 30
0.0
 10
25.797148
 20
19.263730
 30
0.0
 10
27.278867
 20
19.263726
 30
0.0
 10
28.673306
 20
18.757564
 30
0.0
 10
29.808754
 20
17.803156
 30
0.0
 10
30.549905
 20
16.519473
 30
0.0
 10
30.808678
 20
15.058906
 30
0.0
 10
30.549903
 20
13.598339
 30
0.0
 10
29.808760
 20
12.314647
 30
0.0
 10
28.673300
 20
11.360254
 30
0.0
 10
27.278870
 20
10.854077
 30
0.0
 10
25.797144
 20
10.854072
 30
0.0
 10
24.400767
 20
11.360264
 30
0.0
 10
23.273107
 20
12.314643
 30
0.0
 10
22.502943
 20
13.598338
 30
0.0
 10
22.403673
 20
14.569718
 30
0.0
 10
22.353680
 20
15.058907
 30
0.0
 11
22.353680
 21
15.058907
 31
0.0
 11
22.608387
 21
16.496639
 31
0.0
 11
23.328003
 21
17.743041
 31
0.0
 11
24.445770
 21
18.682496
 31
0.0
 11
25.818230
 21
19.180777
 31
0.0
 11
27.257459
 21
19.180777
 31
0.0
 11
28.629938
 21
18.682496
 31
0.0
 11
29.747690
 21
17.743041
 31
0.0
 11
30.467301
 21
16.496639
 31
0.0
 11
30.722007
 21
15.058907
 31
0.0
 11
30.467301
 21
13.621172
 31
0.0
 11
29.747690
 21
12.374763
 31
0.0
 11
28.629938
 21
11.435319
 31
0.0
 11
27.257459
 21
10.937028
 31
0.0
 11
25.818230
 21
10.937028
 31
0.0
 11
24.445770
 21
11.435319
 31
0.0
 11
23.328003
 21
12.374763
 31
0.0
 11
22.608387
 21
13.621172
 31
0.0
 11
22.353680
 21
15.058907
 31
0.0
  0
LWPOLYLINE
  5
123
100
AcDbEntity
  8
0
 62
1
100
AcDbPolyline
 90
36
 70
1
 10
297.117003
 20
127.118355
 30
0.0
 10
294.116548
 20
127.118355
 30
0.0
 10
294.116548
 20
137.118261
 30
0.0
 10
297.117003
 20
137.118261
 30
0.0
 10
297.117003
 20
147.118164
 30
0.0
 10
294.116548
 20
147.118164
 30
0.0
 10
294.116548
 20
156.251816
 30
0.0
 10
305.901487
 20
156.251816
 30
0.0
 10
305.901487
 20
159.252009
 30
0.0
 10
315.901493
 20
159.252009
 30
0.0
 10
315.901493
 20
156.251816
 30
0.0
 10
322.685992
 20
156.251816
 30
0.0
 10
322.685992
 20
27.868268
 30
0.0
 10
315.901493
 20
27.868268
 30
0.0
 10
315.901493
 20
24.867998
 30
0.0
 10
305.901487
 20
24.867998
 30
0.0
 10
305.901487
 20
27.868268
 30
0.0
 10
294.116548
 20
27.868268
 30
0.0
 10
294.116548
 20
37.118164
 30
0.0
 10
297.117003
 20
37.118164
 30
0.0
 10
297.117003
 20
47.118068
 30
0.0
 10
294.116548
 20
47.118068
 30
0.0
 10
294.116548
 20
57.118492
 30
0.0
 10
297.117003
 20
57.118492
 30
0.0
 10
297.117003
 20
67.118401
 30
0.0
 10
294.116548
 20
67.118401
 30
0.0
 10
294.116548
 20
77.118304
 30
0.0
 10
297.117003
 20
77.118304
 30
0.0
 10
297.117003
 20
87.118210
 30
0.0
 10
294.116548
 20
87.118210
 30
0.0
 10
294.116548
 20
97.118116
 30
0.0
 10
297.117003
 20
97.118116
 30
0.0
 10
297.117003
 20
107.118543
 30
0.0
 10
294.116548
 20
107.118543
 30
0.0
 10
294.116548
 20
117.118449
 30
0.0
 10
297.117003
 20
117.118449
 30
0.0
  0
ENDSEC
  0
SECTION
  2
OBJECTS
  0
DICTIONARY
  5
C
330
0
100
AcDbDictionary
  3
ACAD_GROUP
350
D
  3
ACAD_MLINESTYLE
350
17
  0
DICTIONARY
  5
D
330
C
100
AcDbDictionary
  0
DICTIONARY
  5
1A
330
C
100
AcDbDictionary
  0
DICTIONARY
  5
17
330
C
100
AcDbDictionary
  3
STANDARD
350
18
  0
DICTIONARY
  5
19
330
C
100
AcDbDictionary
  0
ENDSEC
  0
EOF
